%TF.GenerationSoftware,KiCad,Pcbnew,7.0.11+dfsg-1build4*%
%TF.CreationDate,2024-07-23T19:21:24-07:00*%
%TF.ProjectId,6s_750mA,36735f37-3530-46d4-912e-6b696361645f,rev?*%
%TF.SameCoordinates,Original*%
%TF.FileFunction,Copper,L1,Top*%
%TF.FilePolarity,Positive*%
%FSLAX46Y46*%
G04 Gerber Fmt 4.6, Leading zero omitted, Abs format (unit mm)*
G04 Created by KiCad (PCBNEW 7.0.11+dfsg-1build4) date 2024-07-23 19:21:24*
%MOMM*%
%LPD*%
G01*
G04 APERTURE LIST*
G04 Aperture macros list*
%AMRoundRect*
0 Rectangle with rounded corners*
0 $1 Rounding radius*
0 $2 $3 $4 $5 $6 $7 $8 $9 X,Y pos of 4 corners*
0 Add a 4 corners polygon primitive as box body*
4,1,4,$2,$3,$4,$5,$6,$7,$8,$9,$2,$3,0*
0 Add four circle primitives for the rounded corners*
1,1,$1+$1,$2,$3*
1,1,$1+$1,$4,$5*
1,1,$1+$1,$6,$7*
1,1,$1+$1,$8,$9*
0 Add four rect primitives between the rounded corners*
20,1,$1+$1,$2,$3,$4,$5,0*
20,1,$1+$1,$4,$5,$6,$7,0*
20,1,$1+$1,$6,$7,$8,$9,0*
20,1,$1+$1,$8,$9,$2,$3,0*%
G04 Aperture macros list end*
%TA.AperFunction,SMDPad,CuDef*%
%ADD10RoundRect,0.200000X-0.275000X0.200000X-0.275000X-0.200000X0.275000X-0.200000X0.275000X0.200000X0*%
%TD*%
%TA.AperFunction,SMDPad,CuDef*%
%ADD11RoundRect,0.150000X0.512500X0.150000X-0.512500X0.150000X-0.512500X-0.150000X0.512500X-0.150000X0*%
%TD*%
%TA.AperFunction,SMDPad,CuDef*%
%ADD12R,0.711200X0.279400*%
%TD*%
%TA.AperFunction,SMDPad,CuDef*%
%ADD13R,0.990600X1.701800*%
%TD*%
%TA.AperFunction,SMDPad,CuDef*%
%ADD14RoundRect,0.200000X0.200000X0.275000X-0.200000X0.275000X-0.200000X-0.275000X0.200000X-0.275000X0*%
%TD*%
%TA.AperFunction,SMDPad,CuDef*%
%ADD15R,1.500000X1.000000*%
%TD*%
%TA.AperFunction,SMDPad,CuDef*%
%ADD16R,1.830000X1.090000*%
%TD*%
%TA.AperFunction,SMDPad,CuDef*%
%ADD17RoundRect,0.054500X-0.860500X-0.490500X0.860500X-0.490500X0.860500X0.490500X-0.860500X0.490500X0*%
%TD*%
%TA.AperFunction,SMDPad,CuDef*%
%ADD18RoundRect,0.250000X0.300000X0.300000X-0.300000X0.300000X-0.300000X-0.300000X0.300000X-0.300000X0*%
%TD*%
%TA.AperFunction,SMDPad,CuDef*%
%ADD19RoundRect,0.250000X0.250000X0.475000X-0.250000X0.475000X-0.250000X-0.475000X0.250000X-0.475000X0*%
%TD*%
%TA.AperFunction,ComponentPad*%
%ADD20RoundRect,0.250000X0.725000X-0.600000X0.725000X0.600000X-0.725000X0.600000X-0.725000X-0.600000X0*%
%TD*%
%TA.AperFunction,ComponentPad*%
%ADD21O,1.950000X1.700000*%
%TD*%
%TA.AperFunction,SMDPad,CuDef*%
%ADD22RoundRect,0.225000X0.225000X0.250000X-0.225000X0.250000X-0.225000X-0.250000X0.225000X-0.250000X0*%
%TD*%
%TA.AperFunction,SMDPad,CuDef*%
%ADD23RoundRect,0.250000X0.475000X-0.250000X0.475000X0.250000X-0.475000X0.250000X-0.475000X-0.250000X0*%
%TD*%
%TA.AperFunction,ComponentPad*%
%ADD24R,2.600000X2.600000*%
%TD*%
%TA.AperFunction,ComponentPad*%
%ADD25C,2.600000*%
%TD*%
%TA.AperFunction,ViaPad*%
%ADD26C,0.711200*%
%TD*%
%TA.AperFunction,Conductor*%
%ADD27C,0.635000*%
%TD*%
%TA.AperFunction,Conductor*%
%ADD28C,0.254000*%
%TD*%
%TA.AperFunction,Conductor*%
%ADD29C,0.203200*%
%TD*%
G04 APERTURE END LIST*
D10*
%TO.P,R3,1*%
%TO.N,Net-(U2-VSET)*%
X185420000Y-108395000D03*
%TO.P,R3,2*%
%TO.N,/charger0/Vo-*%
X185420000Y-110045000D03*
%TD*%
D11*
%TO.P,U9,1,D1*%
%TO.N,Net-(U9-D1)*%
X156077500Y-74610000D03*
%TO.P,U9,2,VCC*%
%TO.N,+5V*%
X156077500Y-73660000D03*
%TO.P,U9,3,D2*%
%TO.N,Net-(U9-D2)*%
X156077500Y-72710000D03*
%TO.P,U9,4,GND*%
%TO.N,GND*%
X153802500Y-72710000D03*
%TO.P,U9,5,EN*%
%TO.N,+5V*%
X153802500Y-73660000D03*
%TO.P,U9,6,CLK*%
%TO.N,unconnected-(U9-CLK-Pad6)*%
X153802500Y-74610000D03*
%TD*%
D12*
%TO.P,U12,1,IN*%
%TO.N,Net-(D16-K)*%
X181114700Y-62749811D03*
%TO.P,U12,2,ISET*%
%TO.N,Net-(U12-ISET)*%
X181114700Y-63249937D03*
%TO.P,U12,3,TS*%
%TO.N,Net-(U12-TS)*%
X181114700Y-63750063D03*
%TO.P,U12,4,GND*%
%TO.N,/charger5/Vo-*%
X181114700Y-64250189D03*
%TO.P,U12,5,STAT*%
%TO.N,/charger5/STAT*%
X183121300Y-64250189D03*
%TO.P,U12,6,PG*%
%TO.N,/charger5/PG*%
X183121300Y-63750063D03*
%TO.P,U12,7,VSET*%
%TO.N,Net-(U12-VSET)*%
X183121300Y-63249937D03*
%TO.P,U12,8,OUT*%
%TO.N,/charger4/Vo-*%
X183121300Y-62749811D03*
D13*
%TO.P,U12,9,EPAD*%
%TO.N,/charger5/Vo-*%
X182118000Y-63500000D03*
%TD*%
D14*
%TO.P,R29,1*%
%TO.N,/charger4/Vo-*%
X185483000Y-66548000D03*
%TO.P,R29,2*%
%TO.N,Net-(D18-A2)*%
X183833000Y-66548000D03*
%TD*%
D15*
%TO.P,D9,1,A1*%
%TO.N,Net-(D9-A1)*%
X181836000Y-95442000D03*
%TO.P,D9,2,A2*%
%TO.N,Net-(D9-A2)*%
X181836000Y-94042000D03*
%TO.P,D9,3,K1*%
%TO.N,/charger2/PG*%
X178336000Y-94042000D03*
%TO.P,D9,4,K2*%
%TO.N,/charger2/STAT*%
X178336000Y-95442000D03*
%TD*%
D16*
%TO.P,TR5,1*%
%TO.N,Net-(U9-D2)*%
X158718000Y-71120000D03*
D17*
%TO.P,TR5,2*%
%TO.N,+5V*%
X158718000Y-73660000D03*
%TO.P,TR5,3*%
%TO.N,Net-(U9-D1)*%
X158718000Y-76200000D03*
%TO.P,TR5,4*%
%TO.N,Net-(D13-A)*%
X169958000Y-76200000D03*
%TO.P,TR5,5*%
%TO.N,/charger4/Vo-*%
X169958000Y-73660000D03*
%TO.P,TR5,6*%
%TO.N,Net-(D14-A)*%
X169958000Y-71120000D03*
%TD*%
D18*
%TO.P,D17,1,K*%
%TO.N,Net-(D16-K)*%
X175136000Y-61214000D03*
%TO.P,D17,2,A*%
%TO.N,Net-(D17-A)*%
X172336000Y-61214000D03*
%TD*%
D19*
%TO.P,C6,1*%
%TO.N,Net-(D4-K)*%
X175194000Y-100330000D03*
%TO.P,C6,2*%
%TO.N,/charger1/Vo-*%
X173294000Y-100330000D03*
%TD*%
D20*
%TO.P,J2,1,Pin_1*%
%TO.N,/charger0/Vo+*%
X196342000Y-94876000D03*
D21*
%TO.P,J2,2,Pin_2*%
%TO.N,/charger0/Vo-*%
X196342000Y-92376000D03*
%TO.P,J2,3,Pin_3*%
%TO.N,/charger1/Vo-*%
X196342000Y-89876000D03*
%TO.P,J2,4,Pin_4*%
%TO.N,/charger2/Vo-*%
X196342000Y-87376000D03*
%TO.P,J2,5,Pin_5*%
%TO.N,/charger3/Vo-*%
X196342000Y-84876000D03*
%TO.P,J2,6,Pin_6*%
%TO.N,/charger4/Vo-*%
X196342000Y-82376000D03*
%TO.P,J2,7,Pin_7*%
%TO.N,/charger5/Vo-*%
X196342000Y-79876000D03*
%TD*%
D16*
%TO.P,TR2,1*%
%TO.N,Net-(U3-D2)*%
X158718000Y-98552000D03*
D17*
%TO.P,TR2,2*%
%TO.N,+5V*%
X158718000Y-101092000D03*
%TO.P,TR2,3*%
%TO.N,Net-(U3-D1)*%
X158718000Y-103632000D03*
%TO.P,TR2,4*%
%TO.N,Net-(D4-A)*%
X169958000Y-103632000D03*
%TO.P,TR2,5*%
%TO.N,/charger1/Vo-*%
X169958000Y-101092000D03*
%TO.P,TR2,6*%
%TO.N,Net-(D5-A)*%
X169958000Y-98552000D03*
%TD*%
D11*
%TO.P,U7,1,D1*%
%TO.N,Net-(U7-D1)*%
X156077500Y-83754000D03*
%TO.P,U7,2,VCC*%
%TO.N,+5V*%
X156077500Y-82804000D03*
%TO.P,U7,3,D2*%
%TO.N,Net-(U7-D2)*%
X156077500Y-81854000D03*
%TO.P,U7,4,GND*%
%TO.N,GND*%
X153802500Y-81854000D03*
%TO.P,U7,5,EN*%
%TO.N,+5V*%
X153802500Y-82804000D03*
%TO.P,U7,6,CLK*%
%TO.N,unconnected-(U7-CLK-Pad6)*%
X153802500Y-83754000D03*
%TD*%
D18*
%TO.P,D1,1,K*%
%TO.N,Net-(D1-K)*%
X175136000Y-113538000D03*
%TO.P,D1,2,A*%
%TO.N,Net-(D1-A)*%
X172336000Y-113538000D03*
%TD*%
D19*
%TO.P,C2,1*%
%TO.N,Net-(D1-K)*%
X175194000Y-109474000D03*
%TO.P,C2,2*%
%TO.N,/charger0/Vo-*%
X173294000Y-109474000D03*
%TD*%
D18*
%TO.P,D11,1,K*%
%TO.N,Net-(D10-K)*%
X175136000Y-79502000D03*
%TO.P,D11,2,A*%
%TO.N,Net-(D11-A)*%
X172336000Y-79502000D03*
%TD*%
D10*
%TO.P,R7,1*%
%TO.N,Net-(U4-TS)*%
X179070000Y-99251000D03*
%TO.P,R7,2*%
%TO.N,/charger1/Vo-*%
X179070000Y-100901000D03*
%TD*%
D22*
%TO.P,C15,1*%
%TO.N,Net-(D10-K)*%
X175019000Y-83820000D03*
%TO.P,C15,2*%
%TO.N,/charger3/Vo-*%
X173469000Y-83820000D03*
%TD*%
%TO.P,C4,1*%
%TO.N,/charger0/Vo+*%
X182893000Y-106680000D03*
%TO.P,C4,2*%
%TO.N,/charger0/Vo-*%
X181343000Y-106680000D03*
%TD*%
D10*
%TO.P,R13,1*%
%TO.N,Net-(U6-VSET)*%
X185420000Y-90107000D03*
%TO.P,R13,2*%
%TO.N,/charger2/Vo-*%
X185420000Y-91757000D03*
%TD*%
D12*
%TO.P,U8,1,IN*%
%TO.N,Net-(D10-K)*%
X181114700Y-81037811D03*
%TO.P,U8,2,ISET*%
%TO.N,Net-(U8-ISET)*%
X181114700Y-81537937D03*
%TO.P,U8,3,TS*%
%TO.N,Net-(U8-TS)*%
X181114700Y-82038063D03*
%TO.P,U8,4,GND*%
%TO.N,/charger3/Vo-*%
X181114700Y-82538189D03*
%TO.P,U8,5,STAT*%
%TO.N,/charger3/STAT*%
X183121300Y-82538189D03*
%TO.P,U8,6,PG*%
%TO.N,/charger3/PG*%
X183121300Y-82038063D03*
%TO.P,U8,7,VSET*%
%TO.N,Net-(U8-VSET)*%
X183121300Y-81537937D03*
%TO.P,U8,8,OUT*%
%TO.N,/charger2/Vo-*%
X183121300Y-81037811D03*
D13*
%TO.P,U8,9,EPAD*%
%TO.N,/charger3/Vo-*%
X182118000Y-81788000D03*
%TD*%
D23*
%TO.P,C9,1*%
%TO.N,+5V*%
X151638000Y-92898000D03*
%TO.P,C9,2*%
%TO.N,GND*%
X151638000Y-90998000D03*
%TD*%
D16*
%TO.P,TR6,1*%
%TO.N,Net-(U11-D2)*%
X158718000Y-61976000D03*
D17*
%TO.P,TR6,2*%
%TO.N,+5V*%
X158718000Y-64516000D03*
%TO.P,TR6,3*%
%TO.N,Net-(U11-D1)*%
X158718000Y-67056000D03*
%TO.P,TR6,4*%
%TO.N,Net-(D16-A)*%
X169958000Y-67056000D03*
%TO.P,TR6,5*%
%TO.N,/charger5/Vo-*%
X169958000Y-64516000D03*
%TO.P,TR6,6*%
%TO.N,Net-(D17-A)*%
X169958000Y-61976000D03*
%TD*%
D22*
%TO.P,C12,1*%
%TO.N,/charger1/Vo-*%
X182893000Y-88392000D03*
%TO.P,C12,2*%
%TO.N,/charger2/Vo-*%
X181343000Y-88392000D03*
%TD*%
D23*
%TO.P,C13,1*%
%TO.N,+5V*%
X151638000Y-83754000D03*
%TO.P,C13,2*%
%TO.N,GND*%
X151638000Y-81854000D03*
%TD*%
D14*
%TO.P,R25,1*%
%TO.N,/charger3/Vo-*%
X185483000Y-77216000D03*
%TO.P,R25,2*%
%TO.N,Net-(D15-A1)*%
X183833000Y-77216000D03*
%TD*%
D18*
%TO.P,D8,1,K*%
%TO.N,Net-(D7-K)*%
X175136000Y-88646000D03*
%TO.P,D8,2,A*%
%TO.N,Net-(D8-A)*%
X172336000Y-88646000D03*
%TD*%
D15*
%TO.P,D12,1,A1*%
%TO.N,Net-(D12-A1)*%
X181836000Y-86298000D03*
%TO.P,D12,2,A2*%
%TO.N,Net-(D12-A2)*%
X181836000Y-84898000D03*
%TO.P,D12,3,K1*%
%TO.N,/charger3/PG*%
X178336000Y-84898000D03*
%TO.P,D12,4,K2*%
%TO.N,/charger3/STAT*%
X178336000Y-86298000D03*
%TD*%
D19*
%TO.P,C22,1*%
%TO.N,Net-(D16-K)*%
X175194000Y-63754000D03*
%TO.P,C22,2*%
%TO.N,/charger5/Vo-*%
X173294000Y-63754000D03*
%TD*%
D15*
%TO.P,D6,1,A1*%
%TO.N,Net-(D6-A1)*%
X181836000Y-104586000D03*
%TO.P,D6,2,A2*%
%TO.N,Net-(D6-A2)*%
X181836000Y-103186000D03*
%TO.P,D6,3,K1*%
%TO.N,/charger1/PG*%
X178336000Y-103186000D03*
%TO.P,D6,4,K2*%
%TO.N,/charger1/STAT*%
X178336000Y-104586000D03*
%TD*%
D11*
%TO.P,U1,1,D1*%
%TO.N,Net-(U1-D1)*%
X156077500Y-111186000D03*
%TO.P,U1,2,VCC*%
%TO.N,+5V*%
X156077500Y-110236000D03*
%TO.P,U1,3,D2*%
%TO.N,Net-(U1-D2)*%
X156077500Y-109286000D03*
%TO.P,U1,4,GND*%
%TO.N,GND*%
X153802500Y-109286000D03*
%TO.P,U1,5,EN*%
%TO.N,+5V*%
X153802500Y-110236000D03*
%TO.P,U1,6,CLK*%
%TO.N,unconnected-(U1-CLK-Pad6)*%
X153802500Y-111186000D03*
%TD*%
%TO.P,U11,1,D1*%
%TO.N,Net-(U11-D1)*%
X156077500Y-65466000D03*
%TO.P,U11,2,VCC*%
%TO.N,+5V*%
X156077500Y-64516000D03*
%TO.P,U11,3,D2*%
%TO.N,Net-(U11-D2)*%
X156077500Y-63566000D03*
%TO.P,U11,4,GND*%
%TO.N,GND*%
X153802500Y-63566000D03*
%TO.P,U11,5,EN*%
%TO.N,+5V*%
X153802500Y-64516000D03*
%TO.P,U11,6,CLK*%
%TO.N,unconnected-(U11-CLK-Pad6)*%
X153802500Y-65466000D03*
%TD*%
D16*
%TO.P,TR3,1*%
%TO.N,Net-(U5-D2)*%
X158718000Y-89408000D03*
D17*
%TO.P,TR3,2*%
%TO.N,+5V*%
X158718000Y-91948000D03*
%TO.P,TR3,3*%
%TO.N,Net-(U5-D1)*%
X158718000Y-94488000D03*
%TO.P,TR3,4*%
%TO.N,Net-(D7-A)*%
X169958000Y-94488000D03*
%TO.P,TR3,5*%
%TO.N,/charger2/Vo-*%
X169958000Y-91948000D03*
%TO.P,TR3,6*%
%TO.N,Net-(D8-A)*%
X169958000Y-89408000D03*
%TD*%
D23*
%TO.P,C1,1*%
%TO.N,+5V*%
X151638000Y-111186000D03*
%TO.P,C1,2*%
%TO.N,GND*%
X151638000Y-109286000D03*
%TD*%
D14*
%TO.P,R9,1*%
%TO.N,/charger0/Vo-*%
X185483000Y-103124000D03*
%TO.P,R9,2*%
%TO.N,Net-(D6-A2)*%
X183833000Y-103124000D03*
%TD*%
D22*
%TO.P,C24,1*%
%TO.N,/charger4/Vo-*%
X182893000Y-60960000D03*
%TO.P,C24,2*%
%TO.N,/charger5/Vo-*%
X181343000Y-60960000D03*
%TD*%
D18*
%TO.P,D14,1,K*%
%TO.N,Net-(D13-K)*%
X175136000Y-70358000D03*
%TO.P,D14,2,A*%
%TO.N,Net-(D14-A)*%
X172336000Y-70358000D03*
%TD*%
D12*
%TO.P,U4,1,IN*%
%TO.N,Net-(D4-K)*%
X181114700Y-99325811D03*
%TO.P,U4,2,ISET*%
%TO.N,Net-(U4-ISET)*%
X181114700Y-99825937D03*
%TO.P,U4,3,TS*%
%TO.N,Net-(U4-TS)*%
X181114700Y-100326063D03*
%TO.P,U4,4,GND*%
%TO.N,/charger1/Vo-*%
X181114700Y-100826189D03*
%TO.P,U4,5,STAT*%
%TO.N,/charger1/STAT*%
X183121300Y-100826189D03*
%TO.P,U4,6,PG*%
%TO.N,/charger1/PG*%
X183121300Y-100326063D03*
%TO.P,U4,7,VSET*%
%TO.N,Net-(U4-VSET)*%
X183121300Y-99825937D03*
%TO.P,U4,8,OUT*%
%TO.N,/charger0/Vo-*%
X183121300Y-99325811D03*
D13*
%TO.P,U4,9,EPAD*%
%TO.N,/charger1/Vo-*%
X182118000Y-100076000D03*
%TD*%
D19*
%TO.P,C14,1*%
%TO.N,Net-(D10-K)*%
X175194000Y-82042000D03*
%TO.P,C14,2*%
%TO.N,/charger3/Vo-*%
X173294000Y-82042000D03*
%TD*%
D24*
%TO.P,J1,1*%
%TO.N,+5V*%
X147574000Y-87376000D03*
D25*
%TO.P,J1,2*%
%TO.N,GND*%
X141574000Y-87376000D03*
%TO.P,J1,3*%
X144574000Y-92076000D03*
%TD*%
D10*
%TO.P,R8,1*%
%TO.N,Net-(U4-VSET)*%
X185420000Y-99251000D03*
%TO.P,R8,2*%
%TO.N,/charger1/Vo-*%
X185420000Y-100901000D03*
%TD*%
D18*
%TO.P,D4,1,K*%
%TO.N,Net-(D4-K)*%
X175136000Y-104394000D03*
%TO.P,D4,2,A*%
%TO.N,Net-(D4-A)*%
X172336000Y-104394000D03*
%TD*%
D10*
%TO.P,R16,1*%
%TO.N,Net-(U8-ISET)*%
X177546000Y-80963000D03*
%TO.P,R16,2*%
%TO.N,/charger3/Vo-*%
X177546000Y-82613000D03*
%TD*%
D15*
%TO.P,D15,1,A1*%
%TO.N,Net-(D15-A1)*%
X181836000Y-77154000D03*
%TO.P,D15,2,A2*%
%TO.N,Net-(D15-A2)*%
X181836000Y-75754000D03*
%TO.P,D15,3,K1*%
%TO.N,/charger4/PG*%
X178336000Y-75754000D03*
%TO.P,D15,4,K2*%
%TO.N,/charger4/STAT*%
X178336000Y-77154000D03*
%TD*%
D10*
%TO.P,R12,1*%
%TO.N,Net-(U6-TS)*%
X179070000Y-90107000D03*
%TO.P,R12,2*%
%TO.N,/charger2/Vo-*%
X179070000Y-91757000D03*
%TD*%
%TO.P,R2,1*%
%TO.N,Net-(U2-TS)*%
X179070000Y-108395000D03*
%TO.P,R2,2*%
%TO.N,/charger0/Vo-*%
X179070000Y-110045000D03*
%TD*%
D18*
%TO.P,D2,1,K*%
%TO.N,Net-(D1-K)*%
X175136000Y-106934000D03*
%TO.P,D2,2,A*%
%TO.N,Net-(D2-A)*%
X172336000Y-106934000D03*
%TD*%
D14*
%TO.P,R5,1*%
%TO.N,/charger0/Vo+*%
X185483000Y-113792000D03*
%TO.P,R5,2*%
%TO.N,Net-(D3-A1)*%
X183833000Y-113792000D03*
%TD*%
D23*
%TO.P,C17,1*%
%TO.N,+5V*%
X151638000Y-74610000D03*
%TO.P,C17,2*%
%TO.N,GND*%
X151638000Y-72710000D03*
%TD*%
D22*
%TO.P,C19,1*%
%TO.N,Net-(D13-K)*%
X175019000Y-74676000D03*
%TO.P,C19,2*%
%TO.N,/charger4/Vo-*%
X173469000Y-74676000D03*
%TD*%
D11*
%TO.P,U5,1,D1*%
%TO.N,Net-(U5-D1)*%
X156077500Y-92898000D03*
%TO.P,U5,2,VCC*%
%TO.N,+5V*%
X156077500Y-91948000D03*
%TO.P,U5,3,D2*%
%TO.N,Net-(U5-D2)*%
X156077500Y-90998000D03*
%TO.P,U5,4,GND*%
%TO.N,GND*%
X153802500Y-90998000D03*
%TO.P,U5,5,EN*%
%TO.N,+5V*%
X153802500Y-91948000D03*
%TO.P,U5,6,CLK*%
%TO.N,unconnected-(U5-CLK-Pad6)*%
X153802500Y-92898000D03*
%TD*%
D10*
%TO.P,R21,1*%
%TO.N,Net-(U10-ISET)*%
X177546000Y-71819000D03*
%TO.P,R21,2*%
%TO.N,/charger4/Vo-*%
X177546000Y-73469000D03*
%TD*%
D14*
%TO.P,R4,1*%
%TO.N,/charger0/Vo+*%
X185483000Y-112268000D03*
%TO.P,R4,2*%
%TO.N,Net-(D3-A2)*%
X183833000Y-112268000D03*
%TD*%
D18*
%TO.P,D10,1,K*%
%TO.N,Net-(D10-K)*%
X175136000Y-86106000D03*
%TO.P,D10,2,A*%
%TO.N,Net-(D10-A)*%
X172336000Y-86106000D03*
%TD*%
D10*
%TO.P,R1,1*%
%TO.N,Net-(U2-ISET)*%
X177546000Y-108395000D03*
%TO.P,R1,2*%
%TO.N,/charger0/Vo-*%
X177546000Y-110045000D03*
%TD*%
D14*
%TO.P,R24,1*%
%TO.N,/charger3/Vo-*%
X185483000Y-75692000D03*
%TO.P,R24,2*%
%TO.N,Net-(D15-A2)*%
X183833000Y-75692000D03*
%TD*%
D10*
%TO.P,R18,1*%
%TO.N,Net-(U8-VSET)*%
X185420000Y-80963000D03*
%TO.P,R18,2*%
%TO.N,/charger3/Vo-*%
X185420000Y-82613000D03*
%TD*%
D23*
%TO.P,C21,1*%
%TO.N,+5V*%
X151638000Y-65466000D03*
%TO.P,C21,2*%
%TO.N,GND*%
X151638000Y-63566000D03*
%TD*%
D14*
%TO.P,R10,1*%
%TO.N,/charger0/Vo-*%
X185483000Y-104648000D03*
%TO.P,R10,2*%
%TO.N,Net-(D6-A1)*%
X183833000Y-104648000D03*
%TD*%
D22*
%TO.P,C23,1*%
%TO.N,Net-(D16-K)*%
X175019000Y-65532000D03*
%TO.P,C23,2*%
%TO.N,/charger5/Vo-*%
X173469000Y-65532000D03*
%TD*%
D12*
%TO.P,U10,1,IN*%
%TO.N,Net-(D13-K)*%
X181114700Y-71893811D03*
%TO.P,U10,2,ISET*%
%TO.N,Net-(U10-ISET)*%
X181114700Y-72393937D03*
%TO.P,U10,3,TS*%
%TO.N,Net-(U10-TS)*%
X181114700Y-72894063D03*
%TO.P,U10,4,GND*%
%TO.N,/charger4/Vo-*%
X181114700Y-73394189D03*
%TO.P,U10,5,STAT*%
%TO.N,/charger4/STAT*%
X183121300Y-73394189D03*
%TO.P,U10,6,PG*%
%TO.N,/charger4/PG*%
X183121300Y-72894063D03*
%TO.P,U10,7,VSET*%
%TO.N,Net-(U10-VSET)*%
X183121300Y-72393937D03*
%TO.P,U10,8,OUT*%
%TO.N,/charger3/Vo-*%
X183121300Y-71893811D03*
D13*
%TO.P,U10,9,EPAD*%
%TO.N,/charger4/Vo-*%
X182118000Y-72644000D03*
%TD*%
D14*
%TO.P,R15,1*%
%TO.N,/charger1/Vo-*%
X185483000Y-95504000D03*
%TO.P,R15,2*%
%TO.N,Net-(D9-A1)*%
X183833000Y-95504000D03*
%TD*%
D22*
%TO.P,C7,1*%
%TO.N,Net-(D4-K)*%
X175019000Y-102108000D03*
%TO.P,C7,2*%
%TO.N,/charger1/Vo-*%
X173469000Y-102108000D03*
%TD*%
%TO.P,C8,1*%
%TO.N,/charger0/Vo-*%
X182893000Y-97536000D03*
%TO.P,C8,2*%
%TO.N,/charger1/Vo-*%
X181343000Y-97536000D03*
%TD*%
D11*
%TO.P,U3,1,D1*%
%TO.N,Net-(U3-D1)*%
X156077500Y-102042000D03*
%TO.P,U3,2,VCC*%
%TO.N,+5V*%
X156077500Y-101092000D03*
%TO.P,U3,3,D2*%
%TO.N,Net-(U3-D2)*%
X156077500Y-100142000D03*
%TO.P,U3,4,GND*%
%TO.N,GND*%
X153802500Y-100142000D03*
%TO.P,U3,5,EN*%
%TO.N,+5V*%
X153802500Y-101092000D03*
%TO.P,U3,6,CLK*%
%TO.N,unconnected-(U3-CLK-Pad6)*%
X153802500Y-102042000D03*
%TD*%
D18*
%TO.P,D13,1,K*%
%TO.N,Net-(D13-K)*%
X175136000Y-76962000D03*
%TO.P,D13,2,A*%
%TO.N,Net-(D13-A)*%
X172336000Y-76962000D03*
%TD*%
D22*
%TO.P,C11,1*%
%TO.N,Net-(D7-K)*%
X175019000Y-92964000D03*
%TO.P,C11,2*%
%TO.N,/charger2/Vo-*%
X173469000Y-92964000D03*
%TD*%
D10*
%TO.P,R28,1*%
%TO.N,Net-(U12-VSET)*%
X185420000Y-62675000D03*
%TO.P,R28,2*%
%TO.N,/charger5/Vo-*%
X185420000Y-64325000D03*
%TD*%
D22*
%TO.P,C3,1*%
%TO.N,Net-(D1-K)*%
X175019000Y-111252000D03*
%TO.P,C3,2*%
%TO.N,/charger0/Vo-*%
X173469000Y-111252000D03*
%TD*%
%TO.P,C16,1*%
%TO.N,/charger2/Vo-*%
X182893000Y-79248000D03*
%TO.P,C16,2*%
%TO.N,/charger3/Vo-*%
X181343000Y-79248000D03*
%TD*%
D10*
%TO.P,R26,1*%
%TO.N,Net-(U12-ISET)*%
X177546000Y-62675000D03*
%TO.P,R26,2*%
%TO.N,/charger5/Vo-*%
X177546000Y-64325000D03*
%TD*%
%TO.P,R22,1*%
%TO.N,Net-(U10-TS)*%
X179070000Y-71819000D03*
%TO.P,R22,2*%
%TO.N,/charger4/Vo-*%
X179070000Y-73469000D03*
%TD*%
%TO.P,R17,1*%
%TO.N,Net-(U8-TS)*%
X179070000Y-80963000D03*
%TO.P,R17,2*%
%TO.N,/charger3/Vo-*%
X179070000Y-82613000D03*
%TD*%
D19*
%TO.P,C18,1*%
%TO.N,Net-(D13-K)*%
X175194000Y-72898000D03*
%TO.P,C18,2*%
%TO.N,/charger4/Vo-*%
X173294000Y-72898000D03*
%TD*%
D14*
%TO.P,R30,1*%
%TO.N,/charger4/Vo-*%
X185483000Y-68072000D03*
%TO.P,R30,2*%
%TO.N,Net-(D18-A1)*%
X183833000Y-68072000D03*
%TD*%
D10*
%TO.P,R23,1*%
%TO.N,Net-(U10-VSET)*%
X185420000Y-71819000D03*
%TO.P,R23,2*%
%TO.N,/charger4/Vo-*%
X185420000Y-73469000D03*
%TD*%
D15*
%TO.P,D18,1,A1*%
%TO.N,Net-(D18-A1)*%
X181836000Y-68010000D03*
%TO.P,D18,2,A2*%
%TO.N,Net-(D18-A2)*%
X181836000Y-66610000D03*
%TO.P,D18,3,K1*%
%TO.N,/charger5/PG*%
X178336000Y-66610000D03*
%TO.P,D18,4,K2*%
%TO.N,/charger5/STAT*%
X178336000Y-68010000D03*
%TD*%
D18*
%TO.P,D7,1,K*%
%TO.N,Net-(D7-K)*%
X175136000Y-95250000D03*
%TO.P,D7,2,A*%
%TO.N,Net-(D7-A)*%
X172336000Y-95250000D03*
%TD*%
D23*
%TO.P,C5,1*%
%TO.N,+5V*%
X151638000Y-102042000D03*
%TO.P,C5,2*%
%TO.N,GND*%
X151638000Y-100142000D03*
%TD*%
D14*
%TO.P,R14,1*%
%TO.N,/charger1/Vo-*%
X185483000Y-93980000D03*
%TO.P,R14,2*%
%TO.N,Net-(D9-A2)*%
X183833000Y-93980000D03*
%TD*%
D16*
%TO.P,TR4,1*%
%TO.N,Net-(U7-D2)*%
X158718000Y-80264000D03*
D17*
%TO.P,TR4,2*%
%TO.N,+5V*%
X158718000Y-82804000D03*
%TO.P,TR4,3*%
%TO.N,Net-(U7-D1)*%
X158718000Y-85344000D03*
%TO.P,TR4,4*%
%TO.N,Net-(D10-A)*%
X169958000Y-85344000D03*
%TO.P,TR4,5*%
%TO.N,/charger3/Vo-*%
X169958000Y-82804000D03*
%TO.P,TR4,6*%
%TO.N,Net-(D11-A)*%
X169958000Y-80264000D03*
%TD*%
D18*
%TO.P,D16,1,K*%
%TO.N,Net-(D16-K)*%
X175136000Y-67818000D03*
%TO.P,D16,2,A*%
%TO.N,Net-(D16-A)*%
X172336000Y-67818000D03*
%TD*%
D19*
%TO.P,C10,1*%
%TO.N,Net-(D7-K)*%
X175194000Y-91186000D03*
%TO.P,C10,2*%
%TO.N,/charger2/Vo-*%
X173294000Y-91186000D03*
%TD*%
D18*
%TO.P,D5,1,K*%
%TO.N,Net-(D4-K)*%
X175136000Y-97790000D03*
%TO.P,D5,2,A*%
%TO.N,Net-(D5-A)*%
X172336000Y-97790000D03*
%TD*%
D14*
%TO.P,R20,1*%
%TO.N,/charger2/Vo-*%
X185483000Y-86360000D03*
%TO.P,R20,2*%
%TO.N,Net-(D12-A1)*%
X183833000Y-86360000D03*
%TD*%
D12*
%TO.P,U6,1,IN*%
%TO.N,Net-(D7-K)*%
X181114700Y-90181811D03*
%TO.P,U6,2,ISET*%
%TO.N,Net-(U6-ISET)*%
X181114700Y-90681937D03*
%TO.P,U6,3,TS*%
%TO.N,Net-(U6-TS)*%
X181114700Y-91182063D03*
%TO.P,U6,4,GND*%
%TO.N,/charger2/Vo-*%
X181114700Y-91682189D03*
%TO.P,U6,5,STAT*%
%TO.N,/charger2/STAT*%
X183121300Y-91682189D03*
%TO.P,U6,6,PG*%
%TO.N,/charger2/PG*%
X183121300Y-91182063D03*
%TO.P,U6,7,VSET*%
%TO.N,Net-(U6-VSET)*%
X183121300Y-90681937D03*
%TO.P,U6,8,OUT*%
%TO.N,/charger1/Vo-*%
X183121300Y-90181811D03*
D13*
%TO.P,U6,9,EPAD*%
%TO.N,/charger2/Vo-*%
X182118000Y-90932000D03*
%TD*%
D15*
%TO.P,D3,1,A1*%
%TO.N,Net-(D3-A1)*%
X181836000Y-113730000D03*
%TO.P,D3,2,A2*%
%TO.N,Net-(D3-A2)*%
X181836000Y-112330000D03*
%TO.P,D3,3,K1*%
%TO.N,/charger0/PG*%
X178336000Y-112330000D03*
%TO.P,D3,4,K2*%
%TO.N,/charger0/STAT*%
X178336000Y-113730000D03*
%TD*%
D16*
%TO.P,TR1,1*%
%TO.N,Net-(U1-D2)*%
X158718000Y-107696000D03*
D17*
%TO.P,TR1,2*%
%TO.N,+5V*%
X158718000Y-110236000D03*
%TO.P,TR1,3*%
%TO.N,Net-(U1-D1)*%
X158718000Y-112776000D03*
%TO.P,TR1,4*%
%TO.N,Net-(D1-A)*%
X169958000Y-112776000D03*
%TO.P,TR1,5*%
%TO.N,/charger0/Vo-*%
X169958000Y-110236000D03*
%TO.P,TR1,6*%
%TO.N,Net-(D2-A)*%
X169958000Y-107696000D03*
%TD*%
D12*
%TO.P,U2,1,IN*%
%TO.N,Net-(D1-K)*%
X181114700Y-108469811D03*
%TO.P,U2,2,ISET*%
%TO.N,Net-(U2-ISET)*%
X181114700Y-108969937D03*
%TO.P,U2,3,TS*%
%TO.N,Net-(U2-TS)*%
X181114700Y-109470063D03*
%TO.P,U2,4,GND*%
%TO.N,/charger0/Vo-*%
X181114700Y-109970189D03*
%TO.P,U2,5,STAT*%
%TO.N,/charger0/STAT*%
X183121300Y-109970189D03*
%TO.P,U2,6,PG*%
%TO.N,/charger0/PG*%
X183121300Y-109470063D03*
%TO.P,U2,7,VSET*%
%TO.N,Net-(U2-VSET)*%
X183121300Y-108969937D03*
%TO.P,U2,8,OUT*%
%TO.N,/charger0/Vo+*%
X183121300Y-108469811D03*
D13*
%TO.P,U2,9,EPAD*%
%TO.N,/charger0/Vo-*%
X182118000Y-109220000D03*
%TD*%
D10*
%TO.P,R27,1*%
%TO.N,Net-(U12-TS)*%
X179070000Y-62675000D03*
%TO.P,R27,2*%
%TO.N,/charger5/Vo-*%
X179070000Y-64325000D03*
%TD*%
%TO.P,R11,1*%
%TO.N,Net-(U6-ISET)*%
X177546000Y-90107000D03*
%TO.P,R11,2*%
%TO.N,/charger2/Vo-*%
X177546000Y-91757000D03*
%TD*%
D22*
%TO.P,C20,1*%
%TO.N,/charger3/Vo-*%
X182893000Y-70104000D03*
%TO.P,C20,2*%
%TO.N,/charger4/Vo-*%
X181343000Y-70104000D03*
%TD*%
D14*
%TO.P,R19,1*%
%TO.N,/charger2/Vo-*%
X185483000Y-84836000D03*
%TO.P,R19,2*%
%TO.N,Net-(D12-A2)*%
X183833000Y-84836000D03*
%TD*%
D10*
%TO.P,R6,1*%
%TO.N,Net-(U4-ISET)*%
X177546000Y-99251000D03*
%TO.P,R6,2*%
%TO.N,/charger1/Vo-*%
X177546000Y-100901000D03*
%TD*%
D26*
%TO.N,GND*%
X151638000Y-89916000D03*
X151638000Y-62484000D03*
X151638000Y-108204000D03*
X151638000Y-71628000D03*
X151638000Y-99060000D03*
X151638000Y-80772000D03*
%TO.N,/charger0/Vo-*%
X171704000Y-110236000D03*
X186436000Y-106172000D03*
X182118000Y-107950000D03*
X180086000Y-110490000D03*
X185420000Y-110998000D03*
X182118000Y-110490000D03*
%TO.N,/charger1/Vo-*%
X185420000Y-101854000D03*
X186436000Y-97028000D03*
X180086000Y-101346000D03*
X182118000Y-98806000D03*
X171704000Y-101092000D03*
X182118000Y-101346000D03*
%TO.N,/charger2/Vo-*%
X186436000Y-87884000D03*
X182118000Y-89662000D03*
X185420000Y-92710000D03*
X171704000Y-91948000D03*
X182118000Y-92202000D03*
X180086000Y-92202000D03*
%TO.N,/charger3/Vo-*%
X182118000Y-83058000D03*
X186436000Y-78740000D03*
X171704000Y-82804000D03*
X185420000Y-83566000D03*
X180086000Y-83058000D03*
X182118000Y-80518000D03*
%TO.N,/charger4/Vo-*%
X180086000Y-73914000D03*
X186436000Y-69596000D03*
X182118000Y-73914000D03*
X182118000Y-71374000D03*
X185420000Y-74422000D03*
X171704000Y-73660000D03*
%TO.N,/charger5/Vo-*%
X182118000Y-62230000D03*
X186436000Y-60452000D03*
X171704000Y-64516000D03*
X180086000Y-64770000D03*
X182118000Y-64770000D03*
X185420000Y-65278000D03*
%TD*%
D27*
%TO.N,+5V*%
X151638000Y-74610000D02*
X147640000Y-74610000D01*
X151638000Y-83754000D02*
X151958000Y-83754000D01*
D28*
X147574000Y-74676000D02*
X147574000Y-69342000D01*
D27*
X147640000Y-102042000D02*
X147574000Y-102108000D01*
D28*
X153802500Y-64516000D02*
X156077500Y-64516000D01*
D27*
X151638000Y-102042000D02*
X147640000Y-102042000D01*
X156077500Y-101092000D02*
X158718000Y-101092000D01*
D28*
X147574000Y-83820000D02*
X147574000Y-74676000D01*
D27*
X156077500Y-82804000D02*
X158718000Y-82804000D01*
X151958000Y-102042000D02*
X152908000Y-101092000D01*
X151638000Y-74610000D02*
X151958000Y-74610000D01*
X156077500Y-64516000D02*
X158718000Y-64516000D01*
X147574000Y-69342000D02*
X151450000Y-65466000D01*
X151638000Y-111186000D02*
X151318000Y-111186000D01*
D28*
X153802500Y-110236000D02*
X156077500Y-110236000D01*
D27*
X147640000Y-92898000D02*
X147574000Y-92964000D01*
D28*
X147574000Y-87376000D02*
X147574000Y-83820000D01*
D27*
X151958000Y-65466000D02*
X152908000Y-64516000D01*
X152908000Y-64516000D02*
X153802500Y-64516000D01*
X152908000Y-110236000D02*
X153802500Y-110236000D01*
D28*
X153802500Y-82804000D02*
X156077500Y-82804000D01*
D27*
X147640000Y-83754000D02*
X147574000Y-83820000D01*
X151958000Y-92898000D02*
X152908000Y-91948000D01*
X151638000Y-92898000D02*
X151958000Y-92898000D01*
X151638000Y-65466000D02*
X151958000Y-65466000D01*
X152908000Y-91948000D02*
X153802500Y-91948000D01*
X151638000Y-111186000D02*
X151958000Y-111186000D01*
X151638000Y-102042000D02*
X151958000Y-102042000D01*
X151450000Y-65466000D02*
X151638000Y-65466000D01*
X156077500Y-73660000D02*
X158718000Y-73660000D01*
X156077500Y-110236000D02*
X158718000Y-110236000D01*
X151958000Y-111186000D02*
X152908000Y-110236000D01*
X152908000Y-82804000D02*
X153802500Y-82804000D01*
X147640000Y-74610000D02*
X147574000Y-74676000D01*
D28*
X153802500Y-101092000D02*
X156077500Y-101092000D01*
D27*
X152908000Y-101092000D02*
X153802500Y-101092000D01*
D28*
X147574000Y-107442000D02*
X147574000Y-102108000D01*
D27*
X151638000Y-92898000D02*
X147640000Y-92898000D01*
X151318000Y-111186000D02*
X147574000Y-107442000D01*
X156077500Y-91948000D02*
X158718000Y-91948000D01*
X152908000Y-73660000D02*
X153802500Y-73660000D01*
X151958000Y-83754000D02*
X152908000Y-82804000D01*
D28*
X153802500Y-91948000D02*
X156077500Y-91948000D01*
X147574000Y-102108000D02*
X147574000Y-87376000D01*
D27*
X151958000Y-74610000D02*
X152908000Y-73660000D01*
X151638000Y-83754000D02*
X147640000Y-83754000D01*
D28*
X153802500Y-73660000D02*
X156077500Y-73660000D01*
D27*
%TO.N,GND*%
X151638000Y-90998000D02*
X151638000Y-89916000D01*
D28*
X153802500Y-63566000D02*
X151638000Y-63566000D01*
D27*
X151638000Y-109286000D02*
X151638000Y-108204000D01*
X151638000Y-63566000D02*
X151638000Y-62484000D01*
D28*
X153802500Y-100142000D02*
X151638000Y-100142000D01*
X153802500Y-81854000D02*
X151638000Y-81854000D01*
D27*
X151638000Y-100142000D02*
X151638000Y-99060000D01*
D28*
X153802500Y-109286000D02*
X151638000Y-109286000D01*
X153802500Y-90998000D02*
X151638000Y-90998000D01*
D27*
X151638000Y-81854000D02*
X151638000Y-80772000D01*
X151638000Y-72710000D02*
X151638000Y-71628000D01*
D28*
X153802500Y-72710000D02*
X151638000Y-72710000D01*
D27*
%TO.N,Net-(D1-K)*%
X175136000Y-109416000D02*
X175194000Y-109474000D01*
D28*
X180403500Y-108267500D02*
X180605811Y-108469811D01*
D27*
X175006000Y-112268000D02*
X175019000Y-112255000D01*
X175136000Y-113538000D02*
X175136000Y-112398000D01*
X175019000Y-112255000D02*
X175019000Y-111252000D01*
D28*
X181114700Y-108469811D02*
X180605811Y-108469811D01*
D27*
X175194000Y-110403600D02*
X175194000Y-109474000D01*
X175019000Y-110578600D02*
X175194000Y-110403600D01*
X175136000Y-112398000D02*
X175006000Y-112268000D01*
X175136000Y-106934000D02*
X175136000Y-109416000D01*
X180403500Y-107713277D02*
X179624224Y-106934000D01*
X175019000Y-111252000D02*
X175019000Y-110578600D01*
D28*
X180403500Y-107713277D02*
X180403500Y-108267500D01*
D27*
X179624224Y-106934000D02*
X175136000Y-106934000D01*
%TO.N,/charger0/Vo-*%
X183896000Y-98539000D02*
X184391000Y-98044000D01*
D28*
X179641000Y-110045000D02*
X179070000Y-110045000D01*
D27*
X184391000Y-98044000D02*
X186690000Y-98044000D01*
D28*
X181114700Y-109970189D02*
X180605811Y-109970189D01*
X182118000Y-109220000D02*
X182118000Y-110490000D01*
D27*
X187960000Y-105664000D02*
X187452000Y-106172000D01*
X182118000Y-107950000D02*
X181343000Y-107175000D01*
X181343000Y-107175000D02*
X181343000Y-106680000D01*
X169958000Y-110236000D02*
X171704000Y-110236000D01*
X187960000Y-98552000D02*
X187960000Y-105664000D01*
D28*
X185483000Y-104648000D02*
X185483000Y-103124000D01*
D27*
X172720000Y-111252000D02*
X173469000Y-111252000D01*
X183896000Y-99013776D02*
X183872888Y-99036888D01*
X173294000Y-109474000D02*
X172466000Y-109474000D01*
X194136000Y-92376000D02*
X187960000Y-98552000D01*
X186436000Y-106172000D02*
X187452000Y-106172000D01*
X171704000Y-110236000D02*
X172720000Y-111252000D01*
D28*
X186690000Y-101854000D02*
X186690000Y-98044000D01*
D27*
X186690000Y-98044000D02*
X187452000Y-98044000D01*
D28*
X183121300Y-99325811D02*
X183630189Y-99325811D01*
X185483000Y-103061000D02*
X186690000Y-101854000D01*
X180086000Y-110490000D02*
X179641000Y-110045000D01*
D27*
X173469000Y-109649000D02*
X173294000Y-109474000D01*
X172466000Y-109474000D02*
X171704000Y-110236000D01*
X187452000Y-98044000D02*
X187960000Y-98552000D01*
D28*
X180605811Y-109970189D02*
X180086000Y-110490000D01*
X179070000Y-110045000D02*
X177546000Y-110045000D01*
D27*
X196342000Y-92376000D02*
X194136000Y-92376000D01*
D28*
X185483000Y-103124000D02*
X185483000Y-103061000D01*
D27*
X183896000Y-98539000D02*
X182893000Y-97536000D01*
D29*
X181113811Y-109970189D02*
X181102000Y-109982000D01*
D28*
X183630189Y-99325811D02*
X183896000Y-99060000D01*
D27*
X183896000Y-98539000D02*
X183896000Y-99013776D01*
D28*
X182118000Y-109220000D02*
X182118000Y-107950000D01*
X185420000Y-110998000D02*
X185420000Y-110045000D01*
D27*
%TO.N,/charger0/Vo+*%
X186690000Y-107188000D02*
X188214000Y-107188000D01*
X188214000Y-107188000D02*
X189484000Y-105918000D01*
D28*
X185483000Y-112205000D02*
X186690000Y-110998000D01*
D27*
X183896000Y-107683000D02*
X182893000Y-106680000D01*
D28*
X185483000Y-112268000D02*
X185483000Y-112205000D01*
D27*
X183896000Y-108157776D02*
X183872888Y-108180888D01*
X189484000Y-105918000D02*
X189484000Y-99695000D01*
X189484000Y-99695000D02*
X194303000Y-94876000D01*
D28*
X183630189Y-108469811D02*
X183896000Y-108204000D01*
D27*
X183896000Y-107683000D02*
X183896000Y-108157776D01*
D28*
X185483000Y-113792000D02*
X185483000Y-112268000D01*
D27*
X183896000Y-107683000D02*
X184391000Y-107188000D01*
D28*
X186690000Y-110998000D02*
X186690000Y-107188000D01*
D27*
X194303000Y-94876000D02*
X196342000Y-94876000D01*
X184391000Y-107188000D02*
X186690000Y-107188000D01*
D28*
X183121300Y-108469811D02*
X183630189Y-108469811D01*
D27*
%TO.N,Net-(D4-K)*%
X175136000Y-103254000D02*
X175006000Y-103124000D01*
X179624224Y-97790000D02*
X175136000Y-97790000D01*
D28*
X181114700Y-99325811D02*
X180605811Y-99325811D01*
D27*
X175136000Y-104394000D02*
X175136000Y-103254000D01*
X175136000Y-97790000D02*
X175136000Y-100272000D01*
X175019000Y-101434600D02*
X175194000Y-101259600D01*
X180403500Y-98569277D02*
X179624224Y-97790000D01*
D28*
X180403500Y-98569277D02*
X180403500Y-99123500D01*
D27*
X175019000Y-103111000D02*
X175019000Y-102108000D01*
X175136000Y-100272000D02*
X175194000Y-100330000D01*
X175019000Y-102108000D02*
X175019000Y-101434600D01*
X175194000Y-101259600D02*
X175194000Y-100330000D01*
D28*
X180403500Y-99123500D02*
X180605811Y-99325811D01*
D27*
X175006000Y-103124000D02*
X175019000Y-103111000D01*
%TO.N,/charger1/Vo-*%
X187960000Y-89408000D02*
X187960000Y-96520000D01*
D28*
X182118000Y-100076000D02*
X182118000Y-101346000D01*
X186690000Y-92710000D02*
X186690000Y-88900000D01*
X180605811Y-100826189D02*
X180086000Y-101346000D01*
D27*
X187960000Y-89408000D02*
X194056000Y-89408000D01*
X184391000Y-88900000D02*
X186690000Y-88900000D01*
D28*
X181114700Y-100826189D02*
X180605811Y-100826189D01*
D27*
X194056000Y-89408000D02*
X194524000Y-89876000D01*
X182118000Y-98806000D02*
X181343000Y-98031000D01*
X183896000Y-89395000D02*
X184391000Y-88900000D01*
D28*
X185420000Y-101854000D02*
X185420000Y-100901000D01*
D27*
X186436000Y-97028000D02*
X187452000Y-97028000D01*
X172466000Y-100330000D02*
X171704000Y-101092000D01*
X169958000Y-101092000D02*
X171704000Y-101092000D01*
D28*
X182118000Y-100076000D02*
X182118000Y-98806000D01*
D27*
X194524000Y-89876000D02*
X196342000Y-89876000D01*
X173294000Y-100330000D02*
X172466000Y-100330000D01*
X187960000Y-96520000D02*
X187452000Y-97028000D01*
X183896000Y-89869776D02*
X183872888Y-89892888D01*
X173469000Y-100505000D02*
X173294000Y-100330000D01*
X187452000Y-88900000D02*
X187960000Y-89408000D01*
X183896000Y-89395000D02*
X183896000Y-89869776D01*
D29*
X181113811Y-100826189D02*
X181102000Y-100838000D01*
D27*
X186690000Y-88900000D02*
X187452000Y-88900000D01*
D28*
X180086000Y-101346000D02*
X179641000Y-100901000D01*
X183630189Y-90181811D02*
X183896000Y-89916000D01*
D27*
X181343000Y-98031000D02*
X181343000Y-97536000D01*
D28*
X185483000Y-93917000D02*
X186690000Y-92710000D01*
D27*
X172720000Y-102108000D02*
X173469000Y-102108000D01*
D28*
X185483000Y-95504000D02*
X185483000Y-93980000D01*
D27*
X183896000Y-89395000D02*
X182893000Y-88392000D01*
X171704000Y-101092000D02*
X172720000Y-102108000D01*
D28*
X183121300Y-90181811D02*
X183630189Y-90181811D01*
X179070000Y-100901000D02*
X177546000Y-100901000D01*
X179641000Y-100901000D02*
X179070000Y-100901000D01*
X185483000Y-93980000D02*
X185483000Y-93917000D01*
D27*
%TO.N,Net-(D7-K)*%
X175136000Y-88646000D02*
X175136000Y-91128000D01*
X179624224Y-88646000D02*
X175136000Y-88646000D01*
X175194000Y-92115600D02*
X175194000Y-91186000D01*
X175136000Y-95250000D02*
X175136000Y-94110000D01*
X175019000Y-92964000D02*
X175019000Y-92290600D01*
X175019000Y-92290600D02*
X175194000Y-92115600D01*
X175136000Y-91128000D02*
X175194000Y-91186000D01*
X175136000Y-94110000D02*
X175006000Y-93980000D01*
D28*
X180403500Y-89979500D02*
X180605811Y-90181811D01*
D27*
X175019000Y-93967000D02*
X175019000Y-92964000D01*
D28*
X181114700Y-90181811D02*
X180605811Y-90181811D01*
D27*
X180403500Y-89425277D02*
X179624224Y-88646000D01*
D28*
X180403500Y-89425277D02*
X180403500Y-89979500D01*
D27*
X175006000Y-93980000D02*
X175019000Y-93967000D01*
D28*
%TO.N,/charger2/Vo-*%
X185483000Y-86360000D02*
X185483000Y-84836000D01*
X180086000Y-92202000D02*
X179641000Y-91757000D01*
D27*
X184391000Y-79756000D02*
X186690000Y-79756000D01*
X187960000Y-87376000D02*
X187452000Y-87884000D01*
X186690000Y-79756000D02*
X187452000Y-79756000D01*
D28*
X181114700Y-91682189D02*
X180605811Y-91682189D01*
X185420000Y-92710000D02*
X185420000Y-91757000D01*
D29*
X181113811Y-91682189D02*
X181102000Y-91694000D01*
D27*
X169958000Y-91948000D02*
X171704000Y-91948000D01*
X173469000Y-91361000D02*
X173294000Y-91186000D01*
D28*
X180605811Y-91682189D02*
X180086000Y-92202000D01*
D27*
X183896000Y-80725776D02*
X183872888Y-80748888D01*
D28*
X186690000Y-83566000D02*
X186690000Y-79756000D01*
D27*
X172720000Y-92964000D02*
X173469000Y-92964000D01*
X171704000Y-91948000D02*
X172720000Y-92964000D01*
D28*
X182118000Y-90932000D02*
X182118000Y-92202000D01*
X185483000Y-84773000D02*
X186690000Y-83566000D01*
X182118000Y-90932000D02*
X182118000Y-89662000D01*
X183630189Y-81037811D02*
X183896000Y-80772000D01*
D27*
X183896000Y-80251000D02*
X184391000Y-79756000D01*
X182118000Y-89662000D02*
X181343000Y-88887000D01*
X187960000Y-80264000D02*
X187960000Y-87376000D01*
X186436000Y-87884000D02*
X187452000Y-87884000D01*
D28*
X179641000Y-91757000D02*
X179070000Y-91757000D01*
D27*
X181343000Y-88887000D02*
X181343000Y-88392000D01*
X183896000Y-80251000D02*
X182893000Y-79248000D01*
D28*
X179070000Y-91757000D02*
X177546000Y-91757000D01*
X183121300Y-81037811D02*
X183630189Y-81037811D01*
D27*
X183896000Y-80251000D02*
X183896000Y-80725776D01*
X187452000Y-79756000D02*
X187960000Y-80264000D01*
D28*
X185483000Y-84836000D02*
X185483000Y-84773000D01*
D27*
X196342000Y-87376000D02*
X187960000Y-87376000D01*
X172466000Y-91186000D02*
X171704000Y-91948000D01*
X173294000Y-91186000D02*
X172466000Y-91186000D01*
D28*
%TO.N,Net-(D10-K)*%
X181114700Y-81037811D02*
X180605811Y-81037811D01*
D27*
X175136000Y-84966000D02*
X175006000Y-84836000D01*
D28*
X180403500Y-80835500D02*
X180605811Y-81037811D01*
D27*
X180403500Y-80281277D02*
X179624224Y-79502000D01*
X175006000Y-84836000D02*
X175019000Y-84823000D01*
X175019000Y-84823000D02*
X175019000Y-83820000D01*
X175136000Y-86106000D02*
X175136000Y-84966000D01*
X175194000Y-82971600D02*
X175194000Y-82042000D01*
X175136000Y-81984000D02*
X175194000Y-82042000D01*
X175019000Y-83820000D02*
X175019000Y-83146600D01*
X175019000Y-83146600D02*
X175194000Y-82971600D01*
D28*
X180403500Y-80281277D02*
X180403500Y-80835500D01*
D27*
X179624224Y-79502000D02*
X175136000Y-79502000D01*
X175136000Y-79502000D02*
X175136000Y-81984000D01*
%TO.N,/charger3/Vo-*%
X169958000Y-82804000D02*
X171704000Y-82804000D01*
X183896000Y-71107000D02*
X182893000Y-70104000D01*
D28*
X185483000Y-77216000D02*
X185483000Y-75692000D01*
D27*
X186690000Y-70612000D02*
X187452000Y-70612000D01*
D28*
X181114700Y-82538189D02*
X180605811Y-82538189D01*
X182118000Y-81788000D02*
X182118000Y-80518000D01*
X183121300Y-71893811D02*
X183630189Y-71893811D01*
X183630189Y-71893811D02*
X183896000Y-71628000D01*
D27*
X187960000Y-71120000D02*
X187960000Y-78232000D01*
X183896000Y-71107000D02*
X184391000Y-70612000D01*
D28*
X185420000Y-83566000D02*
X185420000Y-82613000D01*
D29*
X181113811Y-82538189D02*
X181102000Y-82550000D01*
D27*
X172466000Y-82042000D02*
X171704000Y-82804000D01*
X173469000Y-82217000D02*
X173294000Y-82042000D01*
X194604000Y-84876000D02*
X196342000Y-84876000D01*
X187960000Y-78232000D02*
X187452000Y-78740000D01*
X183896000Y-71581776D02*
X183872888Y-71604888D01*
X173294000Y-82042000D02*
X172466000Y-82042000D01*
X184391000Y-70612000D02*
X186690000Y-70612000D01*
X183896000Y-71107000D02*
X183896000Y-71581776D01*
D28*
X180086000Y-83058000D02*
X179641000Y-82613000D01*
X185483000Y-75692000D02*
X185483000Y-75629000D01*
D27*
X181343000Y-79743000D02*
X181343000Y-79248000D01*
D28*
X185483000Y-75629000D02*
X186690000Y-74422000D01*
X179070000Y-82613000D02*
X177546000Y-82613000D01*
D27*
X182118000Y-80518000D02*
X181343000Y-79743000D01*
X172720000Y-83820000D02*
X173469000Y-83820000D01*
X171704000Y-82804000D02*
X172720000Y-83820000D01*
X186436000Y-78740000D02*
X187452000Y-78740000D01*
D28*
X182118000Y-81788000D02*
X182118000Y-83058000D01*
X180605811Y-82538189D02*
X180086000Y-83058000D01*
D27*
X187960000Y-78232000D02*
X194604000Y-84876000D01*
D28*
X186690000Y-74422000D02*
X186690000Y-70612000D01*
X179641000Y-82613000D02*
X179070000Y-82613000D01*
D27*
X187452000Y-70612000D02*
X187960000Y-71120000D01*
%TO.N,Net-(D13-K)*%
X175136000Y-76962000D02*
X175136000Y-75822000D01*
X175006000Y-75692000D02*
X175019000Y-75679000D01*
D28*
X181114700Y-71893811D02*
X180605811Y-71893811D01*
D27*
X175194000Y-73827600D02*
X175194000Y-72898000D01*
X175136000Y-75822000D02*
X175006000Y-75692000D01*
X179624224Y-70358000D02*
X175136000Y-70358000D01*
X175136000Y-72840000D02*
X175194000Y-72898000D01*
X175019000Y-74676000D02*
X175019000Y-74002600D01*
D28*
X180403500Y-71137277D02*
X180403500Y-71691500D01*
D27*
X175019000Y-74002600D02*
X175194000Y-73827600D01*
X180403500Y-71137277D02*
X179624224Y-70358000D01*
X175019000Y-75679000D02*
X175019000Y-74676000D01*
X175136000Y-70358000D02*
X175136000Y-72840000D01*
D28*
X180403500Y-71691500D02*
X180605811Y-71893811D01*
D29*
%TO.N,/charger4/Vo-*%
X181113811Y-73394189D02*
X181102000Y-73406000D01*
D28*
X182118000Y-72644000D02*
X182118000Y-71374000D01*
D27*
X189484000Y-77216000D02*
X189484000Y-70612000D01*
X181343000Y-70599000D02*
X181343000Y-70104000D01*
X187960000Y-61976000D02*
X187960000Y-69088000D01*
X189484000Y-70612000D02*
X187960000Y-69088000D01*
D28*
X185483000Y-66485000D02*
X186690000Y-65278000D01*
X182118000Y-72644000D02*
X182118000Y-73914000D01*
D27*
X171704000Y-73660000D02*
X172720000Y-74676000D01*
D28*
X180086000Y-73914000D02*
X179641000Y-73469000D01*
X181114700Y-73394189D02*
X180605811Y-73394189D01*
D27*
X186436000Y-69596000D02*
X187452000Y-69596000D01*
X182118000Y-71374000D02*
X181343000Y-70599000D01*
D28*
X185420000Y-74422000D02*
X185420000Y-73469000D01*
D27*
X196342000Y-82376000D02*
X194644000Y-82376000D01*
X187452000Y-61468000D02*
X187960000Y-61976000D01*
D28*
X180605811Y-73394189D02*
X180086000Y-73914000D01*
D27*
X194644000Y-82376000D02*
X189484000Y-77216000D01*
X183896000Y-61963000D02*
X184391000Y-61468000D01*
D28*
X185483000Y-66548000D02*
X185483000Y-66485000D01*
X186690000Y-65278000D02*
X186690000Y-61468000D01*
D27*
X169958000Y-73660000D02*
X171704000Y-73660000D01*
X183896000Y-61963000D02*
X183896000Y-62437776D01*
X184391000Y-61468000D02*
X186690000Y-61468000D01*
X183896000Y-62437776D02*
X183872888Y-62460888D01*
X172466000Y-72898000D02*
X171704000Y-73660000D01*
D28*
X185483000Y-68072000D02*
X185483000Y-66548000D01*
D27*
X172720000Y-74676000D02*
X173469000Y-74676000D01*
D28*
X179641000Y-73469000D02*
X179070000Y-73469000D01*
X183630189Y-62749811D02*
X183896000Y-62484000D01*
X183121300Y-62749811D02*
X183630189Y-62749811D01*
D27*
X173294000Y-72898000D02*
X172466000Y-72898000D01*
X173469000Y-73073000D02*
X173294000Y-72898000D01*
X186690000Y-61468000D02*
X187452000Y-61468000D01*
D28*
X179070000Y-73469000D02*
X177546000Y-73469000D01*
D27*
X187960000Y-69088000D02*
X187452000Y-69596000D01*
X183896000Y-61963000D02*
X182893000Y-60960000D01*
%TO.N,Net-(D16-K)*%
X175136000Y-63696000D02*
X175194000Y-63754000D01*
X175019000Y-64858600D02*
X175194000Y-64683600D01*
X175194000Y-64683600D02*
X175194000Y-63754000D01*
X175136000Y-66678000D02*
X175006000Y-66548000D01*
X180403500Y-61993277D02*
X179624224Y-61214000D01*
D28*
X180403500Y-61993277D02*
X180403500Y-62547500D01*
D27*
X175136000Y-67818000D02*
X175136000Y-66678000D01*
X175006000Y-66548000D02*
X175019000Y-66535000D01*
X175019000Y-65532000D02*
X175019000Y-64858600D01*
X179624224Y-61214000D02*
X175136000Y-61214000D01*
D28*
X180403500Y-62547500D02*
X180605811Y-62749811D01*
X181114700Y-62749811D02*
X180605811Y-62749811D01*
D27*
X175136000Y-61214000D02*
X175136000Y-63696000D01*
X175019000Y-66535000D02*
X175019000Y-65532000D01*
%TO.N,/charger5/Vo-*%
X188214000Y-60452000D02*
X191262000Y-63500000D01*
X182118000Y-62230000D02*
X181343000Y-61455000D01*
X186436000Y-60452000D02*
X188214000Y-60452000D01*
D28*
X179641000Y-64325000D02*
X179070000Y-64325000D01*
D27*
X172466000Y-63754000D02*
X171704000Y-64516000D01*
D29*
X181113811Y-64250189D02*
X181102000Y-64262000D01*
D28*
X181114700Y-64250189D02*
X180605811Y-64250189D01*
X182118000Y-63500000D02*
X182118000Y-62230000D01*
D27*
X173469000Y-63929000D02*
X173294000Y-63754000D01*
X172720000Y-65532000D02*
X173469000Y-65532000D01*
D28*
X179070000Y-64325000D02*
X177546000Y-64325000D01*
X180605811Y-64250189D02*
X180086000Y-64770000D01*
D27*
X191262000Y-76454000D02*
X194684000Y-79876000D01*
X173294000Y-63754000D02*
X172466000Y-63754000D01*
X194684000Y-79876000D02*
X196342000Y-79876000D01*
X171704000Y-64516000D02*
X172720000Y-65532000D01*
X191262000Y-63500000D02*
X191262000Y-76454000D01*
D28*
X185420000Y-65278000D02*
X185420000Y-64325000D01*
X180086000Y-64770000D02*
X179641000Y-64325000D01*
D27*
X169958000Y-64516000D02*
X171704000Y-64516000D01*
X181343000Y-61455000D02*
X181343000Y-60960000D01*
D28*
X182118000Y-63500000D02*
X182118000Y-64770000D01*
D27*
%TO.N,Net-(D1-A)*%
X171574000Y-112776000D02*
X169958000Y-112776000D01*
X172336000Y-113538000D02*
X171574000Y-112776000D01*
%TO.N,Net-(D2-A)*%
X171574000Y-107696000D02*
X172336000Y-106934000D01*
X169958000Y-107696000D02*
X171574000Y-107696000D01*
D28*
%TO.N,Net-(D3-A1)*%
X181898000Y-113792000D02*
X181836000Y-113730000D01*
X183833000Y-113792000D02*
X181898000Y-113792000D01*
%TO.N,Net-(D3-A2)*%
X181898000Y-112268000D02*
X181836000Y-112330000D01*
X183833000Y-112268000D02*
X181898000Y-112268000D01*
%TO.N,/charger0/PG*%
X178336000Y-112330000D02*
X179160000Y-111506000D01*
X183892063Y-109470063D02*
X183121300Y-109470063D01*
X183642000Y-111506000D02*
X184404000Y-110744000D01*
X179160000Y-111506000D02*
X183642000Y-111506000D01*
X184404000Y-109982000D02*
X183892063Y-109470063D01*
X184404000Y-110744000D02*
X184404000Y-109982000D01*
%TO.N,/charger0/STAT*%
X177165000Y-112809000D02*
X178086000Y-113730000D01*
X183121300Y-109970189D02*
X183630189Y-109970189D01*
X183388000Y-111125000D02*
X177800000Y-111125000D01*
X178086000Y-113730000D02*
X178336000Y-113730000D01*
X183630189Y-109970189D02*
X183896000Y-110236000D01*
X177165000Y-111760000D02*
X177165000Y-112809000D01*
X177800000Y-111125000D02*
X177165000Y-111760000D01*
X183896000Y-110236000D02*
X183896000Y-110617000D01*
X183896000Y-110617000D02*
X183388000Y-111125000D01*
D27*
%TO.N,Net-(D4-A)*%
X172336000Y-104394000D02*
X171574000Y-103632000D01*
X171574000Y-103632000D02*
X169958000Y-103632000D01*
%TO.N,Net-(D5-A)*%
X169958000Y-98552000D02*
X171574000Y-98552000D01*
X171574000Y-98552000D02*
X172336000Y-97790000D01*
D28*
%TO.N,Net-(D6-A1)*%
X181898000Y-104648000D02*
X181836000Y-104586000D01*
X183833000Y-104648000D02*
X181898000Y-104648000D01*
%TO.N,Net-(D6-A2)*%
X183833000Y-103124000D02*
X181898000Y-103124000D01*
X181898000Y-103124000D02*
X181836000Y-103186000D01*
%TO.N,/charger1/PG*%
X183642000Y-102362000D02*
X184404000Y-101600000D01*
X179160000Y-102362000D02*
X183642000Y-102362000D01*
X178336000Y-103186000D02*
X179160000Y-102362000D01*
X184404000Y-100838000D02*
X183892063Y-100326063D01*
X184404000Y-101600000D02*
X184404000Y-100838000D01*
X183892063Y-100326063D02*
X183121300Y-100326063D01*
%TO.N,/charger1/STAT*%
X177165000Y-102616000D02*
X177165000Y-103665000D01*
X177165000Y-103665000D02*
X178086000Y-104586000D01*
X177800000Y-101981000D02*
X177165000Y-102616000D01*
X183121300Y-100826189D02*
X183630189Y-100826189D01*
X178086000Y-104586000D02*
X178336000Y-104586000D01*
X183388000Y-101981000D02*
X177800000Y-101981000D01*
X183630189Y-100826189D02*
X183896000Y-101092000D01*
X183896000Y-101473000D02*
X183388000Y-101981000D01*
X183896000Y-101092000D02*
X183896000Y-101473000D01*
D27*
%TO.N,Net-(D7-A)*%
X171574000Y-94488000D02*
X169958000Y-94488000D01*
X172336000Y-95250000D02*
X171574000Y-94488000D01*
%TO.N,Net-(D8-A)*%
X169958000Y-89408000D02*
X171574000Y-89408000D01*
X171574000Y-89408000D02*
X172336000Y-88646000D01*
D28*
%TO.N,Net-(D9-A1)*%
X181898000Y-95504000D02*
X181836000Y-95442000D01*
X183833000Y-95504000D02*
X181898000Y-95504000D01*
%TO.N,Net-(D9-A2)*%
X181898000Y-93980000D02*
X181836000Y-94042000D01*
X183833000Y-93980000D02*
X181898000Y-93980000D01*
%TO.N,/charger2/PG*%
X184404000Y-92456000D02*
X184404000Y-91694000D01*
X179160000Y-93218000D02*
X183642000Y-93218000D01*
X183892063Y-91182063D02*
X183121300Y-91182063D01*
X178336000Y-94042000D02*
X179160000Y-93218000D01*
X183642000Y-93218000D02*
X184404000Y-92456000D01*
X184404000Y-91694000D02*
X183892063Y-91182063D01*
%TO.N,/charger2/STAT*%
X177800000Y-92837000D02*
X177165000Y-93472000D01*
X183896000Y-91948000D02*
X183896000Y-92329000D01*
X177165000Y-93472000D02*
X177165000Y-94521000D01*
X183630189Y-91682189D02*
X183896000Y-91948000D01*
X183121300Y-91682189D02*
X183630189Y-91682189D01*
X177165000Y-94521000D02*
X178086000Y-95442000D01*
X178086000Y-95442000D02*
X178336000Y-95442000D01*
X183896000Y-92329000D02*
X183388000Y-92837000D01*
X183388000Y-92837000D02*
X177800000Y-92837000D01*
D27*
%TO.N,Net-(D10-A)*%
X172336000Y-86106000D02*
X171574000Y-85344000D01*
X171574000Y-85344000D02*
X169958000Y-85344000D01*
%TO.N,Net-(D11-A)*%
X169958000Y-80264000D02*
X171574000Y-80264000D01*
X171574000Y-80264000D02*
X172336000Y-79502000D01*
D28*
%TO.N,Net-(D12-A1)*%
X181898000Y-86360000D02*
X181836000Y-86298000D01*
X183833000Y-86360000D02*
X181898000Y-86360000D01*
%TO.N,Net-(D12-A2)*%
X183833000Y-84836000D02*
X181898000Y-84836000D01*
X181898000Y-84836000D02*
X181836000Y-84898000D01*
%TO.N,/charger3/PG*%
X183642000Y-84074000D02*
X184404000Y-83312000D01*
X184404000Y-82550000D02*
X183892063Y-82038063D01*
X178336000Y-84898000D02*
X179160000Y-84074000D01*
X183892063Y-82038063D02*
X183121300Y-82038063D01*
X184404000Y-83312000D02*
X184404000Y-82550000D01*
X179160000Y-84074000D02*
X183642000Y-84074000D01*
%TO.N,/charger3/STAT*%
X177165000Y-85377000D02*
X178086000Y-86298000D01*
X177165000Y-84328000D02*
X177165000Y-85377000D01*
X183388000Y-83693000D02*
X177800000Y-83693000D01*
X178086000Y-86298000D02*
X178336000Y-86298000D01*
X183896000Y-82804000D02*
X183896000Y-83185000D01*
X183896000Y-83185000D02*
X183388000Y-83693000D01*
X183630189Y-82538189D02*
X183896000Y-82804000D01*
X183121300Y-82538189D02*
X183630189Y-82538189D01*
X177800000Y-83693000D02*
X177165000Y-84328000D01*
D27*
%TO.N,Net-(D13-A)*%
X172336000Y-76962000D02*
X171574000Y-76200000D01*
X171574000Y-76200000D02*
X169958000Y-76200000D01*
%TO.N,Net-(D14-A)*%
X171574000Y-71120000D02*
X172336000Y-70358000D01*
X169958000Y-71120000D02*
X171574000Y-71120000D01*
D28*
%TO.N,Net-(D15-A1)*%
X183833000Y-77216000D02*
X181898000Y-77216000D01*
X181898000Y-77216000D02*
X181836000Y-77154000D01*
%TO.N,Net-(D15-A2)*%
X181898000Y-75692000D02*
X181836000Y-75754000D01*
X183833000Y-75692000D02*
X181898000Y-75692000D01*
%TO.N,/charger4/PG*%
X183892063Y-72894063D02*
X183121300Y-72894063D01*
X184404000Y-74168000D02*
X184404000Y-73406000D01*
X178336000Y-75754000D02*
X179160000Y-74930000D01*
X179160000Y-74930000D02*
X183642000Y-74930000D01*
X183642000Y-74930000D02*
X184404000Y-74168000D01*
X184404000Y-73406000D02*
X183892063Y-72894063D01*
%TO.N,/charger4/STAT*%
X183388000Y-74549000D02*
X177800000Y-74549000D01*
X177800000Y-74549000D02*
X177165000Y-75184000D01*
X177165000Y-76233000D02*
X178086000Y-77154000D01*
X183630189Y-73394189D02*
X183896000Y-73660000D01*
X178086000Y-77154000D02*
X178336000Y-77154000D01*
X177165000Y-75184000D02*
X177165000Y-76233000D01*
X183896000Y-74041000D02*
X183388000Y-74549000D01*
X183896000Y-73660000D02*
X183896000Y-74041000D01*
X183121300Y-73394189D02*
X183630189Y-73394189D01*
D27*
%TO.N,Net-(D16-A)*%
X171574000Y-67056000D02*
X169958000Y-67056000D01*
X172336000Y-67818000D02*
X171574000Y-67056000D01*
%TO.N,Net-(D17-A)*%
X171574000Y-61976000D02*
X172336000Y-61214000D01*
X169958000Y-61976000D02*
X171574000Y-61976000D01*
D28*
%TO.N,Net-(D18-A1)*%
X181898000Y-68072000D02*
X181836000Y-68010000D01*
X183833000Y-68072000D02*
X181898000Y-68072000D01*
%TO.N,Net-(D18-A2)*%
X183833000Y-66548000D02*
X181898000Y-66548000D01*
X181898000Y-66548000D02*
X181836000Y-66610000D01*
%TO.N,/charger5/PG*%
X179160000Y-65786000D02*
X183642000Y-65786000D01*
X183642000Y-65786000D02*
X184404000Y-65024000D01*
X184404000Y-64262000D02*
X183892063Y-63750063D01*
X184404000Y-65024000D02*
X184404000Y-64262000D01*
X183892063Y-63750063D02*
X183121300Y-63750063D01*
X178336000Y-66610000D02*
X179160000Y-65786000D01*
%TO.N,/charger5/STAT*%
X183896000Y-64897000D02*
X183388000Y-65405000D01*
X183896000Y-64516000D02*
X183896000Y-64897000D01*
X183121300Y-64250189D02*
X183630189Y-64250189D01*
X183388000Y-65405000D02*
X177800000Y-65405000D01*
X178086000Y-68010000D02*
X178336000Y-68010000D01*
X177165000Y-67089000D02*
X178086000Y-68010000D01*
X177800000Y-65405000D02*
X177165000Y-66040000D01*
X183630189Y-64250189D02*
X183896000Y-64516000D01*
X177165000Y-66040000D02*
X177165000Y-67089000D01*
%TO.N,Net-(U2-ISET)*%
X179832000Y-108458000D02*
X180343937Y-108969937D01*
X177546000Y-108395000D02*
X177609000Y-108395000D01*
X177609000Y-108395000D02*
X178308000Y-107696000D01*
X178308000Y-107696000D02*
X179578000Y-107696000D01*
X179832000Y-107950000D02*
X179832000Y-108458000D01*
X180343937Y-108969937D02*
X181114700Y-108969937D01*
X179578000Y-107696000D02*
X179832000Y-107950000D01*
%TO.N,Net-(U2-TS)*%
X180145063Y-109470063D02*
X181114700Y-109470063D01*
X179070000Y-108395000D02*
X180145063Y-109470063D01*
%TO.N,Net-(U2-VSET)*%
X183121300Y-108969937D02*
X183892063Y-108969937D01*
X184467000Y-108395000D02*
X185420000Y-108395000D01*
X183892063Y-108969937D02*
X184467000Y-108395000D01*
%TO.N,Net-(U4-ISET)*%
X178308000Y-98552000D02*
X179578000Y-98552000D01*
X177546000Y-99251000D02*
X177609000Y-99251000D01*
X179578000Y-98552000D02*
X179832000Y-98806000D01*
X179832000Y-99314000D02*
X180343937Y-99825937D01*
X177609000Y-99251000D02*
X178308000Y-98552000D01*
X179832000Y-98806000D02*
X179832000Y-99314000D01*
X180343937Y-99825937D02*
X181114700Y-99825937D01*
%TO.N,Net-(U4-TS)*%
X179070000Y-99251000D02*
X180145063Y-100326063D01*
X180145063Y-100326063D02*
X181114700Y-100326063D01*
%TO.N,Net-(U4-VSET)*%
X183892063Y-99825937D02*
X184467000Y-99251000D01*
X183121300Y-99825937D02*
X183892063Y-99825937D01*
X184467000Y-99251000D02*
X185420000Y-99251000D01*
%TO.N,Net-(U6-ISET)*%
X177609000Y-90107000D02*
X178308000Y-89408000D01*
X179832000Y-89662000D02*
X179832000Y-90170000D01*
X179578000Y-89408000D02*
X179832000Y-89662000D01*
X178308000Y-89408000D02*
X179578000Y-89408000D01*
X179832000Y-90170000D02*
X180343937Y-90681937D01*
X177546000Y-90107000D02*
X177609000Y-90107000D01*
X180343937Y-90681937D02*
X181114700Y-90681937D01*
%TO.N,Net-(U6-TS)*%
X179070000Y-90107000D02*
X180145063Y-91182063D01*
X180145063Y-91182063D02*
X181114700Y-91182063D01*
%TO.N,Net-(U6-VSET)*%
X183892063Y-90681937D02*
X184467000Y-90107000D01*
X183121300Y-90681937D02*
X183892063Y-90681937D01*
X184467000Y-90107000D02*
X185420000Y-90107000D01*
%TO.N,Net-(U8-ISET)*%
X178308000Y-80264000D02*
X179578000Y-80264000D01*
X179832000Y-81026000D02*
X180343937Y-81537937D01*
X177609000Y-80963000D02*
X178308000Y-80264000D01*
X180343937Y-81537937D02*
X181114700Y-81537937D01*
X177546000Y-80963000D02*
X177609000Y-80963000D01*
X179832000Y-80518000D02*
X179832000Y-81026000D01*
X179578000Y-80264000D02*
X179832000Y-80518000D01*
%TO.N,Net-(U8-TS)*%
X180145063Y-82038063D02*
X181114700Y-82038063D01*
X179070000Y-80963000D02*
X180145063Y-82038063D01*
%TO.N,Net-(U8-VSET)*%
X183892063Y-81537937D02*
X184467000Y-80963000D01*
X184467000Y-80963000D02*
X185420000Y-80963000D01*
X183121300Y-81537937D02*
X183892063Y-81537937D01*
%TO.N,Net-(U10-ISET)*%
X179832000Y-71374000D02*
X179832000Y-71882000D01*
X177546000Y-71819000D02*
X177609000Y-71819000D01*
X179578000Y-71120000D02*
X179832000Y-71374000D01*
X178308000Y-71120000D02*
X179578000Y-71120000D01*
X180343937Y-72393937D02*
X181114700Y-72393937D01*
X177609000Y-71819000D02*
X178308000Y-71120000D01*
X179832000Y-71882000D02*
X180343937Y-72393937D01*
%TO.N,Net-(U10-TS)*%
X180145063Y-72894063D02*
X181114700Y-72894063D01*
X179070000Y-71819000D02*
X180145063Y-72894063D01*
%TO.N,Net-(U10-VSET)*%
X183892063Y-72393937D02*
X184467000Y-71819000D01*
X183121300Y-72393937D02*
X183892063Y-72393937D01*
X184467000Y-71819000D02*
X185420000Y-71819000D01*
%TO.N,Net-(U12-ISET)*%
X179832000Y-62738000D02*
X180343937Y-63249937D01*
X178308000Y-61976000D02*
X179578000Y-61976000D01*
X180343937Y-63249937D02*
X181114700Y-63249937D01*
X179832000Y-62230000D02*
X179832000Y-62738000D01*
X177546000Y-62675000D02*
X177609000Y-62675000D01*
X179578000Y-61976000D02*
X179832000Y-62230000D01*
X177609000Y-62675000D02*
X178308000Y-61976000D01*
%TO.N,Net-(U12-TS)*%
X179070000Y-62675000D02*
X180145063Y-63750063D01*
X180145063Y-63750063D02*
X181114700Y-63750063D01*
%TO.N,Net-(U12-VSET)*%
X183892063Y-63249937D02*
X184467000Y-62675000D01*
X183121300Y-63249937D02*
X183892063Y-63249937D01*
X184467000Y-62675000D02*
X185420000Y-62675000D01*
%TO.N,Net-(U1-D1)*%
X156077500Y-111186000D02*
X156906000Y-111186000D01*
X156906000Y-111186000D02*
X158496000Y-112776000D01*
X158496000Y-112776000D02*
X158718000Y-112776000D01*
%TO.N,Net-(U1-D2)*%
X158496000Y-107696000D02*
X158718000Y-107696000D01*
X156077500Y-109286000D02*
X156906000Y-109286000D01*
X156906000Y-109286000D02*
X158496000Y-107696000D01*
%TO.N,Net-(U3-D1)*%
X156906000Y-102042000D02*
X158496000Y-103632000D01*
X158496000Y-103632000D02*
X158718000Y-103632000D01*
X156077500Y-102042000D02*
X156906000Y-102042000D01*
%TO.N,Net-(U3-D2)*%
X158496000Y-98552000D02*
X158718000Y-98552000D01*
X156906000Y-100142000D02*
X158496000Y-98552000D01*
X156077500Y-100142000D02*
X156906000Y-100142000D01*
%TO.N,Net-(U5-D1)*%
X156906000Y-92898000D02*
X158496000Y-94488000D01*
X156077500Y-92898000D02*
X156906000Y-92898000D01*
X158496000Y-94488000D02*
X158718000Y-94488000D01*
%TO.N,Net-(U5-D2)*%
X156077500Y-90998000D02*
X156906000Y-90998000D01*
X156906000Y-90998000D02*
X158496000Y-89408000D01*
X158496000Y-89408000D02*
X158718000Y-89408000D01*
%TO.N,Net-(U7-D1)*%
X156906000Y-83754000D02*
X158496000Y-85344000D01*
X156077500Y-83754000D02*
X156906000Y-83754000D01*
X158496000Y-85344000D02*
X158718000Y-85344000D01*
%TO.N,Net-(U7-D2)*%
X156906000Y-81854000D02*
X158496000Y-80264000D01*
X158496000Y-80264000D02*
X158718000Y-80264000D01*
X156077500Y-81854000D02*
X156906000Y-81854000D01*
%TO.N,Net-(U9-D1)*%
X158496000Y-76200000D02*
X158718000Y-76200000D01*
X156077500Y-74610000D02*
X156906000Y-74610000D01*
X156906000Y-74610000D02*
X158496000Y-76200000D01*
%TO.N,Net-(U9-D2)*%
X158496000Y-71120000D02*
X158718000Y-71120000D01*
X156077500Y-72710000D02*
X156906000Y-72710000D01*
X156906000Y-72710000D02*
X158496000Y-71120000D01*
%TO.N,Net-(U11-D1)*%
X156077500Y-65466000D02*
X156906000Y-65466000D01*
X158496000Y-67056000D02*
X158718000Y-67056000D01*
X156906000Y-65466000D02*
X158496000Y-67056000D01*
%TO.N,Net-(U11-D2)*%
X156906000Y-63566000D02*
X158496000Y-61976000D01*
X156077500Y-63566000D02*
X156906000Y-63566000D01*
X158496000Y-61976000D02*
X158718000Y-61976000D01*
%TD*%
%TA.AperFunction,Conductor*%
%TO.N,+5V*%
G36*
X149367931Y-66949002D02*
G01*
X149388905Y-66965905D01*
X149950095Y-67527095D01*
X149984121Y-67589407D01*
X149987000Y-67616190D01*
X149987000Y-109167810D01*
X149966998Y-109235931D01*
X149950095Y-109256905D01*
X149388905Y-109818095D01*
X149326593Y-109852121D01*
X149299810Y-109855000D01*
X146991190Y-109855000D01*
X146923069Y-109834998D01*
X146902095Y-109818095D01*
X146721905Y-109637905D01*
X146687879Y-109575593D01*
X146685000Y-109548810D01*
X146685000Y-89055999D01*
X146705002Y-88987878D01*
X146758658Y-88941385D01*
X146811000Y-88929999D01*
X147447000Y-88929999D01*
X147447000Y-88166752D01*
X147529074Y-88176000D01*
X147618926Y-88176000D01*
X147701000Y-88166752D01*
X147701000Y-88929999D01*
X148899014Y-88929999D01*
X148899022Y-88929998D01*
X148973105Y-88915262D01*
X148973107Y-88915262D01*
X149057124Y-88859124D01*
X149113262Y-88775106D01*
X149113263Y-88775105D01*
X149127999Y-88701022D01*
X149128000Y-88701015D01*
X149128000Y-87503000D01*
X148364752Y-87503000D01*
X148379062Y-87376000D01*
X148364752Y-87249000D01*
X149127999Y-87249000D01*
X149127999Y-86050986D01*
X149127998Y-86050977D01*
X149113262Y-85976894D01*
X149113262Y-85976892D01*
X149057124Y-85892875D01*
X148973106Y-85836737D01*
X148973105Y-85836736D01*
X148899022Y-85822000D01*
X147701000Y-85822000D01*
X147701000Y-86585247D01*
X147618926Y-86576000D01*
X147529074Y-86576000D01*
X147447000Y-86585247D01*
X147447000Y-85822000D01*
X146811000Y-85822000D01*
X146742879Y-85801998D01*
X146696386Y-85748342D01*
X146685000Y-85696000D01*
X146685000Y-78567787D01*
X146685792Y-78553679D01*
X146703551Y-78396068D01*
X146703551Y-78306062D01*
X146703632Y-78305077D01*
X146703551Y-78232001D01*
X146703551Y-78168684D01*
X146703478Y-78167701D01*
X146691333Y-67228996D01*
X146711259Y-67160854D01*
X146728233Y-67139766D01*
X146902096Y-66965904D01*
X146964408Y-66931879D01*
X146991191Y-66929000D01*
X149299810Y-66929000D01*
X149367931Y-66949002D01*
G37*
%TD.AperFunction*%
%TD*%
M02*
