%TF.GenerationSoftware,KiCad,Pcbnew,7.0.11+dfsg-1build4*%
%TF.CreationDate,2024-08-12T23:44:42-07:00*%
%TF.ProjectId,6s_750mA,36735f37-3530-46d4-912e-6b696361645f,rev?*%
%TF.SameCoordinates,Original*%
%TF.FileFunction,Profile,NP*%
%FSLAX46Y46*%
G04 Gerber Fmt 4.6, Leading zero omitted, Abs format (unit mm)*
G04 Created by KiCad (PCBNEW 7.0.11+dfsg-1build4) date 2024-08-12 23:44:42*
%MOMM*%
%LPD*%
G01*
G04 APERTURE LIST*
%TA.AperFunction,Profile*%
%ADD10C,0.050000*%
%TD*%
G04 APERTURE END LIST*
D10*
X143782051Y-80771951D02*
G75*
G03*
X146322051Y-78232000I49J2539951D01*
G01*
X146285900Y-96520000D02*
G75*
G03*
X143745949Y-93980000I-2540000J0D01*
G01*
X200660000Y-74422000D02*
G75*
G03*
X203200000Y-76962000I2540000J0D01*
G01*
X208026000Y-97790000D02*
G75*
G03*
X208788000Y-97028000I0J762000D01*
G01*
X146304000Y-61976000D02*
X146322051Y-78232000D01*
X200660000Y-61976000D02*
G75*
G03*
X198120000Y-59436000I-2540000J0D01*
G01*
X198120000Y-115316000D02*
G75*
G03*
X200660000Y-112776000I0J2540000D01*
G01*
X136398000Y-93980000D02*
X143745949Y-93980000D01*
X133858000Y-91440000D02*
G75*
G03*
X136398000Y-93980000I2540000J0D01*
G01*
X136416051Y-80772000D02*
X143782051Y-80772000D01*
X148844000Y-59436000D02*
G75*
G03*
X146304000Y-61976000I0J-2540000D01*
G01*
X146304000Y-112776000D02*
G75*
G03*
X148844000Y-115316000I2540000J0D01*
G01*
X136416051Y-80771951D02*
G75*
G03*
X133876051Y-83312000I49J-2540049D01*
G01*
X198120000Y-59436000D02*
X148844000Y-59436000D01*
X148844000Y-115316000D02*
X198120000Y-115316000D01*
X200660000Y-112776000D02*
X200660000Y-100330000D01*
X203200000Y-97790000D02*
G75*
G03*
X200660000Y-100330000I0J-2540000D01*
G01*
X208026000Y-97790000D02*
X203200000Y-97790000D01*
X133876051Y-83312000D02*
X133858000Y-91440000D01*
X208788000Y-77724000D02*
G75*
G03*
X208026000Y-76962000I-762000J0D01*
G01*
X208026000Y-76962000D02*
X203200000Y-76962000D01*
X146285949Y-96520000D02*
X146304000Y-112776000D01*
X208788000Y-97028000D02*
X208788000Y-77724000D01*
X200660000Y-74422000D02*
X200660000Y-61976000D01*
M02*
