M48
; DRILL file {KiCad 7.0.11+dfsg-1build4} date Tue 23 Jul 2024 07:13:53 PM PDT
; FORMAT={-:-/ absolute / inch / decimal}
; #@! TF.CreationDate,2024-07-23T19:13:53-07:00
; #@! TF.GenerationSoftware,Kicad,Pcbnew,7.0.11+dfsg-1build4
; #@! TF.FileFunction,Plated,1,2,PTH
FMAT,2
INCH
; #@! TA.AperFunction,Plated,PTH,ViaDrill
T1C0.0120
; #@! TA.AperFunction,Plated,PTH,ComponentDrill
T2C0.0374
; #@! TA.AperFunction,Plated,PTH,ComponentDrill
T3C0.0630
%
G90
G05
T1
X5.97Y-2.46
X5.97Y-2.82
X5.97Y-3.18
X5.97Y-3.54
X5.97Y-3.9
X5.97Y-4.26
X6.76Y-2.54
X6.76Y-2.9
X6.76Y-3.26
X6.76Y-3.62
X6.76Y-3.98
X6.76Y-4.34
X7.09Y-2.55
X7.09Y-2.91
X7.09Y-3.27
X7.09Y-3.63
X7.09Y-3.99
X7.09Y-4.35
X7.17Y-2.45
X7.17Y-2.55
X7.17Y-2.81
X7.17Y-2.91
X7.17Y-3.17
X7.17Y-3.27
X7.17Y-3.53
X7.17Y-3.63
X7.17Y-3.89
X7.17Y-3.99
X7.17Y-4.25
X7.17Y-4.35
X7.3Y-2.57
X7.3Y-2.93
X7.3Y-3.29
X7.3Y-3.65
X7.3Y-4.01
X7.3Y-4.37
X7.34Y-2.38
X7.34Y-2.74
X7.34Y-3.1
X7.34Y-3.46
X7.34Y-3.82
X7.34Y-4.18
T2
X7.73Y-3.1447
X7.73Y-3.2431
X7.73Y-3.3416
X7.73Y-3.44
X7.73Y-3.5384
X7.73Y-3.6369
X7.73Y-3.7353
T3
X5.5738Y-3.44
X5.6919Y-3.625
X5.81Y-3.44
M30
