%TF.GenerationSoftware,KiCad,Pcbnew,7.0.11+dfsg-1build4*%
%TF.CreationDate,2024-07-23T19:21:24-07:00*%
%TF.ProjectId,6s_750mA,36735f37-3530-46d4-912e-6b696361645f,rev?*%
%TF.SameCoordinates,Original*%
%TF.FileFunction,Legend,Top*%
%TF.FilePolarity,Positive*%
%FSLAX46Y46*%
G04 Gerber Fmt 4.6, Leading zero omitted, Abs format (unit mm)*
G04 Created by KiCad (PCBNEW 7.0.11+dfsg-1build4) date 2024-07-23 19:21:24*
%MOMM*%
%LPD*%
G01*
G04 APERTURE LIST*
%ADD10C,0.152400*%
%ADD11C,0.300000*%
%ADD12C,0.203200*%
%ADD13C,0.150000*%
%ADD14C,0.120000*%
%ADD15C,0.500000*%
G04 APERTURE END LIST*
D10*
X191643000Y-60833000D02*
X192913000Y-60833000D01*
X192913000Y-62103000D01*
X191643000Y-62103000D01*
X191643000Y-60833000D01*
G36*
X191643000Y-60833000D02*
G01*
X192913000Y-60833000D01*
X192913000Y-62103000D01*
X191643000Y-62103000D01*
X191643000Y-60833000D01*
G37*
X136525000Y-92964000D02*
X135763000Y-92964000D01*
X142525000Y-92964000D02*
X141763000Y-92964000D01*
X142144000Y-93345000D02*
X142144000Y-92583000D01*
D11*
X191443828Y-107125998D02*
X189943828Y-107125998D01*
X191372400Y-106483140D02*
X191443828Y-106340283D01*
X191443828Y-106340283D02*
X191443828Y-106054569D01*
X191443828Y-106054569D02*
X191372400Y-105911712D01*
X191372400Y-105911712D02*
X191229542Y-105840283D01*
X191229542Y-105840283D02*
X191158114Y-105840283D01*
X191158114Y-105840283D02*
X191015257Y-105911712D01*
X191015257Y-105911712D02*
X190943828Y-106054569D01*
X190943828Y-106054569D02*
X190943828Y-106268855D01*
X190943828Y-106268855D02*
X190872400Y-106411712D01*
X190872400Y-106411712D02*
X190729542Y-106483140D01*
X190729542Y-106483140D02*
X190658114Y-106483140D01*
X190658114Y-106483140D02*
X190515257Y-106411712D01*
X190515257Y-106411712D02*
X190443828Y-106268855D01*
X190443828Y-106268855D02*
X190443828Y-106054569D01*
X190443828Y-106054569D02*
X190515257Y-105911712D01*
X191443828Y-104983140D02*
X191372400Y-105125997D01*
X191372400Y-105125997D02*
X191300971Y-105197426D01*
X191300971Y-105197426D02*
X191158114Y-105268854D01*
X191158114Y-105268854D02*
X190729542Y-105268854D01*
X190729542Y-105268854D02*
X190586685Y-105197426D01*
X190586685Y-105197426D02*
X190515257Y-105125997D01*
X190515257Y-105125997D02*
X190443828Y-104983140D01*
X190443828Y-104983140D02*
X190443828Y-104768854D01*
X190443828Y-104768854D02*
X190515257Y-104625997D01*
X190515257Y-104625997D02*
X190586685Y-104554569D01*
X190586685Y-104554569D02*
X190729542Y-104483140D01*
X190729542Y-104483140D02*
X191158114Y-104483140D01*
X191158114Y-104483140D02*
X191300971Y-104554569D01*
X191300971Y-104554569D02*
X191372400Y-104625997D01*
X191372400Y-104625997D02*
X191443828Y-104768854D01*
X191443828Y-104768854D02*
X191443828Y-104983140D01*
X191443828Y-103625997D02*
X191372400Y-103768854D01*
X191372400Y-103768854D02*
X191229542Y-103840283D01*
X191229542Y-103840283D02*
X189943828Y-103840283D01*
X191443828Y-102411712D02*
X190658114Y-102411712D01*
X190658114Y-102411712D02*
X190515257Y-102483140D01*
X190515257Y-102483140D02*
X190443828Y-102625997D01*
X190443828Y-102625997D02*
X190443828Y-102911712D01*
X190443828Y-102911712D02*
X190515257Y-103054569D01*
X191372400Y-102411712D02*
X191443828Y-102554569D01*
X191443828Y-102554569D02*
X191443828Y-102911712D01*
X191443828Y-102911712D02*
X191372400Y-103054569D01*
X191372400Y-103054569D02*
X191229542Y-103125997D01*
X191229542Y-103125997D02*
X191086685Y-103125997D01*
X191086685Y-103125997D02*
X190943828Y-103054569D01*
X190943828Y-103054569D02*
X190872400Y-102911712D01*
X190872400Y-102911712D02*
X190872400Y-102554569D01*
X190872400Y-102554569D02*
X190800971Y-102411712D01*
X190443828Y-101911711D02*
X190443828Y-101340283D01*
X189943828Y-101697426D02*
X191229542Y-101697426D01*
X191229542Y-101697426D02*
X191372400Y-101625997D01*
X191372400Y-101625997D02*
X191443828Y-101483140D01*
X191443828Y-101483140D02*
X191443828Y-101340283D01*
X191372400Y-100268854D02*
X191443828Y-100411711D01*
X191443828Y-100411711D02*
X191443828Y-100697426D01*
X191443828Y-100697426D02*
X191372400Y-100840283D01*
X191372400Y-100840283D02*
X191229542Y-100911711D01*
X191229542Y-100911711D02*
X190658114Y-100911711D01*
X190658114Y-100911711D02*
X190515257Y-100840283D01*
X190515257Y-100840283D02*
X190443828Y-100697426D01*
X190443828Y-100697426D02*
X190443828Y-100411711D01*
X190443828Y-100411711D02*
X190515257Y-100268854D01*
X190515257Y-100268854D02*
X190658114Y-100197426D01*
X190658114Y-100197426D02*
X190800971Y-100197426D01*
X190800971Y-100197426D02*
X190943828Y-100911711D01*
X191443828Y-98911712D02*
X189943828Y-98911712D01*
X191372400Y-98911712D02*
X191443828Y-99054569D01*
X191443828Y-99054569D02*
X191443828Y-99340283D01*
X191443828Y-99340283D02*
X191372400Y-99483140D01*
X191372400Y-99483140D02*
X191300971Y-99554569D01*
X191300971Y-99554569D02*
X191158114Y-99625997D01*
X191158114Y-99625997D02*
X190729542Y-99625997D01*
X190729542Y-99625997D02*
X190586685Y-99554569D01*
X190586685Y-99554569D02*
X190515257Y-99483140D01*
X190515257Y-99483140D02*
X190443828Y-99340283D01*
X190443828Y-99340283D02*
X190443828Y-99054569D01*
X190443828Y-99054569D02*
X190515257Y-98911712D01*
X191443828Y-96340283D02*
X191443828Y-97054569D01*
X191443828Y-97054569D02*
X189943828Y-97054569D01*
X191443828Y-95840283D02*
X190443828Y-95840283D01*
X189943828Y-95840283D02*
X190015257Y-95911711D01*
X190015257Y-95911711D02*
X190086685Y-95840283D01*
X190086685Y-95840283D02*
X190015257Y-95768854D01*
X190015257Y-95768854D02*
X189943828Y-95840283D01*
X189943828Y-95840283D02*
X190086685Y-95840283D01*
X191443828Y-95125997D02*
X189943828Y-95125997D01*
X189943828Y-95125997D02*
X189943828Y-94554568D01*
X189943828Y-94554568D02*
X190015257Y-94411711D01*
X190015257Y-94411711D02*
X190086685Y-94340282D01*
X190086685Y-94340282D02*
X190229542Y-94268854D01*
X190229542Y-94268854D02*
X190443828Y-94268854D01*
X190443828Y-94268854D02*
X190586685Y-94340282D01*
X190586685Y-94340282D02*
X190658114Y-94411711D01*
X190658114Y-94411711D02*
X190729542Y-94554568D01*
X190729542Y-94554568D02*
X190729542Y-95125997D01*
X191443828Y-93411711D02*
X191372400Y-93554568D01*
X191372400Y-93554568D02*
X191300971Y-93625997D01*
X191300971Y-93625997D02*
X191158114Y-93697425D01*
X191158114Y-93697425D02*
X190729542Y-93697425D01*
X190729542Y-93697425D02*
X190586685Y-93625997D01*
X190586685Y-93625997D02*
X190515257Y-93554568D01*
X190515257Y-93554568D02*
X190443828Y-93411711D01*
X190443828Y-93411711D02*
X190443828Y-93197425D01*
X190443828Y-93197425D02*
X190515257Y-93054568D01*
X190515257Y-93054568D02*
X190586685Y-92983140D01*
X190586685Y-92983140D02*
X190729542Y-92911711D01*
X190729542Y-92911711D02*
X191158114Y-92911711D01*
X191158114Y-92911711D02*
X191300971Y-92983140D01*
X191300971Y-92983140D02*
X191372400Y-93054568D01*
X191372400Y-93054568D02*
X191443828Y-93197425D01*
X191443828Y-93197425D02*
X191443828Y-93411711D01*
X191372400Y-90483140D02*
X191443828Y-90625997D01*
X191443828Y-90625997D02*
X191443828Y-90911711D01*
X191443828Y-90911711D02*
X191372400Y-91054568D01*
X191372400Y-91054568D02*
X191300971Y-91125997D01*
X191300971Y-91125997D02*
X191158114Y-91197425D01*
X191158114Y-91197425D02*
X190729542Y-91197425D01*
X190729542Y-91197425D02*
X190586685Y-91125997D01*
X190586685Y-91125997D02*
X190515257Y-91054568D01*
X190515257Y-91054568D02*
X190443828Y-90911711D01*
X190443828Y-90911711D02*
X190443828Y-90625997D01*
X190443828Y-90625997D02*
X190515257Y-90483140D01*
X191443828Y-89840283D02*
X189943828Y-89840283D01*
X191443828Y-89197426D02*
X190658114Y-89197426D01*
X190658114Y-89197426D02*
X190515257Y-89268854D01*
X190515257Y-89268854D02*
X190443828Y-89411711D01*
X190443828Y-89411711D02*
X190443828Y-89625997D01*
X190443828Y-89625997D02*
X190515257Y-89768854D01*
X190515257Y-89768854D02*
X190586685Y-89840283D01*
X191443828Y-87840283D02*
X190658114Y-87840283D01*
X190658114Y-87840283D02*
X190515257Y-87911711D01*
X190515257Y-87911711D02*
X190443828Y-88054568D01*
X190443828Y-88054568D02*
X190443828Y-88340283D01*
X190443828Y-88340283D02*
X190515257Y-88483140D01*
X191372400Y-87840283D02*
X191443828Y-87983140D01*
X191443828Y-87983140D02*
X191443828Y-88340283D01*
X191443828Y-88340283D02*
X191372400Y-88483140D01*
X191372400Y-88483140D02*
X191229542Y-88554568D01*
X191229542Y-88554568D02*
X191086685Y-88554568D01*
X191086685Y-88554568D02*
X190943828Y-88483140D01*
X190943828Y-88483140D02*
X190872400Y-88340283D01*
X190872400Y-88340283D02*
X190872400Y-87983140D01*
X190872400Y-87983140D02*
X190800971Y-87840283D01*
X191443828Y-87125997D02*
X190443828Y-87125997D01*
X190729542Y-87125997D02*
X190586685Y-87054568D01*
X190586685Y-87054568D02*
X190515257Y-86983140D01*
X190515257Y-86983140D02*
X190443828Y-86840282D01*
X190443828Y-86840282D02*
X190443828Y-86697425D01*
X190443828Y-85554569D02*
X191658114Y-85554569D01*
X191658114Y-85554569D02*
X191800971Y-85625997D01*
X191800971Y-85625997D02*
X191872400Y-85697426D01*
X191872400Y-85697426D02*
X191943828Y-85840283D01*
X191943828Y-85840283D02*
X191943828Y-86054569D01*
X191943828Y-86054569D02*
X191872400Y-86197426D01*
X191372400Y-85554569D02*
X191443828Y-85697426D01*
X191443828Y-85697426D02*
X191443828Y-85983140D01*
X191443828Y-85983140D02*
X191372400Y-86125997D01*
X191372400Y-86125997D02*
X191300971Y-86197426D01*
X191300971Y-86197426D02*
X191158114Y-86268854D01*
X191158114Y-86268854D02*
X190729542Y-86268854D01*
X190729542Y-86268854D02*
X190586685Y-86197426D01*
X190586685Y-86197426D02*
X190515257Y-86125997D01*
X190515257Y-86125997D02*
X190443828Y-85983140D01*
X190443828Y-85983140D02*
X190443828Y-85697426D01*
X190443828Y-85697426D02*
X190515257Y-85554569D01*
X191372400Y-84268854D02*
X191443828Y-84411711D01*
X191443828Y-84411711D02*
X191443828Y-84697426D01*
X191443828Y-84697426D02*
X191372400Y-84840283D01*
X191372400Y-84840283D02*
X191229542Y-84911711D01*
X191229542Y-84911711D02*
X190658114Y-84911711D01*
X190658114Y-84911711D02*
X190515257Y-84840283D01*
X190515257Y-84840283D02*
X190443828Y-84697426D01*
X190443828Y-84697426D02*
X190443828Y-84411711D01*
X190443828Y-84411711D02*
X190515257Y-84268854D01*
X190515257Y-84268854D02*
X190658114Y-84197426D01*
X190658114Y-84197426D02*
X190800971Y-84197426D01*
X190800971Y-84197426D02*
X190943828Y-84911711D01*
X191443828Y-83554569D02*
X190443828Y-83554569D01*
X190729542Y-83554569D02*
X190586685Y-83483140D01*
X190586685Y-83483140D02*
X190515257Y-83411712D01*
X190515257Y-83411712D02*
X190443828Y-83268854D01*
X190443828Y-83268854D02*
X190443828Y-83125997D01*
X190872400Y-81483141D02*
X190872400Y-80340284D01*
X189943828Y-77840284D02*
X189943828Y-78125998D01*
X189943828Y-78125998D02*
X190015257Y-78268855D01*
X190015257Y-78268855D02*
X190086685Y-78340284D01*
X190086685Y-78340284D02*
X190300971Y-78483141D01*
X190300971Y-78483141D02*
X190586685Y-78554569D01*
X190586685Y-78554569D02*
X191158114Y-78554569D01*
X191158114Y-78554569D02*
X191300971Y-78483141D01*
X191300971Y-78483141D02*
X191372400Y-78411712D01*
X191372400Y-78411712D02*
X191443828Y-78268855D01*
X191443828Y-78268855D02*
X191443828Y-77983141D01*
X191443828Y-77983141D02*
X191372400Y-77840284D01*
X191372400Y-77840284D02*
X191300971Y-77768855D01*
X191300971Y-77768855D02*
X191158114Y-77697426D01*
X191158114Y-77697426D02*
X190800971Y-77697426D01*
X190800971Y-77697426D02*
X190658114Y-77768855D01*
X190658114Y-77768855D02*
X190586685Y-77840284D01*
X190586685Y-77840284D02*
X190515257Y-77983141D01*
X190515257Y-77983141D02*
X190515257Y-78268855D01*
X190515257Y-78268855D02*
X190586685Y-78411712D01*
X190586685Y-78411712D02*
X190658114Y-78483141D01*
X190658114Y-78483141D02*
X190800971Y-78554569D01*
X191372400Y-77125998D02*
X191443828Y-76911713D01*
X191443828Y-76911713D02*
X191443828Y-76554570D01*
X191443828Y-76554570D02*
X191372400Y-76411713D01*
X191372400Y-76411713D02*
X191300971Y-76340284D01*
X191300971Y-76340284D02*
X191158114Y-76268855D01*
X191158114Y-76268855D02*
X191015257Y-76268855D01*
X191015257Y-76268855D02*
X190872400Y-76340284D01*
X190872400Y-76340284D02*
X190800971Y-76411713D01*
X190800971Y-76411713D02*
X190729542Y-76554570D01*
X190729542Y-76554570D02*
X190658114Y-76840284D01*
X190658114Y-76840284D02*
X190586685Y-76983141D01*
X190586685Y-76983141D02*
X190515257Y-77054570D01*
X190515257Y-77054570D02*
X190372400Y-77125998D01*
X190372400Y-77125998D02*
X190229542Y-77125998D01*
X190229542Y-77125998D02*
X190086685Y-77054570D01*
X190086685Y-77054570D02*
X190015257Y-76983141D01*
X190015257Y-76983141D02*
X189943828Y-76840284D01*
X189943828Y-76840284D02*
X189943828Y-76483141D01*
X189943828Y-76483141D02*
X190015257Y-76268855D01*
X189943828Y-74625999D02*
X189943828Y-73625999D01*
X189943828Y-73625999D02*
X191443828Y-74268856D01*
X189943828Y-72340285D02*
X189943828Y-73054571D01*
X189943828Y-73054571D02*
X190658114Y-73125999D01*
X190658114Y-73125999D02*
X190586685Y-73054571D01*
X190586685Y-73054571D02*
X190515257Y-72911714D01*
X190515257Y-72911714D02*
X190515257Y-72554571D01*
X190515257Y-72554571D02*
X190586685Y-72411714D01*
X190586685Y-72411714D02*
X190658114Y-72340285D01*
X190658114Y-72340285D02*
X190800971Y-72268856D01*
X190800971Y-72268856D02*
X191158114Y-72268856D01*
X191158114Y-72268856D02*
X191300971Y-72340285D01*
X191300971Y-72340285D02*
X191372400Y-72411714D01*
X191372400Y-72411714D02*
X191443828Y-72554571D01*
X191443828Y-72554571D02*
X191443828Y-72911714D01*
X191443828Y-72911714D02*
X191372400Y-73054571D01*
X191372400Y-73054571D02*
X191300971Y-73125999D01*
X189943828Y-71340285D02*
X189943828Y-71197428D01*
X189943828Y-71197428D02*
X190015257Y-71054571D01*
X190015257Y-71054571D02*
X190086685Y-70983143D01*
X190086685Y-70983143D02*
X190229542Y-70911714D01*
X190229542Y-70911714D02*
X190515257Y-70840285D01*
X190515257Y-70840285D02*
X190872400Y-70840285D01*
X190872400Y-70840285D02*
X191158114Y-70911714D01*
X191158114Y-70911714D02*
X191300971Y-70983143D01*
X191300971Y-70983143D02*
X191372400Y-71054571D01*
X191372400Y-71054571D02*
X191443828Y-71197428D01*
X191443828Y-71197428D02*
X191443828Y-71340285D01*
X191443828Y-71340285D02*
X191372400Y-71483143D01*
X191372400Y-71483143D02*
X191300971Y-71554571D01*
X191300971Y-71554571D02*
X191158114Y-71626000D01*
X191158114Y-71626000D02*
X190872400Y-71697428D01*
X190872400Y-71697428D02*
X190515257Y-71697428D01*
X190515257Y-71697428D02*
X190229542Y-71626000D01*
X190229542Y-71626000D02*
X190086685Y-71554571D01*
X190086685Y-71554571D02*
X190015257Y-71483143D01*
X190015257Y-71483143D02*
X189943828Y-71340285D01*
X191443828Y-70197429D02*
X190443828Y-70197429D01*
X190586685Y-70197429D02*
X190515257Y-70126000D01*
X190515257Y-70126000D02*
X190443828Y-69983143D01*
X190443828Y-69983143D02*
X190443828Y-69768857D01*
X190443828Y-69768857D02*
X190515257Y-69626000D01*
X190515257Y-69626000D02*
X190658114Y-69554572D01*
X190658114Y-69554572D02*
X191443828Y-69554572D01*
X190658114Y-69554572D02*
X190515257Y-69483143D01*
X190515257Y-69483143D02*
X190443828Y-69340286D01*
X190443828Y-69340286D02*
X190443828Y-69126000D01*
X190443828Y-69126000D02*
X190515257Y-68983143D01*
X190515257Y-68983143D02*
X190658114Y-68911714D01*
X190658114Y-68911714D02*
X191443828Y-68911714D01*
X191015257Y-68268857D02*
X191015257Y-67554572D01*
X191443828Y-68411714D02*
X189943828Y-67911714D01*
X189943828Y-67911714D02*
X191443828Y-67411714D01*
D10*
X192780735Y-63466260D02*
X192296926Y-63804927D01*
X192780735Y-64046832D02*
X191764735Y-64046832D01*
X191764735Y-64046832D02*
X191764735Y-63659784D01*
X191764735Y-63659784D02*
X191813116Y-63563022D01*
X191813116Y-63563022D02*
X191861497Y-63514641D01*
X191861497Y-63514641D02*
X191958259Y-63466260D01*
X191958259Y-63466260D02*
X192103402Y-63466260D01*
X192103402Y-63466260D02*
X192200164Y-63514641D01*
X192200164Y-63514641D02*
X192248545Y-63563022D01*
X192248545Y-63563022D02*
X192296926Y-63659784D01*
X192296926Y-63659784D02*
X192296926Y-64046832D01*
X191764735Y-62837308D02*
X191764735Y-62740546D01*
X191764735Y-62740546D02*
X191813116Y-62643784D01*
X191813116Y-62643784D02*
X191861497Y-62595403D01*
X191861497Y-62595403D02*
X191958259Y-62547022D01*
X191958259Y-62547022D02*
X192151783Y-62498641D01*
X192151783Y-62498641D02*
X192393688Y-62498641D01*
X192393688Y-62498641D02*
X192587212Y-62547022D01*
X192587212Y-62547022D02*
X192683974Y-62595403D01*
X192683974Y-62595403D02*
X192732355Y-62643784D01*
X192732355Y-62643784D02*
X192780735Y-62740546D01*
X192780735Y-62740546D02*
X192780735Y-62837308D01*
X192780735Y-62837308D02*
X192732355Y-62934070D01*
X192732355Y-62934070D02*
X192683974Y-62982451D01*
X192683974Y-62982451D02*
X192587212Y-63030832D01*
X192587212Y-63030832D02*
X192393688Y-63079213D01*
X192393688Y-63079213D02*
X192151783Y-63079213D01*
X192151783Y-63079213D02*
X191958259Y-63030832D01*
X191958259Y-63030832D02*
X191861497Y-62982451D01*
X191861497Y-62982451D02*
X191813116Y-62934070D01*
X191813116Y-62934070D02*
X191764735Y-62837308D01*
D12*
X137057826Y-81094959D02*
X136453064Y-81094959D01*
X136453064Y-81094959D02*
X136392588Y-81699721D01*
X136392588Y-81699721D02*
X136453064Y-81639244D01*
X136453064Y-81639244D02*
X136574017Y-81578768D01*
X136574017Y-81578768D02*
X136876398Y-81578768D01*
X136876398Y-81578768D02*
X136997350Y-81639244D01*
X136997350Y-81639244D02*
X137057826Y-81699721D01*
X137057826Y-81699721D02*
X137118303Y-81820673D01*
X137118303Y-81820673D02*
X137118303Y-82123054D01*
X137118303Y-82123054D02*
X137057826Y-82244006D01*
X137057826Y-82244006D02*
X136997350Y-82304483D01*
X136997350Y-82304483D02*
X136876398Y-82364959D01*
X136876398Y-82364959D02*
X136574017Y-82364959D01*
X136574017Y-82364959D02*
X136453064Y-82304483D01*
X136453064Y-82304483D02*
X136392588Y-82244006D01*
X137481160Y-81094959D02*
X137904493Y-82364959D01*
X137904493Y-82364959D02*
X138327827Y-81094959D01*
X138751159Y-82364959D02*
X138751159Y-81094959D01*
X138751159Y-81094959D02*
X139053540Y-81094959D01*
X139053540Y-81094959D02*
X139234969Y-81155435D01*
X139234969Y-81155435D02*
X139355921Y-81276387D01*
X139355921Y-81276387D02*
X139416398Y-81397340D01*
X139416398Y-81397340D02*
X139476874Y-81639244D01*
X139476874Y-81639244D02*
X139476874Y-81820673D01*
X139476874Y-81820673D02*
X139416398Y-82062578D01*
X139416398Y-82062578D02*
X139355921Y-82183530D01*
X139355921Y-82183530D02*
X139234969Y-82304483D01*
X139234969Y-82304483D02*
X139053540Y-82364959D01*
X139053540Y-82364959D02*
X138751159Y-82364959D01*
X140746874Y-82244006D02*
X140686398Y-82304483D01*
X140686398Y-82304483D02*
X140504969Y-82364959D01*
X140504969Y-82364959D02*
X140384017Y-82364959D01*
X140384017Y-82364959D02*
X140202588Y-82304483D01*
X140202588Y-82304483D02*
X140081636Y-82183530D01*
X140081636Y-82183530D02*
X140021159Y-82062578D01*
X140021159Y-82062578D02*
X139960683Y-81820673D01*
X139960683Y-81820673D02*
X139960683Y-81639244D01*
X139960683Y-81639244D02*
X140021159Y-81397340D01*
X140021159Y-81397340D02*
X140081636Y-81276387D01*
X140081636Y-81276387D02*
X140202588Y-81155435D01*
X140202588Y-81155435D02*
X140384017Y-81094959D01*
X140384017Y-81094959D02*
X140504969Y-81094959D01*
X140504969Y-81094959D02*
X140686398Y-81155435D01*
X140686398Y-81155435D02*
X140746874Y-81215911D01*
X142803064Y-81094959D02*
X142561159Y-81094959D01*
X142561159Y-81094959D02*
X142440207Y-81155435D01*
X142440207Y-81155435D02*
X142379731Y-81215911D01*
X142379731Y-81215911D02*
X142258778Y-81397340D01*
X142258778Y-81397340D02*
X142198302Y-81639244D01*
X142198302Y-81639244D02*
X142198302Y-82123054D01*
X142198302Y-82123054D02*
X142258778Y-82244006D01*
X142258778Y-82244006D02*
X142319255Y-82304483D01*
X142319255Y-82304483D02*
X142440207Y-82364959D01*
X142440207Y-82364959D02*
X142682112Y-82364959D01*
X142682112Y-82364959D02*
X142803064Y-82304483D01*
X142803064Y-82304483D02*
X142863540Y-82244006D01*
X142863540Y-82244006D02*
X142924017Y-82123054D01*
X142924017Y-82123054D02*
X142924017Y-81820673D01*
X142924017Y-81820673D02*
X142863540Y-81699721D01*
X142863540Y-81699721D02*
X142803064Y-81639244D01*
X142803064Y-81639244D02*
X142682112Y-81578768D01*
X142682112Y-81578768D02*
X142440207Y-81578768D01*
X142440207Y-81578768D02*
X142319255Y-81639244D01*
X142319255Y-81639244D02*
X142258778Y-81699721D01*
X142258778Y-81699721D02*
X142198302Y-81820673D01*
X143407826Y-82002102D02*
X144012588Y-82002102D01*
X143286874Y-82364959D02*
X143710207Y-81094959D01*
X143710207Y-81094959D02*
X144133541Y-82364959D01*
D10*
X187312095Y-109389332D02*
X186828286Y-109727999D01*
X187312095Y-109969904D02*
X186296095Y-109969904D01*
X186296095Y-109969904D02*
X186296095Y-109582856D01*
X186296095Y-109582856D02*
X186344476Y-109486094D01*
X186344476Y-109486094D02*
X186392857Y-109437713D01*
X186392857Y-109437713D02*
X186489619Y-109389332D01*
X186489619Y-109389332D02*
X186634762Y-109389332D01*
X186634762Y-109389332D02*
X186731524Y-109437713D01*
X186731524Y-109437713D02*
X186779905Y-109486094D01*
X186779905Y-109486094D02*
X186828286Y-109582856D01*
X186828286Y-109582856D02*
X186828286Y-109969904D01*
X186296095Y-109050666D02*
X186296095Y-108421713D01*
X186296095Y-108421713D02*
X186683143Y-108760380D01*
X186683143Y-108760380D02*
X186683143Y-108615237D01*
X186683143Y-108615237D02*
X186731524Y-108518475D01*
X186731524Y-108518475D02*
X186779905Y-108470094D01*
X186779905Y-108470094D02*
X186876667Y-108421713D01*
X186876667Y-108421713D02*
X187118572Y-108421713D01*
X187118572Y-108421713D02*
X187215334Y-108470094D01*
X187215334Y-108470094D02*
X187263715Y-108518475D01*
X187263715Y-108518475D02*
X187312095Y-108615237D01*
X187312095Y-108615237D02*
X187312095Y-108905523D01*
X187312095Y-108905523D02*
X187263715Y-109002285D01*
X187263715Y-109002285D02*
X187215334Y-109050666D01*
X154165904Y-75506095D02*
X154165904Y-76328572D01*
X154165904Y-76328572D02*
X154214285Y-76425334D01*
X154214285Y-76425334D02*
X154262666Y-76473715D01*
X154262666Y-76473715D02*
X154359428Y-76522095D01*
X154359428Y-76522095D02*
X154552952Y-76522095D01*
X154552952Y-76522095D02*
X154649714Y-76473715D01*
X154649714Y-76473715D02*
X154698095Y-76425334D01*
X154698095Y-76425334D02*
X154746476Y-76328572D01*
X154746476Y-76328572D02*
X154746476Y-75506095D01*
X155278666Y-76522095D02*
X155472190Y-76522095D01*
X155472190Y-76522095D02*
X155568952Y-76473715D01*
X155568952Y-76473715D02*
X155617333Y-76425334D01*
X155617333Y-76425334D02*
X155714095Y-76280191D01*
X155714095Y-76280191D02*
X155762476Y-76086667D01*
X155762476Y-76086667D02*
X155762476Y-75699619D01*
X155762476Y-75699619D02*
X155714095Y-75602857D01*
X155714095Y-75602857D02*
X155665714Y-75554476D01*
X155665714Y-75554476D02*
X155568952Y-75506095D01*
X155568952Y-75506095D02*
X155375428Y-75506095D01*
X155375428Y-75506095D02*
X155278666Y-75554476D01*
X155278666Y-75554476D02*
X155230285Y-75602857D01*
X155230285Y-75602857D02*
X155181904Y-75699619D01*
X155181904Y-75699619D02*
X155181904Y-75941524D01*
X155181904Y-75941524D02*
X155230285Y-76038286D01*
X155230285Y-76038286D02*
X155278666Y-76086667D01*
X155278666Y-76086667D02*
X155375428Y-76135048D01*
X155375428Y-76135048D02*
X155568952Y-76135048D01*
X155568952Y-76135048D02*
X155665714Y-76086667D01*
X155665714Y-76086667D02*
X155714095Y-76038286D01*
X155714095Y-76038286D02*
X155762476Y-75941524D01*
D13*
X180879905Y-64682819D02*
X180879905Y-65492342D01*
X180879905Y-65492342D02*
X180927524Y-65587580D01*
X180927524Y-65587580D02*
X180975143Y-65635200D01*
X180975143Y-65635200D02*
X181070381Y-65682819D01*
X181070381Y-65682819D02*
X181260857Y-65682819D01*
X181260857Y-65682819D02*
X181356095Y-65635200D01*
X181356095Y-65635200D02*
X181403714Y-65587580D01*
X181403714Y-65587580D02*
X181451333Y-65492342D01*
X181451333Y-65492342D02*
X181451333Y-64682819D01*
X182451333Y-65682819D02*
X181879905Y-65682819D01*
X182165619Y-65682819D02*
X182165619Y-64682819D01*
X182165619Y-64682819D02*
X182070381Y-64825676D01*
X182070381Y-64825676D02*
X181975143Y-64920914D01*
X181975143Y-64920914D02*
X181879905Y-64968533D01*
X182832286Y-64778057D02*
X182879905Y-64730438D01*
X182879905Y-64730438D02*
X182975143Y-64682819D01*
X182975143Y-64682819D02*
X183213238Y-64682819D01*
X183213238Y-64682819D02*
X183308476Y-64730438D01*
X183308476Y-64730438D02*
X183356095Y-64778057D01*
X183356095Y-64778057D02*
X183403714Y-64873295D01*
X183403714Y-64873295D02*
X183403714Y-64968533D01*
X183403714Y-64968533D02*
X183356095Y-65111390D01*
X183356095Y-65111390D02*
X182784667Y-65682819D01*
X182784667Y-65682819D02*
X183403714Y-65682819D01*
D10*
X186850739Y-67010095D02*
X186512072Y-66526286D01*
X186270167Y-67010095D02*
X186270167Y-65994095D01*
X186270167Y-65994095D02*
X186657215Y-65994095D01*
X186657215Y-65994095D02*
X186753977Y-66042476D01*
X186753977Y-66042476D02*
X186802358Y-66090857D01*
X186802358Y-66090857D02*
X186850739Y-66187619D01*
X186850739Y-66187619D02*
X186850739Y-66332762D01*
X186850739Y-66332762D02*
X186802358Y-66429524D01*
X186802358Y-66429524D02*
X186753977Y-66477905D01*
X186753977Y-66477905D02*
X186657215Y-66526286D01*
X186657215Y-66526286D02*
X186270167Y-66526286D01*
X187237786Y-66090857D02*
X187286167Y-66042476D01*
X187286167Y-66042476D02*
X187382929Y-65994095D01*
X187382929Y-65994095D02*
X187624834Y-65994095D01*
X187624834Y-65994095D02*
X187721596Y-66042476D01*
X187721596Y-66042476D02*
X187769977Y-66090857D01*
X187769977Y-66090857D02*
X187818358Y-66187619D01*
X187818358Y-66187619D02*
X187818358Y-66284381D01*
X187818358Y-66284381D02*
X187769977Y-66429524D01*
X187769977Y-66429524D02*
X187189405Y-67010095D01*
X187189405Y-67010095D02*
X187818358Y-67010095D01*
X188302167Y-67010095D02*
X188495691Y-67010095D01*
X188495691Y-67010095D02*
X188592453Y-66961715D01*
X188592453Y-66961715D02*
X188640834Y-66913334D01*
X188640834Y-66913334D02*
X188737596Y-66768191D01*
X188737596Y-66768191D02*
X188785977Y-66574667D01*
X188785977Y-66574667D02*
X188785977Y-66187619D01*
X188785977Y-66187619D02*
X188737596Y-66090857D01*
X188737596Y-66090857D02*
X188689215Y-66042476D01*
X188689215Y-66042476D02*
X188592453Y-65994095D01*
X188592453Y-65994095D02*
X188398929Y-65994095D01*
X188398929Y-65994095D02*
X188302167Y-66042476D01*
X188302167Y-66042476D02*
X188253786Y-66090857D01*
X188253786Y-66090857D02*
X188205405Y-66187619D01*
X188205405Y-66187619D02*
X188205405Y-66429524D01*
X188205405Y-66429524D02*
X188253786Y-66526286D01*
X188253786Y-66526286D02*
X188302167Y-66574667D01*
X188302167Y-66574667D02*
X188398929Y-66623048D01*
X188398929Y-66623048D02*
X188592453Y-66623048D01*
X188592453Y-66623048D02*
X188689215Y-66574667D01*
X188689215Y-66574667D02*
X188737596Y-66526286D01*
X188737596Y-66526286D02*
X188785977Y-66429524D01*
X177413735Y-95491904D02*
X176397735Y-95491904D01*
X176397735Y-95491904D02*
X176397735Y-95249999D01*
X176397735Y-95249999D02*
X176446116Y-95104856D01*
X176446116Y-95104856D02*
X176542878Y-95008094D01*
X176542878Y-95008094D02*
X176639640Y-94959713D01*
X176639640Y-94959713D02*
X176833164Y-94911332D01*
X176833164Y-94911332D02*
X176978307Y-94911332D01*
X176978307Y-94911332D02*
X177171831Y-94959713D01*
X177171831Y-94959713D02*
X177268593Y-95008094D01*
X177268593Y-95008094D02*
X177365355Y-95104856D01*
X177365355Y-95104856D02*
X177413735Y-95249999D01*
X177413735Y-95249999D02*
X177413735Y-95491904D01*
X177413735Y-94427523D02*
X177413735Y-94233999D01*
X177413735Y-94233999D02*
X177365355Y-94137237D01*
X177365355Y-94137237D02*
X177316974Y-94088856D01*
X177316974Y-94088856D02*
X177171831Y-93992094D01*
X177171831Y-93992094D02*
X176978307Y-93943713D01*
X176978307Y-93943713D02*
X176591259Y-93943713D01*
X176591259Y-93943713D02*
X176494497Y-93992094D01*
X176494497Y-93992094D02*
X176446116Y-94040475D01*
X176446116Y-94040475D02*
X176397735Y-94137237D01*
X176397735Y-94137237D02*
X176397735Y-94330761D01*
X176397735Y-94330761D02*
X176446116Y-94427523D01*
X176446116Y-94427523D02*
X176494497Y-94475904D01*
X176494497Y-94475904D02*
X176591259Y-94524285D01*
X176591259Y-94524285D02*
X176833164Y-94524285D01*
X176833164Y-94524285D02*
X176929926Y-94475904D01*
X176929926Y-94475904D02*
X176978307Y-94427523D01*
X176978307Y-94427523D02*
X177026688Y-94330761D01*
X177026688Y-94330761D02*
X177026688Y-94137237D01*
X177026688Y-94137237D02*
X176978307Y-94040475D01*
X176978307Y-94040475D02*
X176929926Y-93992094D01*
X176929926Y-93992094D02*
X176833164Y-93943713D01*
X155480784Y-69296095D02*
X156061356Y-69296095D01*
X155771070Y-70312095D02*
X155771070Y-69296095D01*
X156980594Y-70312095D02*
X156641927Y-69828286D01*
X156400022Y-70312095D02*
X156400022Y-69296095D01*
X156400022Y-69296095D02*
X156787070Y-69296095D01*
X156787070Y-69296095D02*
X156883832Y-69344476D01*
X156883832Y-69344476D02*
X156932213Y-69392857D01*
X156932213Y-69392857D02*
X156980594Y-69489619D01*
X156980594Y-69489619D02*
X156980594Y-69634762D01*
X156980594Y-69634762D02*
X156932213Y-69731524D01*
X156932213Y-69731524D02*
X156883832Y-69779905D01*
X156883832Y-69779905D02*
X156787070Y-69828286D01*
X156787070Y-69828286D02*
X156400022Y-69828286D01*
X157899832Y-69296095D02*
X157416022Y-69296095D01*
X157416022Y-69296095D02*
X157367641Y-69779905D01*
X157367641Y-69779905D02*
X157416022Y-69731524D01*
X157416022Y-69731524D02*
X157512784Y-69683143D01*
X157512784Y-69683143D02*
X157754689Y-69683143D01*
X157754689Y-69683143D02*
X157851451Y-69731524D01*
X157851451Y-69731524D02*
X157899832Y-69779905D01*
X157899832Y-69779905D02*
X157948213Y-69876667D01*
X157948213Y-69876667D02*
X157948213Y-70118572D01*
X157948213Y-70118572D02*
X157899832Y-70215334D01*
X157899832Y-70215334D02*
X157851451Y-70263715D01*
X157851451Y-70263715D02*
X157754689Y-70312095D01*
X157754689Y-70312095D02*
X157512784Y-70312095D01*
X157512784Y-70312095D02*
X157416022Y-70263715D01*
X157416022Y-70263715D02*
X157367641Y-70215334D01*
X168894403Y-61168095D02*
X168894403Y-60152095D01*
X168894403Y-60152095D02*
X169136308Y-60152095D01*
X169136308Y-60152095D02*
X169281451Y-60200476D01*
X169281451Y-60200476D02*
X169378213Y-60297238D01*
X169378213Y-60297238D02*
X169426594Y-60394000D01*
X169426594Y-60394000D02*
X169474975Y-60587524D01*
X169474975Y-60587524D02*
X169474975Y-60732667D01*
X169474975Y-60732667D02*
X169426594Y-60926191D01*
X169426594Y-60926191D02*
X169378213Y-61022953D01*
X169378213Y-61022953D02*
X169281451Y-61119715D01*
X169281451Y-61119715D02*
X169136308Y-61168095D01*
X169136308Y-61168095D02*
X168894403Y-61168095D01*
X170442594Y-61168095D02*
X169862022Y-61168095D01*
X170152308Y-61168095D02*
X170152308Y-60152095D01*
X170152308Y-60152095D02*
X170055546Y-60297238D01*
X170055546Y-60297238D02*
X169958784Y-60394000D01*
X169958784Y-60394000D02*
X169862022Y-60442381D01*
X170781260Y-60152095D02*
X171458594Y-60152095D01*
X171458594Y-60152095D02*
X171023165Y-61168095D01*
X171458594Y-100187334D02*
X171410213Y-100235715D01*
X171410213Y-100235715D02*
X171265070Y-100284095D01*
X171265070Y-100284095D02*
X171168308Y-100284095D01*
X171168308Y-100284095D02*
X171023165Y-100235715D01*
X171023165Y-100235715D02*
X170926403Y-100138953D01*
X170926403Y-100138953D02*
X170878022Y-100042191D01*
X170878022Y-100042191D02*
X170829641Y-99848667D01*
X170829641Y-99848667D02*
X170829641Y-99703524D01*
X170829641Y-99703524D02*
X170878022Y-99510000D01*
X170878022Y-99510000D02*
X170926403Y-99413238D01*
X170926403Y-99413238D02*
X171023165Y-99316476D01*
X171023165Y-99316476D02*
X171168308Y-99268095D01*
X171168308Y-99268095D02*
X171265070Y-99268095D01*
X171265070Y-99268095D02*
X171410213Y-99316476D01*
X171410213Y-99316476D02*
X171458594Y-99364857D01*
X172329451Y-99268095D02*
X172135927Y-99268095D01*
X172135927Y-99268095D02*
X172039165Y-99316476D01*
X172039165Y-99316476D02*
X171990784Y-99364857D01*
X171990784Y-99364857D02*
X171894022Y-99510000D01*
X171894022Y-99510000D02*
X171845641Y-99703524D01*
X171845641Y-99703524D02*
X171845641Y-100090572D01*
X171845641Y-100090572D02*
X171894022Y-100187334D01*
X171894022Y-100187334D02*
X171942403Y-100235715D01*
X171942403Y-100235715D02*
X172039165Y-100284095D01*
X172039165Y-100284095D02*
X172232689Y-100284095D01*
X172232689Y-100284095D02*
X172329451Y-100235715D01*
X172329451Y-100235715D02*
X172377832Y-100187334D01*
X172377832Y-100187334D02*
X172426213Y-100090572D01*
X172426213Y-100090572D02*
X172426213Y-99848667D01*
X172426213Y-99848667D02*
X172377832Y-99751905D01*
X172377832Y-99751905D02*
X172329451Y-99703524D01*
X172329451Y-99703524D02*
X172232689Y-99655143D01*
X172232689Y-99655143D02*
X172039165Y-99655143D01*
X172039165Y-99655143D02*
X171942403Y-99703524D01*
X171942403Y-99703524D02*
X171894022Y-99751905D01*
X171894022Y-99751905D02*
X171845641Y-99848667D01*
X192288095Y-87714666D02*
X193013810Y-87714666D01*
X193013810Y-87714666D02*
X193158953Y-87763047D01*
X193158953Y-87763047D02*
X193255715Y-87859809D01*
X193255715Y-87859809D02*
X193304095Y-88004952D01*
X193304095Y-88004952D02*
X193304095Y-88101714D01*
X192384857Y-87279238D02*
X192336476Y-87230857D01*
X192336476Y-87230857D02*
X192288095Y-87134095D01*
X192288095Y-87134095D02*
X192288095Y-86892190D01*
X192288095Y-86892190D02*
X192336476Y-86795428D01*
X192336476Y-86795428D02*
X192384857Y-86747047D01*
X192384857Y-86747047D02*
X192481619Y-86698666D01*
X192481619Y-86698666D02*
X192578381Y-86698666D01*
X192578381Y-86698666D02*
X192723524Y-86747047D01*
X192723524Y-86747047D02*
X193304095Y-87327619D01*
X193304095Y-87327619D02*
X193304095Y-86698666D01*
X155480784Y-96728095D02*
X156061356Y-96728095D01*
X155771070Y-97744095D02*
X155771070Y-96728095D01*
X156980594Y-97744095D02*
X156641927Y-97260286D01*
X156400022Y-97744095D02*
X156400022Y-96728095D01*
X156400022Y-96728095D02*
X156787070Y-96728095D01*
X156787070Y-96728095D02*
X156883832Y-96776476D01*
X156883832Y-96776476D02*
X156932213Y-96824857D01*
X156932213Y-96824857D02*
X156980594Y-96921619D01*
X156980594Y-96921619D02*
X156980594Y-97066762D01*
X156980594Y-97066762D02*
X156932213Y-97163524D01*
X156932213Y-97163524D02*
X156883832Y-97211905D01*
X156883832Y-97211905D02*
X156787070Y-97260286D01*
X156787070Y-97260286D02*
X156400022Y-97260286D01*
X157367641Y-96824857D02*
X157416022Y-96776476D01*
X157416022Y-96776476D02*
X157512784Y-96728095D01*
X157512784Y-96728095D02*
X157754689Y-96728095D01*
X157754689Y-96728095D02*
X157851451Y-96776476D01*
X157851451Y-96776476D02*
X157899832Y-96824857D01*
X157899832Y-96824857D02*
X157948213Y-96921619D01*
X157948213Y-96921619D02*
X157948213Y-97018381D01*
X157948213Y-97018381D02*
X157899832Y-97163524D01*
X157899832Y-97163524D02*
X157319260Y-97744095D01*
X157319260Y-97744095D02*
X157948213Y-97744095D01*
X154165904Y-84650095D02*
X154165904Y-85472572D01*
X154165904Y-85472572D02*
X154214285Y-85569334D01*
X154214285Y-85569334D02*
X154262666Y-85617715D01*
X154262666Y-85617715D02*
X154359428Y-85666095D01*
X154359428Y-85666095D02*
X154552952Y-85666095D01*
X154552952Y-85666095D02*
X154649714Y-85617715D01*
X154649714Y-85617715D02*
X154698095Y-85569334D01*
X154698095Y-85569334D02*
X154746476Y-85472572D01*
X154746476Y-85472572D02*
X154746476Y-84650095D01*
X155133523Y-84650095D02*
X155810857Y-84650095D01*
X155810857Y-84650095D02*
X155375428Y-85666095D01*
X169862022Y-114635095D02*
X169862022Y-113619095D01*
X169862022Y-113619095D02*
X170103927Y-113619095D01*
X170103927Y-113619095D02*
X170249070Y-113667476D01*
X170249070Y-113667476D02*
X170345832Y-113764238D01*
X170345832Y-113764238D02*
X170394213Y-113861000D01*
X170394213Y-113861000D02*
X170442594Y-114054524D01*
X170442594Y-114054524D02*
X170442594Y-114199667D01*
X170442594Y-114199667D02*
X170394213Y-114393191D01*
X170394213Y-114393191D02*
X170345832Y-114489953D01*
X170345832Y-114489953D02*
X170249070Y-114586715D01*
X170249070Y-114586715D02*
X170103927Y-114635095D01*
X170103927Y-114635095D02*
X169862022Y-114635095D01*
X171410213Y-114635095D02*
X170829641Y-114635095D01*
X171119927Y-114635095D02*
X171119927Y-113619095D01*
X171119927Y-113619095D02*
X171023165Y-113764238D01*
X171023165Y-113764238D02*
X170926403Y-113861000D01*
X170926403Y-113861000D02*
X170829641Y-113909381D01*
X171458594Y-109331334D02*
X171410213Y-109379715D01*
X171410213Y-109379715D02*
X171265070Y-109428095D01*
X171265070Y-109428095D02*
X171168308Y-109428095D01*
X171168308Y-109428095D02*
X171023165Y-109379715D01*
X171023165Y-109379715D02*
X170926403Y-109282953D01*
X170926403Y-109282953D02*
X170878022Y-109186191D01*
X170878022Y-109186191D02*
X170829641Y-108992667D01*
X170829641Y-108992667D02*
X170829641Y-108847524D01*
X170829641Y-108847524D02*
X170878022Y-108654000D01*
X170878022Y-108654000D02*
X170926403Y-108557238D01*
X170926403Y-108557238D02*
X171023165Y-108460476D01*
X171023165Y-108460476D02*
X171168308Y-108412095D01*
X171168308Y-108412095D02*
X171265070Y-108412095D01*
X171265070Y-108412095D02*
X171410213Y-108460476D01*
X171410213Y-108460476D02*
X171458594Y-108508857D01*
X171845641Y-108508857D02*
X171894022Y-108460476D01*
X171894022Y-108460476D02*
X171990784Y-108412095D01*
X171990784Y-108412095D02*
X172232689Y-108412095D01*
X172232689Y-108412095D02*
X172329451Y-108460476D01*
X172329451Y-108460476D02*
X172377832Y-108508857D01*
X172377832Y-108508857D02*
X172426213Y-108605619D01*
X172426213Y-108605619D02*
X172426213Y-108702381D01*
X172426213Y-108702381D02*
X172377832Y-108847524D01*
X172377832Y-108847524D02*
X171797260Y-109428095D01*
X171797260Y-109428095D02*
X172426213Y-109428095D01*
X168894403Y-79456095D02*
X168894403Y-78440095D01*
X168894403Y-78440095D02*
X169136308Y-78440095D01*
X169136308Y-78440095D02*
X169281451Y-78488476D01*
X169281451Y-78488476D02*
X169378213Y-78585238D01*
X169378213Y-78585238D02*
X169426594Y-78682000D01*
X169426594Y-78682000D02*
X169474975Y-78875524D01*
X169474975Y-78875524D02*
X169474975Y-79020667D01*
X169474975Y-79020667D02*
X169426594Y-79214191D01*
X169426594Y-79214191D02*
X169378213Y-79310953D01*
X169378213Y-79310953D02*
X169281451Y-79407715D01*
X169281451Y-79407715D02*
X169136308Y-79456095D01*
X169136308Y-79456095D02*
X168894403Y-79456095D01*
X170442594Y-79456095D02*
X169862022Y-79456095D01*
X170152308Y-79456095D02*
X170152308Y-78440095D01*
X170152308Y-78440095D02*
X170055546Y-78585238D01*
X170055546Y-78585238D02*
X169958784Y-78682000D01*
X169958784Y-78682000D02*
X169862022Y-78730381D01*
X171410213Y-79456095D02*
X170829641Y-79456095D01*
X171119927Y-79456095D02*
X171119927Y-78440095D01*
X171119927Y-78440095D02*
X171023165Y-78585238D01*
X171023165Y-78585238D02*
X170926403Y-78682000D01*
X170926403Y-78682000D02*
X170829641Y-78730381D01*
X179532095Y-98137260D02*
X179048286Y-98475927D01*
X179532095Y-98717832D02*
X178516095Y-98717832D01*
X178516095Y-98717832D02*
X178516095Y-98330784D01*
X178516095Y-98330784D02*
X178564476Y-98234022D01*
X178564476Y-98234022D02*
X178612857Y-98185641D01*
X178612857Y-98185641D02*
X178709619Y-98137260D01*
X178709619Y-98137260D02*
X178854762Y-98137260D01*
X178854762Y-98137260D02*
X178951524Y-98185641D01*
X178951524Y-98185641D02*
X178999905Y-98234022D01*
X178999905Y-98234022D02*
X179048286Y-98330784D01*
X179048286Y-98330784D02*
X179048286Y-98717832D01*
X178516095Y-97798594D02*
X178516095Y-97121260D01*
X178516095Y-97121260D02*
X179532095Y-97556689D01*
X170744975Y-84566334D02*
X170696594Y-84614715D01*
X170696594Y-84614715D02*
X170551451Y-84663095D01*
X170551451Y-84663095D02*
X170454689Y-84663095D01*
X170454689Y-84663095D02*
X170309546Y-84614715D01*
X170309546Y-84614715D02*
X170212784Y-84517953D01*
X170212784Y-84517953D02*
X170164403Y-84421191D01*
X170164403Y-84421191D02*
X170116022Y-84227667D01*
X170116022Y-84227667D02*
X170116022Y-84082524D01*
X170116022Y-84082524D02*
X170164403Y-83889000D01*
X170164403Y-83889000D02*
X170212784Y-83792238D01*
X170212784Y-83792238D02*
X170309546Y-83695476D01*
X170309546Y-83695476D02*
X170454689Y-83647095D01*
X170454689Y-83647095D02*
X170551451Y-83647095D01*
X170551451Y-83647095D02*
X170696594Y-83695476D01*
X170696594Y-83695476D02*
X170744975Y-83743857D01*
X171712594Y-84663095D02*
X171132022Y-84663095D01*
X171422308Y-84663095D02*
X171422308Y-83647095D01*
X171422308Y-83647095D02*
X171325546Y-83792238D01*
X171325546Y-83792238D02*
X171228784Y-83889000D01*
X171228784Y-83889000D02*
X171132022Y-83937381D01*
X172631832Y-83647095D02*
X172148022Y-83647095D01*
X172148022Y-83647095D02*
X172099641Y-84130905D01*
X172099641Y-84130905D02*
X172148022Y-84082524D01*
X172148022Y-84082524D02*
X172244784Y-84034143D01*
X172244784Y-84034143D02*
X172486689Y-84034143D01*
X172486689Y-84034143D02*
X172583451Y-84082524D01*
X172583451Y-84082524D02*
X172631832Y-84130905D01*
X172631832Y-84130905D02*
X172680213Y-84227667D01*
X172680213Y-84227667D02*
X172680213Y-84469572D01*
X172680213Y-84469572D02*
X172631832Y-84566334D01*
X172631832Y-84566334D02*
X172583451Y-84614715D01*
X172583451Y-84614715D02*
X172486689Y-84663095D01*
X172486689Y-84663095D02*
X172244784Y-84663095D01*
X172244784Y-84663095D02*
X172148022Y-84614715D01*
X172148022Y-84614715D02*
X172099641Y-84566334D01*
X184310739Y-107045334D02*
X184262358Y-107093715D01*
X184262358Y-107093715D02*
X184117215Y-107142095D01*
X184117215Y-107142095D02*
X184020453Y-107142095D01*
X184020453Y-107142095D02*
X183875310Y-107093715D01*
X183875310Y-107093715D02*
X183778548Y-106996953D01*
X183778548Y-106996953D02*
X183730167Y-106900191D01*
X183730167Y-106900191D02*
X183681786Y-106706667D01*
X183681786Y-106706667D02*
X183681786Y-106561524D01*
X183681786Y-106561524D02*
X183730167Y-106368000D01*
X183730167Y-106368000D02*
X183778548Y-106271238D01*
X183778548Y-106271238D02*
X183875310Y-106174476D01*
X183875310Y-106174476D02*
X184020453Y-106126095D01*
X184020453Y-106126095D02*
X184117215Y-106126095D01*
X184117215Y-106126095D02*
X184262358Y-106174476D01*
X184262358Y-106174476D02*
X184310739Y-106222857D01*
X185181596Y-106464762D02*
X185181596Y-107142095D01*
X184939691Y-106077715D02*
X184697786Y-106803429D01*
X184697786Y-106803429D02*
X185326739Y-106803429D01*
X187312095Y-91585142D02*
X186828286Y-91923809D01*
X187312095Y-92165714D02*
X186296095Y-92165714D01*
X186296095Y-92165714D02*
X186296095Y-91778666D01*
X186296095Y-91778666D02*
X186344476Y-91681904D01*
X186344476Y-91681904D02*
X186392857Y-91633523D01*
X186392857Y-91633523D02*
X186489619Y-91585142D01*
X186489619Y-91585142D02*
X186634762Y-91585142D01*
X186634762Y-91585142D02*
X186731524Y-91633523D01*
X186731524Y-91633523D02*
X186779905Y-91681904D01*
X186779905Y-91681904D02*
X186828286Y-91778666D01*
X186828286Y-91778666D02*
X186828286Y-92165714D01*
X187312095Y-90617523D02*
X187312095Y-91198095D01*
X187312095Y-90907809D02*
X186296095Y-90907809D01*
X186296095Y-90907809D02*
X186441238Y-91004571D01*
X186441238Y-91004571D02*
X186538000Y-91101333D01*
X186538000Y-91101333D02*
X186586381Y-91198095D01*
X186296095Y-90278857D02*
X186296095Y-89649904D01*
X186296095Y-89649904D02*
X186683143Y-89988571D01*
X186683143Y-89988571D02*
X186683143Y-89843428D01*
X186683143Y-89843428D02*
X186731524Y-89746666D01*
X186731524Y-89746666D02*
X186779905Y-89698285D01*
X186779905Y-89698285D02*
X186876667Y-89649904D01*
X186876667Y-89649904D02*
X187118572Y-89649904D01*
X187118572Y-89649904D02*
X187215334Y-89698285D01*
X187215334Y-89698285D02*
X187263715Y-89746666D01*
X187263715Y-89746666D02*
X187312095Y-89843428D01*
X187312095Y-89843428D02*
X187312095Y-90133714D01*
X187312095Y-90133714D02*
X187263715Y-90230476D01*
X187263715Y-90230476D02*
X187215334Y-90278857D01*
D13*
X181356095Y-82970819D02*
X181356095Y-83780342D01*
X181356095Y-83780342D02*
X181403714Y-83875580D01*
X181403714Y-83875580D02*
X181451333Y-83923200D01*
X181451333Y-83923200D02*
X181546571Y-83970819D01*
X181546571Y-83970819D02*
X181737047Y-83970819D01*
X181737047Y-83970819D02*
X181832285Y-83923200D01*
X181832285Y-83923200D02*
X181879904Y-83875580D01*
X181879904Y-83875580D02*
X181927523Y-83780342D01*
X181927523Y-83780342D02*
X181927523Y-82970819D01*
X182546571Y-83399390D02*
X182451333Y-83351771D01*
X182451333Y-83351771D02*
X182403714Y-83304152D01*
X182403714Y-83304152D02*
X182356095Y-83208914D01*
X182356095Y-83208914D02*
X182356095Y-83161295D01*
X182356095Y-83161295D02*
X182403714Y-83066057D01*
X182403714Y-83066057D02*
X182451333Y-83018438D01*
X182451333Y-83018438D02*
X182546571Y-82970819D01*
X182546571Y-82970819D02*
X182737047Y-82970819D01*
X182737047Y-82970819D02*
X182832285Y-83018438D01*
X182832285Y-83018438D02*
X182879904Y-83066057D01*
X182879904Y-83066057D02*
X182927523Y-83161295D01*
X182927523Y-83161295D02*
X182927523Y-83208914D01*
X182927523Y-83208914D02*
X182879904Y-83304152D01*
X182879904Y-83304152D02*
X182832285Y-83351771D01*
X182832285Y-83351771D02*
X182737047Y-83399390D01*
X182737047Y-83399390D02*
X182546571Y-83399390D01*
X182546571Y-83399390D02*
X182451333Y-83447009D01*
X182451333Y-83447009D02*
X182403714Y-83494628D01*
X182403714Y-83494628D02*
X182356095Y-83589866D01*
X182356095Y-83589866D02*
X182356095Y-83780342D01*
X182356095Y-83780342D02*
X182403714Y-83875580D01*
X182403714Y-83875580D02*
X182451333Y-83923200D01*
X182451333Y-83923200D02*
X182546571Y-83970819D01*
X182546571Y-83970819D02*
X182737047Y-83970819D01*
X182737047Y-83970819D02*
X182832285Y-83923200D01*
X182832285Y-83923200D02*
X182879904Y-83875580D01*
X182879904Y-83875580D02*
X182927523Y-83780342D01*
X182927523Y-83780342D02*
X182927523Y-83589866D01*
X182927523Y-83589866D02*
X182879904Y-83494628D01*
X182879904Y-83494628D02*
X182832285Y-83447009D01*
X182832285Y-83447009D02*
X182737047Y-83399390D01*
D10*
X150323334Y-92117332D02*
X150371715Y-92165713D01*
X150371715Y-92165713D02*
X150420095Y-92310856D01*
X150420095Y-92310856D02*
X150420095Y-92407618D01*
X150420095Y-92407618D02*
X150371715Y-92552761D01*
X150371715Y-92552761D02*
X150274953Y-92649523D01*
X150274953Y-92649523D02*
X150178191Y-92697904D01*
X150178191Y-92697904D02*
X149984667Y-92746285D01*
X149984667Y-92746285D02*
X149839524Y-92746285D01*
X149839524Y-92746285D02*
X149646000Y-92697904D01*
X149646000Y-92697904D02*
X149549238Y-92649523D01*
X149549238Y-92649523D02*
X149452476Y-92552761D01*
X149452476Y-92552761D02*
X149404095Y-92407618D01*
X149404095Y-92407618D02*
X149404095Y-92310856D01*
X149404095Y-92310856D02*
X149452476Y-92165713D01*
X149452476Y-92165713D02*
X149500857Y-92117332D01*
X150420095Y-91633523D02*
X150420095Y-91439999D01*
X150420095Y-91439999D02*
X150371715Y-91343237D01*
X150371715Y-91343237D02*
X150323334Y-91294856D01*
X150323334Y-91294856D02*
X150178191Y-91198094D01*
X150178191Y-91198094D02*
X149984667Y-91149713D01*
X149984667Y-91149713D02*
X149597619Y-91149713D01*
X149597619Y-91149713D02*
X149500857Y-91198094D01*
X149500857Y-91198094D02*
X149452476Y-91246475D01*
X149452476Y-91246475D02*
X149404095Y-91343237D01*
X149404095Y-91343237D02*
X149404095Y-91536761D01*
X149404095Y-91536761D02*
X149452476Y-91633523D01*
X149452476Y-91633523D02*
X149500857Y-91681904D01*
X149500857Y-91681904D02*
X149597619Y-91730285D01*
X149597619Y-91730285D02*
X149839524Y-91730285D01*
X149839524Y-91730285D02*
X149936286Y-91681904D01*
X149936286Y-91681904D02*
X149984667Y-91633523D01*
X149984667Y-91633523D02*
X150033048Y-91536761D01*
X150033048Y-91536761D02*
X150033048Y-91343237D01*
X150033048Y-91343237D02*
X149984667Y-91246475D01*
X149984667Y-91246475D02*
X149936286Y-91198094D01*
X149936286Y-91198094D02*
X149839524Y-91149713D01*
X155480784Y-60152095D02*
X156061356Y-60152095D01*
X155771070Y-61168095D02*
X155771070Y-60152095D01*
X156980594Y-61168095D02*
X156641927Y-60684286D01*
X156400022Y-61168095D02*
X156400022Y-60152095D01*
X156400022Y-60152095D02*
X156787070Y-60152095D01*
X156787070Y-60152095D02*
X156883832Y-60200476D01*
X156883832Y-60200476D02*
X156932213Y-60248857D01*
X156932213Y-60248857D02*
X156980594Y-60345619D01*
X156980594Y-60345619D02*
X156980594Y-60490762D01*
X156980594Y-60490762D02*
X156932213Y-60587524D01*
X156932213Y-60587524D02*
X156883832Y-60635905D01*
X156883832Y-60635905D02*
X156787070Y-60684286D01*
X156787070Y-60684286D02*
X156400022Y-60684286D01*
X157851451Y-60152095D02*
X157657927Y-60152095D01*
X157657927Y-60152095D02*
X157561165Y-60200476D01*
X157561165Y-60200476D02*
X157512784Y-60248857D01*
X157512784Y-60248857D02*
X157416022Y-60394000D01*
X157416022Y-60394000D02*
X157367641Y-60587524D01*
X157367641Y-60587524D02*
X157367641Y-60974572D01*
X157367641Y-60974572D02*
X157416022Y-61071334D01*
X157416022Y-61071334D02*
X157464403Y-61119715D01*
X157464403Y-61119715D02*
X157561165Y-61168095D01*
X157561165Y-61168095D02*
X157754689Y-61168095D01*
X157754689Y-61168095D02*
X157851451Y-61119715D01*
X157851451Y-61119715D02*
X157899832Y-61071334D01*
X157899832Y-61071334D02*
X157948213Y-60974572D01*
X157948213Y-60974572D02*
X157948213Y-60732667D01*
X157948213Y-60732667D02*
X157899832Y-60635905D01*
X157899832Y-60635905D02*
X157851451Y-60587524D01*
X157851451Y-60587524D02*
X157754689Y-60539143D01*
X157754689Y-60539143D02*
X157561165Y-60539143D01*
X157561165Y-60539143D02*
X157464403Y-60587524D01*
X157464403Y-60587524D02*
X157416022Y-60635905D01*
X157416022Y-60635905D02*
X157367641Y-60732667D01*
X184310739Y-88757334D02*
X184262358Y-88805715D01*
X184262358Y-88805715D02*
X184117215Y-88854095D01*
X184117215Y-88854095D02*
X184020453Y-88854095D01*
X184020453Y-88854095D02*
X183875310Y-88805715D01*
X183875310Y-88805715D02*
X183778548Y-88708953D01*
X183778548Y-88708953D02*
X183730167Y-88612191D01*
X183730167Y-88612191D02*
X183681786Y-88418667D01*
X183681786Y-88418667D02*
X183681786Y-88273524D01*
X183681786Y-88273524D02*
X183730167Y-88080000D01*
X183730167Y-88080000D02*
X183778548Y-87983238D01*
X183778548Y-87983238D02*
X183875310Y-87886476D01*
X183875310Y-87886476D02*
X184020453Y-87838095D01*
X184020453Y-87838095D02*
X184117215Y-87838095D01*
X184117215Y-87838095D02*
X184262358Y-87886476D01*
X184262358Y-87886476D02*
X184310739Y-87934857D01*
X185278358Y-88854095D02*
X184697786Y-88854095D01*
X184988072Y-88854095D02*
X184988072Y-87838095D01*
X184988072Y-87838095D02*
X184891310Y-87983238D01*
X184891310Y-87983238D02*
X184794548Y-88080000D01*
X184794548Y-88080000D02*
X184697786Y-88128381D01*
X185665405Y-87934857D02*
X185713786Y-87886476D01*
X185713786Y-87886476D02*
X185810548Y-87838095D01*
X185810548Y-87838095D02*
X186052453Y-87838095D01*
X186052453Y-87838095D02*
X186149215Y-87886476D01*
X186149215Y-87886476D02*
X186197596Y-87934857D01*
X186197596Y-87934857D02*
X186245977Y-88031619D01*
X186245977Y-88031619D02*
X186245977Y-88128381D01*
X186245977Y-88128381D02*
X186197596Y-88273524D01*
X186197596Y-88273524D02*
X185617024Y-88854095D01*
X185617024Y-88854095D02*
X186245977Y-88854095D01*
X150323334Y-83457142D02*
X150371715Y-83505523D01*
X150371715Y-83505523D02*
X150420095Y-83650666D01*
X150420095Y-83650666D02*
X150420095Y-83747428D01*
X150420095Y-83747428D02*
X150371715Y-83892571D01*
X150371715Y-83892571D02*
X150274953Y-83989333D01*
X150274953Y-83989333D02*
X150178191Y-84037714D01*
X150178191Y-84037714D02*
X149984667Y-84086095D01*
X149984667Y-84086095D02*
X149839524Y-84086095D01*
X149839524Y-84086095D02*
X149646000Y-84037714D01*
X149646000Y-84037714D02*
X149549238Y-83989333D01*
X149549238Y-83989333D02*
X149452476Y-83892571D01*
X149452476Y-83892571D02*
X149404095Y-83747428D01*
X149404095Y-83747428D02*
X149404095Y-83650666D01*
X149404095Y-83650666D02*
X149452476Y-83505523D01*
X149452476Y-83505523D02*
X149500857Y-83457142D01*
X150420095Y-82489523D02*
X150420095Y-83070095D01*
X150420095Y-82779809D02*
X149404095Y-82779809D01*
X149404095Y-82779809D02*
X149549238Y-82876571D01*
X149549238Y-82876571D02*
X149646000Y-82973333D01*
X149646000Y-82973333D02*
X149694381Y-83070095D01*
X149404095Y-82150857D02*
X149404095Y-81521904D01*
X149404095Y-81521904D02*
X149791143Y-81860571D01*
X149791143Y-81860571D02*
X149791143Y-81715428D01*
X149791143Y-81715428D02*
X149839524Y-81618666D01*
X149839524Y-81618666D02*
X149887905Y-81570285D01*
X149887905Y-81570285D02*
X149984667Y-81521904D01*
X149984667Y-81521904D02*
X150226572Y-81521904D01*
X150226572Y-81521904D02*
X150323334Y-81570285D01*
X150323334Y-81570285D02*
X150371715Y-81618666D01*
X150371715Y-81618666D02*
X150420095Y-81715428D01*
X150420095Y-81715428D02*
X150420095Y-82005714D01*
X150420095Y-82005714D02*
X150371715Y-82102476D01*
X150371715Y-82102476D02*
X150323334Y-82150857D01*
X186850739Y-77678095D02*
X186512072Y-77194286D01*
X186270167Y-77678095D02*
X186270167Y-76662095D01*
X186270167Y-76662095D02*
X186657215Y-76662095D01*
X186657215Y-76662095D02*
X186753977Y-76710476D01*
X186753977Y-76710476D02*
X186802358Y-76758857D01*
X186802358Y-76758857D02*
X186850739Y-76855619D01*
X186850739Y-76855619D02*
X186850739Y-77000762D01*
X186850739Y-77000762D02*
X186802358Y-77097524D01*
X186802358Y-77097524D02*
X186753977Y-77145905D01*
X186753977Y-77145905D02*
X186657215Y-77194286D01*
X186657215Y-77194286D02*
X186270167Y-77194286D01*
X187237786Y-76758857D02*
X187286167Y-76710476D01*
X187286167Y-76710476D02*
X187382929Y-76662095D01*
X187382929Y-76662095D02*
X187624834Y-76662095D01*
X187624834Y-76662095D02*
X187721596Y-76710476D01*
X187721596Y-76710476D02*
X187769977Y-76758857D01*
X187769977Y-76758857D02*
X187818358Y-76855619D01*
X187818358Y-76855619D02*
X187818358Y-76952381D01*
X187818358Y-76952381D02*
X187769977Y-77097524D01*
X187769977Y-77097524D02*
X187189405Y-77678095D01*
X187189405Y-77678095D02*
X187818358Y-77678095D01*
X188737596Y-76662095D02*
X188253786Y-76662095D01*
X188253786Y-76662095D02*
X188205405Y-77145905D01*
X188205405Y-77145905D02*
X188253786Y-77097524D01*
X188253786Y-77097524D02*
X188350548Y-77049143D01*
X188350548Y-77049143D02*
X188592453Y-77049143D01*
X188592453Y-77049143D02*
X188689215Y-77097524D01*
X188689215Y-77097524D02*
X188737596Y-77145905D01*
X188737596Y-77145905D02*
X188785977Y-77242667D01*
X188785977Y-77242667D02*
X188785977Y-77484572D01*
X188785977Y-77484572D02*
X188737596Y-77581334D01*
X188737596Y-77581334D02*
X188689215Y-77629715D01*
X188689215Y-77629715D02*
X188592453Y-77678095D01*
X188592453Y-77678095D02*
X188350548Y-77678095D01*
X188350548Y-77678095D02*
X188253786Y-77629715D01*
X188253786Y-77629715D02*
X188205405Y-77581334D01*
X169862022Y-88600095D02*
X169862022Y-87584095D01*
X169862022Y-87584095D02*
X170103927Y-87584095D01*
X170103927Y-87584095D02*
X170249070Y-87632476D01*
X170249070Y-87632476D02*
X170345832Y-87729238D01*
X170345832Y-87729238D02*
X170394213Y-87826000D01*
X170394213Y-87826000D02*
X170442594Y-88019524D01*
X170442594Y-88019524D02*
X170442594Y-88164667D01*
X170442594Y-88164667D02*
X170394213Y-88358191D01*
X170394213Y-88358191D02*
X170345832Y-88454953D01*
X170345832Y-88454953D02*
X170249070Y-88551715D01*
X170249070Y-88551715D02*
X170103927Y-88600095D01*
X170103927Y-88600095D02*
X169862022Y-88600095D01*
X171023165Y-88019524D02*
X170926403Y-87971143D01*
X170926403Y-87971143D02*
X170878022Y-87922762D01*
X170878022Y-87922762D02*
X170829641Y-87826000D01*
X170829641Y-87826000D02*
X170829641Y-87777619D01*
X170829641Y-87777619D02*
X170878022Y-87680857D01*
X170878022Y-87680857D02*
X170926403Y-87632476D01*
X170926403Y-87632476D02*
X171023165Y-87584095D01*
X171023165Y-87584095D02*
X171216689Y-87584095D01*
X171216689Y-87584095D02*
X171313451Y-87632476D01*
X171313451Y-87632476D02*
X171361832Y-87680857D01*
X171361832Y-87680857D02*
X171410213Y-87777619D01*
X171410213Y-87777619D02*
X171410213Y-87826000D01*
X171410213Y-87826000D02*
X171361832Y-87922762D01*
X171361832Y-87922762D02*
X171313451Y-87971143D01*
X171313451Y-87971143D02*
X171216689Y-88019524D01*
X171216689Y-88019524D02*
X171023165Y-88019524D01*
X171023165Y-88019524D02*
X170926403Y-88067905D01*
X170926403Y-88067905D02*
X170878022Y-88116286D01*
X170878022Y-88116286D02*
X170829641Y-88213048D01*
X170829641Y-88213048D02*
X170829641Y-88406572D01*
X170829641Y-88406572D02*
X170878022Y-88503334D01*
X170878022Y-88503334D02*
X170926403Y-88551715D01*
X170926403Y-88551715D02*
X171023165Y-88600095D01*
X171023165Y-88600095D02*
X171216689Y-88600095D01*
X171216689Y-88600095D02*
X171313451Y-88551715D01*
X171313451Y-88551715D02*
X171361832Y-88503334D01*
X171361832Y-88503334D02*
X171410213Y-88406572D01*
X171410213Y-88406572D02*
X171410213Y-88213048D01*
X171410213Y-88213048D02*
X171361832Y-88116286D01*
X171361832Y-88116286D02*
X171313451Y-88067905D01*
X171313451Y-88067905D02*
X171216689Y-88019524D01*
X177413735Y-86831714D02*
X176397735Y-86831714D01*
X176397735Y-86831714D02*
X176397735Y-86589809D01*
X176397735Y-86589809D02*
X176446116Y-86444666D01*
X176446116Y-86444666D02*
X176542878Y-86347904D01*
X176542878Y-86347904D02*
X176639640Y-86299523D01*
X176639640Y-86299523D02*
X176833164Y-86251142D01*
X176833164Y-86251142D02*
X176978307Y-86251142D01*
X176978307Y-86251142D02*
X177171831Y-86299523D01*
X177171831Y-86299523D02*
X177268593Y-86347904D01*
X177268593Y-86347904D02*
X177365355Y-86444666D01*
X177365355Y-86444666D02*
X177413735Y-86589809D01*
X177413735Y-86589809D02*
X177413735Y-86831714D01*
X177413735Y-85283523D02*
X177413735Y-85864095D01*
X177413735Y-85573809D02*
X176397735Y-85573809D01*
X176397735Y-85573809D02*
X176542878Y-85670571D01*
X176542878Y-85670571D02*
X176639640Y-85767333D01*
X176639640Y-85767333D02*
X176688021Y-85864095D01*
X176494497Y-84896476D02*
X176446116Y-84848095D01*
X176446116Y-84848095D02*
X176397735Y-84751333D01*
X176397735Y-84751333D02*
X176397735Y-84509428D01*
X176397735Y-84509428D02*
X176446116Y-84412666D01*
X176446116Y-84412666D02*
X176494497Y-84364285D01*
X176494497Y-84364285D02*
X176591259Y-84315904D01*
X176591259Y-84315904D02*
X176688021Y-84315904D01*
X176688021Y-84315904D02*
X176833164Y-84364285D01*
X176833164Y-84364285D02*
X177413735Y-84944857D01*
X177413735Y-84944857D02*
X177413735Y-84315904D01*
X170490975Y-63611334D02*
X170442594Y-63659715D01*
X170442594Y-63659715D02*
X170297451Y-63708095D01*
X170297451Y-63708095D02*
X170200689Y-63708095D01*
X170200689Y-63708095D02*
X170055546Y-63659715D01*
X170055546Y-63659715D02*
X169958784Y-63562953D01*
X169958784Y-63562953D02*
X169910403Y-63466191D01*
X169910403Y-63466191D02*
X169862022Y-63272667D01*
X169862022Y-63272667D02*
X169862022Y-63127524D01*
X169862022Y-63127524D02*
X169910403Y-62934000D01*
X169910403Y-62934000D02*
X169958784Y-62837238D01*
X169958784Y-62837238D02*
X170055546Y-62740476D01*
X170055546Y-62740476D02*
X170200689Y-62692095D01*
X170200689Y-62692095D02*
X170297451Y-62692095D01*
X170297451Y-62692095D02*
X170442594Y-62740476D01*
X170442594Y-62740476D02*
X170490975Y-62788857D01*
X170878022Y-62788857D02*
X170926403Y-62740476D01*
X170926403Y-62740476D02*
X171023165Y-62692095D01*
X171023165Y-62692095D02*
X171265070Y-62692095D01*
X171265070Y-62692095D02*
X171361832Y-62740476D01*
X171361832Y-62740476D02*
X171410213Y-62788857D01*
X171410213Y-62788857D02*
X171458594Y-62885619D01*
X171458594Y-62885619D02*
X171458594Y-62982381D01*
X171458594Y-62982381D02*
X171410213Y-63127524D01*
X171410213Y-63127524D02*
X170829641Y-63708095D01*
X170829641Y-63708095D02*
X171458594Y-63708095D01*
X171845641Y-62788857D02*
X171894022Y-62740476D01*
X171894022Y-62740476D02*
X171990784Y-62692095D01*
X171990784Y-62692095D02*
X172232689Y-62692095D01*
X172232689Y-62692095D02*
X172329451Y-62740476D01*
X172329451Y-62740476D02*
X172377832Y-62788857D01*
X172377832Y-62788857D02*
X172426213Y-62885619D01*
X172426213Y-62885619D02*
X172426213Y-62982381D01*
X172426213Y-62982381D02*
X172377832Y-63127524D01*
X172377832Y-63127524D02*
X171797260Y-63708095D01*
X171797260Y-63708095D02*
X172426213Y-63708095D01*
X177413735Y-104635904D02*
X176397735Y-104635904D01*
X176397735Y-104635904D02*
X176397735Y-104393999D01*
X176397735Y-104393999D02*
X176446116Y-104248856D01*
X176446116Y-104248856D02*
X176542878Y-104152094D01*
X176542878Y-104152094D02*
X176639640Y-104103713D01*
X176639640Y-104103713D02*
X176833164Y-104055332D01*
X176833164Y-104055332D02*
X176978307Y-104055332D01*
X176978307Y-104055332D02*
X177171831Y-104103713D01*
X177171831Y-104103713D02*
X177268593Y-104152094D01*
X177268593Y-104152094D02*
X177365355Y-104248856D01*
X177365355Y-104248856D02*
X177413735Y-104393999D01*
X177413735Y-104393999D02*
X177413735Y-104635904D01*
X176397735Y-103184475D02*
X176397735Y-103377999D01*
X176397735Y-103377999D02*
X176446116Y-103474761D01*
X176446116Y-103474761D02*
X176494497Y-103523142D01*
X176494497Y-103523142D02*
X176639640Y-103619904D01*
X176639640Y-103619904D02*
X176833164Y-103668285D01*
X176833164Y-103668285D02*
X177220212Y-103668285D01*
X177220212Y-103668285D02*
X177316974Y-103619904D01*
X177316974Y-103619904D02*
X177365355Y-103571523D01*
X177365355Y-103571523D02*
X177413735Y-103474761D01*
X177413735Y-103474761D02*
X177413735Y-103281237D01*
X177413735Y-103281237D02*
X177365355Y-103184475D01*
X177365355Y-103184475D02*
X177316974Y-103136094D01*
X177316974Y-103136094D02*
X177220212Y-103087713D01*
X177220212Y-103087713D02*
X176978307Y-103087713D01*
X176978307Y-103087713D02*
X176881545Y-103136094D01*
X176881545Y-103136094D02*
X176833164Y-103184475D01*
X176833164Y-103184475D02*
X176784783Y-103281237D01*
X176784783Y-103281237D02*
X176784783Y-103474761D01*
X176784783Y-103474761D02*
X176833164Y-103571523D01*
X176833164Y-103571523D02*
X176881545Y-103619904D01*
X176881545Y-103619904D02*
X176978307Y-103668285D01*
X154165904Y-112082095D02*
X154165904Y-112904572D01*
X154165904Y-112904572D02*
X154214285Y-113001334D01*
X154214285Y-113001334D02*
X154262666Y-113049715D01*
X154262666Y-113049715D02*
X154359428Y-113098095D01*
X154359428Y-113098095D02*
X154552952Y-113098095D01*
X154552952Y-113098095D02*
X154649714Y-113049715D01*
X154649714Y-113049715D02*
X154698095Y-113001334D01*
X154698095Y-113001334D02*
X154746476Y-112904572D01*
X154746476Y-112904572D02*
X154746476Y-112082095D01*
X155762476Y-113098095D02*
X155181904Y-113098095D01*
X155472190Y-113098095D02*
X155472190Y-112082095D01*
X155472190Y-112082095D02*
X155375428Y-112227238D01*
X155375428Y-112227238D02*
X155278666Y-112324000D01*
X155278666Y-112324000D02*
X155181904Y-112372381D01*
X153682095Y-66362095D02*
X153682095Y-67184572D01*
X153682095Y-67184572D02*
X153730476Y-67281334D01*
X153730476Y-67281334D02*
X153778857Y-67329715D01*
X153778857Y-67329715D02*
X153875619Y-67378095D01*
X153875619Y-67378095D02*
X154069143Y-67378095D01*
X154069143Y-67378095D02*
X154165905Y-67329715D01*
X154165905Y-67329715D02*
X154214286Y-67281334D01*
X154214286Y-67281334D02*
X154262667Y-67184572D01*
X154262667Y-67184572D02*
X154262667Y-66362095D01*
X155278667Y-67378095D02*
X154698095Y-67378095D01*
X154988381Y-67378095D02*
X154988381Y-66362095D01*
X154988381Y-66362095D02*
X154891619Y-66507238D01*
X154891619Y-66507238D02*
X154794857Y-66604000D01*
X154794857Y-66604000D02*
X154698095Y-66652381D01*
X156246286Y-67378095D02*
X155665714Y-67378095D01*
X155956000Y-67378095D02*
X155956000Y-66362095D01*
X155956000Y-66362095D02*
X155859238Y-66507238D01*
X155859238Y-66507238D02*
X155762476Y-66604000D01*
X155762476Y-66604000D02*
X155665714Y-66652381D01*
X155480784Y-87584095D02*
X156061356Y-87584095D01*
X155771070Y-88600095D02*
X155771070Y-87584095D01*
X156980594Y-88600095D02*
X156641927Y-88116286D01*
X156400022Y-88600095D02*
X156400022Y-87584095D01*
X156400022Y-87584095D02*
X156787070Y-87584095D01*
X156787070Y-87584095D02*
X156883832Y-87632476D01*
X156883832Y-87632476D02*
X156932213Y-87680857D01*
X156932213Y-87680857D02*
X156980594Y-87777619D01*
X156980594Y-87777619D02*
X156980594Y-87922762D01*
X156980594Y-87922762D02*
X156932213Y-88019524D01*
X156932213Y-88019524D02*
X156883832Y-88067905D01*
X156883832Y-88067905D02*
X156787070Y-88116286D01*
X156787070Y-88116286D02*
X156400022Y-88116286D01*
X157319260Y-87584095D02*
X157948213Y-87584095D01*
X157948213Y-87584095D02*
X157609546Y-87971143D01*
X157609546Y-87971143D02*
X157754689Y-87971143D01*
X157754689Y-87971143D02*
X157851451Y-88019524D01*
X157851451Y-88019524D02*
X157899832Y-88067905D01*
X157899832Y-88067905D02*
X157948213Y-88164667D01*
X157948213Y-88164667D02*
X157948213Y-88406572D01*
X157948213Y-88406572D02*
X157899832Y-88503334D01*
X157899832Y-88503334D02*
X157851451Y-88551715D01*
X157851451Y-88551715D02*
X157754689Y-88600095D01*
X157754689Y-88600095D02*
X157464403Y-88600095D01*
X157464403Y-88600095D02*
X157367641Y-88551715D01*
X157367641Y-88551715D02*
X157319260Y-88503334D01*
X150323334Y-110405332D02*
X150371715Y-110453713D01*
X150371715Y-110453713D02*
X150420095Y-110598856D01*
X150420095Y-110598856D02*
X150420095Y-110695618D01*
X150420095Y-110695618D02*
X150371715Y-110840761D01*
X150371715Y-110840761D02*
X150274953Y-110937523D01*
X150274953Y-110937523D02*
X150178191Y-110985904D01*
X150178191Y-110985904D02*
X149984667Y-111034285D01*
X149984667Y-111034285D02*
X149839524Y-111034285D01*
X149839524Y-111034285D02*
X149646000Y-110985904D01*
X149646000Y-110985904D02*
X149549238Y-110937523D01*
X149549238Y-110937523D02*
X149452476Y-110840761D01*
X149452476Y-110840761D02*
X149404095Y-110695618D01*
X149404095Y-110695618D02*
X149404095Y-110598856D01*
X149404095Y-110598856D02*
X149452476Y-110453713D01*
X149452476Y-110453713D02*
X149500857Y-110405332D01*
X150420095Y-109437713D02*
X150420095Y-110018285D01*
X150420095Y-109727999D02*
X149404095Y-109727999D01*
X149404095Y-109727999D02*
X149549238Y-109824761D01*
X149549238Y-109824761D02*
X149646000Y-109921523D01*
X149646000Y-109921523D02*
X149694381Y-110018285D01*
X186850739Y-103586095D02*
X186512072Y-103102286D01*
X186270167Y-103586095D02*
X186270167Y-102570095D01*
X186270167Y-102570095D02*
X186657215Y-102570095D01*
X186657215Y-102570095D02*
X186753977Y-102618476D01*
X186753977Y-102618476D02*
X186802358Y-102666857D01*
X186802358Y-102666857D02*
X186850739Y-102763619D01*
X186850739Y-102763619D02*
X186850739Y-102908762D01*
X186850739Y-102908762D02*
X186802358Y-103005524D01*
X186802358Y-103005524D02*
X186753977Y-103053905D01*
X186753977Y-103053905D02*
X186657215Y-103102286D01*
X186657215Y-103102286D02*
X186270167Y-103102286D01*
X187334548Y-103586095D02*
X187528072Y-103586095D01*
X187528072Y-103586095D02*
X187624834Y-103537715D01*
X187624834Y-103537715D02*
X187673215Y-103489334D01*
X187673215Y-103489334D02*
X187769977Y-103344191D01*
X187769977Y-103344191D02*
X187818358Y-103150667D01*
X187818358Y-103150667D02*
X187818358Y-102763619D01*
X187818358Y-102763619D02*
X187769977Y-102666857D01*
X187769977Y-102666857D02*
X187721596Y-102618476D01*
X187721596Y-102618476D02*
X187624834Y-102570095D01*
X187624834Y-102570095D02*
X187431310Y-102570095D01*
X187431310Y-102570095D02*
X187334548Y-102618476D01*
X187334548Y-102618476D02*
X187286167Y-102666857D01*
X187286167Y-102666857D02*
X187237786Y-102763619D01*
X187237786Y-102763619D02*
X187237786Y-103005524D01*
X187237786Y-103005524D02*
X187286167Y-103102286D01*
X187286167Y-103102286D02*
X187334548Y-103150667D01*
X187334548Y-103150667D02*
X187431310Y-103199048D01*
X187431310Y-103199048D02*
X187624834Y-103199048D01*
X187624834Y-103199048D02*
X187721596Y-103150667D01*
X187721596Y-103150667D02*
X187769977Y-103102286D01*
X187769977Y-103102286D02*
X187818358Y-103005524D01*
X184310739Y-61325334D02*
X184262358Y-61373715D01*
X184262358Y-61373715D02*
X184117215Y-61422095D01*
X184117215Y-61422095D02*
X184020453Y-61422095D01*
X184020453Y-61422095D02*
X183875310Y-61373715D01*
X183875310Y-61373715D02*
X183778548Y-61276953D01*
X183778548Y-61276953D02*
X183730167Y-61180191D01*
X183730167Y-61180191D02*
X183681786Y-60986667D01*
X183681786Y-60986667D02*
X183681786Y-60841524D01*
X183681786Y-60841524D02*
X183730167Y-60648000D01*
X183730167Y-60648000D02*
X183778548Y-60551238D01*
X183778548Y-60551238D02*
X183875310Y-60454476D01*
X183875310Y-60454476D02*
X184020453Y-60406095D01*
X184020453Y-60406095D02*
X184117215Y-60406095D01*
X184117215Y-60406095D02*
X184262358Y-60454476D01*
X184262358Y-60454476D02*
X184310739Y-60502857D01*
X184697786Y-60502857D02*
X184746167Y-60454476D01*
X184746167Y-60454476D02*
X184842929Y-60406095D01*
X184842929Y-60406095D02*
X185084834Y-60406095D01*
X185084834Y-60406095D02*
X185181596Y-60454476D01*
X185181596Y-60454476D02*
X185229977Y-60502857D01*
X185229977Y-60502857D02*
X185278358Y-60599619D01*
X185278358Y-60599619D02*
X185278358Y-60696381D01*
X185278358Y-60696381D02*
X185229977Y-60841524D01*
X185229977Y-60841524D02*
X184649405Y-61422095D01*
X184649405Y-61422095D02*
X185278358Y-61422095D01*
X186149215Y-60744762D02*
X186149215Y-61422095D01*
X185907310Y-60357715D02*
X185665405Y-61083429D01*
X185665405Y-61083429D02*
X186294358Y-61083429D01*
X168894403Y-70312095D02*
X168894403Y-69296095D01*
X168894403Y-69296095D02*
X169136308Y-69296095D01*
X169136308Y-69296095D02*
X169281451Y-69344476D01*
X169281451Y-69344476D02*
X169378213Y-69441238D01*
X169378213Y-69441238D02*
X169426594Y-69538000D01*
X169426594Y-69538000D02*
X169474975Y-69731524D01*
X169474975Y-69731524D02*
X169474975Y-69876667D01*
X169474975Y-69876667D02*
X169426594Y-70070191D01*
X169426594Y-70070191D02*
X169378213Y-70166953D01*
X169378213Y-70166953D02*
X169281451Y-70263715D01*
X169281451Y-70263715D02*
X169136308Y-70312095D01*
X169136308Y-70312095D02*
X168894403Y-70312095D01*
X170442594Y-70312095D02*
X169862022Y-70312095D01*
X170152308Y-70312095D02*
X170152308Y-69296095D01*
X170152308Y-69296095D02*
X170055546Y-69441238D01*
X170055546Y-69441238D02*
X169958784Y-69538000D01*
X169958784Y-69538000D02*
X169862022Y-69586381D01*
X171313451Y-69634762D02*
X171313451Y-70312095D01*
X171071546Y-69247715D02*
X170829641Y-69973429D01*
X170829641Y-69973429D02*
X171458594Y-69973429D01*
D13*
X181356095Y-101258819D02*
X181356095Y-102068342D01*
X181356095Y-102068342D02*
X181403714Y-102163580D01*
X181403714Y-102163580D02*
X181451333Y-102211200D01*
X181451333Y-102211200D02*
X181546571Y-102258819D01*
X181546571Y-102258819D02*
X181737047Y-102258819D01*
X181737047Y-102258819D02*
X181832285Y-102211200D01*
X181832285Y-102211200D02*
X181879904Y-102163580D01*
X181879904Y-102163580D02*
X181927523Y-102068342D01*
X181927523Y-102068342D02*
X181927523Y-101258819D01*
X182832285Y-101592152D02*
X182832285Y-102258819D01*
X182594190Y-101211200D02*
X182356095Y-101925485D01*
X182356095Y-101925485D02*
X182975142Y-101925485D01*
D10*
X170490975Y-81899334D02*
X170442594Y-81947715D01*
X170442594Y-81947715D02*
X170297451Y-81996095D01*
X170297451Y-81996095D02*
X170200689Y-81996095D01*
X170200689Y-81996095D02*
X170055546Y-81947715D01*
X170055546Y-81947715D02*
X169958784Y-81850953D01*
X169958784Y-81850953D02*
X169910403Y-81754191D01*
X169910403Y-81754191D02*
X169862022Y-81560667D01*
X169862022Y-81560667D02*
X169862022Y-81415524D01*
X169862022Y-81415524D02*
X169910403Y-81222000D01*
X169910403Y-81222000D02*
X169958784Y-81125238D01*
X169958784Y-81125238D02*
X170055546Y-81028476D01*
X170055546Y-81028476D02*
X170200689Y-80980095D01*
X170200689Y-80980095D02*
X170297451Y-80980095D01*
X170297451Y-80980095D02*
X170442594Y-81028476D01*
X170442594Y-81028476D02*
X170490975Y-81076857D01*
X171458594Y-81996095D02*
X170878022Y-81996095D01*
X171168308Y-81996095D02*
X171168308Y-80980095D01*
X171168308Y-80980095D02*
X171071546Y-81125238D01*
X171071546Y-81125238D02*
X170974784Y-81222000D01*
X170974784Y-81222000D02*
X170878022Y-81270381D01*
X172329451Y-81318762D02*
X172329451Y-81996095D01*
X172087546Y-80931715D02*
X171845641Y-81657429D01*
X171845641Y-81657429D02*
X172474594Y-81657429D01*
X149902333Y-86822095D02*
X149902333Y-87547810D01*
X149902333Y-87547810D02*
X149853952Y-87692953D01*
X149853952Y-87692953D02*
X149757190Y-87789715D01*
X149757190Y-87789715D02*
X149612047Y-87838095D01*
X149612047Y-87838095D02*
X149515285Y-87838095D01*
X150918333Y-87838095D02*
X150337761Y-87838095D01*
X150628047Y-87838095D02*
X150628047Y-86822095D01*
X150628047Y-86822095D02*
X150531285Y-86967238D01*
X150531285Y-86967238D02*
X150434523Y-87064000D01*
X150434523Y-87064000D02*
X150337761Y-87112381D01*
X187312095Y-100245332D02*
X186828286Y-100583999D01*
X187312095Y-100825904D02*
X186296095Y-100825904D01*
X186296095Y-100825904D02*
X186296095Y-100438856D01*
X186296095Y-100438856D02*
X186344476Y-100342094D01*
X186344476Y-100342094D02*
X186392857Y-100293713D01*
X186392857Y-100293713D02*
X186489619Y-100245332D01*
X186489619Y-100245332D02*
X186634762Y-100245332D01*
X186634762Y-100245332D02*
X186731524Y-100293713D01*
X186731524Y-100293713D02*
X186779905Y-100342094D01*
X186779905Y-100342094D02*
X186828286Y-100438856D01*
X186828286Y-100438856D02*
X186828286Y-100825904D01*
X186731524Y-99664761D02*
X186683143Y-99761523D01*
X186683143Y-99761523D02*
X186634762Y-99809904D01*
X186634762Y-99809904D02*
X186538000Y-99858285D01*
X186538000Y-99858285D02*
X186489619Y-99858285D01*
X186489619Y-99858285D02*
X186392857Y-99809904D01*
X186392857Y-99809904D02*
X186344476Y-99761523D01*
X186344476Y-99761523D02*
X186296095Y-99664761D01*
X186296095Y-99664761D02*
X186296095Y-99471237D01*
X186296095Y-99471237D02*
X186344476Y-99374475D01*
X186344476Y-99374475D02*
X186392857Y-99326094D01*
X186392857Y-99326094D02*
X186489619Y-99277713D01*
X186489619Y-99277713D02*
X186538000Y-99277713D01*
X186538000Y-99277713D02*
X186634762Y-99326094D01*
X186634762Y-99326094D02*
X186683143Y-99374475D01*
X186683143Y-99374475D02*
X186731524Y-99471237D01*
X186731524Y-99471237D02*
X186731524Y-99664761D01*
X186731524Y-99664761D02*
X186779905Y-99761523D01*
X186779905Y-99761523D02*
X186828286Y-99809904D01*
X186828286Y-99809904D02*
X186925048Y-99858285D01*
X186925048Y-99858285D02*
X187118572Y-99858285D01*
X187118572Y-99858285D02*
X187215334Y-99809904D01*
X187215334Y-99809904D02*
X187263715Y-99761523D01*
X187263715Y-99761523D02*
X187312095Y-99664761D01*
X187312095Y-99664761D02*
X187312095Y-99471237D01*
X187312095Y-99471237D02*
X187263715Y-99374475D01*
X187263715Y-99374475D02*
X187215334Y-99326094D01*
X187215334Y-99326094D02*
X187118572Y-99277713D01*
X187118572Y-99277713D02*
X186925048Y-99277713D01*
X186925048Y-99277713D02*
X186828286Y-99326094D01*
X186828286Y-99326094D02*
X186779905Y-99374475D01*
X186779905Y-99374475D02*
X186731524Y-99471237D01*
X169862022Y-105491095D02*
X169862022Y-104475095D01*
X169862022Y-104475095D02*
X170103927Y-104475095D01*
X170103927Y-104475095D02*
X170249070Y-104523476D01*
X170249070Y-104523476D02*
X170345832Y-104620238D01*
X170345832Y-104620238D02*
X170394213Y-104717000D01*
X170394213Y-104717000D02*
X170442594Y-104910524D01*
X170442594Y-104910524D02*
X170442594Y-105055667D01*
X170442594Y-105055667D02*
X170394213Y-105249191D01*
X170394213Y-105249191D02*
X170345832Y-105345953D01*
X170345832Y-105345953D02*
X170249070Y-105442715D01*
X170249070Y-105442715D02*
X170103927Y-105491095D01*
X170103927Y-105491095D02*
X169862022Y-105491095D01*
X171313451Y-104813762D02*
X171313451Y-105491095D01*
X171071546Y-104426715D02*
X170829641Y-105152429D01*
X170829641Y-105152429D02*
X171458594Y-105152429D01*
X178008095Y-79849260D02*
X177524286Y-80187927D01*
X178008095Y-80429832D02*
X176992095Y-80429832D01*
X176992095Y-80429832D02*
X176992095Y-80042784D01*
X176992095Y-80042784D02*
X177040476Y-79946022D01*
X177040476Y-79946022D02*
X177088857Y-79897641D01*
X177088857Y-79897641D02*
X177185619Y-79849260D01*
X177185619Y-79849260D02*
X177330762Y-79849260D01*
X177330762Y-79849260D02*
X177427524Y-79897641D01*
X177427524Y-79897641D02*
X177475905Y-79946022D01*
X177475905Y-79946022D02*
X177524286Y-80042784D01*
X177524286Y-80042784D02*
X177524286Y-80429832D01*
X178008095Y-78881641D02*
X178008095Y-79462213D01*
X178008095Y-79171927D02*
X176992095Y-79171927D01*
X176992095Y-79171927D02*
X177137238Y-79268689D01*
X177137238Y-79268689D02*
X177234000Y-79365451D01*
X177234000Y-79365451D02*
X177282381Y-79462213D01*
X176992095Y-78010784D02*
X176992095Y-78204308D01*
X176992095Y-78204308D02*
X177040476Y-78301070D01*
X177040476Y-78301070D02*
X177088857Y-78349451D01*
X177088857Y-78349451D02*
X177234000Y-78446213D01*
X177234000Y-78446213D02*
X177427524Y-78494594D01*
X177427524Y-78494594D02*
X177814572Y-78494594D01*
X177814572Y-78494594D02*
X177911334Y-78446213D01*
X177911334Y-78446213D02*
X177959715Y-78397832D01*
X177959715Y-78397832D02*
X178008095Y-78301070D01*
X178008095Y-78301070D02*
X178008095Y-78107546D01*
X178008095Y-78107546D02*
X177959715Y-78010784D01*
X177959715Y-78010784D02*
X177911334Y-77962403D01*
X177911334Y-77962403D02*
X177814572Y-77914022D01*
X177814572Y-77914022D02*
X177572667Y-77914022D01*
X177572667Y-77914022D02*
X177475905Y-77962403D01*
X177475905Y-77962403D02*
X177427524Y-78010784D01*
X177427524Y-78010784D02*
X177379143Y-78107546D01*
X177379143Y-78107546D02*
X177379143Y-78301070D01*
X177379143Y-78301070D02*
X177427524Y-78397832D01*
X177427524Y-78397832D02*
X177475905Y-78446213D01*
X177475905Y-78446213D02*
X177572667Y-78494594D01*
X177413735Y-77687714D02*
X176397735Y-77687714D01*
X176397735Y-77687714D02*
X176397735Y-77445809D01*
X176397735Y-77445809D02*
X176446116Y-77300666D01*
X176446116Y-77300666D02*
X176542878Y-77203904D01*
X176542878Y-77203904D02*
X176639640Y-77155523D01*
X176639640Y-77155523D02*
X176833164Y-77107142D01*
X176833164Y-77107142D02*
X176978307Y-77107142D01*
X176978307Y-77107142D02*
X177171831Y-77155523D01*
X177171831Y-77155523D02*
X177268593Y-77203904D01*
X177268593Y-77203904D02*
X177365355Y-77300666D01*
X177365355Y-77300666D02*
X177413735Y-77445809D01*
X177413735Y-77445809D02*
X177413735Y-77687714D01*
X177413735Y-76139523D02*
X177413735Y-76720095D01*
X177413735Y-76429809D02*
X176397735Y-76429809D01*
X176397735Y-76429809D02*
X176542878Y-76526571D01*
X176542878Y-76526571D02*
X176639640Y-76623333D01*
X176639640Y-76623333D02*
X176688021Y-76720095D01*
X176397735Y-75220285D02*
X176397735Y-75704095D01*
X176397735Y-75704095D02*
X176881545Y-75752476D01*
X176881545Y-75752476D02*
X176833164Y-75704095D01*
X176833164Y-75704095D02*
X176784783Y-75607333D01*
X176784783Y-75607333D02*
X176784783Y-75365428D01*
X176784783Y-75365428D02*
X176833164Y-75268666D01*
X176833164Y-75268666D02*
X176881545Y-75220285D01*
X176881545Y-75220285D02*
X176978307Y-75171904D01*
X176978307Y-75171904D02*
X177220212Y-75171904D01*
X177220212Y-75171904D02*
X177316974Y-75220285D01*
X177316974Y-75220285D02*
X177365355Y-75268666D01*
X177365355Y-75268666D02*
X177413735Y-75365428D01*
X177413735Y-75365428D02*
X177413735Y-75607333D01*
X177413735Y-75607333D02*
X177365355Y-75704095D01*
X177365355Y-75704095D02*
X177316974Y-75752476D01*
X179532095Y-88993260D02*
X179048286Y-89331927D01*
X179532095Y-89573832D02*
X178516095Y-89573832D01*
X178516095Y-89573832D02*
X178516095Y-89186784D01*
X178516095Y-89186784D02*
X178564476Y-89090022D01*
X178564476Y-89090022D02*
X178612857Y-89041641D01*
X178612857Y-89041641D02*
X178709619Y-88993260D01*
X178709619Y-88993260D02*
X178854762Y-88993260D01*
X178854762Y-88993260D02*
X178951524Y-89041641D01*
X178951524Y-89041641D02*
X178999905Y-89090022D01*
X178999905Y-89090022D02*
X179048286Y-89186784D01*
X179048286Y-89186784D02*
X179048286Y-89573832D01*
X179532095Y-88025641D02*
X179532095Y-88606213D01*
X179532095Y-88315927D02*
X178516095Y-88315927D01*
X178516095Y-88315927D02*
X178661238Y-88412689D01*
X178661238Y-88412689D02*
X178758000Y-88509451D01*
X178758000Y-88509451D02*
X178806381Y-88606213D01*
X178612857Y-87638594D02*
X178564476Y-87590213D01*
X178564476Y-87590213D02*
X178516095Y-87493451D01*
X178516095Y-87493451D02*
X178516095Y-87251546D01*
X178516095Y-87251546D02*
X178564476Y-87154784D01*
X178564476Y-87154784D02*
X178612857Y-87106403D01*
X178612857Y-87106403D02*
X178709619Y-87058022D01*
X178709619Y-87058022D02*
X178806381Y-87058022D01*
X178806381Y-87058022D02*
X178951524Y-87106403D01*
X178951524Y-87106403D02*
X179532095Y-87686975D01*
X179532095Y-87686975D02*
X179532095Y-87058022D01*
X179532095Y-107281260D02*
X179048286Y-107619927D01*
X179532095Y-107861832D02*
X178516095Y-107861832D01*
X178516095Y-107861832D02*
X178516095Y-107474784D01*
X178516095Y-107474784D02*
X178564476Y-107378022D01*
X178564476Y-107378022D02*
X178612857Y-107329641D01*
X178612857Y-107329641D02*
X178709619Y-107281260D01*
X178709619Y-107281260D02*
X178854762Y-107281260D01*
X178854762Y-107281260D02*
X178951524Y-107329641D01*
X178951524Y-107329641D02*
X178999905Y-107378022D01*
X178999905Y-107378022D02*
X179048286Y-107474784D01*
X179048286Y-107474784D02*
X179048286Y-107861832D01*
X178612857Y-106894213D02*
X178564476Y-106845832D01*
X178564476Y-106845832D02*
X178516095Y-106749070D01*
X178516095Y-106749070D02*
X178516095Y-106507165D01*
X178516095Y-106507165D02*
X178564476Y-106410403D01*
X178564476Y-106410403D02*
X178612857Y-106362022D01*
X178612857Y-106362022D02*
X178709619Y-106313641D01*
X178709619Y-106313641D02*
X178806381Y-106313641D01*
X178806381Y-106313641D02*
X178951524Y-106362022D01*
X178951524Y-106362022D02*
X179532095Y-106942594D01*
X179532095Y-106942594D02*
X179532095Y-106313641D01*
X169862022Y-106888095D02*
X169862022Y-105872095D01*
X169862022Y-105872095D02*
X170103927Y-105872095D01*
X170103927Y-105872095D02*
X170249070Y-105920476D01*
X170249070Y-105920476D02*
X170345832Y-106017238D01*
X170345832Y-106017238D02*
X170394213Y-106114000D01*
X170394213Y-106114000D02*
X170442594Y-106307524D01*
X170442594Y-106307524D02*
X170442594Y-106452667D01*
X170442594Y-106452667D02*
X170394213Y-106646191D01*
X170394213Y-106646191D02*
X170345832Y-106742953D01*
X170345832Y-106742953D02*
X170249070Y-106839715D01*
X170249070Y-106839715D02*
X170103927Y-106888095D01*
X170103927Y-106888095D02*
X169862022Y-106888095D01*
X170829641Y-105968857D02*
X170878022Y-105920476D01*
X170878022Y-105920476D02*
X170974784Y-105872095D01*
X170974784Y-105872095D02*
X171216689Y-105872095D01*
X171216689Y-105872095D02*
X171313451Y-105920476D01*
X171313451Y-105920476D02*
X171361832Y-105968857D01*
X171361832Y-105968857D02*
X171410213Y-106065619D01*
X171410213Y-106065619D02*
X171410213Y-106162381D01*
X171410213Y-106162381D02*
X171361832Y-106307524D01*
X171361832Y-106307524D02*
X170781260Y-106888095D01*
X170781260Y-106888095D02*
X171410213Y-106888095D01*
X186850739Y-114254095D02*
X186512072Y-113770286D01*
X186270167Y-114254095D02*
X186270167Y-113238095D01*
X186270167Y-113238095D02*
X186657215Y-113238095D01*
X186657215Y-113238095D02*
X186753977Y-113286476D01*
X186753977Y-113286476D02*
X186802358Y-113334857D01*
X186802358Y-113334857D02*
X186850739Y-113431619D01*
X186850739Y-113431619D02*
X186850739Y-113576762D01*
X186850739Y-113576762D02*
X186802358Y-113673524D01*
X186802358Y-113673524D02*
X186753977Y-113721905D01*
X186753977Y-113721905D02*
X186657215Y-113770286D01*
X186657215Y-113770286D02*
X186270167Y-113770286D01*
X187769977Y-113238095D02*
X187286167Y-113238095D01*
X187286167Y-113238095D02*
X187237786Y-113721905D01*
X187237786Y-113721905D02*
X187286167Y-113673524D01*
X187286167Y-113673524D02*
X187382929Y-113625143D01*
X187382929Y-113625143D02*
X187624834Y-113625143D01*
X187624834Y-113625143D02*
X187721596Y-113673524D01*
X187721596Y-113673524D02*
X187769977Y-113721905D01*
X187769977Y-113721905D02*
X187818358Y-113818667D01*
X187818358Y-113818667D02*
X187818358Y-114060572D01*
X187818358Y-114060572D02*
X187769977Y-114157334D01*
X187769977Y-114157334D02*
X187721596Y-114205715D01*
X187721596Y-114205715D02*
X187624834Y-114254095D01*
X187624834Y-114254095D02*
X187382929Y-114254095D01*
X187382929Y-114254095D02*
X187286167Y-114205715D01*
X187286167Y-114205715D02*
X187237786Y-114157334D01*
X150323334Y-74313142D02*
X150371715Y-74361523D01*
X150371715Y-74361523D02*
X150420095Y-74506666D01*
X150420095Y-74506666D02*
X150420095Y-74603428D01*
X150420095Y-74603428D02*
X150371715Y-74748571D01*
X150371715Y-74748571D02*
X150274953Y-74845333D01*
X150274953Y-74845333D02*
X150178191Y-74893714D01*
X150178191Y-74893714D02*
X149984667Y-74942095D01*
X149984667Y-74942095D02*
X149839524Y-74942095D01*
X149839524Y-74942095D02*
X149646000Y-74893714D01*
X149646000Y-74893714D02*
X149549238Y-74845333D01*
X149549238Y-74845333D02*
X149452476Y-74748571D01*
X149452476Y-74748571D02*
X149404095Y-74603428D01*
X149404095Y-74603428D02*
X149404095Y-74506666D01*
X149404095Y-74506666D02*
X149452476Y-74361523D01*
X149452476Y-74361523D02*
X149500857Y-74313142D01*
X150420095Y-73345523D02*
X150420095Y-73926095D01*
X150420095Y-73635809D02*
X149404095Y-73635809D01*
X149404095Y-73635809D02*
X149549238Y-73732571D01*
X149549238Y-73732571D02*
X149646000Y-73829333D01*
X149646000Y-73829333D02*
X149694381Y-73926095D01*
X149404095Y-73006857D02*
X149404095Y-72329523D01*
X149404095Y-72329523D02*
X150420095Y-72764952D01*
X170744975Y-75422334D02*
X170696594Y-75470715D01*
X170696594Y-75470715D02*
X170551451Y-75519095D01*
X170551451Y-75519095D02*
X170454689Y-75519095D01*
X170454689Y-75519095D02*
X170309546Y-75470715D01*
X170309546Y-75470715D02*
X170212784Y-75373953D01*
X170212784Y-75373953D02*
X170164403Y-75277191D01*
X170164403Y-75277191D02*
X170116022Y-75083667D01*
X170116022Y-75083667D02*
X170116022Y-74938524D01*
X170116022Y-74938524D02*
X170164403Y-74745000D01*
X170164403Y-74745000D02*
X170212784Y-74648238D01*
X170212784Y-74648238D02*
X170309546Y-74551476D01*
X170309546Y-74551476D02*
X170454689Y-74503095D01*
X170454689Y-74503095D02*
X170551451Y-74503095D01*
X170551451Y-74503095D02*
X170696594Y-74551476D01*
X170696594Y-74551476D02*
X170744975Y-74599857D01*
X171712594Y-75519095D02*
X171132022Y-75519095D01*
X171422308Y-75519095D02*
X171422308Y-74503095D01*
X171422308Y-74503095D02*
X171325546Y-74648238D01*
X171325546Y-74648238D02*
X171228784Y-74745000D01*
X171228784Y-74745000D02*
X171132022Y-74793381D01*
X172196403Y-75519095D02*
X172389927Y-75519095D01*
X172389927Y-75519095D02*
X172486689Y-75470715D01*
X172486689Y-75470715D02*
X172535070Y-75422334D01*
X172535070Y-75422334D02*
X172631832Y-75277191D01*
X172631832Y-75277191D02*
X172680213Y-75083667D01*
X172680213Y-75083667D02*
X172680213Y-74696619D01*
X172680213Y-74696619D02*
X172631832Y-74599857D01*
X172631832Y-74599857D02*
X172583451Y-74551476D01*
X172583451Y-74551476D02*
X172486689Y-74503095D01*
X172486689Y-74503095D02*
X172293165Y-74503095D01*
X172293165Y-74503095D02*
X172196403Y-74551476D01*
X172196403Y-74551476D02*
X172148022Y-74599857D01*
X172148022Y-74599857D02*
X172099641Y-74696619D01*
X172099641Y-74696619D02*
X172099641Y-74938524D01*
X172099641Y-74938524D02*
X172148022Y-75035286D01*
X172148022Y-75035286D02*
X172196403Y-75083667D01*
X172196403Y-75083667D02*
X172293165Y-75132048D01*
X172293165Y-75132048D02*
X172486689Y-75132048D01*
X172486689Y-75132048D02*
X172583451Y-75083667D01*
X172583451Y-75083667D02*
X172631832Y-75035286D01*
X172631832Y-75035286D02*
X172680213Y-74938524D01*
X154165904Y-93794095D02*
X154165904Y-94616572D01*
X154165904Y-94616572D02*
X154214285Y-94713334D01*
X154214285Y-94713334D02*
X154262666Y-94761715D01*
X154262666Y-94761715D02*
X154359428Y-94810095D01*
X154359428Y-94810095D02*
X154552952Y-94810095D01*
X154552952Y-94810095D02*
X154649714Y-94761715D01*
X154649714Y-94761715D02*
X154698095Y-94713334D01*
X154698095Y-94713334D02*
X154746476Y-94616572D01*
X154746476Y-94616572D02*
X154746476Y-93794095D01*
X155714095Y-93794095D02*
X155230285Y-93794095D01*
X155230285Y-93794095D02*
X155181904Y-94277905D01*
X155181904Y-94277905D02*
X155230285Y-94229524D01*
X155230285Y-94229524D02*
X155327047Y-94181143D01*
X155327047Y-94181143D02*
X155568952Y-94181143D01*
X155568952Y-94181143D02*
X155665714Y-94229524D01*
X155665714Y-94229524D02*
X155714095Y-94277905D01*
X155714095Y-94277905D02*
X155762476Y-94374667D01*
X155762476Y-94374667D02*
X155762476Y-94616572D01*
X155762476Y-94616572D02*
X155714095Y-94713334D01*
X155714095Y-94713334D02*
X155665714Y-94761715D01*
X155665714Y-94761715D02*
X155568952Y-94810095D01*
X155568952Y-94810095D02*
X155327047Y-94810095D01*
X155327047Y-94810095D02*
X155230285Y-94761715D01*
X155230285Y-94761715D02*
X155181904Y-94713334D01*
X178008095Y-70705260D02*
X177524286Y-71043927D01*
X178008095Y-71285832D02*
X176992095Y-71285832D01*
X176992095Y-71285832D02*
X176992095Y-70898784D01*
X176992095Y-70898784D02*
X177040476Y-70802022D01*
X177040476Y-70802022D02*
X177088857Y-70753641D01*
X177088857Y-70753641D02*
X177185619Y-70705260D01*
X177185619Y-70705260D02*
X177330762Y-70705260D01*
X177330762Y-70705260D02*
X177427524Y-70753641D01*
X177427524Y-70753641D02*
X177475905Y-70802022D01*
X177475905Y-70802022D02*
X177524286Y-70898784D01*
X177524286Y-70898784D02*
X177524286Y-71285832D01*
X177088857Y-70318213D02*
X177040476Y-70269832D01*
X177040476Y-70269832D02*
X176992095Y-70173070D01*
X176992095Y-70173070D02*
X176992095Y-69931165D01*
X176992095Y-69931165D02*
X177040476Y-69834403D01*
X177040476Y-69834403D02*
X177088857Y-69786022D01*
X177088857Y-69786022D02*
X177185619Y-69737641D01*
X177185619Y-69737641D02*
X177282381Y-69737641D01*
X177282381Y-69737641D02*
X177427524Y-69786022D01*
X177427524Y-69786022D02*
X178008095Y-70366594D01*
X178008095Y-70366594D02*
X178008095Y-69737641D01*
X178008095Y-68770022D02*
X178008095Y-69350594D01*
X178008095Y-69060308D02*
X176992095Y-69060308D01*
X176992095Y-69060308D02*
X177137238Y-69157070D01*
X177137238Y-69157070D02*
X177234000Y-69253832D01*
X177234000Y-69253832D02*
X177282381Y-69350594D01*
X186850739Y-112730095D02*
X186512072Y-112246286D01*
X186270167Y-112730095D02*
X186270167Y-111714095D01*
X186270167Y-111714095D02*
X186657215Y-111714095D01*
X186657215Y-111714095D02*
X186753977Y-111762476D01*
X186753977Y-111762476D02*
X186802358Y-111810857D01*
X186802358Y-111810857D02*
X186850739Y-111907619D01*
X186850739Y-111907619D02*
X186850739Y-112052762D01*
X186850739Y-112052762D02*
X186802358Y-112149524D01*
X186802358Y-112149524D02*
X186753977Y-112197905D01*
X186753977Y-112197905D02*
X186657215Y-112246286D01*
X186657215Y-112246286D02*
X186270167Y-112246286D01*
X187721596Y-112052762D02*
X187721596Y-112730095D01*
X187479691Y-111665715D02*
X187237786Y-112391429D01*
X187237786Y-112391429D02*
X187866739Y-112391429D01*
X168894403Y-87203095D02*
X168894403Y-86187095D01*
X168894403Y-86187095D02*
X169136308Y-86187095D01*
X169136308Y-86187095D02*
X169281451Y-86235476D01*
X169281451Y-86235476D02*
X169378213Y-86332238D01*
X169378213Y-86332238D02*
X169426594Y-86429000D01*
X169426594Y-86429000D02*
X169474975Y-86622524D01*
X169474975Y-86622524D02*
X169474975Y-86767667D01*
X169474975Y-86767667D02*
X169426594Y-86961191D01*
X169426594Y-86961191D02*
X169378213Y-87057953D01*
X169378213Y-87057953D02*
X169281451Y-87154715D01*
X169281451Y-87154715D02*
X169136308Y-87203095D01*
X169136308Y-87203095D02*
X168894403Y-87203095D01*
X170442594Y-87203095D02*
X169862022Y-87203095D01*
X170152308Y-87203095D02*
X170152308Y-86187095D01*
X170152308Y-86187095D02*
X170055546Y-86332238D01*
X170055546Y-86332238D02*
X169958784Y-86429000D01*
X169958784Y-86429000D02*
X169862022Y-86477381D01*
X171071546Y-86187095D02*
X171168308Y-86187095D01*
X171168308Y-86187095D02*
X171265070Y-86235476D01*
X171265070Y-86235476D02*
X171313451Y-86283857D01*
X171313451Y-86283857D02*
X171361832Y-86380619D01*
X171361832Y-86380619D02*
X171410213Y-86574143D01*
X171410213Y-86574143D02*
X171410213Y-86816048D01*
X171410213Y-86816048D02*
X171361832Y-87009572D01*
X171361832Y-87009572D02*
X171313451Y-87106334D01*
X171313451Y-87106334D02*
X171265070Y-87154715D01*
X171265070Y-87154715D02*
X171168308Y-87203095D01*
X171168308Y-87203095D02*
X171071546Y-87203095D01*
X171071546Y-87203095D02*
X170974784Y-87154715D01*
X170974784Y-87154715D02*
X170926403Y-87106334D01*
X170926403Y-87106334D02*
X170878022Y-87009572D01*
X170878022Y-87009572D02*
X170829641Y-86816048D01*
X170829641Y-86816048D02*
X170829641Y-86574143D01*
X170829641Y-86574143D02*
X170878022Y-86380619D01*
X170878022Y-86380619D02*
X170926403Y-86283857D01*
X170926403Y-86283857D02*
X170974784Y-86235476D01*
X170974784Y-86235476D02*
X171071546Y-86187095D01*
X178008095Y-107281260D02*
X177524286Y-107619927D01*
X178008095Y-107861832D02*
X176992095Y-107861832D01*
X176992095Y-107861832D02*
X176992095Y-107474784D01*
X176992095Y-107474784D02*
X177040476Y-107378022D01*
X177040476Y-107378022D02*
X177088857Y-107329641D01*
X177088857Y-107329641D02*
X177185619Y-107281260D01*
X177185619Y-107281260D02*
X177330762Y-107281260D01*
X177330762Y-107281260D02*
X177427524Y-107329641D01*
X177427524Y-107329641D02*
X177475905Y-107378022D01*
X177475905Y-107378022D02*
X177524286Y-107474784D01*
X177524286Y-107474784D02*
X177524286Y-107861832D01*
X178008095Y-106313641D02*
X178008095Y-106894213D01*
X178008095Y-106603927D02*
X176992095Y-106603927D01*
X176992095Y-106603927D02*
X177137238Y-106700689D01*
X177137238Y-106700689D02*
X177234000Y-106797451D01*
X177234000Y-106797451D02*
X177282381Y-106894213D01*
X186850739Y-76154095D02*
X186512072Y-75670286D01*
X186270167Y-76154095D02*
X186270167Y-75138095D01*
X186270167Y-75138095D02*
X186657215Y-75138095D01*
X186657215Y-75138095D02*
X186753977Y-75186476D01*
X186753977Y-75186476D02*
X186802358Y-75234857D01*
X186802358Y-75234857D02*
X186850739Y-75331619D01*
X186850739Y-75331619D02*
X186850739Y-75476762D01*
X186850739Y-75476762D02*
X186802358Y-75573524D01*
X186802358Y-75573524D02*
X186753977Y-75621905D01*
X186753977Y-75621905D02*
X186657215Y-75670286D01*
X186657215Y-75670286D02*
X186270167Y-75670286D01*
X187237786Y-75234857D02*
X187286167Y-75186476D01*
X187286167Y-75186476D02*
X187382929Y-75138095D01*
X187382929Y-75138095D02*
X187624834Y-75138095D01*
X187624834Y-75138095D02*
X187721596Y-75186476D01*
X187721596Y-75186476D02*
X187769977Y-75234857D01*
X187769977Y-75234857D02*
X187818358Y-75331619D01*
X187818358Y-75331619D02*
X187818358Y-75428381D01*
X187818358Y-75428381D02*
X187769977Y-75573524D01*
X187769977Y-75573524D02*
X187189405Y-76154095D01*
X187189405Y-76154095D02*
X187818358Y-76154095D01*
X188689215Y-75476762D02*
X188689215Y-76154095D01*
X188447310Y-75089715D02*
X188205405Y-75815429D01*
X188205405Y-75815429D02*
X188834358Y-75815429D01*
X187312095Y-82441142D02*
X186828286Y-82779809D01*
X187312095Y-83021714D02*
X186296095Y-83021714D01*
X186296095Y-83021714D02*
X186296095Y-82634666D01*
X186296095Y-82634666D02*
X186344476Y-82537904D01*
X186344476Y-82537904D02*
X186392857Y-82489523D01*
X186392857Y-82489523D02*
X186489619Y-82441142D01*
X186489619Y-82441142D02*
X186634762Y-82441142D01*
X186634762Y-82441142D02*
X186731524Y-82489523D01*
X186731524Y-82489523D02*
X186779905Y-82537904D01*
X186779905Y-82537904D02*
X186828286Y-82634666D01*
X186828286Y-82634666D02*
X186828286Y-83021714D01*
X187312095Y-81473523D02*
X187312095Y-82054095D01*
X187312095Y-81763809D02*
X186296095Y-81763809D01*
X186296095Y-81763809D02*
X186441238Y-81860571D01*
X186441238Y-81860571D02*
X186538000Y-81957333D01*
X186538000Y-81957333D02*
X186586381Y-82054095D01*
X186731524Y-80892952D02*
X186683143Y-80989714D01*
X186683143Y-80989714D02*
X186634762Y-81038095D01*
X186634762Y-81038095D02*
X186538000Y-81086476D01*
X186538000Y-81086476D02*
X186489619Y-81086476D01*
X186489619Y-81086476D02*
X186392857Y-81038095D01*
X186392857Y-81038095D02*
X186344476Y-80989714D01*
X186344476Y-80989714D02*
X186296095Y-80892952D01*
X186296095Y-80892952D02*
X186296095Y-80699428D01*
X186296095Y-80699428D02*
X186344476Y-80602666D01*
X186344476Y-80602666D02*
X186392857Y-80554285D01*
X186392857Y-80554285D02*
X186489619Y-80505904D01*
X186489619Y-80505904D02*
X186538000Y-80505904D01*
X186538000Y-80505904D02*
X186634762Y-80554285D01*
X186634762Y-80554285D02*
X186683143Y-80602666D01*
X186683143Y-80602666D02*
X186731524Y-80699428D01*
X186731524Y-80699428D02*
X186731524Y-80892952D01*
X186731524Y-80892952D02*
X186779905Y-80989714D01*
X186779905Y-80989714D02*
X186828286Y-81038095D01*
X186828286Y-81038095D02*
X186925048Y-81086476D01*
X186925048Y-81086476D02*
X187118572Y-81086476D01*
X187118572Y-81086476D02*
X187215334Y-81038095D01*
X187215334Y-81038095D02*
X187263715Y-80989714D01*
X187263715Y-80989714D02*
X187312095Y-80892952D01*
X187312095Y-80892952D02*
X187312095Y-80699428D01*
X187312095Y-80699428D02*
X187263715Y-80602666D01*
X187263715Y-80602666D02*
X187215334Y-80554285D01*
X187215334Y-80554285D02*
X187118572Y-80505904D01*
X187118572Y-80505904D02*
X186925048Y-80505904D01*
X186925048Y-80505904D02*
X186828286Y-80554285D01*
X186828286Y-80554285D02*
X186779905Y-80602666D01*
X186779905Y-80602666D02*
X186731524Y-80699428D01*
X150323334Y-65169142D02*
X150371715Y-65217523D01*
X150371715Y-65217523D02*
X150420095Y-65362666D01*
X150420095Y-65362666D02*
X150420095Y-65459428D01*
X150420095Y-65459428D02*
X150371715Y-65604571D01*
X150371715Y-65604571D02*
X150274953Y-65701333D01*
X150274953Y-65701333D02*
X150178191Y-65749714D01*
X150178191Y-65749714D02*
X149984667Y-65798095D01*
X149984667Y-65798095D02*
X149839524Y-65798095D01*
X149839524Y-65798095D02*
X149646000Y-65749714D01*
X149646000Y-65749714D02*
X149549238Y-65701333D01*
X149549238Y-65701333D02*
X149452476Y-65604571D01*
X149452476Y-65604571D02*
X149404095Y-65459428D01*
X149404095Y-65459428D02*
X149404095Y-65362666D01*
X149404095Y-65362666D02*
X149452476Y-65217523D01*
X149452476Y-65217523D02*
X149500857Y-65169142D01*
X149500857Y-64782095D02*
X149452476Y-64733714D01*
X149452476Y-64733714D02*
X149404095Y-64636952D01*
X149404095Y-64636952D02*
X149404095Y-64395047D01*
X149404095Y-64395047D02*
X149452476Y-64298285D01*
X149452476Y-64298285D02*
X149500857Y-64249904D01*
X149500857Y-64249904D02*
X149597619Y-64201523D01*
X149597619Y-64201523D02*
X149694381Y-64201523D01*
X149694381Y-64201523D02*
X149839524Y-64249904D01*
X149839524Y-64249904D02*
X150420095Y-64830476D01*
X150420095Y-64830476D02*
X150420095Y-64201523D01*
X150420095Y-63233904D02*
X150420095Y-63814476D01*
X150420095Y-63524190D02*
X149404095Y-63524190D01*
X149404095Y-63524190D02*
X149549238Y-63620952D01*
X149549238Y-63620952D02*
X149646000Y-63717714D01*
X149646000Y-63717714D02*
X149694381Y-63814476D01*
X186850739Y-105110095D02*
X186512072Y-104626286D01*
X186270167Y-105110095D02*
X186270167Y-104094095D01*
X186270167Y-104094095D02*
X186657215Y-104094095D01*
X186657215Y-104094095D02*
X186753977Y-104142476D01*
X186753977Y-104142476D02*
X186802358Y-104190857D01*
X186802358Y-104190857D02*
X186850739Y-104287619D01*
X186850739Y-104287619D02*
X186850739Y-104432762D01*
X186850739Y-104432762D02*
X186802358Y-104529524D01*
X186802358Y-104529524D02*
X186753977Y-104577905D01*
X186753977Y-104577905D02*
X186657215Y-104626286D01*
X186657215Y-104626286D02*
X186270167Y-104626286D01*
X187818358Y-105110095D02*
X187237786Y-105110095D01*
X187528072Y-105110095D02*
X187528072Y-104094095D01*
X187528072Y-104094095D02*
X187431310Y-104239238D01*
X187431310Y-104239238D02*
X187334548Y-104336000D01*
X187334548Y-104336000D02*
X187237786Y-104384381D01*
X188447310Y-104094095D02*
X188544072Y-104094095D01*
X188544072Y-104094095D02*
X188640834Y-104142476D01*
X188640834Y-104142476D02*
X188689215Y-104190857D01*
X188689215Y-104190857D02*
X188737596Y-104287619D01*
X188737596Y-104287619D02*
X188785977Y-104481143D01*
X188785977Y-104481143D02*
X188785977Y-104723048D01*
X188785977Y-104723048D02*
X188737596Y-104916572D01*
X188737596Y-104916572D02*
X188689215Y-105013334D01*
X188689215Y-105013334D02*
X188640834Y-105061715D01*
X188640834Y-105061715D02*
X188544072Y-105110095D01*
X188544072Y-105110095D02*
X188447310Y-105110095D01*
X188447310Y-105110095D02*
X188350548Y-105061715D01*
X188350548Y-105061715D02*
X188302167Y-105013334D01*
X188302167Y-105013334D02*
X188253786Y-104916572D01*
X188253786Y-104916572D02*
X188205405Y-104723048D01*
X188205405Y-104723048D02*
X188205405Y-104481143D01*
X188205405Y-104481143D02*
X188253786Y-104287619D01*
X188253786Y-104287619D02*
X188302167Y-104190857D01*
X188302167Y-104190857D02*
X188350548Y-104142476D01*
X188350548Y-104142476D02*
X188447310Y-104094095D01*
X170744975Y-66278334D02*
X170696594Y-66326715D01*
X170696594Y-66326715D02*
X170551451Y-66375095D01*
X170551451Y-66375095D02*
X170454689Y-66375095D01*
X170454689Y-66375095D02*
X170309546Y-66326715D01*
X170309546Y-66326715D02*
X170212784Y-66229953D01*
X170212784Y-66229953D02*
X170164403Y-66133191D01*
X170164403Y-66133191D02*
X170116022Y-65939667D01*
X170116022Y-65939667D02*
X170116022Y-65794524D01*
X170116022Y-65794524D02*
X170164403Y-65601000D01*
X170164403Y-65601000D02*
X170212784Y-65504238D01*
X170212784Y-65504238D02*
X170309546Y-65407476D01*
X170309546Y-65407476D02*
X170454689Y-65359095D01*
X170454689Y-65359095D02*
X170551451Y-65359095D01*
X170551451Y-65359095D02*
X170696594Y-65407476D01*
X170696594Y-65407476D02*
X170744975Y-65455857D01*
X171132022Y-65455857D02*
X171180403Y-65407476D01*
X171180403Y-65407476D02*
X171277165Y-65359095D01*
X171277165Y-65359095D02*
X171519070Y-65359095D01*
X171519070Y-65359095D02*
X171615832Y-65407476D01*
X171615832Y-65407476D02*
X171664213Y-65455857D01*
X171664213Y-65455857D02*
X171712594Y-65552619D01*
X171712594Y-65552619D02*
X171712594Y-65649381D01*
X171712594Y-65649381D02*
X171664213Y-65794524D01*
X171664213Y-65794524D02*
X171083641Y-66375095D01*
X171083641Y-66375095D02*
X171712594Y-66375095D01*
X172051260Y-65359095D02*
X172680213Y-65359095D01*
X172680213Y-65359095D02*
X172341546Y-65746143D01*
X172341546Y-65746143D02*
X172486689Y-65746143D01*
X172486689Y-65746143D02*
X172583451Y-65794524D01*
X172583451Y-65794524D02*
X172631832Y-65842905D01*
X172631832Y-65842905D02*
X172680213Y-65939667D01*
X172680213Y-65939667D02*
X172680213Y-66181572D01*
X172680213Y-66181572D02*
X172631832Y-66278334D01*
X172631832Y-66278334D02*
X172583451Y-66326715D01*
X172583451Y-66326715D02*
X172486689Y-66375095D01*
X172486689Y-66375095D02*
X172196403Y-66375095D01*
X172196403Y-66375095D02*
X172099641Y-66326715D01*
X172099641Y-66326715D02*
X172051260Y-66278334D01*
D13*
X180879905Y-73826819D02*
X180879905Y-74636342D01*
X180879905Y-74636342D02*
X180927524Y-74731580D01*
X180927524Y-74731580D02*
X180975143Y-74779200D01*
X180975143Y-74779200D02*
X181070381Y-74826819D01*
X181070381Y-74826819D02*
X181260857Y-74826819D01*
X181260857Y-74826819D02*
X181356095Y-74779200D01*
X181356095Y-74779200D02*
X181403714Y-74731580D01*
X181403714Y-74731580D02*
X181451333Y-74636342D01*
X181451333Y-74636342D02*
X181451333Y-73826819D01*
X182451333Y-74826819D02*
X181879905Y-74826819D01*
X182165619Y-74826819D02*
X182165619Y-73826819D01*
X182165619Y-73826819D02*
X182070381Y-73969676D01*
X182070381Y-73969676D02*
X181975143Y-74064914D01*
X181975143Y-74064914D02*
X181879905Y-74112533D01*
X183070381Y-73826819D02*
X183165619Y-73826819D01*
X183165619Y-73826819D02*
X183260857Y-73874438D01*
X183260857Y-73874438D02*
X183308476Y-73922057D01*
X183308476Y-73922057D02*
X183356095Y-74017295D01*
X183356095Y-74017295D02*
X183403714Y-74207771D01*
X183403714Y-74207771D02*
X183403714Y-74445866D01*
X183403714Y-74445866D02*
X183356095Y-74636342D01*
X183356095Y-74636342D02*
X183308476Y-74731580D01*
X183308476Y-74731580D02*
X183260857Y-74779200D01*
X183260857Y-74779200D02*
X183165619Y-74826819D01*
X183165619Y-74826819D02*
X183070381Y-74826819D01*
X183070381Y-74826819D02*
X182975143Y-74779200D01*
X182975143Y-74779200D02*
X182927524Y-74731580D01*
X182927524Y-74731580D02*
X182879905Y-74636342D01*
X182879905Y-74636342D02*
X182832286Y-74445866D01*
X182832286Y-74445866D02*
X182832286Y-74207771D01*
X182832286Y-74207771D02*
X182879905Y-74017295D01*
X182879905Y-74017295D02*
X182927524Y-73922057D01*
X182927524Y-73922057D02*
X182975143Y-73874438D01*
X182975143Y-73874438D02*
X183070381Y-73826819D01*
D10*
X186850739Y-95966095D02*
X186512072Y-95482286D01*
X186270167Y-95966095D02*
X186270167Y-94950095D01*
X186270167Y-94950095D02*
X186657215Y-94950095D01*
X186657215Y-94950095D02*
X186753977Y-94998476D01*
X186753977Y-94998476D02*
X186802358Y-95046857D01*
X186802358Y-95046857D02*
X186850739Y-95143619D01*
X186850739Y-95143619D02*
X186850739Y-95288762D01*
X186850739Y-95288762D02*
X186802358Y-95385524D01*
X186802358Y-95385524D02*
X186753977Y-95433905D01*
X186753977Y-95433905D02*
X186657215Y-95482286D01*
X186657215Y-95482286D02*
X186270167Y-95482286D01*
X187818358Y-95966095D02*
X187237786Y-95966095D01*
X187528072Y-95966095D02*
X187528072Y-94950095D01*
X187528072Y-94950095D02*
X187431310Y-95095238D01*
X187431310Y-95095238D02*
X187334548Y-95192000D01*
X187334548Y-95192000D02*
X187237786Y-95240381D01*
X188737596Y-94950095D02*
X188253786Y-94950095D01*
X188253786Y-94950095D02*
X188205405Y-95433905D01*
X188205405Y-95433905D02*
X188253786Y-95385524D01*
X188253786Y-95385524D02*
X188350548Y-95337143D01*
X188350548Y-95337143D02*
X188592453Y-95337143D01*
X188592453Y-95337143D02*
X188689215Y-95385524D01*
X188689215Y-95385524D02*
X188737596Y-95433905D01*
X188737596Y-95433905D02*
X188785977Y-95530667D01*
X188785977Y-95530667D02*
X188785977Y-95772572D01*
X188785977Y-95772572D02*
X188737596Y-95869334D01*
X188737596Y-95869334D02*
X188689215Y-95917715D01*
X188689215Y-95917715D02*
X188592453Y-95966095D01*
X188592453Y-95966095D02*
X188350548Y-95966095D01*
X188350548Y-95966095D02*
X188253786Y-95917715D01*
X188253786Y-95917715D02*
X188205405Y-95869334D01*
X171712594Y-102854334D02*
X171664213Y-102902715D01*
X171664213Y-102902715D02*
X171519070Y-102951095D01*
X171519070Y-102951095D02*
X171422308Y-102951095D01*
X171422308Y-102951095D02*
X171277165Y-102902715D01*
X171277165Y-102902715D02*
X171180403Y-102805953D01*
X171180403Y-102805953D02*
X171132022Y-102709191D01*
X171132022Y-102709191D02*
X171083641Y-102515667D01*
X171083641Y-102515667D02*
X171083641Y-102370524D01*
X171083641Y-102370524D02*
X171132022Y-102177000D01*
X171132022Y-102177000D02*
X171180403Y-102080238D01*
X171180403Y-102080238D02*
X171277165Y-101983476D01*
X171277165Y-101983476D02*
X171422308Y-101935095D01*
X171422308Y-101935095D02*
X171519070Y-101935095D01*
X171519070Y-101935095D02*
X171664213Y-101983476D01*
X171664213Y-101983476D02*
X171712594Y-102031857D01*
X172051260Y-101935095D02*
X172728594Y-101935095D01*
X172728594Y-101935095D02*
X172293165Y-102951095D01*
X184310739Y-97901334D02*
X184262358Y-97949715D01*
X184262358Y-97949715D02*
X184117215Y-97998095D01*
X184117215Y-97998095D02*
X184020453Y-97998095D01*
X184020453Y-97998095D02*
X183875310Y-97949715D01*
X183875310Y-97949715D02*
X183778548Y-97852953D01*
X183778548Y-97852953D02*
X183730167Y-97756191D01*
X183730167Y-97756191D02*
X183681786Y-97562667D01*
X183681786Y-97562667D02*
X183681786Y-97417524D01*
X183681786Y-97417524D02*
X183730167Y-97224000D01*
X183730167Y-97224000D02*
X183778548Y-97127238D01*
X183778548Y-97127238D02*
X183875310Y-97030476D01*
X183875310Y-97030476D02*
X184020453Y-96982095D01*
X184020453Y-96982095D02*
X184117215Y-96982095D01*
X184117215Y-96982095D02*
X184262358Y-97030476D01*
X184262358Y-97030476D02*
X184310739Y-97078857D01*
X184891310Y-97417524D02*
X184794548Y-97369143D01*
X184794548Y-97369143D02*
X184746167Y-97320762D01*
X184746167Y-97320762D02*
X184697786Y-97224000D01*
X184697786Y-97224000D02*
X184697786Y-97175619D01*
X184697786Y-97175619D02*
X184746167Y-97078857D01*
X184746167Y-97078857D02*
X184794548Y-97030476D01*
X184794548Y-97030476D02*
X184891310Y-96982095D01*
X184891310Y-96982095D02*
X185084834Y-96982095D01*
X185084834Y-96982095D02*
X185181596Y-97030476D01*
X185181596Y-97030476D02*
X185229977Y-97078857D01*
X185229977Y-97078857D02*
X185278358Y-97175619D01*
X185278358Y-97175619D02*
X185278358Y-97224000D01*
X185278358Y-97224000D02*
X185229977Y-97320762D01*
X185229977Y-97320762D02*
X185181596Y-97369143D01*
X185181596Y-97369143D02*
X185084834Y-97417524D01*
X185084834Y-97417524D02*
X184891310Y-97417524D01*
X184891310Y-97417524D02*
X184794548Y-97465905D01*
X184794548Y-97465905D02*
X184746167Y-97514286D01*
X184746167Y-97514286D02*
X184697786Y-97611048D01*
X184697786Y-97611048D02*
X184697786Y-97804572D01*
X184697786Y-97804572D02*
X184746167Y-97901334D01*
X184746167Y-97901334D02*
X184794548Y-97949715D01*
X184794548Y-97949715D02*
X184891310Y-97998095D01*
X184891310Y-97998095D02*
X185084834Y-97998095D01*
X185084834Y-97998095D02*
X185181596Y-97949715D01*
X185181596Y-97949715D02*
X185229977Y-97901334D01*
X185229977Y-97901334D02*
X185278358Y-97804572D01*
X185278358Y-97804572D02*
X185278358Y-97611048D01*
X185278358Y-97611048D02*
X185229977Y-97514286D01*
X185229977Y-97514286D02*
X185181596Y-97465905D01*
X185181596Y-97465905D02*
X185084834Y-97417524D01*
X154165904Y-102938095D02*
X154165904Y-103760572D01*
X154165904Y-103760572D02*
X154214285Y-103857334D01*
X154214285Y-103857334D02*
X154262666Y-103905715D01*
X154262666Y-103905715D02*
X154359428Y-103954095D01*
X154359428Y-103954095D02*
X154552952Y-103954095D01*
X154552952Y-103954095D02*
X154649714Y-103905715D01*
X154649714Y-103905715D02*
X154698095Y-103857334D01*
X154698095Y-103857334D02*
X154746476Y-103760572D01*
X154746476Y-103760572D02*
X154746476Y-102938095D01*
X155133523Y-102938095D02*
X155762476Y-102938095D01*
X155762476Y-102938095D02*
X155423809Y-103325143D01*
X155423809Y-103325143D02*
X155568952Y-103325143D01*
X155568952Y-103325143D02*
X155665714Y-103373524D01*
X155665714Y-103373524D02*
X155714095Y-103421905D01*
X155714095Y-103421905D02*
X155762476Y-103518667D01*
X155762476Y-103518667D02*
X155762476Y-103760572D01*
X155762476Y-103760572D02*
X155714095Y-103857334D01*
X155714095Y-103857334D02*
X155665714Y-103905715D01*
X155665714Y-103905715D02*
X155568952Y-103954095D01*
X155568952Y-103954095D02*
X155278666Y-103954095D01*
X155278666Y-103954095D02*
X155181904Y-103905715D01*
X155181904Y-103905715D02*
X155133523Y-103857334D01*
X168894403Y-78059095D02*
X168894403Y-77043095D01*
X168894403Y-77043095D02*
X169136308Y-77043095D01*
X169136308Y-77043095D02*
X169281451Y-77091476D01*
X169281451Y-77091476D02*
X169378213Y-77188238D01*
X169378213Y-77188238D02*
X169426594Y-77285000D01*
X169426594Y-77285000D02*
X169474975Y-77478524D01*
X169474975Y-77478524D02*
X169474975Y-77623667D01*
X169474975Y-77623667D02*
X169426594Y-77817191D01*
X169426594Y-77817191D02*
X169378213Y-77913953D01*
X169378213Y-77913953D02*
X169281451Y-78010715D01*
X169281451Y-78010715D02*
X169136308Y-78059095D01*
X169136308Y-78059095D02*
X168894403Y-78059095D01*
X170442594Y-78059095D02*
X169862022Y-78059095D01*
X170152308Y-78059095D02*
X170152308Y-77043095D01*
X170152308Y-77043095D02*
X170055546Y-77188238D01*
X170055546Y-77188238D02*
X169958784Y-77285000D01*
X169958784Y-77285000D02*
X169862022Y-77333381D01*
X170781260Y-77043095D02*
X171410213Y-77043095D01*
X171410213Y-77043095D02*
X171071546Y-77430143D01*
X171071546Y-77430143D02*
X171216689Y-77430143D01*
X171216689Y-77430143D02*
X171313451Y-77478524D01*
X171313451Y-77478524D02*
X171361832Y-77526905D01*
X171361832Y-77526905D02*
X171410213Y-77623667D01*
X171410213Y-77623667D02*
X171410213Y-77865572D01*
X171410213Y-77865572D02*
X171361832Y-77962334D01*
X171361832Y-77962334D02*
X171313451Y-78010715D01*
X171313451Y-78010715D02*
X171216689Y-78059095D01*
X171216689Y-78059095D02*
X170926403Y-78059095D01*
X170926403Y-78059095D02*
X170829641Y-78010715D01*
X170829641Y-78010715D02*
X170781260Y-77962334D01*
X170744975Y-93710334D02*
X170696594Y-93758715D01*
X170696594Y-93758715D02*
X170551451Y-93807095D01*
X170551451Y-93807095D02*
X170454689Y-93807095D01*
X170454689Y-93807095D02*
X170309546Y-93758715D01*
X170309546Y-93758715D02*
X170212784Y-93661953D01*
X170212784Y-93661953D02*
X170164403Y-93565191D01*
X170164403Y-93565191D02*
X170116022Y-93371667D01*
X170116022Y-93371667D02*
X170116022Y-93226524D01*
X170116022Y-93226524D02*
X170164403Y-93033000D01*
X170164403Y-93033000D02*
X170212784Y-92936238D01*
X170212784Y-92936238D02*
X170309546Y-92839476D01*
X170309546Y-92839476D02*
X170454689Y-92791095D01*
X170454689Y-92791095D02*
X170551451Y-92791095D01*
X170551451Y-92791095D02*
X170696594Y-92839476D01*
X170696594Y-92839476D02*
X170744975Y-92887857D01*
X171712594Y-93807095D02*
X171132022Y-93807095D01*
X171422308Y-93807095D02*
X171422308Y-92791095D01*
X171422308Y-92791095D02*
X171325546Y-92936238D01*
X171325546Y-92936238D02*
X171228784Y-93033000D01*
X171228784Y-93033000D02*
X171132022Y-93081381D01*
X172680213Y-93807095D02*
X172099641Y-93807095D01*
X172389927Y-93807095D02*
X172389927Y-92791095D01*
X172389927Y-92791095D02*
X172293165Y-92936238D01*
X172293165Y-92936238D02*
X172196403Y-93033000D01*
X172196403Y-93033000D02*
X172099641Y-93081381D01*
X187312095Y-64153142D02*
X186828286Y-64491809D01*
X187312095Y-64733714D02*
X186296095Y-64733714D01*
X186296095Y-64733714D02*
X186296095Y-64346666D01*
X186296095Y-64346666D02*
X186344476Y-64249904D01*
X186344476Y-64249904D02*
X186392857Y-64201523D01*
X186392857Y-64201523D02*
X186489619Y-64153142D01*
X186489619Y-64153142D02*
X186634762Y-64153142D01*
X186634762Y-64153142D02*
X186731524Y-64201523D01*
X186731524Y-64201523D02*
X186779905Y-64249904D01*
X186779905Y-64249904D02*
X186828286Y-64346666D01*
X186828286Y-64346666D02*
X186828286Y-64733714D01*
X186392857Y-63766095D02*
X186344476Y-63717714D01*
X186344476Y-63717714D02*
X186296095Y-63620952D01*
X186296095Y-63620952D02*
X186296095Y-63379047D01*
X186296095Y-63379047D02*
X186344476Y-63282285D01*
X186344476Y-63282285D02*
X186392857Y-63233904D01*
X186392857Y-63233904D02*
X186489619Y-63185523D01*
X186489619Y-63185523D02*
X186586381Y-63185523D01*
X186586381Y-63185523D02*
X186731524Y-63233904D01*
X186731524Y-63233904D02*
X187312095Y-63814476D01*
X187312095Y-63814476D02*
X187312095Y-63185523D01*
X186731524Y-62604952D02*
X186683143Y-62701714D01*
X186683143Y-62701714D02*
X186634762Y-62750095D01*
X186634762Y-62750095D02*
X186538000Y-62798476D01*
X186538000Y-62798476D02*
X186489619Y-62798476D01*
X186489619Y-62798476D02*
X186392857Y-62750095D01*
X186392857Y-62750095D02*
X186344476Y-62701714D01*
X186344476Y-62701714D02*
X186296095Y-62604952D01*
X186296095Y-62604952D02*
X186296095Y-62411428D01*
X186296095Y-62411428D02*
X186344476Y-62314666D01*
X186344476Y-62314666D02*
X186392857Y-62266285D01*
X186392857Y-62266285D02*
X186489619Y-62217904D01*
X186489619Y-62217904D02*
X186538000Y-62217904D01*
X186538000Y-62217904D02*
X186634762Y-62266285D01*
X186634762Y-62266285D02*
X186683143Y-62314666D01*
X186683143Y-62314666D02*
X186731524Y-62411428D01*
X186731524Y-62411428D02*
X186731524Y-62604952D01*
X186731524Y-62604952D02*
X186779905Y-62701714D01*
X186779905Y-62701714D02*
X186828286Y-62750095D01*
X186828286Y-62750095D02*
X186925048Y-62798476D01*
X186925048Y-62798476D02*
X187118572Y-62798476D01*
X187118572Y-62798476D02*
X187215334Y-62750095D01*
X187215334Y-62750095D02*
X187263715Y-62701714D01*
X187263715Y-62701714D02*
X187312095Y-62604952D01*
X187312095Y-62604952D02*
X187312095Y-62411428D01*
X187312095Y-62411428D02*
X187263715Y-62314666D01*
X187263715Y-62314666D02*
X187215334Y-62266285D01*
X187215334Y-62266285D02*
X187118572Y-62217904D01*
X187118572Y-62217904D02*
X186925048Y-62217904D01*
X186925048Y-62217904D02*
X186828286Y-62266285D01*
X186828286Y-62266285D02*
X186779905Y-62314666D01*
X186779905Y-62314666D02*
X186731524Y-62411428D01*
X171712594Y-111998334D02*
X171664213Y-112046715D01*
X171664213Y-112046715D02*
X171519070Y-112095095D01*
X171519070Y-112095095D02*
X171422308Y-112095095D01*
X171422308Y-112095095D02*
X171277165Y-112046715D01*
X171277165Y-112046715D02*
X171180403Y-111949953D01*
X171180403Y-111949953D02*
X171132022Y-111853191D01*
X171132022Y-111853191D02*
X171083641Y-111659667D01*
X171083641Y-111659667D02*
X171083641Y-111514524D01*
X171083641Y-111514524D02*
X171132022Y-111321000D01*
X171132022Y-111321000D02*
X171180403Y-111224238D01*
X171180403Y-111224238D02*
X171277165Y-111127476D01*
X171277165Y-111127476D02*
X171422308Y-111079095D01*
X171422308Y-111079095D02*
X171519070Y-111079095D01*
X171519070Y-111079095D02*
X171664213Y-111127476D01*
X171664213Y-111127476D02*
X171712594Y-111175857D01*
X172051260Y-111079095D02*
X172680213Y-111079095D01*
X172680213Y-111079095D02*
X172341546Y-111466143D01*
X172341546Y-111466143D02*
X172486689Y-111466143D01*
X172486689Y-111466143D02*
X172583451Y-111514524D01*
X172583451Y-111514524D02*
X172631832Y-111562905D01*
X172631832Y-111562905D02*
X172680213Y-111659667D01*
X172680213Y-111659667D02*
X172680213Y-111901572D01*
X172680213Y-111901572D02*
X172631832Y-111998334D01*
X172631832Y-111998334D02*
X172583451Y-112046715D01*
X172583451Y-112046715D02*
X172486689Y-112095095D01*
X172486689Y-112095095D02*
X172196403Y-112095095D01*
X172196403Y-112095095D02*
X172099641Y-112046715D01*
X172099641Y-112046715D02*
X172051260Y-111998334D01*
X184310739Y-79613334D02*
X184262358Y-79661715D01*
X184262358Y-79661715D02*
X184117215Y-79710095D01*
X184117215Y-79710095D02*
X184020453Y-79710095D01*
X184020453Y-79710095D02*
X183875310Y-79661715D01*
X183875310Y-79661715D02*
X183778548Y-79564953D01*
X183778548Y-79564953D02*
X183730167Y-79468191D01*
X183730167Y-79468191D02*
X183681786Y-79274667D01*
X183681786Y-79274667D02*
X183681786Y-79129524D01*
X183681786Y-79129524D02*
X183730167Y-78936000D01*
X183730167Y-78936000D02*
X183778548Y-78839238D01*
X183778548Y-78839238D02*
X183875310Y-78742476D01*
X183875310Y-78742476D02*
X184020453Y-78694095D01*
X184020453Y-78694095D02*
X184117215Y-78694095D01*
X184117215Y-78694095D02*
X184262358Y-78742476D01*
X184262358Y-78742476D02*
X184310739Y-78790857D01*
X185278358Y-79710095D02*
X184697786Y-79710095D01*
X184988072Y-79710095D02*
X184988072Y-78694095D01*
X184988072Y-78694095D02*
X184891310Y-78839238D01*
X184891310Y-78839238D02*
X184794548Y-78936000D01*
X184794548Y-78936000D02*
X184697786Y-78984381D01*
X186149215Y-78694095D02*
X185955691Y-78694095D01*
X185955691Y-78694095D02*
X185858929Y-78742476D01*
X185858929Y-78742476D02*
X185810548Y-78790857D01*
X185810548Y-78790857D02*
X185713786Y-78936000D01*
X185713786Y-78936000D02*
X185665405Y-79129524D01*
X185665405Y-79129524D02*
X185665405Y-79516572D01*
X185665405Y-79516572D02*
X185713786Y-79613334D01*
X185713786Y-79613334D02*
X185762167Y-79661715D01*
X185762167Y-79661715D02*
X185858929Y-79710095D01*
X185858929Y-79710095D02*
X186052453Y-79710095D01*
X186052453Y-79710095D02*
X186149215Y-79661715D01*
X186149215Y-79661715D02*
X186197596Y-79613334D01*
X186197596Y-79613334D02*
X186245977Y-79516572D01*
X186245977Y-79516572D02*
X186245977Y-79274667D01*
X186245977Y-79274667D02*
X186197596Y-79177905D01*
X186197596Y-79177905D02*
X186149215Y-79129524D01*
X186149215Y-79129524D02*
X186052453Y-79081143D01*
X186052453Y-79081143D02*
X185858929Y-79081143D01*
X185858929Y-79081143D02*
X185762167Y-79129524D01*
X185762167Y-79129524D02*
X185713786Y-79177905D01*
X185713786Y-79177905D02*
X185665405Y-79274667D01*
X178008095Y-61561260D02*
X177524286Y-61899927D01*
X178008095Y-62141832D02*
X176992095Y-62141832D01*
X176992095Y-62141832D02*
X176992095Y-61754784D01*
X176992095Y-61754784D02*
X177040476Y-61658022D01*
X177040476Y-61658022D02*
X177088857Y-61609641D01*
X177088857Y-61609641D02*
X177185619Y-61561260D01*
X177185619Y-61561260D02*
X177330762Y-61561260D01*
X177330762Y-61561260D02*
X177427524Y-61609641D01*
X177427524Y-61609641D02*
X177475905Y-61658022D01*
X177475905Y-61658022D02*
X177524286Y-61754784D01*
X177524286Y-61754784D02*
X177524286Y-62141832D01*
X177088857Y-61174213D02*
X177040476Y-61125832D01*
X177040476Y-61125832D02*
X176992095Y-61029070D01*
X176992095Y-61029070D02*
X176992095Y-60787165D01*
X176992095Y-60787165D02*
X177040476Y-60690403D01*
X177040476Y-60690403D02*
X177088857Y-60642022D01*
X177088857Y-60642022D02*
X177185619Y-60593641D01*
X177185619Y-60593641D02*
X177282381Y-60593641D01*
X177282381Y-60593641D02*
X177427524Y-60642022D01*
X177427524Y-60642022D02*
X178008095Y-61222594D01*
X178008095Y-61222594D02*
X178008095Y-60593641D01*
X176992095Y-59722784D02*
X176992095Y-59916308D01*
X176992095Y-59916308D02*
X177040476Y-60013070D01*
X177040476Y-60013070D02*
X177088857Y-60061451D01*
X177088857Y-60061451D02*
X177234000Y-60158213D01*
X177234000Y-60158213D02*
X177427524Y-60206594D01*
X177427524Y-60206594D02*
X177814572Y-60206594D01*
X177814572Y-60206594D02*
X177911334Y-60158213D01*
X177911334Y-60158213D02*
X177959715Y-60109832D01*
X177959715Y-60109832D02*
X178008095Y-60013070D01*
X178008095Y-60013070D02*
X178008095Y-59819546D01*
X178008095Y-59819546D02*
X177959715Y-59722784D01*
X177959715Y-59722784D02*
X177911334Y-59674403D01*
X177911334Y-59674403D02*
X177814572Y-59626022D01*
X177814572Y-59626022D02*
X177572667Y-59626022D01*
X177572667Y-59626022D02*
X177475905Y-59674403D01*
X177475905Y-59674403D02*
X177427524Y-59722784D01*
X177427524Y-59722784D02*
X177379143Y-59819546D01*
X177379143Y-59819546D02*
X177379143Y-60013070D01*
X177379143Y-60013070D02*
X177427524Y-60109832D01*
X177427524Y-60109832D02*
X177475905Y-60158213D01*
X177475905Y-60158213D02*
X177572667Y-60206594D01*
X179532095Y-70705260D02*
X179048286Y-71043927D01*
X179532095Y-71285832D02*
X178516095Y-71285832D01*
X178516095Y-71285832D02*
X178516095Y-70898784D01*
X178516095Y-70898784D02*
X178564476Y-70802022D01*
X178564476Y-70802022D02*
X178612857Y-70753641D01*
X178612857Y-70753641D02*
X178709619Y-70705260D01*
X178709619Y-70705260D02*
X178854762Y-70705260D01*
X178854762Y-70705260D02*
X178951524Y-70753641D01*
X178951524Y-70753641D02*
X178999905Y-70802022D01*
X178999905Y-70802022D02*
X179048286Y-70898784D01*
X179048286Y-70898784D02*
X179048286Y-71285832D01*
X178612857Y-70318213D02*
X178564476Y-70269832D01*
X178564476Y-70269832D02*
X178516095Y-70173070D01*
X178516095Y-70173070D02*
X178516095Y-69931165D01*
X178516095Y-69931165D02*
X178564476Y-69834403D01*
X178564476Y-69834403D02*
X178612857Y-69786022D01*
X178612857Y-69786022D02*
X178709619Y-69737641D01*
X178709619Y-69737641D02*
X178806381Y-69737641D01*
X178806381Y-69737641D02*
X178951524Y-69786022D01*
X178951524Y-69786022D02*
X179532095Y-70366594D01*
X179532095Y-70366594D02*
X179532095Y-69737641D01*
X178612857Y-69350594D02*
X178564476Y-69302213D01*
X178564476Y-69302213D02*
X178516095Y-69205451D01*
X178516095Y-69205451D02*
X178516095Y-68963546D01*
X178516095Y-68963546D02*
X178564476Y-68866784D01*
X178564476Y-68866784D02*
X178612857Y-68818403D01*
X178612857Y-68818403D02*
X178709619Y-68770022D01*
X178709619Y-68770022D02*
X178806381Y-68770022D01*
X178806381Y-68770022D02*
X178951524Y-68818403D01*
X178951524Y-68818403D02*
X179532095Y-69398975D01*
X179532095Y-69398975D02*
X179532095Y-68770022D01*
X179532095Y-79849260D02*
X179048286Y-80187927D01*
X179532095Y-80429832D02*
X178516095Y-80429832D01*
X178516095Y-80429832D02*
X178516095Y-80042784D01*
X178516095Y-80042784D02*
X178564476Y-79946022D01*
X178564476Y-79946022D02*
X178612857Y-79897641D01*
X178612857Y-79897641D02*
X178709619Y-79849260D01*
X178709619Y-79849260D02*
X178854762Y-79849260D01*
X178854762Y-79849260D02*
X178951524Y-79897641D01*
X178951524Y-79897641D02*
X178999905Y-79946022D01*
X178999905Y-79946022D02*
X179048286Y-80042784D01*
X179048286Y-80042784D02*
X179048286Y-80429832D01*
X179532095Y-78881641D02*
X179532095Y-79462213D01*
X179532095Y-79171927D02*
X178516095Y-79171927D01*
X178516095Y-79171927D02*
X178661238Y-79268689D01*
X178661238Y-79268689D02*
X178758000Y-79365451D01*
X178758000Y-79365451D02*
X178806381Y-79462213D01*
X178516095Y-78542975D02*
X178516095Y-77865641D01*
X178516095Y-77865641D02*
X179532095Y-78301070D01*
X170490975Y-72755334D02*
X170442594Y-72803715D01*
X170442594Y-72803715D02*
X170297451Y-72852095D01*
X170297451Y-72852095D02*
X170200689Y-72852095D01*
X170200689Y-72852095D02*
X170055546Y-72803715D01*
X170055546Y-72803715D02*
X169958784Y-72706953D01*
X169958784Y-72706953D02*
X169910403Y-72610191D01*
X169910403Y-72610191D02*
X169862022Y-72416667D01*
X169862022Y-72416667D02*
X169862022Y-72271524D01*
X169862022Y-72271524D02*
X169910403Y-72078000D01*
X169910403Y-72078000D02*
X169958784Y-71981238D01*
X169958784Y-71981238D02*
X170055546Y-71884476D01*
X170055546Y-71884476D02*
X170200689Y-71836095D01*
X170200689Y-71836095D02*
X170297451Y-71836095D01*
X170297451Y-71836095D02*
X170442594Y-71884476D01*
X170442594Y-71884476D02*
X170490975Y-71932857D01*
X171458594Y-72852095D02*
X170878022Y-72852095D01*
X171168308Y-72852095D02*
X171168308Y-71836095D01*
X171168308Y-71836095D02*
X171071546Y-71981238D01*
X171071546Y-71981238D02*
X170974784Y-72078000D01*
X170974784Y-72078000D02*
X170878022Y-72126381D01*
X172039165Y-72271524D02*
X171942403Y-72223143D01*
X171942403Y-72223143D02*
X171894022Y-72174762D01*
X171894022Y-72174762D02*
X171845641Y-72078000D01*
X171845641Y-72078000D02*
X171845641Y-72029619D01*
X171845641Y-72029619D02*
X171894022Y-71932857D01*
X171894022Y-71932857D02*
X171942403Y-71884476D01*
X171942403Y-71884476D02*
X172039165Y-71836095D01*
X172039165Y-71836095D02*
X172232689Y-71836095D01*
X172232689Y-71836095D02*
X172329451Y-71884476D01*
X172329451Y-71884476D02*
X172377832Y-71932857D01*
X172377832Y-71932857D02*
X172426213Y-72029619D01*
X172426213Y-72029619D02*
X172426213Y-72078000D01*
X172426213Y-72078000D02*
X172377832Y-72174762D01*
X172377832Y-72174762D02*
X172329451Y-72223143D01*
X172329451Y-72223143D02*
X172232689Y-72271524D01*
X172232689Y-72271524D02*
X172039165Y-72271524D01*
X172039165Y-72271524D02*
X171942403Y-72319905D01*
X171942403Y-72319905D02*
X171894022Y-72368286D01*
X171894022Y-72368286D02*
X171845641Y-72465048D01*
X171845641Y-72465048D02*
X171845641Y-72658572D01*
X171845641Y-72658572D02*
X171894022Y-72755334D01*
X171894022Y-72755334D02*
X171942403Y-72803715D01*
X171942403Y-72803715D02*
X172039165Y-72852095D01*
X172039165Y-72852095D02*
X172232689Y-72852095D01*
X172232689Y-72852095D02*
X172329451Y-72803715D01*
X172329451Y-72803715D02*
X172377832Y-72755334D01*
X172377832Y-72755334D02*
X172426213Y-72658572D01*
X172426213Y-72658572D02*
X172426213Y-72465048D01*
X172426213Y-72465048D02*
X172377832Y-72368286D01*
X172377832Y-72368286D02*
X172329451Y-72319905D01*
X172329451Y-72319905D02*
X172232689Y-72271524D01*
X186850739Y-68534095D02*
X186512072Y-68050286D01*
X186270167Y-68534095D02*
X186270167Y-67518095D01*
X186270167Y-67518095D02*
X186657215Y-67518095D01*
X186657215Y-67518095D02*
X186753977Y-67566476D01*
X186753977Y-67566476D02*
X186802358Y-67614857D01*
X186802358Y-67614857D02*
X186850739Y-67711619D01*
X186850739Y-67711619D02*
X186850739Y-67856762D01*
X186850739Y-67856762D02*
X186802358Y-67953524D01*
X186802358Y-67953524D02*
X186753977Y-68001905D01*
X186753977Y-68001905D02*
X186657215Y-68050286D01*
X186657215Y-68050286D02*
X186270167Y-68050286D01*
X187189405Y-67518095D02*
X187818358Y-67518095D01*
X187818358Y-67518095D02*
X187479691Y-67905143D01*
X187479691Y-67905143D02*
X187624834Y-67905143D01*
X187624834Y-67905143D02*
X187721596Y-67953524D01*
X187721596Y-67953524D02*
X187769977Y-68001905D01*
X187769977Y-68001905D02*
X187818358Y-68098667D01*
X187818358Y-68098667D02*
X187818358Y-68340572D01*
X187818358Y-68340572D02*
X187769977Y-68437334D01*
X187769977Y-68437334D02*
X187721596Y-68485715D01*
X187721596Y-68485715D02*
X187624834Y-68534095D01*
X187624834Y-68534095D02*
X187334548Y-68534095D01*
X187334548Y-68534095D02*
X187237786Y-68485715D01*
X187237786Y-68485715D02*
X187189405Y-68437334D01*
X188447310Y-67518095D02*
X188544072Y-67518095D01*
X188544072Y-67518095D02*
X188640834Y-67566476D01*
X188640834Y-67566476D02*
X188689215Y-67614857D01*
X188689215Y-67614857D02*
X188737596Y-67711619D01*
X188737596Y-67711619D02*
X188785977Y-67905143D01*
X188785977Y-67905143D02*
X188785977Y-68147048D01*
X188785977Y-68147048D02*
X188737596Y-68340572D01*
X188737596Y-68340572D02*
X188689215Y-68437334D01*
X188689215Y-68437334D02*
X188640834Y-68485715D01*
X188640834Y-68485715D02*
X188544072Y-68534095D01*
X188544072Y-68534095D02*
X188447310Y-68534095D01*
X188447310Y-68534095D02*
X188350548Y-68485715D01*
X188350548Y-68485715D02*
X188302167Y-68437334D01*
X188302167Y-68437334D02*
X188253786Y-68340572D01*
X188253786Y-68340572D02*
X188205405Y-68147048D01*
X188205405Y-68147048D02*
X188205405Y-67905143D01*
X188205405Y-67905143D02*
X188253786Y-67711619D01*
X188253786Y-67711619D02*
X188302167Y-67614857D01*
X188302167Y-67614857D02*
X188350548Y-67566476D01*
X188350548Y-67566476D02*
X188447310Y-67518095D01*
X187312095Y-73297142D02*
X186828286Y-73635809D01*
X187312095Y-73877714D02*
X186296095Y-73877714D01*
X186296095Y-73877714D02*
X186296095Y-73490666D01*
X186296095Y-73490666D02*
X186344476Y-73393904D01*
X186344476Y-73393904D02*
X186392857Y-73345523D01*
X186392857Y-73345523D02*
X186489619Y-73297142D01*
X186489619Y-73297142D02*
X186634762Y-73297142D01*
X186634762Y-73297142D02*
X186731524Y-73345523D01*
X186731524Y-73345523D02*
X186779905Y-73393904D01*
X186779905Y-73393904D02*
X186828286Y-73490666D01*
X186828286Y-73490666D02*
X186828286Y-73877714D01*
X186392857Y-72910095D02*
X186344476Y-72861714D01*
X186344476Y-72861714D02*
X186296095Y-72764952D01*
X186296095Y-72764952D02*
X186296095Y-72523047D01*
X186296095Y-72523047D02*
X186344476Y-72426285D01*
X186344476Y-72426285D02*
X186392857Y-72377904D01*
X186392857Y-72377904D02*
X186489619Y-72329523D01*
X186489619Y-72329523D02*
X186586381Y-72329523D01*
X186586381Y-72329523D02*
X186731524Y-72377904D01*
X186731524Y-72377904D02*
X187312095Y-72958476D01*
X187312095Y-72958476D02*
X187312095Y-72329523D01*
X186296095Y-71990857D02*
X186296095Y-71361904D01*
X186296095Y-71361904D02*
X186683143Y-71700571D01*
X186683143Y-71700571D02*
X186683143Y-71555428D01*
X186683143Y-71555428D02*
X186731524Y-71458666D01*
X186731524Y-71458666D02*
X186779905Y-71410285D01*
X186779905Y-71410285D02*
X186876667Y-71361904D01*
X186876667Y-71361904D02*
X187118572Y-71361904D01*
X187118572Y-71361904D02*
X187215334Y-71410285D01*
X187215334Y-71410285D02*
X187263715Y-71458666D01*
X187263715Y-71458666D02*
X187312095Y-71555428D01*
X187312095Y-71555428D02*
X187312095Y-71845714D01*
X187312095Y-71845714D02*
X187263715Y-71942476D01*
X187263715Y-71942476D02*
X187215334Y-71990857D01*
X177413735Y-68543714D02*
X176397735Y-68543714D01*
X176397735Y-68543714D02*
X176397735Y-68301809D01*
X176397735Y-68301809D02*
X176446116Y-68156666D01*
X176446116Y-68156666D02*
X176542878Y-68059904D01*
X176542878Y-68059904D02*
X176639640Y-68011523D01*
X176639640Y-68011523D02*
X176833164Y-67963142D01*
X176833164Y-67963142D02*
X176978307Y-67963142D01*
X176978307Y-67963142D02*
X177171831Y-68011523D01*
X177171831Y-68011523D02*
X177268593Y-68059904D01*
X177268593Y-68059904D02*
X177365355Y-68156666D01*
X177365355Y-68156666D02*
X177413735Y-68301809D01*
X177413735Y-68301809D02*
X177413735Y-68543714D01*
X177413735Y-66995523D02*
X177413735Y-67576095D01*
X177413735Y-67285809D02*
X176397735Y-67285809D01*
X176397735Y-67285809D02*
X176542878Y-67382571D01*
X176542878Y-67382571D02*
X176639640Y-67479333D01*
X176639640Y-67479333D02*
X176688021Y-67576095D01*
X176833164Y-66414952D02*
X176784783Y-66511714D01*
X176784783Y-66511714D02*
X176736402Y-66560095D01*
X176736402Y-66560095D02*
X176639640Y-66608476D01*
X176639640Y-66608476D02*
X176591259Y-66608476D01*
X176591259Y-66608476D02*
X176494497Y-66560095D01*
X176494497Y-66560095D02*
X176446116Y-66511714D01*
X176446116Y-66511714D02*
X176397735Y-66414952D01*
X176397735Y-66414952D02*
X176397735Y-66221428D01*
X176397735Y-66221428D02*
X176446116Y-66124666D01*
X176446116Y-66124666D02*
X176494497Y-66076285D01*
X176494497Y-66076285D02*
X176591259Y-66027904D01*
X176591259Y-66027904D02*
X176639640Y-66027904D01*
X176639640Y-66027904D02*
X176736402Y-66076285D01*
X176736402Y-66076285D02*
X176784783Y-66124666D01*
X176784783Y-66124666D02*
X176833164Y-66221428D01*
X176833164Y-66221428D02*
X176833164Y-66414952D01*
X176833164Y-66414952D02*
X176881545Y-66511714D01*
X176881545Y-66511714D02*
X176929926Y-66560095D01*
X176929926Y-66560095D02*
X177026688Y-66608476D01*
X177026688Y-66608476D02*
X177220212Y-66608476D01*
X177220212Y-66608476D02*
X177316974Y-66560095D01*
X177316974Y-66560095D02*
X177365355Y-66511714D01*
X177365355Y-66511714D02*
X177413735Y-66414952D01*
X177413735Y-66414952D02*
X177413735Y-66221428D01*
X177413735Y-66221428D02*
X177365355Y-66124666D01*
X177365355Y-66124666D02*
X177316974Y-66076285D01*
X177316974Y-66076285D02*
X177220212Y-66027904D01*
X177220212Y-66027904D02*
X177026688Y-66027904D01*
X177026688Y-66027904D02*
X176929926Y-66076285D01*
X176929926Y-66076285D02*
X176881545Y-66124666D01*
X176881545Y-66124666D02*
X176833164Y-66221428D01*
X169862022Y-96347095D02*
X169862022Y-95331095D01*
X169862022Y-95331095D02*
X170103927Y-95331095D01*
X170103927Y-95331095D02*
X170249070Y-95379476D01*
X170249070Y-95379476D02*
X170345832Y-95476238D01*
X170345832Y-95476238D02*
X170394213Y-95573000D01*
X170394213Y-95573000D02*
X170442594Y-95766524D01*
X170442594Y-95766524D02*
X170442594Y-95911667D01*
X170442594Y-95911667D02*
X170394213Y-96105191D01*
X170394213Y-96105191D02*
X170345832Y-96201953D01*
X170345832Y-96201953D02*
X170249070Y-96298715D01*
X170249070Y-96298715D02*
X170103927Y-96347095D01*
X170103927Y-96347095D02*
X169862022Y-96347095D01*
X170781260Y-95331095D02*
X171458594Y-95331095D01*
X171458594Y-95331095D02*
X171023165Y-96347095D01*
X150323334Y-101261332D02*
X150371715Y-101309713D01*
X150371715Y-101309713D02*
X150420095Y-101454856D01*
X150420095Y-101454856D02*
X150420095Y-101551618D01*
X150420095Y-101551618D02*
X150371715Y-101696761D01*
X150371715Y-101696761D02*
X150274953Y-101793523D01*
X150274953Y-101793523D02*
X150178191Y-101841904D01*
X150178191Y-101841904D02*
X149984667Y-101890285D01*
X149984667Y-101890285D02*
X149839524Y-101890285D01*
X149839524Y-101890285D02*
X149646000Y-101841904D01*
X149646000Y-101841904D02*
X149549238Y-101793523D01*
X149549238Y-101793523D02*
X149452476Y-101696761D01*
X149452476Y-101696761D02*
X149404095Y-101551618D01*
X149404095Y-101551618D02*
X149404095Y-101454856D01*
X149404095Y-101454856D02*
X149452476Y-101309713D01*
X149452476Y-101309713D02*
X149500857Y-101261332D01*
X149404095Y-100342094D02*
X149404095Y-100825904D01*
X149404095Y-100825904D02*
X149887905Y-100874285D01*
X149887905Y-100874285D02*
X149839524Y-100825904D01*
X149839524Y-100825904D02*
X149791143Y-100729142D01*
X149791143Y-100729142D02*
X149791143Y-100487237D01*
X149791143Y-100487237D02*
X149839524Y-100390475D01*
X149839524Y-100390475D02*
X149887905Y-100342094D01*
X149887905Y-100342094D02*
X149984667Y-100293713D01*
X149984667Y-100293713D02*
X150226572Y-100293713D01*
X150226572Y-100293713D02*
X150323334Y-100342094D01*
X150323334Y-100342094D02*
X150371715Y-100390475D01*
X150371715Y-100390475D02*
X150420095Y-100487237D01*
X150420095Y-100487237D02*
X150420095Y-100729142D01*
X150420095Y-100729142D02*
X150371715Y-100825904D01*
X150371715Y-100825904D02*
X150323334Y-100874285D01*
X186850739Y-94442095D02*
X186512072Y-93958286D01*
X186270167Y-94442095D02*
X186270167Y-93426095D01*
X186270167Y-93426095D02*
X186657215Y-93426095D01*
X186657215Y-93426095D02*
X186753977Y-93474476D01*
X186753977Y-93474476D02*
X186802358Y-93522857D01*
X186802358Y-93522857D02*
X186850739Y-93619619D01*
X186850739Y-93619619D02*
X186850739Y-93764762D01*
X186850739Y-93764762D02*
X186802358Y-93861524D01*
X186802358Y-93861524D02*
X186753977Y-93909905D01*
X186753977Y-93909905D02*
X186657215Y-93958286D01*
X186657215Y-93958286D02*
X186270167Y-93958286D01*
X187818358Y-94442095D02*
X187237786Y-94442095D01*
X187528072Y-94442095D02*
X187528072Y-93426095D01*
X187528072Y-93426095D02*
X187431310Y-93571238D01*
X187431310Y-93571238D02*
X187334548Y-93668000D01*
X187334548Y-93668000D02*
X187237786Y-93716381D01*
X188689215Y-93764762D02*
X188689215Y-94442095D01*
X188447310Y-93377715D02*
X188205405Y-94103429D01*
X188205405Y-94103429D02*
X188834358Y-94103429D01*
X155480784Y-78440095D02*
X156061356Y-78440095D01*
X155771070Y-79456095D02*
X155771070Y-78440095D01*
X156980594Y-79456095D02*
X156641927Y-78972286D01*
X156400022Y-79456095D02*
X156400022Y-78440095D01*
X156400022Y-78440095D02*
X156787070Y-78440095D01*
X156787070Y-78440095D02*
X156883832Y-78488476D01*
X156883832Y-78488476D02*
X156932213Y-78536857D01*
X156932213Y-78536857D02*
X156980594Y-78633619D01*
X156980594Y-78633619D02*
X156980594Y-78778762D01*
X156980594Y-78778762D02*
X156932213Y-78875524D01*
X156932213Y-78875524D02*
X156883832Y-78923905D01*
X156883832Y-78923905D02*
X156787070Y-78972286D01*
X156787070Y-78972286D02*
X156400022Y-78972286D01*
X157851451Y-78778762D02*
X157851451Y-79456095D01*
X157609546Y-78391715D02*
X157367641Y-79117429D01*
X157367641Y-79117429D02*
X157996594Y-79117429D01*
X168894403Y-68915095D02*
X168894403Y-67899095D01*
X168894403Y-67899095D02*
X169136308Y-67899095D01*
X169136308Y-67899095D02*
X169281451Y-67947476D01*
X169281451Y-67947476D02*
X169378213Y-68044238D01*
X169378213Y-68044238D02*
X169426594Y-68141000D01*
X169426594Y-68141000D02*
X169474975Y-68334524D01*
X169474975Y-68334524D02*
X169474975Y-68479667D01*
X169474975Y-68479667D02*
X169426594Y-68673191D01*
X169426594Y-68673191D02*
X169378213Y-68769953D01*
X169378213Y-68769953D02*
X169281451Y-68866715D01*
X169281451Y-68866715D02*
X169136308Y-68915095D01*
X169136308Y-68915095D02*
X168894403Y-68915095D01*
X170442594Y-68915095D02*
X169862022Y-68915095D01*
X170152308Y-68915095D02*
X170152308Y-67899095D01*
X170152308Y-67899095D02*
X170055546Y-68044238D01*
X170055546Y-68044238D02*
X169958784Y-68141000D01*
X169958784Y-68141000D02*
X169862022Y-68189381D01*
X171313451Y-67899095D02*
X171119927Y-67899095D01*
X171119927Y-67899095D02*
X171023165Y-67947476D01*
X171023165Y-67947476D02*
X170974784Y-67995857D01*
X170974784Y-67995857D02*
X170878022Y-68141000D01*
X170878022Y-68141000D02*
X170829641Y-68334524D01*
X170829641Y-68334524D02*
X170829641Y-68721572D01*
X170829641Y-68721572D02*
X170878022Y-68818334D01*
X170878022Y-68818334D02*
X170926403Y-68866715D01*
X170926403Y-68866715D02*
X171023165Y-68915095D01*
X171023165Y-68915095D02*
X171216689Y-68915095D01*
X171216689Y-68915095D02*
X171313451Y-68866715D01*
X171313451Y-68866715D02*
X171361832Y-68818334D01*
X171361832Y-68818334D02*
X171410213Y-68721572D01*
X171410213Y-68721572D02*
X171410213Y-68479667D01*
X171410213Y-68479667D02*
X171361832Y-68382905D01*
X171361832Y-68382905D02*
X171313451Y-68334524D01*
X171313451Y-68334524D02*
X171216689Y-68286143D01*
X171216689Y-68286143D02*
X171023165Y-68286143D01*
X171023165Y-68286143D02*
X170926403Y-68334524D01*
X170926403Y-68334524D02*
X170878022Y-68382905D01*
X170878022Y-68382905D02*
X170829641Y-68479667D01*
X170490975Y-91043334D02*
X170442594Y-91091715D01*
X170442594Y-91091715D02*
X170297451Y-91140095D01*
X170297451Y-91140095D02*
X170200689Y-91140095D01*
X170200689Y-91140095D02*
X170055546Y-91091715D01*
X170055546Y-91091715D02*
X169958784Y-90994953D01*
X169958784Y-90994953D02*
X169910403Y-90898191D01*
X169910403Y-90898191D02*
X169862022Y-90704667D01*
X169862022Y-90704667D02*
X169862022Y-90559524D01*
X169862022Y-90559524D02*
X169910403Y-90366000D01*
X169910403Y-90366000D02*
X169958784Y-90269238D01*
X169958784Y-90269238D02*
X170055546Y-90172476D01*
X170055546Y-90172476D02*
X170200689Y-90124095D01*
X170200689Y-90124095D02*
X170297451Y-90124095D01*
X170297451Y-90124095D02*
X170442594Y-90172476D01*
X170442594Y-90172476D02*
X170490975Y-90220857D01*
X171458594Y-91140095D02*
X170878022Y-91140095D01*
X171168308Y-91140095D02*
X171168308Y-90124095D01*
X171168308Y-90124095D02*
X171071546Y-90269238D01*
X171071546Y-90269238D02*
X170974784Y-90366000D01*
X170974784Y-90366000D02*
X170878022Y-90414381D01*
X172087546Y-90124095D02*
X172184308Y-90124095D01*
X172184308Y-90124095D02*
X172281070Y-90172476D01*
X172281070Y-90172476D02*
X172329451Y-90220857D01*
X172329451Y-90220857D02*
X172377832Y-90317619D01*
X172377832Y-90317619D02*
X172426213Y-90511143D01*
X172426213Y-90511143D02*
X172426213Y-90753048D01*
X172426213Y-90753048D02*
X172377832Y-90946572D01*
X172377832Y-90946572D02*
X172329451Y-91043334D01*
X172329451Y-91043334D02*
X172281070Y-91091715D01*
X172281070Y-91091715D02*
X172184308Y-91140095D01*
X172184308Y-91140095D02*
X172087546Y-91140095D01*
X172087546Y-91140095D02*
X171990784Y-91091715D01*
X171990784Y-91091715D02*
X171942403Y-91043334D01*
X171942403Y-91043334D02*
X171894022Y-90946572D01*
X171894022Y-90946572D02*
X171845641Y-90753048D01*
X171845641Y-90753048D02*
X171845641Y-90511143D01*
X171845641Y-90511143D02*
X171894022Y-90317619D01*
X171894022Y-90317619D02*
X171942403Y-90220857D01*
X171942403Y-90220857D02*
X171990784Y-90172476D01*
X171990784Y-90172476D02*
X172087546Y-90124095D01*
X169862022Y-97744095D02*
X169862022Y-96728095D01*
X169862022Y-96728095D02*
X170103927Y-96728095D01*
X170103927Y-96728095D02*
X170249070Y-96776476D01*
X170249070Y-96776476D02*
X170345832Y-96873238D01*
X170345832Y-96873238D02*
X170394213Y-96970000D01*
X170394213Y-96970000D02*
X170442594Y-97163524D01*
X170442594Y-97163524D02*
X170442594Y-97308667D01*
X170442594Y-97308667D02*
X170394213Y-97502191D01*
X170394213Y-97502191D02*
X170345832Y-97598953D01*
X170345832Y-97598953D02*
X170249070Y-97695715D01*
X170249070Y-97695715D02*
X170103927Y-97744095D01*
X170103927Y-97744095D02*
X169862022Y-97744095D01*
X171361832Y-96728095D02*
X170878022Y-96728095D01*
X170878022Y-96728095D02*
X170829641Y-97211905D01*
X170829641Y-97211905D02*
X170878022Y-97163524D01*
X170878022Y-97163524D02*
X170974784Y-97115143D01*
X170974784Y-97115143D02*
X171216689Y-97115143D01*
X171216689Y-97115143D02*
X171313451Y-97163524D01*
X171313451Y-97163524D02*
X171361832Y-97211905D01*
X171361832Y-97211905D02*
X171410213Y-97308667D01*
X171410213Y-97308667D02*
X171410213Y-97550572D01*
X171410213Y-97550572D02*
X171361832Y-97647334D01*
X171361832Y-97647334D02*
X171313451Y-97695715D01*
X171313451Y-97695715D02*
X171216689Y-97744095D01*
X171216689Y-97744095D02*
X170974784Y-97744095D01*
X170974784Y-97744095D02*
X170878022Y-97695715D01*
X170878022Y-97695715D02*
X170829641Y-97647334D01*
X186850739Y-86822095D02*
X186512072Y-86338286D01*
X186270167Y-86822095D02*
X186270167Y-85806095D01*
X186270167Y-85806095D02*
X186657215Y-85806095D01*
X186657215Y-85806095D02*
X186753977Y-85854476D01*
X186753977Y-85854476D02*
X186802358Y-85902857D01*
X186802358Y-85902857D02*
X186850739Y-85999619D01*
X186850739Y-85999619D02*
X186850739Y-86144762D01*
X186850739Y-86144762D02*
X186802358Y-86241524D01*
X186802358Y-86241524D02*
X186753977Y-86289905D01*
X186753977Y-86289905D02*
X186657215Y-86338286D01*
X186657215Y-86338286D02*
X186270167Y-86338286D01*
X187237786Y-85902857D02*
X187286167Y-85854476D01*
X187286167Y-85854476D02*
X187382929Y-85806095D01*
X187382929Y-85806095D02*
X187624834Y-85806095D01*
X187624834Y-85806095D02*
X187721596Y-85854476D01*
X187721596Y-85854476D02*
X187769977Y-85902857D01*
X187769977Y-85902857D02*
X187818358Y-85999619D01*
X187818358Y-85999619D02*
X187818358Y-86096381D01*
X187818358Y-86096381D02*
X187769977Y-86241524D01*
X187769977Y-86241524D02*
X187189405Y-86822095D01*
X187189405Y-86822095D02*
X187818358Y-86822095D01*
X188447310Y-85806095D02*
X188544072Y-85806095D01*
X188544072Y-85806095D02*
X188640834Y-85854476D01*
X188640834Y-85854476D02*
X188689215Y-85902857D01*
X188689215Y-85902857D02*
X188737596Y-85999619D01*
X188737596Y-85999619D02*
X188785977Y-86193143D01*
X188785977Y-86193143D02*
X188785977Y-86435048D01*
X188785977Y-86435048D02*
X188737596Y-86628572D01*
X188737596Y-86628572D02*
X188689215Y-86725334D01*
X188689215Y-86725334D02*
X188640834Y-86773715D01*
X188640834Y-86773715D02*
X188544072Y-86822095D01*
X188544072Y-86822095D02*
X188447310Y-86822095D01*
X188447310Y-86822095D02*
X188350548Y-86773715D01*
X188350548Y-86773715D02*
X188302167Y-86725334D01*
X188302167Y-86725334D02*
X188253786Y-86628572D01*
X188253786Y-86628572D02*
X188205405Y-86435048D01*
X188205405Y-86435048D02*
X188205405Y-86193143D01*
X188205405Y-86193143D02*
X188253786Y-85999619D01*
X188253786Y-85999619D02*
X188302167Y-85902857D01*
X188302167Y-85902857D02*
X188350548Y-85854476D01*
X188350548Y-85854476D02*
X188447310Y-85806095D01*
D13*
X181356095Y-92114819D02*
X181356095Y-92924342D01*
X181356095Y-92924342D02*
X181403714Y-93019580D01*
X181403714Y-93019580D02*
X181451333Y-93067200D01*
X181451333Y-93067200D02*
X181546571Y-93114819D01*
X181546571Y-93114819D02*
X181737047Y-93114819D01*
X181737047Y-93114819D02*
X181832285Y-93067200D01*
X181832285Y-93067200D02*
X181879904Y-93019580D01*
X181879904Y-93019580D02*
X181927523Y-92924342D01*
X181927523Y-92924342D02*
X181927523Y-92114819D01*
X182832285Y-92114819D02*
X182641809Y-92114819D01*
X182641809Y-92114819D02*
X182546571Y-92162438D01*
X182546571Y-92162438D02*
X182498952Y-92210057D01*
X182498952Y-92210057D02*
X182403714Y-92352914D01*
X182403714Y-92352914D02*
X182356095Y-92543390D01*
X182356095Y-92543390D02*
X182356095Y-92924342D01*
X182356095Y-92924342D02*
X182403714Y-93019580D01*
X182403714Y-93019580D02*
X182451333Y-93067200D01*
X182451333Y-93067200D02*
X182546571Y-93114819D01*
X182546571Y-93114819D02*
X182737047Y-93114819D01*
X182737047Y-93114819D02*
X182832285Y-93067200D01*
X182832285Y-93067200D02*
X182879904Y-93019580D01*
X182879904Y-93019580D02*
X182927523Y-92924342D01*
X182927523Y-92924342D02*
X182927523Y-92686247D01*
X182927523Y-92686247D02*
X182879904Y-92591009D01*
X182879904Y-92591009D02*
X182832285Y-92543390D01*
X182832285Y-92543390D02*
X182737047Y-92495771D01*
X182737047Y-92495771D02*
X182546571Y-92495771D01*
X182546571Y-92495771D02*
X182451333Y-92543390D01*
X182451333Y-92543390D02*
X182403714Y-92591009D01*
X182403714Y-92591009D02*
X182356095Y-92686247D01*
D10*
X177413735Y-113779904D02*
X176397735Y-113779904D01*
X176397735Y-113779904D02*
X176397735Y-113537999D01*
X176397735Y-113537999D02*
X176446116Y-113392856D01*
X176446116Y-113392856D02*
X176542878Y-113296094D01*
X176542878Y-113296094D02*
X176639640Y-113247713D01*
X176639640Y-113247713D02*
X176833164Y-113199332D01*
X176833164Y-113199332D02*
X176978307Y-113199332D01*
X176978307Y-113199332D02*
X177171831Y-113247713D01*
X177171831Y-113247713D02*
X177268593Y-113296094D01*
X177268593Y-113296094D02*
X177365355Y-113392856D01*
X177365355Y-113392856D02*
X177413735Y-113537999D01*
X177413735Y-113537999D02*
X177413735Y-113779904D01*
X176397735Y-112860666D02*
X176397735Y-112231713D01*
X176397735Y-112231713D02*
X176784783Y-112570380D01*
X176784783Y-112570380D02*
X176784783Y-112425237D01*
X176784783Y-112425237D02*
X176833164Y-112328475D01*
X176833164Y-112328475D02*
X176881545Y-112280094D01*
X176881545Y-112280094D02*
X176978307Y-112231713D01*
X176978307Y-112231713D02*
X177220212Y-112231713D01*
X177220212Y-112231713D02*
X177316974Y-112280094D01*
X177316974Y-112280094D02*
X177365355Y-112328475D01*
X177365355Y-112328475D02*
X177413735Y-112425237D01*
X177413735Y-112425237D02*
X177413735Y-112715523D01*
X177413735Y-112715523D02*
X177365355Y-112812285D01*
X177365355Y-112812285D02*
X177316974Y-112860666D01*
X155480784Y-105872095D02*
X156061356Y-105872095D01*
X155771070Y-106888095D02*
X155771070Y-105872095D01*
X156980594Y-106888095D02*
X156641927Y-106404286D01*
X156400022Y-106888095D02*
X156400022Y-105872095D01*
X156400022Y-105872095D02*
X156787070Y-105872095D01*
X156787070Y-105872095D02*
X156883832Y-105920476D01*
X156883832Y-105920476D02*
X156932213Y-105968857D01*
X156932213Y-105968857D02*
X156980594Y-106065619D01*
X156980594Y-106065619D02*
X156980594Y-106210762D01*
X156980594Y-106210762D02*
X156932213Y-106307524D01*
X156932213Y-106307524D02*
X156883832Y-106355905D01*
X156883832Y-106355905D02*
X156787070Y-106404286D01*
X156787070Y-106404286D02*
X156400022Y-106404286D01*
X157948213Y-106888095D02*
X157367641Y-106888095D01*
X157657927Y-106888095D02*
X157657927Y-105872095D01*
X157657927Y-105872095D02*
X157561165Y-106017238D01*
X157561165Y-106017238D02*
X157464403Y-106114000D01*
X157464403Y-106114000D02*
X157367641Y-106162381D01*
D13*
X181356095Y-110402819D02*
X181356095Y-111212342D01*
X181356095Y-111212342D02*
X181403714Y-111307580D01*
X181403714Y-111307580D02*
X181451333Y-111355200D01*
X181451333Y-111355200D02*
X181546571Y-111402819D01*
X181546571Y-111402819D02*
X181737047Y-111402819D01*
X181737047Y-111402819D02*
X181832285Y-111355200D01*
X181832285Y-111355200D02*
X181879904Y-111307580D01*
X181879904Y-111307580D02*
X181927523Y-111212342D01*
X181927523Y-111212342D02*
X181927523Y-110402819D01*
X182356095Y-110498057D02*
X182403714Y-110450438D01*
X182403714Y-110450438D02*
X182498952Y-110402819D01*
X182498952Y-110402819D02*
X182737047Y-110402819D01*
X182737047Y-110402819D02*
X182832285Y-110450438D01*
X182832285Y-110450438D02*
X182879904Y-110498057D01*
X182879904Y-110498057D02*
X182927523Y-110593295D01*
X182927523Y-110593295D02*
X182927523Y-110688533D01*
X182927523Y-110688533D02*
X182879904Y-110831390D01*
X182879904Y-110831390D02*
X182308476Y-111402819D01*
X182308476Y-111402819D02*
X182927523Y-111402819D01*
D10*
X179532095Y-61561260D02*
X179048286Y-61899927D01*
X179532095Y-62141832D02*
X178516095Y-62141832D01*
X178516095Y-62141832D02*
X178516095Y-61754784D01*
X178516095Y-61754784D02*
X178564476Y-61658022D01*
X178564476Y-61658022D02*
X178612857Y-61609641D01*
X178612857Y-61609641D02*
X178709619Y-61561260D01*
X178709619Y-61561260D02*
X178854762Y-61561260D01*
X178854762Y-61561260D02*
X178951524Y-61609641D01*
X178951524Y-61609641D02*
X178999905Y-61658022D01*
X178999905Y-61658022D02*
X179048286Y-61754784D01*
X179048286Y-61754784D02*
X179048286Y-62141832D01*
X178612857Y-61174213D02*
X178564476Y-61125832D01*
X178564476Y-61125832D02*
X178516095Y-61029070D01*
X178516095Y-61029070D02*
X178516095Y-60787165D01*
X178516095Y-60787165D02*
X178564476Y-60690403D01*
X178564476Y-60690403D02*
X178612857Y-60642022D01*
X178612857Y-60642022D02*
X178709619Y-60593641D01*
X178709619Y-60593641D02*
X178806381Y-60593641D01*
X178806381Y-60593641D02*
X178951524Y-60642022D01*
X178951524Y-60642022D02*
X179532095Y-61222594D01*
X179532095Y-61222594D02*
X179532095Y-60593641D01*
X178516095Y-60254975D02*
X178516095Y-59577641D01*
X178516095Y-59577641D02*
X179532095Y-60013070D01*
X178008095Y-88993260D02*
X177524286Y-89331927D01*
X178008095Y-89573832D02*
X176992095Y-89573832D01*
X176992095Y-89573832D02*
X176992095Y-89186784D01*
X176992095Y-89186784D02*
X177040476Y-89090022D01*
X177040476Y-89090022D02*
X177088857Y-89041641D01*
X177088857Y-89041641D02*
X177185619Y-88993260D01*
X177185619Y-88993260D02*
X177330762Y-88993260D01*
X177330762Y-88993260D02*
X177427524Y-89041641D01*
X177427524Y-89041641D02*
X177475905Y-89090022D01*
X177475905Y-89090022D02*
X177524286Y-89186784D01*
X177524286Y-89186784D02*
X177524286Y-89573832D01*
X178008095Y-88025641D02*
X178008095Y-88606213D01*
X178008095Y-88315927D02*
X176992095Y-88315927D01*
X176992095Y-88315927D02*
X177137238Y-88412689D01*
X177137238Y-88412689D02*
X177234000Y-88509451D01*
X177234000Y-88509451D02*
X177282381Y-88606213D01*
X178008095Y-87058022D02*
X178008095Y-87638594D01*
X178008095Y-87348308D02*
X176992095Y-87348308D01*
X176992095Y-87348308D02*
X177137238Y-87445070D01*
X177137238Y-87445070D02*
X177234000Y-87541832D01*
X177234000Y-87541832D02*
X177282381Y-87638594D01*
X184310739Y-70469334D02*
X184262358Y-70517715D01*
X184262358Y-70517715D02*
X184117215Y-70566095D01*
X184117215Y-70566095D02*
X184020453Y-70566095D01*
X184020453Y-70566095D02*
X183875310Y-70517715D01*
X183875310Y-70517715D02*
X183778548Y-70420953D01*
X183778548Y-70420953D02*
X183730167Y-70324191D01*
X183730167Y-70324191D02*
X183681786Y-70130667D01*
X183681786Y-70130667D02*
X183681786Y-69985524D01*
X183681786Y-69985524D02*
X183730167Y-69792000D01*
X183730167Y-69792000D02*
X183778548Y-69695238D01*
X183778548Y-69695238D02*
X183875310Y-69598476D01*
X183875310Y-69598476D02*
X184020453Y-69550095D01*
X184020453Y-69550095D02*
X184117215Y-69550095D01*
X184117215Y-69550095D02*
X184262358Y-69598476D01*
X184262358Y-69598476D02*
X184310739Y-69646857D01*
X184697786Y-69646857D02*
X184746167Y-69598476D01*
X184746167Y-69598476D02*
X184842929Y-69550095D01*
X184842929Y-69550095D02*
X185084834Y-69550095D01*
X185084834Y-69550095D02*
X185181596Y-69598476D01*
X185181596Y-69598476D02*
X185229977Y-69646857D01*
X185229977Y-69646857D02*
X185278358Y-69743619D01*
X185278358Y-69743619D02*
X185278358Y-69840381D01*
X185278358Y-69840381D02*
X185229977Y-69985524D01*
X185229977Y-69985524D02*
X184649405Y-70566095D01*
X184649405Y-70566095D02*
X185278358Y-70566095D01*
X185907310Y-69550095D02*
X186004072Y-69550095D01*
X186004072Y-69550095D02*
X186100834Y-69598476D01*
X186100834Y-69598476D02*
X186149215Y-69646857D01*
X186149215Y-69646857D02*
X186197596Y-69743619D01*
X186197596Y-69743619D02*
X186245977Y-69937143D01*
X186245977Y-69937143D02*
X186245977Y-70179048D01*
X186245977Y-70179048D02*
X186197596Y-70372572D01*
X186197596Y-70372572D02*
X186149215Y-70469334D01*
X186149215Y-70469334D02*
X186100834Y-70517715D01*
X186100834Y-70517715D02*
X186004072Y-70566095D01*
X186004072Y-70566095D02*
X185907310Y-70566095D01*
X185907310Y-70566095D02*
X185810548Y-70517715D01*
X185810548Y-70517715D02*
X185762167Y-70469334D01*
X185762167Y-70469334D02*
X185713786Y-70372572D01*
X185713786Y-70372572D02*
X185665405Y-70179048D01*
X185665405Y-70179048D02*
X185665405Y-69937143D01*
X185665405Y-69937143D02*
X185713786Y-69743619D01*
X185713786Y-69743619D02*
X185762167Y-69646857D01*
X185762167Y-69646857D02*
X185810548Y-69598476D01*
X185810548Y-69598476D02*
X185907310Y-69550095D01*
X186850739Y-85298095D02*
X186512072Y-84814286D01*
X186270167Y-85298095D02*
X186270167Y-84282095D01*
X186270167Y-84282095D02*
X186657215Y-84282095D01*
X186657215Y-84282095D02*
X186753977Y-84330476D01*
X186753977Y-84330476D02*
X186802358Y-84378857D01*
X186802358Y-84378857D02*
X186850739Y-84475619D01*
X186850739Y-84475619D02*
X186850739Y-84620762D01*
X186850739Y-84620762D02*
X186802358Y-84717524D01*
X186802358Y-84717524D02*
X186753977Y-84765905D01*
X186753977Y-84765905D02*
X186657215Y-84814286D01*
X186657215Y-84814286D02*
X186270167Y-84814286D01*
X187818358Y-85298095D02*
X187237786Y-85298095D01*
X187528072Y-85298095D02*
X187528072Y-84282095D01*
X187528072Y-84282095D02*
X187431310Y-84427238D01*
X187431310Y-84427238D02*
X187334548Y-84524000D01*
X187334548Y-84524000D02*
X187237786Y-84572381D01*
X188302167Y-85298095D02*
X188495691Y-85298095D01*
X188495691Y-85298095D02*
X188592453Y-85249715D01*
X188592453Y-85249715D02*
X188640834Y-85201334D01*
X188640834Y-85201334D02*
X188737596Y-85056191D01*
X188737596Y-85056191D02*
X188785977Y-84862667D01*
X188785977Y-84862667D02*
X188785977Y-84475619D01*
X188785977Y-84475619D02*
X188737596Y-84378857D01*
X188737596Y-84378857D02*
X188689215Y-84330476D01*
X188689215Y-84330476D02*
X188592453Y-84282095D01*
X188592453Y-84282095D02*
X188398929Y-84282095D01*
X188398929Y-84282095D02*
X188302167Y-84330476D01*
X188302167Y-84330476D02*
X188253786Y-84378857D01*
X188253786Y-84378857D02*
X188205405Y-84475619D01*
X188205405Y-84475619D02*
X188205405Y-84717524D01*
X188205405Y-84717524D02*
X188253786Y-84814286D01*
X188253786Y-84814286D02*
X188302167Y-84862667D01*
X188302167Y-84862667D02*
X188398929Y-84911048D01*
X188398929Y-84911048D02*
X188592453Y-84911048D01*
X188592453Y-84911048D02*
X188689215Y-84862667D01*
X188689215Y-84862667D02*
X188737596Y-84814286D01*
X188737596Y-84814286D02*
X188785977Y-84717524D01*
X178008095Y-98137260D02*
X177524286Y-98475927D01*
X178008095Y-98717832D02*
X176992095Y-98717832D01*
X176992095Y-98717832D02*
X176992095Y-98330784D01*
X176992095Y-98330784D02*
X177040476Y-98234022D01*
X177040476Y-98234022D02*
X177088857Y-98185641D01*
X177088857Y-98185641D02*
X177185619Y-98137260D01*
X177185619Y-98137260D02*
X177330762Y-98137260D01*
X177330762Y-98137260D02*
X177427524Y-98185641D01*
X177427524Y-98185641D02*
X177475905Y-98234022D01*
X177475905Y-98234022D02*
X177524286Y-98330784D01*
X177524286Y-98330784D02*
X177524286Y-98717832D01*
X176992095Y-97266403D02*
X176992095Y-97459927D01*
X176992095Y-97459927D02*
X177040476Y-97556689D01*
X177040476Y-97556689D02*
X177088857Y-97605070D01*
X177088857Y-97605070D02*
X177234000Y-97701832D01*
X177234000Y-97701832D02*
X177427524Y-97750213D01*
X177427524Y-97750213D02*
X177814572Y-97750213D01*
X177814572Y-97750213D02*
X177911334Y-97701832D01*
X177911334Y-97701832D02*
X177959715Y-97653451D01*
X177959715Y-97653451D02*
X178008095Y-97556689D01*
X178008095Y-97556689D02*
X178008095Y-97363165D01*
X178008095Y-97363165D02*
X177959715Y-97266403D01*
X177959715Y-97266403D02*
X177911334Y-97218022D01*
X177911334Y-97218022D02*
X177814572Y-97169641D01*
X177814572Y-97169641D02*
X177572667Y-97169641D01*
X177572667Y-97169641D02*
X177475905Y-97218022D01*
X177475905Y-97218022D02*
X177427524Y-97266403D01*
X177427524Y-97266403D02*
X177379143Y-97363165D01*
X177379143Y-97363165D02*
X177379143Y-97556689D01*
X177379143Y-97556689D02*
X177427524Y-97653451D01*
X177427524Y-97653451D02*
X177475905Y-97701832D01*
X177475905Y-97701832D02*
X177572667Y-97750213D01*
D14*
%TO.C,R3*%
X185942500Y-108982742D02*
X185942500Y-109457258D01*
X184897500Y-108982742D02*
X184897500Y-109457258D01*
%TO.C,U9*%
X154940000Y-75220000D02*
X155740000Y-75220000D01*
X154940000Y-75220000D02*
X154140000Y-75220000D01*
X154940000Y-72100000D02*
X155740000Y-72100000D01*
X154940000Y-72100000D02*
X154140000Y-72100000D01*
X156480000Y-75500000D02*
X156000000Y-75500000D01*
X156240000Y-75170000D01*
X156480000Y-75500000D01*
G36*
X156480000Y-75500000D02*
G01*
X156000000Y-75500000D01*
X156240000Y-75170000D01*
X156480000Y-75500000D01*
G37*
D10*
%TO.C,U12*%
X180309774Y-62749811D02*
G75*
G03*
X180106574Y-62749811I-101600J0D01*
G01*
X180106574Y-62749811D02*
G75*
G03*
X180309774Y-62749811I101600J0D01*
G01*
D14*
%TO.C,R29*%
X184895258Y-67070500D02*
X184420742Y-67070500D01*
X184895258Y-66025500D02*
X184420742Y-66025500D01*
D13*
%TO.C,D9*%
X182886000Y-95242000D02*
X182886000Y-96242000D01*
X177386000Y-96242000D02*
X182886000Y-96242000D01*
X177386000Y-93242000D02*
X182786000Y-93242000D01*
D14*
%TO.C,TR5*%
X159713000Y-69410000D02*
X168963000Y-69410000D01*
X168963000Y-77910000D02*
X159713000Y-77910000D01*
X158738000Y-70310000D02*
X158498000Y-69980000D01*
X158978000Y-69980000D01*
X158738000Y-70310000D01*
G36*
X158738000Y-70310000D02*
G01*
X158498000Y-69980000D01*
X158978000Y-69980000D01*
X158738000Y-70310000D01*
G37*
%TO.C,D17*%
X175946000Y-62214000D02*
X175946000Y-60214000D01*
X175946000Y-62214000D02*
X172086000Y-62214000D01*
X175946000Y-60214000D02*
X172086000Y-60214000D01*
%TO.C,C6*%
X174505252Y-101065000D02*
X173982748Y-101065000D01*
X174505252Y-99595000D02*
X173982748Y-99595000D01*
%TO.C,J2*%
X193932000Y-97436000D02*
X193932000Y-96016000D01*
X205652000Y-97436000D02*
X193932000Y-97436000D01*
X193932000Y-96016000D02*
X198432000Y-96016000D01*
X198432000Y-96016000D02*
X198432000Y-87376000D01*
X194242000Y-95176000D02*
X194242000Y-94576000D01*
X199542000Y-95126000D02*
X205042000Y-95126000D01*
X205042000Y-95126000D02*
X205042000Y-94626000D01*
X194842000Y-94876000D02*
X194242000Y-95176000D01*
X199542000Y-94626000D02*
X199542000Y-95126000D01*
X205042000Y-94626000D02*
X199542000Y-94626000D01*
X194242000Y-94576000D02*
X194842000Y-94876000D01*
X199542000Y-92626000D02*
X205042000Y-92626000D01*
X205042000Y-92626000D02*
X205042000Y-92126000D01*
X199542000Y-92126000D02*
X199542000Y-92626000D01*
X205042000Y-92126000D02*
X199542000Y-92126000D01*
X199542000Y-90126000D02*
X205042000Y-90126000D01*
X205042000Y-90126000D02*
X205042000Y-89626000D01*
X199542000Y-89626000D02*
X199542000Y-90126000D01*
X205042000Y-89626000D02*
X199542000Y-89626000D01*
X199542000Y-87626000D02*
X205042000Y-87626000D01*
X205042000Y-87626000D02*
X205042000Y-87126000D01*
X205652000Y-87376000D02*
X205652000Y-97436000D01*
X205652000Y-87376000D02*
X205652000Y-77316000D01*
X199542000Y-87126000D02*
X199542000Y-87626000D01*
X205042000Y-87126000D02*
X199542000Y-87126000D01*
X199542000Y-85126000D02*
X205042000Y-85126000D01*
X205042000Y-85126000D02*
X205042000Y-84626000D01*
X199542000Y-84626000D02*
X199542000Y-85126000D01*
X205042000Y-84626000D02*
X199542000Y-84626000D01*
X199542000Y-82626000D02*
X205042000Y-82626000D01*
X205042000Y-82626000D02*
X205042000Y-82126000D01*
X199542000Y-82126000D02*
X199542000Y-82626000D01*
X205042000Y-82126000D02*
X199542000Y-82126000D01*
X199542000Y-80126000D02*
X205042000Y-80126000D01*
X205042000Y-80126000D02*
X205042000Y-79626000D01*
X199542000Y-79626000D02*
X199542000Y-80126000D01*
X205042000Y-79626000D02*
X199542000Y-79626000D01*
X193932000Y-78736000D02*
X198432000Y-78736000D01*
X198432000Y-78736000D02*
X198432000Y-87376000D01*
X193932000Y-77316000D02*
X193932000Y-78736000D01*
X205652000Y-77316000D02*
X193932000Y-77316000D01*
%TO.C,TR2*%
X159713000Y-96842000D02*
X168963000Y-96842000D01*
X168963000Y-105342000D02*
X159713000Y-105342000D01*
X158738000Y-97742000D02*
X158498000Y-97412000D01*
X158978000Y-97412000D01*
X158738000Y-97742000D01*
G36*
X158738000Y-97742000D02*
G01*
X158498000Y-97412000D01*
X158978000Y-97412000D01*
X158738000Y-97742000D01*
G37*
%TO.C,U7*%
X154940000Y-84364000D02*
X155740000Y-84364000D01*
X154940000Y-84364000D02*
X154140000Y-84364000D01*
X154940000Y-81244000D02*
X155740000Y-81244000D01*
X154940000Y-81244000D02*
X154140000Y-81244000D01*
X156480000Y-84644000D02*
X156000000Y-84644000D01*
X156240000Y-84314000D01*
X156480000Y-84644000D01*
G36*
X156480000Y-84644000D02*
G01*
X156000000Y-84644000D01*
X156240000Y-84314000D01*
X156480000Y-84644000D01*
G37*
%TO.C,D1*%
X175946000Y-114538000D02*
X175946000Y-112538000D01*
X175946000Y-114538000D02*
X172086000Y-114538000D01*
X175946000Y-112538000D02*
X172086000Y-112538000D01*
%TO.C,C2*%
X174505252Y-110209000D02*
X173982748Y-110209000D01*
X174505252Y-108739000D02*
X173982748Y-108739000D01*
%TO.C,D11*%
X175946000Y-80502000D02*
X175946000Y-78502000D01*
X175946000Y-80502000D02*
X172086000Y-80502000D01*
X175946000Y-78502000D02*
X172086000Y-78502000D01*
%TO.C,R7*%
X179592500Y-99838742D02*
X179592500Y-100313258D01*
X178547500Y-99838742D02*
X178547500Y-100313258D01*
%TO.C,C15*%
X174384580Y-84330000D02*
X174103420Y-84330000D01*
X174384580Y-83310000D02*
X174103420Y-83310000D01*
%TO.C,C4*%
X182258580Y-107190000D02*
X181977420Y-107190000D01*
X182258580Y-106170000D02*
X181977420Y-106170000D01*
%TO.C,R13*%
X185942500Y-90694742D02*
X185942500Y-91169258D01*
X184897500Y-90694742D02*
X184897500Y-91169258D01*
D13*
%TO.C,REF\u002A\u002A*%
X137141200Y-92937400D02*
X138041200Y-92937400D01*
X139141200Y-92937400D02*
X141141200Y-92937400D01*
X139816199Y-92187401D02*
G75*
G03*
X139891199Y-93612399I-674999J-749999D01*
G01*
X137066200Y-92937400D02*
G75*
G03*
X135216200Y-92937400I-925000J0D01*
G01*
X135216200Y-92937400D02*
G75*
G03*
X137066200Y-92937400I925000J0D01*
G01*
D15*
X139316200Y-92937400D02*
G75*
G03*
X138966200Y-92937400I-175000J0D01*
G01*
X138966200Y-92937400D02*
G75*
G03*
X139316200Y-92937400I175000J0D01*
G01*
D13*
X143066200Y-92937400D02*
G75*
G03*
X141216200Y-92937400I-925000J0D01*
G01*
X141216200Y-92937400D02*
G75*
G03*
X143066200Y-92937400I925000J0D01*
G01*
D10*
%TO.C,U8*%
X180309774Y-81037811D02*
G75*
G03*
X180106574Y-81037811I-101600J0D01*
G01*
X180106574Y-81037811D02*
G75*
G03*
X180309774Y-81037811I101600J0D01*
G01*
D14*
%TO.C,C9*%
X150903000Y-92209252D02*
X150903000Y-91686748D01*
X152373000Y-92209252D02*
X152373000Y-91686748D01*
%TO.C,TR6*%
X159713000Y-60266000D02*
X168963000Y-60266000D01*
X168963000Y-68766000D02*
X159713000Y-68766000D01*
X158738000Y-61166000D02*
X158498000Y-60836000D01*
X158978000Y-60836000D01*
X158738000Y-61166000D01*
G36*
X158738000Y-61166000D02*
G01*
X158498000Y-60836000D01*
X158978000Y-60836000D01*
X158738000Y-61166000D01*
G37*
%TO.C,C12*%
X182258580Y-88902000D02*
X181977420Y-88902000D01*
X182258580Y-87882000D02*
X181977420Y-87882000D01*
%TO.C,C13*%
X150903000Y-83065252D02*
X150903000Y-82542748D01*
X152373000Y-83065252D02*
X152373000Y-82542748D01*
%TO.C,R25*%
X184895258Y-77738500D02*
X184420742Y-77738500D01*
X184895258Y-76693500D02*
X184420742Y-76693500D01*
%TO.C,D8*%
X175946000Y-89646000D02*
X175946000Y-87646000D01*
X175946000Y-89646000D02*
X172086000Y-89646000D01*
X175946000Y-87646000D02*
X172086000Y-87646000D01*
D13*
%TO.C,D12*%
X182886000Y-86098000D02*
X182886000Y-87098000D01*
X177386000Y-87098000D02*
X182886000Y-87098000D01*
X177386000Y-84098000D02*
X182786000Y-84098000D01*
D14*
%TO.C,C22*%
X174505252Y-64489000D02*
X173982748Y-64489000D01*
X174505252Y-63019000D02*
X173982748Y-63019000D01*
D13*
%TO.C,D6*%
X182886000Y-104386000D02*
X182886000Y-105386000D01*
X177386000Y-105386000D02*
X182886000Y-105386000D01*
X177386000Y-102386000D02*
X182786000Y-102386000D01*
D14*
%TO.C,U1*%
X154940000Y-111796000D02*
X155740000Y-111796000D01*
X154940000Y-111796000D02*
X154140000Y-111796000D01*
X154940000Y-108676000D02*
X155740000Y-108676000D01*
X154940000Y-108676000D02*
X154140000Y-108676000D01*
X156480000Y-112076000D02*
X156000000Y-112076000D01*
X156240000Y-111746000D01*
X156480000Y-112076000D01*
G36*
X156480000Y-112076000D02*
G01*
X156000000Y-112076000D01*
X156240000Y-111746000D01*
X156480000Y-112076000D01*
G37*
%TO.C,U11*%
X154940000Y-66076000D02*
X155740000Y-66076000D01*
X154940000Y-66076000D02*
X154140000Y-66076000D01*
X154940000Y-62956000D02*
X155740000Y-62956000D01*
X154940000Y-62956000D02*
X154140000Y-62956000D01*
X156480000Y-66356000D02*
X156000000Y-66356000D01*
X156240000Y-66026000D01*
X156480000Y-66356000D01*
G36*
X156480000Y-66356000D02*
G01*
X156000000Y-66356000D01*
X156240000Y-66026000D01*
X156480000Y-66356000D01*
G37*
%TO.C,TR3*%
X159713000Y-87698000D02*
X168963000Y-87698000D01*
X168963000Y-96198000D02*
X159713000Y-96198000D01*
X158738000Y-88598000D02*
X158498000Y-88268000D01*
X158978000Y-88268000D01*
X158738000Y-88598000D01*
G36*
X158738000Y-88598000D02*
G01*
X158498000Y-88268000D01*
X158978000Y-88268000D01*
X158738000Y-88598000D01*
G37*
%TO.C,C1*%
X150903000Y-110497252D02*
X150903000Y-109974748D01*
X152373000Y-110497252D02*
X152373000Y-109974748D01*
%TO.C,R9*%
X184895258Y-103646500D02*
X184420742Y-103646500D01*
X184895258Y-102601500D02*
X184420742Y-102601500D01*
%TO.C,C24*%
X182258580Y-61470000D02*
X181977420Y-61470000D01*
X182258580Y-60450000D02*
X181977420Y-60450000D01*
%TO.C,D14*%
X175946000Y-71358000D02*
X175946000Y-69358000D01*
X175946000Y-71358000D02*
X172086000Y-71358000D01*
X175946000Y-69358000D02*
X172086000Y-69358000D01*
D10*
%TO.C,U4*%
X180309774Y-99325811D02*
G75*
G03*
X180106574Y-99325811I-101600J0D01*
G01*
X180106574Y-99325811D02*
G75*
G03*
X180309774Y-99325811I101600J0D01*
G01*
D14*
%TO.C,C14*%
X174505252Y-82777000D02*
X173982748Y-82777000D01*
X174505252Y-81307000D02*
X173982748Y-81307000D01*
%TO.C,J1*%
X148614000Y-82536000D02*
X148614000Y-84276000D01*
X146874000Y-82536000D02*
X148614000Y-82536000D01*
X148374000Y-82776000D02*
X148374000Y-85576000D01*
X133774000Y-82776000D02*
X148374000Y-82776000D01*
X148374000Y-89176000D02*
X148374000Y-91976000D01*
X148374000Y-91976000D02*
X146374000Y-91976000D01*
X142774000Y-91976000D02*
X133774000Y-91976000D01*
X133774000Y-91976000D02*
X133774000Y-82776000D01*
%TO.C,R8*%
X185942500Y-99838742D02*
X185942500Y-100313258D01*
X184897500Y-99838742D02*
X184897500Y-100313258D01*
%TO.C,D4*%
X175946000Y-105394000D02*
X175946000Y-103394000D01*
X175946000Y-105394000D02*
X172086000Y-105394000D01*
X175946000Y-103394000D02*
X172086000Y-103394000D01*
%TO.C,R16*%
X178068500Y-81550742D02*
X178068500Y-82025258D01*
X177023500Y-81550742D02*
X177023500Y-82025258D01*
D13*
%TO.C,D15*%
X182886000Y-76954000D02*
X182886000Y-77954000D01*
X177386000Y-77954000D02*
X182886000Y-77954000D01*
X177386000Y-74954000D02*
X182786000Y-74954000D01*
D14*
%TO.C,R12*%
X179592500Y-90694742D02*
X179592500Y-91169258D01*
X178547500Y-90694742D02*
X178547500Y-91169258D01*
%TO.C,R2*%
X179592500Y-108982742D02*
X179592500Y-109457258D01*
X178547500Y-108982742D02*
X178547500Y-109457258D01*
%TO.C,D2*%
X175946000Y-107934000D02*
X175946000Y-105934000D01*
X175946000Y-107934000D02*
X172086000Y-107934000D01*
X175946000Y-105934000D02*
X172086000Y-105934000D01*
%TO.C,R5*%
X184895258Y-114314500D02*
X184420742Y-114314500D01*
X184895258Y-113269500D02*
X184420742Y-113269500D01*
%TO.C,C17*%
X150903000Y-73921252D02*
X150903000Y-73398748D01*
X152373000Y-73921252D02*
X152373000Y-73398748D01*
%TO.C,C19*%
X174384580Y-75186000D02*
X174103420Y-75186000D01*
X174384580Y-74166000D02*
X174103420Y-74166000D01*
%TO.C,U5*%
X154940000Y-93508000D02*
X155740000Y-93508000D01*
X154940000Y-93508000D02*
X154140000Y-93508000D01*
X154940000Y-90388000D02*
X155740000Y-90388000D01*
X154940000Y-90388000D02*
X154140000Y-90388000D01*
X156480000Y-93788000D02*
X156000000Y-93788000D01*
X156240000Y-93458000D01*
X156480000Y-93788000D01*
G36*
X156480000Y-93788000D02*
G01*
X156000000Y-93788000D01*
X156240000Y-93458000D01*
X156480000Y-93788000D01*
G37*
%TO.C,R21*%
X178068500Y-72406742D02*
X178068500Y-72881258D01*
X177023500Y-72406742D02*
X177023500Y-72881258D01*
%TO.C,R4*%
X184895258Y-112790500D02*
X184420742Y-112790500D01*
X184895258Y-111745500D02*
X184420742Y-111745500D01*
%TO.C,D10*%
X175946000Y-87106000D02*
X175946000Y-85106000D01*
X175946000Y-87106000D02*
X172086000Y-87106000D01*
X175946000Y-85106000D02*
X172086000Y-85106000D01*
%TO.C,R1*%
X178068500Y-108982742D02*
X178068500Y-109457258D01*
X177023500Y-108982742D02*
X177023500Y-109457258D01*
%TO.C,R24*%
X184895258Y-76214500D02*
X184420742Y-76214500D01*
X184895258Y-75169500D02*
X184420742Y-75169500D01*
%TO.C,R18*%
X185942500Y-81550742D02*
X185942500Y-82025258D01*
X184897500Y-81550742D02*
X184897500Y-82025258D01*
%TO.C,C21*%
X150903000Y-64777252D02*
X150903000Y-64254748D01*
X152373000Y-64777252D02*
X152373000Y-64254748D01*
%TO.C,R10*%
X184895258Y-105170500D02*
X184420742Y-105170500D01*
X184895258Y-104125500D02*
X184420742Y-104125500D01*
%TO.C,C23*%
X174384580Y-66042000D02*
X174103420Y-66042000D01*
X174384580Y-65022000D02*
X174103420Y-65022000D01*
D10*
%TO.C,U10*%
X180309774Y-71893811D02*
G75*
G03*
X180106574Y-71893811I-101600J0D01*
G01*
X180106574Y-71893811D02*
G75*
G03*
X180309774Y-71893811I101600J0D01*
G01*
D14*
%TO.C,R15*%
X184895258Y-96026500D02*
X184420742Y-96026500D01*
X184895258Y-94981500D02*
X184420742Y-94981500D01*
%TO.C,C7*%
X174384580Y-102618000D02*
X174103420Y-102618000D01*
X174384580Y-101598000D02*
X174103420Y-101598000D01*
%TO.C,C8*%
X182258580Y-98046000D02*
X181977420Y-98046000D01*
X182258580Y-97026000D02*
X181977420Y-97026000D01*
%TO.C,U3*%
X154940000Y-102652000D02*
X155740000Y-102652000D01*
X154940000Y-102652000D02*
X154140000Y-102652000D01*
X154940000Y-99532000D02*
X155740000Y-99532000D01*
X154940000Y-99532000D02*
X154140000Y-99532000D01*
X156480000Y-102932000D02*
X156000000Y-102932000D01*
X156240000Y-102602000D01*
X156480000Y-102932000D01*
G36*
X156480000Y-102932000D02*
G01*
X156000000Y-102932000D01*
X156240000Y-102602000D01*
X156480000Y-102932000D01*
G37*
%TO.C,D13*%
X175946000Y-77962000D02*
X175946000Y-75962000D01*
X175946000Y-77962000D02*
X172086000Y-77962000D01*
X175946000Y-75962000D02*
X172086000Y-75962000D01*
%TO.C,C11*%
X174384580Y-93474000D02*
X174103420Y-93474000D01*
X174384580Y-92454000D02*
X174103420Y-92454000D01*
%TO.C,R28*%
X185942500Y-63262742D02*
X185942500Y-63737258D01*
X184897500Y-63262742D02*
X184897500Y-63737258D01*
%TO.C,C3*%
X174384580Y-111762000D02*
X174103420Y-111762000D01*
X174384580Y-110742000D02*
X174103420Y-110742000D01*
%TO.C,C16*%
X182258580Y-79758000D02*
X181977420Y-79758000D01*
X182258580Y-78738000D02*
X181977420Y-78738000D01*
%TO.C,R26*%
X178068500Y-63262742D02*
X178068500Y-63737258D01*
X177023500Y-63262742D02*
X177023500Y-63737258D01*
%TO.C,R22*%
X179592500Y-72406742D02*
X179592500Y-72881258D01*
X178547500Y-72406742D02*
X178547500Y-72881258D01*
%TO.C,R17*%
X179592500Y-81550742D02*
X179592500Y-82025258D01*
X178547500Y-81550742D02*
X178547500Y-82025258D01*
%TO.C,C18*%
X174505252Y-73633000D02*
X173982748Y-73633000D01*
X174505252Y-72163000D02*
X173982748Y-72163000D01*
%TO.C,R30*%
X184895258Y-68594500D02*
X184420742Y-68594500D01*
X184895258Y-67549500D02*
X184420742Y-67549500D01*
%TO.C,R23*%
X185942500Y-72406742D02*
X185942500Y-72881258D01*
X184897500Y-72406742D02*
X184897500Y-72881258D01*
D13*
%TO.C,D18*%
X182886000Y-67810000D02*
X182886000Y-68810000D01*
X177386000Y-68810000D02*
X182886000Y-68810000D01*
X177386000Y-65810000D02*
X182786000Y-65810000D01*
D14*
%TO.C,D7*%
X175946000Y-96250000D02*
X175946000Y-94250000D01*
X175946000Y-96250000D02*
X172086000Y-96250000D01*
X175946000Y-94250000D02*
X172086000Y-94250000D01*
%TO.C,C5*%
X150903000Y-101353252D02*
X150903000Y-100830748D01*
X152373000Y-101353252D02*
X152373000Y-100830748D01*
%TO.C,R14*%
X184895258Y-94502500D02*
X184420742Y-94502500D01*
X184895258Y-93457500D02*
X184420742Y-93457500D01*
%TO.C,TR4*%
X159713000Y-78554000D02*
X168963000Y-78554000D01*
X168963000Y-87054000D02*
X159713000Y-87054000D01*
X158738000Y-79454000D02*
X158498000Y-79124000D01*
X158978000Y-79124000D01*
X158738000Y-79454000D01*
G36*
X158738000Y-79454000D02*
G01*
X158498000Y-79124000D01*
X158978000Y-79124000D01*
X158738000Y-79454000D01*
G37*
%TO.C,D16*%
X175946000Y-68818000D02*
X175946000Y-66818000D01*
X175946000Y-68818000D02*
X172086000Y-68818000D01*
X175946000Y-66818000D02*
X172086000Y-66818000D01*
%TO.C,C10*%
X174505252Y-91921000D02*
X173982748Y-91921000D01*
X174505252Y-90451000D02*
X173982748Y-90451000D01*
%TO.C,D5*%
X175946000Y-98790000D02*
X175946000Y-96790000D01*
X175946000Y-98790000D02*
X172086000Y-98790000D01*
X175946000Y-96790000D02*
X172086000Y-96790000D01*
%TO.C,R20*%
X184895258Y-86882500D02*
X184420742Y-86882500D01*
X184895258Y-85837500D02*
X184420742Y-85837500D01*
D10*
%TO.C,U6*%
X180309774Y-90181811D02*
G75*
G03*
X180106574Y-90181811I-101600J0D01*
G01*
X180106574Y-90181811D02*
G75*
G03*
X180309774Y-90181811I101600J0D01*
G01*
D13*
%TO.C,D3*%
X182886000Y-113530000D02*
X182886000Y-114530000D01*
X177386000Y-114530000D02*
X182886000Y-114530000D01*
X177386000Y-111530000D02*
X182786000Y-111530000D01*
D14*
%TO.C,TR1*%
X159713000Y-105986000D02*
X168963000Y-105986000D01*
X168963000Y-114486000D02*
X159713000Y-114486000D01*
X158738000Y-106886000D02*
X158498000Y-106556000D01*
X158978000Y-106556000D01*
X158738000Y-106886000D01*
G36*
X158738000Y-106886000D02*
G01*
X158498000Y-106556000D01*
X158978000Y-106556000D01*
X158738000Y-106886000D01*
G37*
D10*
%TO.C,U2*%
X180309774Y-108469811D02*
G75*
G03*
X180106574Y-108469811I-101600J0D01*
G01*
X180106574Y-108469811D02*
G75*
G03*
X180309774Y-108469811I101600J0D01*
G01*
D14*
%TO.C,R27*%
X179592500Y-63262742D02*
X179592500Y-63737258D01*
X178547500Y-63262742D02*
X178547500Y-63737258D01*
%TO.C,R11*%
X178068500Y-90694742D02*
X178068500Y-91169258D01*
X177023500Y-90694742D02*
X177023500Y-91169258D01*
%TO.C,C20*%
X182258580Y-70614000D02*
X181977420Y-70614000D01*
X182258580Y-69594000D02*
X181977420Y-69594000D01*
%TO.C,R19*%
X184895258Y-85358500D02*
X184420742Y-85358500D01*
X184895258Y-84313500D02*
X184420742Y-84313500D01*
%TO.C,R6*%
X178068500Y-99838742D02*
X178068500Y-100313258D01*
X177023500Y-99838742D02*
X177023500Y-100313258D01*
%TD*%
M02*
