%TF.GenerationSoftware,KiCad,Pcbnew,7.0.11+dfsg-1build4*%
%TF.CreationDate,2024-07-23T19:21:25-07:00*%
%TF.ProjectId,6s_750mA,36735f37-3530-46d4-912e-6b696361645f,rev?*%
%TF.SameCoordinates,Original*%
%TF.FileFunction,Soldermask,Top*%
%TF.FilePolarity,Negative*%
%FSLAX46Y46*%
G04 Gerber Fmt 4.6, Leading zero omitted, Abs format (unit mm)*
G04 Created by KiCad (PCBNEW 7.0.11+dfsg-1build4) date 2024-07-23 19:21:25*
%MOMM*%
%LPD*%
G01*
G04 APERTURE LIST*
G04 Aperture macros list*
%AMRoundRect*
0 Rectangle with rounded corners*
0 $1 Rounding radius*
0 $2 $3 $4 $5 $6 $7 $8 $9 X,Y pos of 4 corners*
0 Add a 4 corners polygon primitive as box body*
4,1,4,$2,$3,$4,$5,$6,$7,$8,$9,$2,$3,0*
0 Add four circle primitives for the rounded corners*
1,1,$1+$1,$2,$3*
1,1,$1+$1,$4,$5*
1,1,$1+$1,$6,$7*
1,1,$1+$1,$8,$9*
0 Add four rect primitives between the rounded corners*
20,1,$1+$1,$2,$3,$4,$5,0*
20,1,$1+$1,$4,$5,$6,$7,0*
20,1,$1+$1,$6,$7,$8,$9,0*
20,1,$1+$1,$8,$9,$2,$3,0*%
G04 Aperture macros list end*
%ADD10RoundRect,0.200000X-0.275000X0.200000X-0.275000X-0.200000X0.275000X-0.200000X0.275000X0.200000X0*%
%ADD11RoundRect,0.150000X0.512500X0.150000X-0.512500X0.150000X-0.512500X-0.150000X0.512500X-0.150000X0*%
%ADD12R,0.711200X0.279400*%
%ADD13R,0.990600X1.701800*%
%ADD14RoundRect,0.200000X0.200000X0.275000X-0.200000X0.275000X-0.200000X-0.275000X0.200000X-0.275000X0*%
%ADD15R,1.500000X1.000000*%
%ADD16R,1.830000X1.090000*%
%ADD17RoundRect,0.054500X-0.860500X-0.490500X0.860500X-0.490500X0.860500X0.490500X-0.860500X0.490500X0*%
%ADD18RoundRect,0.250000X0.300000X0.300000X-0.300000X0.300000X-0.300000X-0.300000X0.300000X-0.300000X0*%
%ADD19RoundRect,0.250000X0.250000X0.475000X-0.250000X0.475000X-0.250000X-0.475000X0.250000X-0.475000X0*%
%ADD20RoundRect,0.250000X0.725000X-0.600000X0.725000X0.600000X-0.725000X0.600000X-0.725000X-0.600000X0*%
%ADD21O,1.950000X1.700000*%
%ADD22RoundRect,0.225000X0.225000X0.250000X-0.225000X0.250000X-0.225000X-0.250000X0.225000X-0.250000X0*%
%ADD23RoundRect,0.250000X0.475000X-0.250000X0.475000X0.250000X-0.475000X0.250000X-0.475000X-0.250000X0*%
%ADD24R,2.600000X2.600000*%
%ADD25C,2.600000*%
G04 APERTURE END LIST*
D10*
%TO.C,R3*%
X185420000Y-108395000D03*
X185420000Y-110045000D03*
%TD*%
D11*
%TO.C,U9*%
X156077500Y-74610000D03*
X156077500Y-73660000D03*
X156077500Y-72710000D03*
X153802500Y-72710000D03*
X153802500Y-73660000D03*
X153802500Y-74610000D03*
%TD*%
D12*
%TO.C,U12*%
X181114700Y-62749811D03*
X181114700Y-63249937D03*
X181114700Y-63750063D03*
X181114700Y-64250189D03*
X183121300Y-64250189D03*
X183121300Y-63750063D03*
X183121300Y-63249937D03*
X183121300Y-62749811D03*
D13*
X182118000Y-63500000D03*
%TD*%
D14*
%TO.C,R29*%
X185483000Y-66548000D03*
X183833000Y-66548000D03*
%TD*%
D15*
%TO.C,D9*%
X181836000Y-95442000D03*
X181836000Y-94042000D03*
X178336000Y-94042000D03*
X178336000Y-95442000D03*
%TD*%
D16*
%TO.C,TR5*%
X158718000Y-71120000D03*
D17*
X158718000Y-73660000D03*
X158718000Y-76200000D03*
X169958000Y-76200000D03*
X169958000Y-73660000D03*
X169958000Y-71120000D03*
%TD*%
D18*
%TO.C,D17*%
X175136000Y-61214000D03*
X172336000Y-61214000D03*
%TD*%
D19*
%TO.C,C6*%
X175194000Y-100330000D03*
X173294000Y-100330000D03*
%TD*%
D20*
%TO.C,J2*%
X196342000Y-94876000D03*
D21*
X196342000Y-92376000D03*
X196342000Y-89876000D03*
X196342000Y-87376000D03*
X196342000Y-84876000D03*
X196342000Y-82376000D03*
X196342000Y-79876000D03*
%TD*%
D16*
%TO.C,TR2*%
X158718000Y-98552000D03*
D17*
X158718000Y-101092000D03*
X158718000Y-103632000D03*
X169958000Y-103632000D03*
X169958000Y-101092000D03*
X169958000Y-98552000D03*
%TD*%
D11*
%TO.C,U7*%
X156077500Y-83754000D03*
X156077500Y-82804000D03*
X156077500Y-81854000D03*
X153802500Y-81854000D03*
X153802500Y-82804000D03*
X153802500Y-83754000D03*
%TD*%
D18*
%TO.C,D1*%
X175136000Y-113538000D03*
X172336000Y-113538000D03*
%TD*%
D19*
%TO.C,C2*%
X175194000Y-109474000D03*
X173294000Y-109474000D03*
%TD*%
D18*
%TO.C,D11*%
X175136000Y-79502000D03*
X172336000Y-79502000D03*
%TD*%
D10*
%TO.C,R7*%
X179070000Y-99251000D03*
X179070000Y-100901000D03*
%TD*%
D22*
%TO.C,C15*%
X175019000Y-83820000D03*
X173469000Y-83820000D03*
%TD*%
%TO.C,C4*%
X182893000Y-106680000D03*
X181343000Y-106680000D03*
%TD*%
D10*
%TO.C,R13*%
X185420000Y-90107000D03*
X185420000Y-91757000D03*
%TD*%
D12*
%TO.C,U8*%
X181114700Y-81037811D03*
X181114700Y-81537937D03*
X181114700Y-82038063D03*
X181114700Y-82538189D03*
X183121300Y-82538189D03*
X183121300Y-82038063D03*
X183121300Y-81537937D03*
X183121300Y-81037811D03*
D13*
X182118000Y-81788000D03*
%TD*%
D23*
%TO.C,C9*%
X151638000Y-92898000D03*
X151638000Y-90998000D03*
%TD*%
D16*
%TO.C,TR6*%
X158718000Y-61976000D03*
D17*
X158718000Y-64516000D03*
X158718000Y-67056000D03*
X169958000Y-67056000D03*
X169958000Y-64516000D03*
X169958000Y-61976000D03*
%TD*%
D22*
%TO.C,C12*%
X182893000Y-88392000D03*
X181343000Y-88392000D03*
%TD*%
D23*
%TO.C,C13*%
X151638000Y-83754000D03*
X151638000Y-81854000D03*
%TD*%
D14*
%TO.C,R25*%
X185483000Y-77216000D03*
X183833000Y-77216000D03*
%TD*%
D18*
%TO.C,D8*%
X175136000Y-88646000D03*
X172336000Y-88646000D03*
%TD*%
D15*
%TO.C,D12*%
X181836000Y-86298000D03*
X181836000Y-84898000D03*
X178336000Y-84898000D03*
X178336000Y-86298000D03*
%TD*%
D19*
%TO.C,C22*%
X175194000Y-63754000D03*
X173294000Y-63754000D03*
%TD*%
D15*
%TO.C,D6*%
X181836000Y-104586000D03*
X181836000Y-103186000D03*
X178336000Y-103186000D03*
X178336000Y-104586000D03*
%TD*%
D11*
%TO.C,U1*%
X156077500Y-111186000D03*
X156077500Y-110236000D03*
X156077500Y-109286000D03*
X153802500Y-109286000D03*
X153802500Y-110236000D03*
X153802500Y-111186000D03*
%TD*%
%TO.C,U11*%
X156077500Y-65466000D03*
X156077500Y-64516000D03*
X156077500Y-63566000D03*
X153802500Y-63566000D03*
X153802500Y-64516000D03*
X153802500Y-65466000D03*
%TD*%
D16*
%TO.C,TR3*%
X158718000Y-89408000D03*
D17*
X158718000Y-91948000D03*
X158718000Y-94488000D03*
X169958000Y-94488000D03*
X169958000Y-91948000D03*
X169958000Y-89408000D03*
%TD*%
D23*
%TO.C,C1*%
X151638000Y-111186000D03*
X151638000Y-109286000D03*
%TD*%
D14*
%TO.C,R9*%
X185483000Y-103124000D03*
X183833000Y-103124000D03*
%TD*%
D22*
%TO.C,C24*%
X182893000Y-60960000D03*
X181343000Y-60960000D03*
%TD*%
D18*
%TO.C,D14*%
X175136000Y-70358000D03*
X172336000Y-70358000D03*
%TD*%
D12*
%TO.C,U4*%
X181114700Y-99325811D03*
X181114700Y-99825937D03*
X181114700Y-100326063D03*
X181114700Y-100826189D03*
X183121300Y-100826189D03*
X183121300Y-100326063D03*
X183121300Y-99825937D03*
X183121300Y-99325811D03*
D13*
X182118000Y-100076000D03*
%TD*%
D19*
%TO.C,C14*%
X175194000Y-82042000D03*
X173294000Y-82042000D03*
%TD*%
D24*
%TO.C,J1*%
X147574000Y-87376000D03*
D25*
X141574000Y-87376000D03*
X144574000Y-92076000D03*
%TD*%
D10*
%TO.C,R8*%
X185420000Y-99251000D03*
X185420000Y-100901000D03*
%TD*%
D18*
%TO.C,D4*%
X175136000Y-104394000D03*
X172336000Y-104394000D03*
%TD*%
D10*
%TO.C,R16*%
X177546000Y-80963000D03*
X177546000Y-82613000D03*
%TD*%
D15*
%TO.C,D15*%
X181836000Y-77154000D03*
X181836000Y-75754000D03*
X178336000Y-75754000D03*
X178336000Y-77154000D03*
%TD*%
D10*
%TO.C,R12*%
X179070000Y-90107000D03*
X179070000Y-91757000D03*
%TD*%
%TO.C,R2*%
X179070000Y-108395000D03*
X179070000Y-110045000D03*
%TD*%
D18*
%TO.C,D2*%
X175136000Y-106934000D03*
X172336000Y-106934000D03*
%TD*%
D14*
%TO.C,R5*%
X185483000Y-113792000D03*
X183833000Y-113792000D03*
%TD*%
D23*
%TO.C,C17*%
X151638000Y-74610000D03*
X151638000Y-72710000D03*
%TD*%
D22*
%TO.C,C19*%
X175019000Y-74676000D03*
X173469000Y-74676000D03*
%TD*%
D11*
%TO.C,U5*%
X156077500Y-92898000D03*
X156077500Y-91948000D03*
X156077500Y-90998000D03*
X153802500Y-90998000D03*
X153802500Y-91948000D03*
X153802500Y-92898000D03*
%TD*%
D10*
%TO.C,R21*%
X177546000Y-71819000D03*
X177546000Y-73469000D03*
%TD*%
D14*
%TO.C,R4*%
X185483000Y-112268000D03*
X183833000Y-112268000D03*
%TD*%
D18*
%TO.C,D10*%
X175136000Y-86106000D03*
X172336000Y-86106000D03*
%TD*%
D10*
%TO.C,R1*%
X177546000Y-108395000D03*
X177546000Y-110045000D03*
%TD*%
D14*
%TO.C,R24*%
X185483000Y-75692000D03*
X183833000Y-75692000D03*
%TD*%
D10*
%TO.C,R18*%
X185420000Y-80963000D03*
X185420000Y-82613000D03*
%TD*%
D23*
%TO.C,C21*%
X151638000Y-65466000D03*
X151638000Y-63566000D03*
%TD*%
D14*
%TO.C,R10*%
X185483000Y-104648000D03*
X183833000Y-104648000D03*
%TD*%
D22*
%TO.C,C23*%
X175019000Y-65532000D03*
X173469000Y-65532000D03*
%TD*%
D12*
%TO.C,U10*%
X181114700Y-71893811D03*
X181114700Y-72393937D03*
X181114700Y-72894063D03*
X181114700Y-73394189D03*
X183121300Y-73394189D03*
X183121300Y-72894063D03*
X183121300Y-72393937D03*
X183121300Y-71893811D03*
D13*
X182118000Y-72644000D03*
%TD*%
D14*
%TO.C,R15*%
X185483000Y-95504000D03*
X183833000Y-95504000D03*
%TD*%
D22*
%TO.C,C7*%
X175019000Y-102108000D03*
X173469000Y-102108000D03*
%TD*%
%TO.C,C8*%
X182893000Y-97536000D03*
X181343000Y-97536000D03*
%TD*%
D11*
%TO.C,U3*%
X156077500Y-102042000D03*
X156077500Y-101092000D03*
X156077500Y-100142000D03*
X153802500Y-100142000D03*
X153802500Y-101092000D03*
X153802500Y-102042000D03*
%TD*%
D18*
%TO.C,D13*%
X175136000Y-76962000D03*
X172336000Y-76962000D03*
%TD*%
D22*
%TO.C,C11*%
X175019000Y-92964000D03*
X173469000Y-92964000D03*
%TD*%
D10*
%TO.C,R28*%
X185420000Y-62675000D03*
X185420000Y-64325000D03*
%TD*%
D22*
%TO.C,C3*%
X175019000Y-111252000D03*
X173469000Y-111252000D03*
%TD*%
%TO.C,C16*%
X182893000Y-79248000D03*
X181343000Y-79248000D03*
%TD*%
D10*
%TO.C,R26*%
X177546000Y-62675000D03*
X177546000Y-64325000D03*
%TD*%
%TO.C,R22*%
X179070000Y-71819000D03*
X179070000Y-73469000D03*
%TD*%
%TO.C,R17*%
X179070000Y-80963000D03*
X179070000Y-82613000D03*
%TD*%
D19*
%TO.C,C18*%
X175194000Y-72898000D03*
X173294000Y-72898000D03*
%TD*%
D14*
%TO.C,R30*%
X185483000Y-68072000D03*
X183833000Y-68072000D03*
%TD*%
D10*
%TO.C,R23*%
X185420000Y-71819000D03*
X185420000Y-73469000D03*
%TD*%
D15*
%TO.C,D18*%
X181836000Y-68010000D03*
X181836000Y-66610000D03*
X178336000Y-66610000D03*
X178336000Y-68010000D03*
%TD*%
D18*
%TO.C,D7*%
X175136000Y-95250000D03*
X172336000Y-95250000D03*
%TD*%
D23*
%TO.C,C5*%
X151638000Y-102042000D03*
X151638000Y-100142000D03*
%TD*%
D14*
%TO.C,R14*%
X185483000Y-93980000D03*
X183833000Y-93980000D03*
%TD*%
D16*
%TO.C,TR4*%
X158718000Y-80264000D03*
D17*
X158718000Y-82804000D03*
X158718000Y-85344000D03*
X169958000Y-85344000D03*
X169958000Y-82804000D03*
X169958000Y-80264000D03*
%TD*%
D18*
%TO.C,D16*%
X175136000Y-67818000D03*
X172336000Y-67818000D03*
%TD*%
D19*
%TO.C,C10*%
X175194000Y-91186000D03*
X173294000Y-91186000D03*
%TD*%
D18*
%TO.C,D5*%
X175136000Y-97790000D03*
X172336000Y-97790000D03*
%TD*%
D14*
%TO.C,R20*%
X185483000Y-86360000D03*
X183833000Y-86360000D03*
%TD*%
D12*
%TO.C,U6*%
X181114700Y-90181811D03*
X181114700Y-90681937D03*
X181114700Y-91182063D03*
X181114700Y-91682189D03*
X183121300Y-91682189D03*
X183121300Y-91182063D03*
X183121300Y-90681937D03*
X183121300Y-90181811D03*
D13*
X182118000Y-90932000D03*
%TD*%
D15*
%TO.C,D3*%
X181836000Y-113730000D03*
X181836000Y-112330000D03*
X178336000Y-112330000D03*
X178336000Y-113730000D03*
%TD*%
D16*
%TO.C,TR1*%
X158718000Y-107696000D03*
D17*
X158718000Y-110236000D03*
X158718000Y-112776000D03*
X169958000Y-112776000D03*
X169958000Y-110236000D03*
X169958000Y-107696000D03*
%TD*%
D12*
%TO.C,U2*%
X181114700Y-108469811D03*
X181114700Y-108969937D03*
X181114700Y-109470063D03*
X181114700Y-109970189D03*
X183121300Y-109970189D03*
X183121300Y-109470063D03*
X183121300Y-108969937D03*
X183121300Y-108469811D03*
D13*
X182118000Y-109220000D03*
%TD*%
D10*
%TO.C,R27*%
X179070000Y-62675000D03*
X179070000Y-64325000D03*
%TD*%
%TO.C,R11*%
X177546000Y-90107000D03*
X177546000Y-91757000D03*
%TD*%
D22*
%TO.C,C20*%
X182893000Y-70104000D03*
X181343000Y-70104000D03*
%TD*%
D14*
%TO.C,R19*%
X185483000Y-84836000D03*
X183833000Y-84836000D03*
%TD*%
D10*
%TO.C,R6*%
X177546000Y-99251000D03*
X177546000Y-100901000D03*
%TD*%
M02*
