%TF.GenerationSoftware,KiCad,Pcbnew,7.0.11+dfsg-1build4*%
%TF.CreationDate,2024-08-12T23:44:42-07:00*%
%TF.ProjectId,6s_750mA,36735f37-3530-46d4-912e-6b696361645f,rev?*%
%TF.SameCoordinates,Original*%
%TF.FileFunction,Soldermask,Bot*%
%TF.FilePolarity,Negative*%
%FSLAX46Y46*%
G04 Gerber Fmt 4.6, Leading zero omitted, Abs format (unit mm)*
G04 Created by KiCad (PCBNEW 7.0.11+dfsg-1build4) date 2024-08-12 23:44:42*
%MOMM*%
%LPD*%
G01*
G04 APERTURE LIST*
G04 Aperture macros list*
%AMRoundRect*
0 Rectangle with rounded corners*
0 $1 Rounding radius*
0 $2 $3 $4 $5 $6 $7 $8 $9 X,Y pos of 4 corners*
0 Add a 4 corners polygon primitive as box body*
4,1,4,$2,$3,$4,$5,$6,$7,$8,$9,$2,$3,0*
0 Add four circle primitives for the rounded corners*
1,1,$1+$1,$2,$3*
1,1,$1+$1,$4,$5*
1,1,$1+$1,$6,$7*
1,1,$1+$1,$8,$9*
0 Add four rect primitives between the rounded corners*
20,1,$1+$1,$2,$3,$4,$5,0*
20,1,$1+$1,$4,$5,$6,$7,0*
20,1,$1+$1,$6,$7,$8,$9,0*
20,1,$1+$1,$8,$9,$2,$3,0*%
G04 Aperture macros list end*
%ADD10C,0.320000*%
%ADD11O,1.950000X1.700000*%
%ADD12RoundRect,0.250000X0.725000X-0.600000X0.725000X0.600000X-0.725000X0.600000X-0.725000X-0.600000X0*%
%ADD13C,2.600000*%
%ADD14R,2.600000X2.600000*%
G04 APERTURE END LIST*
D10*
%TO.C,U2*%
X185719001Y-110280999D03*
X185719001Y-111460996D03*
X186309000Y-110870997D03*
X186898999Y-110280999D03*
X186898999Y-111460996D03*
%TD*%
%TO.C,U4*%
X185719001Y-101136999D03*
X185719001Y-102316996D03*
X186309000Y-101726997D03*
X186898999Y-101136999D03*
X186898999Y-102316996D03*
%TD*%
%TO.C,U6*%
X185719001Y-91992999D03*
X185719001Y-93172996D03*
X186309000Y-92582997D03*
X186898999Y-91992999D03*
X186898999Y-93172996D03*
%TD*%
%TO.C,U8*%
X185719001Y-82848999D03*
X185719001Y-84028996D03*
X186309000Y-83438997D03*
X186898999Y-82848999D03*
X186898999Y-84028996D03*
%TD*%
%TO.C,U10*%
X185719001Y-73704999D03*
X185719001Y-74884996D03*
X186309000Y-74294997D03*
X186898999Y-73704999D03*
X186898999Y-74884996D03*
%TD*%
%TO.C,U12*%
X185719001Y-64560999D03*
X185719001Y-65740996D03*
X186309000Y-65150997D03*
X186898999Y-64560999D03*
X186898999Y-65740996D03*
%TD*%
D11*
%TO.C,J2*%
X199136000Y-79876000D03*
X199136000Y-82376000D03*
X199136000Y-84876000D03*
X199136000Y-87376000D03*
X199136000Y-89876000D03*
X199136000Y-92376000D03*
D12*
X199136000Y-94876000D03*
%TD*%
D13*
%TO.C,J1*%
X144574000Y-92076000D03*
X141574000Y-87376000D03*
D14*
X147574000Y-87376000D03*
%TD*%
M02*
