%TF.GenerationSoftware,KiCad,Pcbnew,7.0.11+dfsg-1build4*%
%TF.CreationDate,2024-08-12T23:44:41-07:00*%
%TF.ProjectId,6s_750mA,36735f37-3530-46d4-912e-6b696361645f,rev?*%
%TF.SameCoordinates,Original*%
%TF.FileFunction,Paste,Top*%
%TF.FilePolarity,Positive*%
%FSLAX46Y46*%
G04 Gerber Fmt 4.6, Leading zero omitted, Abs format (unit mm)*
G04 Created by KiCad (PCBNEW 7.0.11+dfsg-1build4) date 2024-08-12 23:44:41*
%MOMM*%
%LPD*%
G01*
G04 APERTURE LIST*
G04 Aperture macros list*
%AMRoundRect*
0 Rectangle with rounded corners*
0 $1 Rounding radius*
0 $2 $3 $4 $5 $6 $7 $8 $9 X,Y pos of 4 corners*
0 Add a 4 corners polygon primitive as box body*
4,1,4,$2,$3,$4,$5,$6,$7,$8,$9,$2,$3,0*
0 Add four circle primitives for the rounded corners*
1,1,$1+$1,$2,$3*
1,1,$1+$1,$4,$5*
1,1,$1+$1,$6,$7*
1,1,$1+$1,$8,$9*
0 Add four rect primitives between the rounded corners*
20,1,$1+$1,$2,$3,$4,$5,0*
20,1,$1+$1,$4,$5,$6,$7,0*
20,1,$1+$1,$6,$7,$8,$9,0*
20,1,$1+$1,$8,$9,$2,$3,0*%
G04 Aperture macros list end*
%ADD10R,0.599999X0.240000*%
%ADD11R,0.240000X0.599999*%
%ADD12R,0.900000X1.500000*%
%ADD13RoundRect,0.225000X0.225000X0.250000X-0.225000X0.250000X-0.225000X-0.250000X0.225000X-0.250000X0*%
%ADD14RoundRect,0.150000X0.512500X0.150000X-0.512500X0.150000X-0.512500X-0.150000X0.512500X-0.150000X0*%
%ADD15RoundRect,0.200000X0.200000X0.275000X-0.200000X0.275000X-0.200000X-0.275000X0.200000X-0.275000X0*%
%ADD16RoundRect,0.054500X-0.860500X-0.490500X0.860500X-0.490500X0.860500X0.490500X-0.860500X0.490500X0*%
%ADD17R,1.830000X1.090000*%
%ADD18RoundRect,0.250000X0.300000X0.300000X-0.300000X0.300000X-0.300000X-0.300000X0.300000X-0.300000X0*%
%ADD19RoundRect,0.250000X0.250000X0.475000X-0.250000X0.475000X-0.250000X-0.475000X0.250000X-0.475000X0*%
%ADD20RoundRect,0.250000X-0.325000X-0.450000X0.325000X-0.450000X0.325000X0.450000X-0.325000X0.450000X0*%
%ADD21RoundRect,0.200000X-0.200000X-0.275000X0.200000X-0.275000X0.200000X0.275000X-0.200000X0.275000X0*%
%ADD22RoundRect,0.225000X-0.250000X0.225000X-0.250000X-0.225000X0.250000X-0.225000X0.250000X0.225000X0*%
%ADD23RoundRect,0.225000X0.250000X-0.225000X0.250000X0.225000X-0.250000X0.225000X-0.250000X-0.225000X0*%
%ADD24RoundRect,0.250000X0.475000X-0.250000X0.475000X0.250000X-0.475000X0.250000X-0.475000X-0.250000X0*%
G04 APERTURE END LIST*
%TO.C,U2*%
G36*
X187046570Y-110096892D02*
G01*
X187055295Y-110099539D01*
X187063334Y-110103834D01*
X187070380Y-110109617D01*
X187076164Y-110116663D01*
X187080459Y-110124702D01*
X187083106Y-110133427D01*
X187084000Y-110142498D01*
X187084000Y-111599497D01*
X187083106Y-111608568D01*
X187080459Y-111617293D01*
X187076164Y-111625332D01*
X187070380Y-111632378D01*
X187063334Y-111638161D01*
X187055295Y-111642456D01*
X187046570Y-111645103D01*
X187037500Y-111645997D01*
X185580500Y-111645997D01*
X185571430Y-111645103D01*
X185562705Y-111642456D01*
X185554666Y-111638161D01*
X185547620Y-111632378D01*
X185541836Y-111625332D01*
X185537541Y-111617293D01*
X185534894Y-111608568D01*
X185534000Y-111599497D01*
X185534000Y-110142498D01*
X185534894Y-110133427D01*
X185537541Y-110124702D01*
X185541836Y-110116663D01*
X185547620Y-110109617D01*
X185554666Y-110103834D01*
X185562705Y-110099539D01*
X185571430Y-110096892D01*
X185580500Y-110095998D01*
X187037500Y-110095998D01*
X187046570Y-110096892D01*
G37*
%TO.C,U4*%
G36*
X187046570Y-100952892D02*
G01*
X187055295Y-100955539D01*
X187063334Y-100959834D01*
X187070380Y-100965617D01*
X187076164Y-100972663D01*
X187080459Y-100980702D01*
X187083106Y-100989427D01*
X187084000Y-100998498D01*
X187084000Y-102455497D01*
X187083106Y-102464568D01*
X187080459Y-102473293D01*
X187076164Y-102481332D01*
X187070380Y-102488378D01*
X187063334Y-102494161D01*
X187055295Y-102498456D01*
X187046570Y-102501103D01*
X187037500Y-102501997D01*
X185580500Y-102501997D01*
X185571430Y-102501103D01*
X185562705Y-102498456D01*
X185554666Y-102494161D01*
X185547620Y-102488378D01*
X185541836Y-102481332D01*
X185537541Y-102473293D01*
X185534894Y-102464568D01*
X185534000Y-102455497D01*
X185534000Y-100998498D01*
X185534894Y-100989427D01*
X185537541Y-100980702D01*
X185541836Y-100972663D01*
X185547620Y-100965617D01*
X185554666Y-100959834D01*
X185562705Y-100955539D01*
X185571430Y-100952892D01*
X185580500Y-100951998D01*
X187037500Y-100951998D01*
X187046570Y-100952892D01*
G37*
%TO.C,U6*%
G36*
X187046570Y-91808892D02*
G01*
X187055295Y-91811539D01*
X187063334Y-91815834D01*
X187070380Y-91821617D01*
X187076164Y-91828663D01*
X187080459Y-91836702D01*
X187083106Y-91845427D01*
X187084000Y-91854498D01*
X187084000Y-93311497D01*
X187083106Y-93320568D01*
X187080459Y-93329293D01*
X187076164Y-93337332D01*
X187070380Y-93344378D01*
X187063334Y-93350161D01*
X187055295Y-93354456D01*
X187046570Y-93357103D01*
X187037500Y-93357997D01*
X185580500Y-93357997D01*
X185571430Y-93357103D01*
X185562705Y-93354456D01*
X185554666Y-93350161D01*
X185547620Y-93344378D01*
X185541836Y-93337332D01*
X185537541Y-93329293D01*
X185534894Y-93320568D01*
X185534000Y-93311497D01*
X185534000Y-91854498D01*
X185534894Y-91845427D01*
X185537541Y-91836702D01*
X185541836Y-91828663D01*
X185547620Y-91821617D01*
X185554666Y-91815834D01*
X185562705Y-91811539D01*
X185571430Y-91808892D01*
X185580500Y-91807998D01*
X187037500Y-91807998D01*
X187046570Y-91808892D01*
G37*
%TO.C,U8*%
G36*
X187046570Y-82664892D02*
G01*
X187055295Y-82667539D01*
X187063334Y-82671834D01*
X187070380Y-82677617D01*
X187076164Y-82684663D01*
X187080459Y-82692702D01*
X187083106Y-82701427D01*
X187084000Y-82710498D01*
X187084000Y-84167497D01*
X187083106Y-84176568D01*
X187080459Y-84185293D01*
X187076164Y-84193332D01*
X187070380Y-84200378D01*
X187063334Y-84206161D01*
X187055295Y-84210456D01*
X187046570Y-84213103D01*
X187037500Y-84213997D01*
X185580500Y-84213997D01*
X185571430Y-84213103D01*
X185562705Y-84210456D01*
X185554666Y-84206161D01*
X185547620Y-84200378D01*
X185541836Y-84193332D01*
X185537541Y-84185293D01*
X185534894Y-84176568D01*
X185534000Y-84167497D01*
X185534000Y-82710498D01*
X185534894Y-82701427D01*
X185537541Y-82692702D01*
X185541836Y-82684663D01*
X185547620Y-82677617D01*
X185554666Y-82671834D01*
X185562705Y-82667539D01*
X185571430Y-82664892D01*
X185580500Y-82663998D01*
X187037500Y-82663998D01*
X187046570Y-82664892D01*
G37*
%TO.C,U10*%
G36*
X187046570Y-73520892D02*
G01*
X187055295Y-73523539D01*
X187063334Y-73527834D01*
X187070380Y-73533617D01*
X187076164Y-73540663D01*
X187080459Y-73548702D01*
X187083106Y-73557427D01*
X187084000Y-73566498D01*
X187084000Y-75023497D01*
X187083106Y-75032568D01*
X187080459Y-75041293D01*
X187076164Y-75049332D01*
X187070380Y-75056378D01*
X187063334Y-75062161D01*
X187055295Y-75066456D01*
X187046570Y-75069103D01*
X187037500Y-75069997D01*
X185580500Y-75069997D01*
X185571430Y-75069103D01*
X185562705Y-75066456D01*
X185554666Y-75062161D01*
X185547620Y-75056378D01*
X185541836Y-75049332D01*
X185537541Y-75041293D01*
X185534894Y-75032568D01*
X185534000Y-75023497D01*
X185534000Y-73566498D01*
X185534894Y-73557427D01*
X185537541Y-73548702D01*
X185541836Y-73540663D01*
X185547620Y-73533617D01*
X185554666Y-73527834D01*
X185562705Y-73523539D01*
X185571430Y-73520892D01*
X185580500Y-73519998D01*
X187037500Y-73519998D01*
X187046570Y-73520892D01*
G37*
%TO.C,U12*%
G36*
X187046570Y-64376892D02*
G01*
X187055295Y-64379539D01*
X187063334Y-64383834D01*
X187070380Y-64389617D01*
X187076164Y-64396663D01*
X187080459Y-64404702D01*
X187083106Y-64413427D01*
X187084000Y-64422498D01*
X187084000Y-65879497D01*
X187083106Y-65888568D01*
X187080459Y-65897293D01*
X187076164Y-65905332D01*
X187070380Y-65912378D01*
X187063334Y-65918161D01*
X187055295Y-65922456D01*
X187046570Y-65925103D01*
X187037500Y-65925997D01*
X185580500Y-65925997D01*
X185571430Y-65925103D01*
X185562705Y-65922456D01*
X185554666Y-65918161D01*
X185547620Y-65912378D01*
X185541836Y-65905332D01*
X185537541Y-65897293D01*
X185534894Y-65888568D01*
X185534000Y-65879497D01*
X185534000Y-64422498D01*
X185534894Y-64413427D01*
X185537541Y-64404702D01*
X185541836Y-64396663D01*
X185547620Y-64389617D01*
X185554666Y-64383834D01*
X185562705Y-64379539D01*
X185571430Y-64376892D01*
X185580500Y-64375998D01*
X187037500Y-64375998D01*
X187046570Y-64376892D01*
G37*
%TD*%
D10*
%TO.C,U2*%
X184909000Y-110120996D03*
X184909000Y-110620995D03*
X184909000Y-111120997D03*
X184909000Y-111620996D03*
D11*
X185559002Y-112270997D03*
X186059000Y-112270997D03*
X186559002Y-112270997D03*
X187059001Y-112270997D03*
D10*
X187709000Y-111620996D03*
X187709000Y-111120997D03*
X187709000Y-110620995D03*
X187709000Y-110120996D03*
D11*
X187059001Y-109470998D03*
X186559002Y-109470998D03*
X186059000Y-109470998D03*
X185559002Y-109470998D03*
%TD*%
D10*
%TO.C,U4*%
X184909000Y-100976996D03*
X184909000Y-101476995D03*
X184909000Y-101976997D03*
X184909000Y-102476996D03*
D11*
X185559002Y-103126997D03*
X186059000Y-103126997D03*
X186559002Y-103126997D03*
X187059001Y-103126997D03*
D10*
X187709000Y-102476996D03*
X187709000Y-101976997D03*
X187709000Y-101476995D03*
X187709000Y-100976996D03*
D11*
X187059001Y-100326998D03*
X186559002Y-100326998D03*
X186059000Y-100326998D03*
X185559002Y-100326998D03*
%TD*%
D10*
%TO.C,U6*%
X184909000Y-91832996D03*
X184909000Y-92332995D03*
X184909000Y-92832997D03*
X184909000Y-93332996D03*
D11*
X185559002Y-93982997D03*
X186059000Y-93982997D03*
X186559002Y-93982997D03*
X187059001Y-93982997D03*
D10*
X187709000Y-93332996D03*
X187709000Y-92832997D03*
X187709000Y-92332995D03*
X187709000Y-91832996D03*
D11*
X187059001Y-91182998D03*
X186559002Y-91182998D03*
X186059000Y-91182998D03*
X185559002Y-91182998D03*
%TD*%
D10*
%TO.C,U8*%
X184909000Y-82688996D03*
X184909000Y-83188995D03*
X184909000Y-83688997D03*
X184909000Y-84188996D03*
D11*
X185559002Y-84838997D03*
X186059000Y-84838997D03*
X186559002Y-84838997D03*
X187059001Y-84838997D03*
D10*
X187709000Y-84188996D03*
X187709000Y-83688997D03*
X187709000Y-83188995D03*
X187709000Y-82688996D03*
D11*
X187059001Y-82038998D03*
X186559002Y-82038998D03*
X186059000Y-82038998D03*
X185559002Y-82038998D03*
%TD*%
D10*
%TO.C,U10*%
X184909000Y-73544996D03*
X184909000Y-74044995D03*
X184909000Y-74544997D03*
X184909000Y-75044996D03*
D11*
X185559002Y-75694997D03*
X186059000Y-75694997D03*
X186559002Y-75694997D03*
X187059001Y-75694997D03*
D10*
X187709000Y-75044996D03*
X187709000Y-74544997D03*
X187709000Y-74044995D03*
X187709000Y-73544996D03*
D11*
X187059001Y-72894998D03*
X186559002Y-72894998D03*
X186059000Y-72894998D03*
X185559002Y-72894998D03*
%TD*%
D10*
%TO.C,U12*%
X184909000Y-64400996D03*
X184909000Y-64900995D03*
X184909000Y-65400997D03*
X184909000Y-65900996D03*
D11*
X185559002Y-66550997D03*
X186059000Y-66550997D03*
X186559002Y-66550997D03*
X187059001Y-66550997D03*
D10*
X187709000Y-65900996D03*
X187709000Y-65400997D03*
X187709000Y-64900995D03*
X187709000Y-64400996D03*
D11*
X187059001Y-63750998D03*
X186559002Y-63750998D03*
X186059000Y-63750998D03*
X185559002Y-63750998D03*
%TD*%
D12*
%TO.C,D18*%
X178500000Y-66066000D03*
X177100000Y-66066000D03*
X178500000Y-62966000D03*
X177100000Y-62966000D03*
%TD*%
%TO.C,D15*%
X178500000Y-75210000D03*
X177100000Y-75210000D03*
X178500000Y-72110000D03*
X177100000Y-72110000D03*
%TD*%
%TO.C,D12*%
X178500000Y-84354000D03*
X177100000Y-84354000D03*
X178500000Y-81254000D03*
X177100000Y-81254000D03*
%TD*%
%TO.C,D9*%
X178500000Y-93498000D03*
X177100000Y-93498000D03*
X178500000Y-90398000D03*
X177100000Y-90398000D03*
%TD*%
%TO.C,D6*%
X178500000Y-102642000D03*
X177100000Y-102642000D03*
X178500000Y-99542000D03*
X177100000Y-99542000D03*
%TD*%
%TO.C,D3*%
X178500000Y-111786000D03*
X177100000Y-111786000D03*
X178500000Y-108686000D03*
X177100000Y-108686000D03*
%TD*%
D13*
%TO.C,C33*%
X180581000Y-74295000D03*
X182131000Y-74295000D03*
%TD*%
D14*
%TO.C,U9*%
X153802500Y-74610000D03*
X153802500Y-73660000D03*
X153802500Y-72710000D03*
X156077500Y-72710000D03*
X156077500Y-73660000D03*
X156077500Y-74610000D03*
%TD*%
D15*
%TO.C,R26*%
X180531000Y-63627000D03*
X182181000Y-63627000D03*
%TD*%
%TO.C,R10*%
X183960000Y-104521000D03*
X185610000Y-104521000D03*
%TD*%
D16*
%TO.C,TR5*%
X169958000Y-71120000D03*
X169958000Y-73660000D03*
X169958000Y-76200000D03*
X158718000Y-76200000D03*
X158718000Y-73660000D03*
D17*
X158718000Y-71120000D03*
%TD*%
D18*
%TO.C,D17*%
X172336000Y-61214000D03*
X175136000Y-61214000D03*
%TD*%
D19*
%TO.C,C9*%
X173294000Y-100330000D03*
X175194000Y-100330000D03*
%TD*%
D15*
%TO.C,R30*%
X183960000Y-67945000D03*
X185610000Y-67945000D03*
%TD*%
D16*
%TO.C,TR2*%
X169958000Y-98552000D03*
X169958000Y-101092000D03*
X169958000Y-103632000D03*
X158718000Y-103632000D03*
X158718000Y-101092000D03*
D17*
X158718000Y-98552000D03*
%TD*%
D14*
%TO.C,U7*%
X153802500Y-83754000D03*
X153802500Y-82804000D03*
X153802500Y-81854000D03*
X156077500Y-81854000D03*
X156077500Y-82804000D03*
X156077500Y-83754000D03*
%TD*%
D18*
%TO.C,D1*%
X172336000Y-113538000D03*
X175136000Y-113538000D03*
%TD*%
D19*
%TO.C,C2*%
X173294000Y-109474000D03*
X175194000Y-109474000D03*
%TD*%
D18*
%TO.C,D11*%
X172336000Y-79502000D03*
X175136000Y-79502000D03*
%TD*%
D20*
%TO.C,L1*%
X190255000Y-107950000D03*
X188205000Y-107950000D03*
%TD*%
D13*
%TO.C,C12*%
X180581000Y-101727000D03*
X182131000Y-101727000D03*
%TD*%
D21*
%TO.C,R9*%
X188658000Y-104521000D03*
X187008000Y-104521000D03*
%TD*%
D20*
%TO.C,L5*%
X190255000Y-71374000D03*
X188205000Y-71374000D03*
%TD*%
D22*
%TO.C,C20*%
X186055000Y-89929000D03*
X186055000Y-88379000D03*
%TD*%
D13*
%TO.C,C24*%
X173469000Y-83820000D03*
X175019000Y-83820000D03*
%TD*%
%TO.C,C7*%
X188836000Y-110236000D03*
X190386000Y-110236000D03*
%TD*%
D23*
%TO.C,C11*%
X184531000Y-97523000D03*
X184531000Y-99073000D03*
%TD*%
%TO.C,C18*%
X184531000Y-88379000D03*
X184531000Y-89929000D03*
%TD*%
D24*
%TO.C,C15*%
X151638000Y-90998000D03*
X151638000Y-92898000D03*
%TD*%
D22*
%TO.C,C6*%
X186055000Y-108217000D03*
X186055000Y-106667000D03*
%TD*%
D16*
%TO.C,TR6*%
X169958000Y-61976000D03*
X169958000Y-64516000D03*
X169958000Y-67056000D03*
X158718000Y-67056000D03*
X158718000Y-64516000D03*
D17*
X158718000Y-61976000D03*
%TD*%
D13*
%TO.C,C21*%
X188836000Y-91948000D03*
X190386000Y-91948000D03*
%TD*%
D24*
%TO.C,C22*%
X151638000Y-81854000D03*
X151638000Y-83754000D03*
%TD*%
D13*
%TO.C,C19*%
X180581000Y-92583000D03*
X182131000Y-92583000D03*
%TD*%
D15*
%TO.C,R22*%
X180531000Y-71247000D03*
X182181000Y-71247000D03*
%TD*%
D18*
%TO.C,D8*%
X172336000Y-88646000D03*
X175136000Y-88646000D03*
%TD*%
D19*
%TO.C,C37*%
X173294000Y-63754000D03*
X175194000Y-63754000D03*
%TD*%
D14*
%TO.C,U1*%
X153802500Y-111186000D03*
X153802500Y-110236000D03*
X153802500Y-109286000D03*
X156077500Y-109286000D03*
X156077500Y-110236000D03*
X156077500Y-111186000D03*
%TD*%
%TO.C,U11*%
X153802500Y-65466000D03*
X153802500Y-64516000D03*
X153802500Y-63566000D03*
X156077500Y-63566000D03*
X156077500Y-64516000D03*
X156077500Y-65466000D03*
%TD*%
D16*
%TO.C,TR3*%
X169958000Y-89408000D03*
X169958000Y-91948000D03*
X169958000Y-94488000D03*
X158718000Y-94488000D03*
X158718000Y-91948000D03*
D17*
X158718000Y-89408000D03*
%TD*%
D24*
%TO.C,C1*%
X151638000Y-109286000D03*
X151638000Y-111186000D03*
%TD*%
D15*
%TO.C,R6*%
X180531000Y-100203000D03*
X182181000Y-100203000D03*
%TD*%
%TO.C,R20*%
X183960000Y-86233000D03*
X185610000Y-86233000D03*
%TD*%
D23*
%TO.C,C39*%
X184531000Y-60947000D03*
X184531000Y-62497000D03*
%TD*%
D13*
%TO.C,C42*%
X188836000Y-64516000D03*
X190386000Y-64516000D03*
%TD*%
D18*
%TO.C,D14*%
X172336000Y-70358000D03*
X175136000Y-70358000D03*
%TD*%
D19*
%TO.C,C23*%
X173294000Y-82042000D03*
X175194000Y-82042000D03*
%TD*%
D18*
%TO.C,D4*%
X172336000Y-104394000D03*
X175136000Y-104394000D03*
%TD*%
D15*
%TO.C,R18*%
X180531000Y-84963000D03*
X182181000Y-84963000D03*
%TD*%
D21*
%TO.C,R14*%
X188658000Y-95377000D03*
X187008000Y-95377000D03*
%TD*%
D20*
%TO.C,L6*%
X190255000Y-62230000D03*
X188205000Y-62230000D03*
%TD*%
D21*
%TO.C,R4*%
X188658000Y-113665000D03*
X187008000Y-113665000D03*
%TD*%
D18*
%TO.C,D2*%
X172336000Y-106934000D03*
X175136000Y-106934000D03*
%TD*%
D13*
%TO.C,C5*%
X180581000Y-110871000D03*
X182131000Y-110871000D03*
%TD*%
D15*
%TO.C,R25*%
X183960000Y-77089000D03*
X185610000Y-77089000D03*
%TD*%
D13*
%TO.C,C26*%
X180581000Y-83439000D03*
X182131000Y-83439000D03*
%TD*%
D15*
%TO.C,R2*%
X180531000Y-107823000D03*
X182181000Y-107823000D03*
%TD*%
D22*
%TO.C,C13*%
X186055000Y-99073000D03*
X186055000Y-97523000D03*
%TD*%
D24*
%TO.C,C29*%
X151638000Y-72710000D03*
X151638000Y-74610000D03*
%TD*%
D13*
%TO.C,C31*%
X173469000Y-74676000D03*
X175019000Y-74676000D03*
%TD*%
D14*
%TO.C,U5*%
X153802500Y-92898000D03*
X153802500Y-91948000D03*
X153802500Y-90998000D03*
X156077500Y-90998000D03*
X156077500Y-91948000D03*
X156077500Y-92898000D03*
%TD*%
D15*
%TO.C,R23*%
X180531000Y-75819000D03*
X182181000Y-75819000D03*
%TD*%
%TO.C,R1*%
X180531000Y-109347000D03*
X182181000Y-109347000D03*
%TD*%
D18*
%TO.C,D10*%
X172336000Y-86106000D03*
X175136000Y-86106000D03*
%TD*%
D15*
%TO.C,R3*%
X180531000Y-112395000D03*
X182181000Y-112395000D03*
%TD*%
%TO.C,R21*%
X180531000Y-72771000D03*
X182181000Y-72771000D03*
%TD*%
D23*
%TO.C,C32*%
X184531000Y-70091000D03*
X184531000Y-71641000D03*
%TD*%
D24*
%TO.C,C36*%
X151638000Y-63566000D03*
X151638000Y-65466000D03*
%TD*%
D15*
%TO.C,R7*%
X180531000Y-98679000D03*
X182181000Y-98679000D03*
%TD*%
D22*
%TO.C,C41*%
X186055000Y-62497000D03*
X186055000Y-60947000D03*
%TD*%
D13*
%TO.C,C38*%
X173469000Y-65532000D03*
X175019000Y-65532000D03*
%TD*%
D15*
%TO.C,R12*%
X180531000Y-89535000D03*
X182181000Y-89535000D03*
%TD*%
D13*
%TO.C,C10*%
X173469000Y-102108000D03*
X175019000Y-102108000D03*
%TD*%
%TO.C,C14*%
X188836000Y-101092000D03*
X190386000Y-101092000D03*
%TD*%
D15*
%TO.C,R15*%
X183960000Y-95377000D03*
X185610000Y-95377000D03*
%TD*%
D14*
%TO.C,U3*%
X153802500Y-102042000D03*
X153802500Y-101092000D03*
X153802500Y-100142000D03*
X156077500Y-100142000D03*
X156077500Y-101092000D03*
X156077500Y-102042000D03*
%TD*%
D18*
%TO.C,D13*%
X172336000Y-76962000D03*
X175136000Y-76962000D03*
%TD*%
D13*
%TO.C,C17*%
X173469000Y-92964000D03*
X175019000Y-92964000D03*
%TD*%
D23*
%TO.C,C25*%
X184531000Y-79235000D03*
X184531000Y-80785000D03*
%TD*%
D13*
%TO.C,C3*%
X173469000Y-111252000D03*
X175019000Y-111252000D03*
%TD*%
%TO.C,C28*%
X188836000Y-82804000D03*
X190386000Y-82804000D03*
%TD*%
D15*
%TO.C,R28*%
X180531000Y-66675000D03*
X182181000Y-66675000D03*
%TD*%
D21*
%TO.C,R24*%
X188658000Y-77089000D03*
X187008000Y-77089000D03*
%TD*%
%TO.C,R19*%
X188658000Y-86233000D03*
X187008000Y-86233000D03*
%TD*%
D19*
%TO.C,C30*%
X173294000Y-72898000D03*
X175194000Y-72898000D03*
%TD*%
D22*
%TO.C,C27*%
X186055000Y-80785000D03*
X186055000Y-79235000D03*
%TD*%
D15*
%TO.C,R27*%
X180531000Y-62103000D03*
X182181000Y-62103000D03*
%TD*%
D20*
%TO.C,L3*%
X190255000Y-89662000D03*
X188205000Y-89662000D03*
%TD*%
D18*
%TO.C,D7*%
X172336000Y-95250000D03*
X175136000Y-95250000D03*
%TD*%
D22*
%TO.C,C34*%
X186055000Y-71641000D03*
X186055000Y-70091000D03*
%TD*%
D20*
%TO.C,L2*%
X190255000Y-98806000D03*
X188205000Y-98806000D03*
%TD*%
D15*
%TO.C,R5*%
X183960000Y-113665000D03*
X185610000Y-113665000D03*
%TD*%
D24*
%TO.C,C8*%
X151638000Y-100142000D03*
X151638000Y-102042000D03*
%TD*%
D15*
%TO.C,R11*%
X180531000Y-91059000D03*
X182181000Y-91059000D03*
%TD*%
D16*
%TO.C,TR4*%
X169958000Y-80264000D03*
X169958000Y-82804000D03*
X169958000Y-85344000D03*
X158718000Y-85344000D03*
X158718000Y-82804000D03*
D17*
X158718000Y-80264000D03*
%TD*%
D18*
%TO.C,D16*%
X172336000Y-67818000D03*
X175136000Y-67818000D03*
%TD*%
D19*
%TO.C,C16*%
X173294000Y-91186000D03*
X175194000Y-91186000D03*
%TD*%
D18*
%TO.C,D5*%
X172336000Y-97790000D03*
X175136000Y-97790000D03*
%TD*%
D20*
%TO.C,L4*%
X190255000Y-80518000D03*
X188205000Y-80518000D03*
%TD*%
D15*
%TO.C,R17*%
X180531000Y-80391000D03*
X182181000Y-80391000D03*
%TD*%
D16*
%TO.C,TR1*%
X169958000Y-107696000D03*
X169958000Y-110236000D03*
X169958000Y-112776000D03*
X158718000Y-112776000D03*
X158718000Y-110236000D03*
D17*
X158718000Y-107696000D03*
%TD*%
D21*
%TO.C,R29*%
X188658000Y-67945000D03*
X187008000Y-67945000D03*
%TD*%
D15*
%TO.C,R13*%
X180531000Y-94107000D03*
X182181000Y-94107000D03*
%TD*%
D13*
%TO.C,C40*%
X180581000Y-65151000D03*
X182131000Y-65151000D03*
%TD*%
%TO.C,C35*%
X188836000Y-73660000D03*
X190386000Y-73660000D03*
%TD*%
D23*
%TO.C,C4*%
X184531000Y-106667000D03*
X184531000Y-108217000D03*
%TD*%
D15*
%TO.C,R16*%
X180531000Y-81915000D03*
X182181000Y-81915000D03*
%TD*%
%TO.C,R8*%
X180531000Y-103251000D03*
X182181000Y-103251000D03*
%TD*%
M02*
