%TF.GenerationSoftware,KiCad,Pcbnew,7.0.11+dfsg-1build4*%
%TF.CreationDate,2024-08-12T23:44:41-07:00*%
%TF.ProjectId,6s_750mA,36735f37-3530-46d4-912e-6b696361645f,rev?*%
%TF.SameCoordinates,Original*%
%TF.FileFunction,Copper,L1,Top*%
%TF.FilePolarity,Positive*%
%FSLAX46Y46*%
G04 Gerber Fmt 4.6, Leading zero omitted, Abs format (unit mm)*
G04 Created by KiCad (PCBNEW 7.0.11+dfsg-1build4) date 2024-08-12 23:44:41*
%MOMM*%
%LPD*%
G01*
G04 APERTURE LIST*
G04 Aperture macros list*
%AMRoundRect*
0 Rectangle with rounded corners*
0 $1 Rounding radius*
0 $2 $3 $4 $5 $6 $7 $8 $9 X,Y pos of 4 corners*
0 Add a 4 corners polygon primitive as box body*
4,1,4,$2,$3,$4,$5,$6,$7,$8,$9,$2,$3,0*
0 Add four circle primitives for the rounded corners*
1,1,$1+$1,$2,$3*
1,1,$1+$1,$4,$5*
1,1,$1+$1,$6,$7*
1,1,$1+$1,$8,$9*
0 Add four rect primitives between the rounded corners*
20,1,$1+$1,$2,$3,$4,$5,0*
20,1,$1+$1,$4,$5,$6,$7,0*
20,1,$1+$1,$6,$7,$8,$9,0*
20,1,$1+$1,$8,$9,$2,$3,0*%
G04 Aperture macros list end*
%TA.AperFunction,SMDPad,CuDef*%
%ADD10R,0.599999X0.240000*%
%TD*%
%TA.AperFunction,SMDPad,CuDef*%
%ADD11R,0.240000X0.599999*%
%TD*%
%TA.AperFunction,ComponentPad*%
%ADD12C,0.500000*%
%TD*%
%TA.AperFunction,SMDPad,CuDef*%
%ADD13R,1.679999X1.679999*%
%TD*%
%TA.AperFunction,SMDPad,CuDef*%
%ADD14R,0.900000X1.500000*%
%TD*%
%TA.AperFunction,SMDPad,CuDef*%
%ADD15RoundRect,0.225000X0.225000X0.250000X-0.225000X0.250000X-0.225000X-0.250000X0.225000X-0.250000X0*%
%TD*%
%TA.AperFunction,SMDPad,CuDef*%
%ADD16RoundRect,0.150000X0.512500X0.150000X-0.512500X0.150000X-0.512500X-0.150000X0.512500X-0.150000X0*%
%TD*%
%TA.AperFunction,SMDPad,CuDef*%
%ADD17RoundRect,0.200000X0.200000X0.275000X-0.200000X0.275000X-0.200000X-0.275000X0.200000X-0.275000X0*%
%TD*%
%TA.AperFunction,SMDPad,CuDef*%
%ADD18RoundRect,0.054500X-0.860500X-0.490500X0.860500X-0.490500X0.860500X0.490500X-0.860500X0.490500X0*%
%TD*%
%TA.AperFunction,SMDPad,CuDef*%
%ADD19R,1.830000X1.090000*%
%TD*%
%TA.AperFunction,SMDPad,CuDef*%
%ADD20RoundRect,0.250000X0.300000X0.300000X-0.300000X0.300000X-0.300000X-0.300000X0.300000X-0.300000X0*%
%TD*%
%TA.AperFunction,SMDPad,CuDef*%
%ADD21RoundRect,0.250000X0.250000X0.475000X-0.250000X0.475000X-0.250000X-0.475000X0.250000X-0.475000X0*%
%TD*%
%TA.AperFunction,ComponentPad*%
%ADD22O,1.950000X1.700000*%
%TD*%
%TA.AperFunction,ComponentPad*%
%ADD23RoundRect,0.250000X0.725000X-0.600000X0.725000X0.600000X-0.725000X0.600000X-0.725000X-0.600000X0*%
%TD*%
%TA.AperFunction,SMDPad,CuDef*%
%ADD24RoundRect,0.250000X-0.325000X-0.450000X0.325000X-0.450000X0.325000X0.450000X-0.325000X0.450000X0*%
%TD*%
%TA.AperFunction,SMDPad,CuDef*%
%ADD25RoundRect,0.200000X-0.200000X-0.275000X0.200000X-0.275000X0.200000X0.275000X-0.200000X0.275000X0*%
%TD*%
%TA.AperFunction,SMDPad,CuDef*%
%ADD26RoundRect,0.225000X-0.250000X0.225000X-0.250000X-0.225000X0.250000X-0.225000X0.250000X0.225000X0*%
%TD*%
%TA.AperFunction,SMDPad,CuDef*%
%ADD27RoundRect,0.225000X0.250000X-0.225000X0.250000X0.225000X-0.250000X0.225000X-0.250000X-0.225000X0*%
%TD*%
%TA.AperFunction,SMDPad,CuDef*%
%ADD28RoundRect,0.250000X0.475000X-0.250000X0.475000X0.250000X-0.475000X0.250000X-0.475000X-0.250000X0*%
%TD*%
%TA.AperFunction,ComponentPad*%
%ADD29C,2.600000*%
%TD*%
%TA.AperFunction,ComponentPad*%
%ADD30R,2.600000X2.600000*%
%TD*%
%TA.AperFunction,ViaPad*%
%ADD31C,0.711200*%
%TD*%
%TA.AperFunction,Conductor*%
%ADD32C,0.254000*%
%TD*%
%TA.AperFunction,Conductor*%
%ADD33C,0.635000*%
%TD*%
G04 APERTURE END LIST*
D10*
%TO.P,U2,1,VBUS*%
%TO.N,/charger0/V_iso*%
X184909000Y-110120996D03*
%TO.P,U2,2,REGN*%
%TO.N,/charger0/REGN*%
X184909000Y-110620995D03*
%TO.P,U2,3,STAT*%
%TO.N,/charger0/STAT*%
X184909000Y-111120997D03*
%TO.P,U2,4,ICHG*%
%TO.N,Net-(U2-ICHG)*%
X184909000Y-111620996D03*
D11*
%TO.P,U2,5,NC(POL)*%
%TO.N,unconnected-(U2-NC(POL)-Pad5)*%
X185559002Y-112270997D03*
%TO.P,U2,6,~{EN}*%
%TO.N,/charger0/Vo-*%
X186059000Y-112270997D03*
%TO.P,U2,7,TS*%
%TO.N,Net-(U2-TS)*%
X186559002Y-112270997D03*
%TO.P,U2,8,NC*%
%TO.N,unconnected-(U2-NC-Pad8)*%
X187059001Y-112270997D03*
D10*
%TO.P,U2,9,VSET*%
%TO.N,/charger0/Vo-*%
X187709000Y-111620996D03*
%TO.P,U2,10,BAT*%
%TO.N,/charger0/Vo+*%
X187709000Y-111120997D03*
%TO.P,U2,11,GND*%
%TO.N,/charger0/Vo-*%
X187709000Y-110620995D03*
%TO.P,U2,12,GND*%
X187709000Y-110120996D03*
D11*
%TO.P,U2,13,SW*%
%TO.N,/charger0/V_sw*%
X187059001Y-109470998D03*
%TO.P,U2,14,SW*%
X186559002Y-109470998D03*
%TO.P,U2,15,BTST*%
%TO.N,Net-(U2-BTST)*%
X186059000Y-109470998D03*
%TO.P,U2,16,PMID*%
%TO.N,Net-(U2-PMID)*%
X185559002Y-109470998D03*
D12*
%TO.P,U2,17,PAD*%
%TO.N,/charger0/Vo-*%
X185719001Y-110280999D03*
X185719001Y-111460996D03*
X186309000Y-110870997D03*
D13*
X186309003Y-110870997D03*
D12*
X186898999Y-110280999D03*
X186898999Y-111460996D03*
%TD*%
D10*
%TO.P,U4,1,VBUS*%
%TO.N,/charger1/V_iso*%
X184909000Y-100976996D03*
%TO.P,U4,2,REGN*%
%TO.N,/charger1/REGN*%
X184909000Y-101476995D03*
%TO.P,U4,3,STAT*%
%TO.N,/charger1/STAT*%
X184909000Y-101976997D03*
%TO.P,U4,4,ICHG*%
%TO.N,Net-(U4-ICHG)*%
X184909000Y-102476996D03*
D11*
%TO.P,U4,5,NC(POL)*%
%TO.N,unconnected-(U4-NC(POL)-Pad5)*%
X185559002Y-103126997D03*
%TO.P,U4,6,~{EN}*%
%TO.N,/charger1/Vo-*%
X186059000Y-103126997D03*
%TO.P,U4,7,TS*%
%TO.N,Net-(U4-TS)*%
X186559002Y-103126997D03*
%TO.P,U4,8,NC*%
%TO.N,unconnected-(U4-NC-Pad8)*%
X187059001Y-103126997D03*
D10*
%TO.P,U4,9,VSET*%
%TO.N,/charger1/Vo-*%
X187709000Y-102476996D03*
%TO.P,U4,10,BAT*%
%TO.N,/charger0/Vo-*%
X187709000Y-101976997D03*
%TO.P,U4,11,GND*%
%TO.N,/charger1/Vo-*%
X187709000Y-101476995D03*
%TO.P,U4,12,GND*%
X187709000Y-100976996D03*
D11*
%TO.P,U4,13,SW*%
%TO.N,/charger1/V_sw*%
X187059001Y-100326998D03*
%TO.P,U4,14,SW*%
X186559002Y-100326998D03*
%TO.P,U4,15,BTST*%
%TO.N,Net-(U4-BTST)*%
X186059000Y-100326998D03*
%TO.P,U4,16,PMID*%
%TO.N,Net-(U4-PMID)*%
X185559002Y-100326998D03*
D12*
%TO.P,U4,17,PAD*%
%TO.N,/charger1/Vo-*%
X185719001Y-101136999D03*
X185719001Y-102316996D03*
X186309000Y-101726997D03*
D13*
X186309003Y-101726997D03*
D12*
X186898999Y-101136999D03*
X186898999Y-102316996D03*
%TD*%
D10*
%TO.P,U6,1,VBUS*%
%TO.N,/charger2/V_iso*%
X184909000Y-91832996D03*
%TO.P,U6,2,REGN*%
%TO.N,/charger2/REGN*%
X184909000Y-92332995D03*
%TO.P,U6,3,STAT*%
%TO.N,/charger2/STAT*%
X184909000Y-92832997D03*
%TO.P,U6,4,ICHG*%
%TO.N,Net-(U6-ICHG)*%
X184909000Y-93332996D03*
D11*
%TO.P,U6,5,NC(POL)*%
%TO.N,unconnected-(U6-NC(POL)-Pad5)*%
X185559002Y-93982997D03*
%TO.P,U6,6,~{EN}*%
%TO.N,/charger2/Vo-*%
X186059000Y-93982997D03*
%TO.P,U6,7,TS*%
%TO.N,Net-(U6-TS)*%
X186559002Y-93982997D03*
%TO.P,U6,8,NC*%
%TO.N,unconnected-(U6-NC-Pad8)*%
X187059001Y-93982997D03*
D10*
%TO.P,U6,9,VSET*%
%TO.N,/charger2/Vo-*%
X187709000Y-93332996D03*
%TO.P,U6,10,BAT*%
%TO.N,/charger1/Vo-*%
X187709000Y-92832997D03*
%TO.P,U6,11,GND*%
%TO.N,/charger2/Vo-*%
X187709000Y-92332995D03*
%TO.P,U6,12,GND*%
X187709000Y-91832996D03*
D11*
%TO.P,U6,13,SW*%
%TO.N,/charger2/V_sw*%
X187059001Y-91182998D03*
%TO.P,U6,14,SW*%
X186559002Y-91182998D03*
%TO.P,U6,15,BTST*%
%TO.N,Net-(U6-BTST)*%
X186059000Y-91182998D03*
%TO.P,U6,16,PMID*%
%TO.N,Net-(U6-PMID)*%
X185559002Y-91182998D03*
D12*
%TO.P,U6,17,PAD*%
%TO.N,/charger2/Vo-*%
X185719001Y-91992999D03*
X185719001Y-93172996D03*
X186309000Y-92582997D03*
D13*
X186309003Y-92582997D03*
D12*
X186898999Y-91992999D03*
X186898999Y-93172996D03*
%TD*%
D10*
%TO.P,U8,1,VBUS*%
%TO.N,/charger3/V_iso*%
X184909000Y-82688996D03*
%TO.P,U8,2,REGN*%
%TO.N,/charger3/REGN*%
X184909000Y-83188995D03*
%TO.P,U8,3,STAT*%
%TO.N,/charger3/STAT*%
X184909000Y-83688997D03*
%TO.P,U8,4,ICHG*%
%TO.N,Net-(U8-ICHG)*%
X184909000Y-84188996D03*
D11*
%TO.P,U8,5,NC(POL)*%
%TO.N,unconnected-(U8-NC(POL)-Pad5)*%
X185559002Y-84838997D03*
%TO.P,U8,6,~{EN}*%
%TO.N,/charger3/Vo-*%
X186059000Y-84838997D03*
%TO.P,U8,7,TS*%
%TO.N,Net-(U8-TS)*%
X186559002Y-84838997D03*
%TO.P,U8,8,NC*%
%TO.N,unconnected-(U8-NC-Pad8)*%
X187059001Y-84838997D03*
D10*
%TO.P,U8,9,VSET*%
%TO.N,/charger3/Vo-*%
X187709000Y-84188996D03*
%TO.P,U8,10,BAT*%
%TO.N,/charger2/Vo-*%
X187709000Y-83688997D03*
%TO.P,U8,11,GND*%
%TO.N,/charger3/Vo-*%
X187709000Y-83188995D03*
%TO.P,U8,12,GND*%
X187709000Y-82688996D03*
D11*
%TO.P,U8,13,SW*%
%TO.N,/charger3/V_sw*%
X187059001Y-82038998D03*
%TO.P,U8,14,SW*%
X186559002Y-82038998D03*
%TO.P,U8,15,BTST*%
%TO.N,Net-(U8-BTST)*%
X186059000Y-82038998D03*
%TO.P,U8,16,PMID*%
%TO.N,Net-(U8-PMID)*%
X185559002Y-82038998D03*
D12*
%TO.P,U8,17,PAD*%
%TO.N,/charger3/Vo-*%
X185719001Y-82848999D03*
X185719001Y-84028996D03*
X186309000Y-83438997D03*
D13*
X186309003Y-83438997D03*
D12*
X186898999Y-82848999D03*
X186898999Y-84028996D03*
%TD*%
D10*
%TO.P,U10,1,VBUS*%
%TO.N,/charger4/V_iso*%
X184909000Y-73544996D03*
%TO.P,U10,2,REGN*%
%TO.N,/charger4/REGN*%
X184909000Y-74044995D03*
%TO.P,U10,3,STAT*%
%TO.N,/charger4/STAT*%
X184909000Y-74544997D03*
%TO.P,U10,4,ICHG*%
%TO.N,Net-(U10-ICHG)*%
X184909000Y-75044996D03*
D11*
%TO.P,U10,5,NC(POL)*%
%TO.N,unconnected-(U10-NC(POL)-Pad5)*%
X185559002Y-75694997D03*
%TO.P,U10,6,~{EN}*%
%TO.N,/charger4/Vo-*%
X186059000Y-75694997D03*
%TO.P,U10,7,TS*%
%TO.N,Net-(U10-TS)*%
X186559002Y-75694997D03*
%TO.P,U10,8,NC*%
%TO.N,unconnected-(U10-NC-Pad8)*%
X187059001Y-75694997D03*
D10*
%TO.P,U10,9,VSET*%
%TO.N,/charger4/Vo-*%
X187709000Y-75044996D03*
%TO.P,U10,10,BAT*%
%TO.N,/charger3/Vo-*%
X187709000Y-74544997D03*
%TO.P,U10,11,GND*%
%TO.N,/charger4/Vo-*%
X187709000Y-74044995D03*
%TO.P,U10,12,GND*%
X187709000Y-73544996D03*
D11*
%TO.P,U10,13,SW*%
%TO.N,/charger4/V_sw*%
X187059001Y-72894998D03*
%TO.P,U10,14,SW*%
X186559002Y-72894998D03*
%TO.P,U10,15,BTST*%
%TO.N,Net-(U10-BTST)*%
X186059000Y-72894998D03*
%TO.P,U10,16,PMID*%
%TO.N,Net-(U10-PMID)*%
X185559002Y-72894998D03*
D12*
%TO.P,U10,17,PAD*%
%TO.N,/charger4/Vo-*%
X185719001Y-73704999D03*
X185719001Y-74884996D03*
X186309000Y-74294997D03*
D13*
X186309003Y-74294997D03*
D12*
X186898999Y-73704999D03*
X186898999Y-74884996D03*
%TD*%
D10*
%TO.P,U12,1,VBUS*%
%TO.N,/charger5/V_iso*%
X184909000Y-64400996D03*
%TO.P,U12,2,REGN*%
%TO.N,/charger5/REGN*%
X184909000Y-64900995D03*
%TO.P,U12,3,STAT*%
%TO.N,/charger5/STAT*%
X184909000Y-65400997D03*
%TO.P,U12,4,ICHG*%
%TO.N,Net-(U12-ICHG)*%
X184909000Y-65900996D03*
D11*
%TO.P,U12,5,NC(POL)*%
%TO.N,unconnected-(U12-NC(POL)-Pad5)*%
X185559002Y-66550997D03*
%TO.P,U12,6,~{EN}*%
%TO.N,/charger5/Vo-*%
X186059000Y-66550997D03*
%TO.P,U12,7,TS*%
%TO.N,Net-(U12-TS)*%
X186559002Y-66550997D03*
%TO.P,U12,8,NC*%
%TO.N,unconnected-(U12-NC-Pad8)*%
X187059001Y-66550997D03*
D10*
%TO.P,U12,9,VSET*%
%TO.N,/charger5/Vo-*%
X187709000Y-65900996D03*
%TO.P,U12,10,BAT*%
%TO.N,/charger4/Vo-*%
X187709000Y-65400997D03*
%TO.P,U12,11,GND*%
%TO.N,/charger5/Vo-*%
X187709000Y-64900995D03*
%TO.P,U12,12,GND*%
X187709000Y-64400996D03*
D11*
%TO.P,U12,13,SW*%
%TO.N,/charger5/V_sw*%
X187059001Y-63750998D03*
%TO.P,U12,14,SW*%
X186559002Y-63750998D03*
%TO.P,U12,15,BTST*%
%TO.N,Net-(U12-BTST)*%
X186059000Y-63750998D03*
%TO.P,U12,16,PMID*%
%TO.N,Net-(U12-PMID)*%
X185559002Y-63750998D03*
D12*
%TO.P,U12,17,PAD*%
%TO.N,/charger5/Vo-*%
X185719001Y-64560999D03*
X185719001Y-65740996D03*
X186309000Y-65150997D03*
D13*
X186309003Y-65150997D03*
D12*
X186898999Y-64560999D03*
X186898999Y-65740996D03*
%TD*%
D14*
%TO.P,D18,4,K2*%
%TO.N,/charger5/STAT*%
X178500000Y-66066000D03*
%TO.P,D18,3,K1*%
%TO.N,/charger5/Vo-*%
X177100000Y-66066000D03*
%TO.P,D18,2,A2*%
%TO.N,Net-(D18-A2)*%
X178500000Y-62966000D03*
%TO.P,D18,1,A1*%
%TO.N,Net-(D18-A1)*%
X177100000Y-62966000D03*
%TD*%
%TO.P,D15,4,K2*%
%TO.N,/charger4/STAT*%
X178500000Y-75210000D03*
%TO.P,D15,3,K1*%
%TO.N,/charger4/Vo-*%
X177100000Y-75210000D03*
%TO.P,D15,2,A2*%
%TO.N,Net-(D15-A2)*%
X178500000Y-72110000D03*
%TO.P,D15,1,A1*%
%TO.N,Net-(D15-A1)*%
X177100000Y-72110000D03*
%TD*%
%TO.P,D12,4,K2*%
%TO.N,/charger3/STAT*%
X178500000Y-84354000D03*
%TO.P,D12,3,K1*%
%TO.N,/charger3/Vo-*%
X177100000Y-84354000D03*
%TO.P,D12,2,A2*%
%TO.N,Net-(D12-A2)*%
X178500000Y-81254000D03*
%TO.P,D12,1,A1*%
%TO.N,Net-(D12-A1)*%
X177100000Y-81254000D03*
%TD*%
%TO.P,D9,4,K2*%
%TO.N,/charger2/STAT*%
X178500000Y-93498000D03*
%TO.P,D9,3,K1*%
%TO.N,/charger2/Vo-*%
X177100000Y-93498000D03*
%TO.P,D9,2,A2*%
%TO.N,Net-(D9-A2)*%
X178500000Y-90398000D03*
%TO.P,D9,1,A1*%
%TO.N,Net-(D9-A1)*%
X177100000Y-90398000D03*
%TD*%
%TO.P,D6,4,K2*%
%TO.N,/charger1/STAT*%
X178500000Y-102642000D03*
%TO.P,D6,3,K1*%
%TO.N,/charger1/Vo-*%
X177100000Y-102642000D03*
%TO.P,D6,2,A2*%
%TO.N,Net-(D6-A2)*%
X178500000Y-99542000D03*
%TO.P,D6,1,A1*%
%TO.N,Net-(D6-A1)*%
X177100000Y-99542000D03*
%TD*%
%TO.P,D3,4,K2*%
%TO.N,/charger0/STAT*%
X178500000Y-111786000D03*
%TO.P,D3,3,K1*%
%TO.N,/charger0/Vo-*%
X177100000Y-111786000D03*
%TO.P,D3,2,A2*%
%TO.N,Net-(D3-A2)*%
X178500000Y-108686000D03*
%TO.P,D3,1,A1*%
%TO.N,Net-(D3-A1)*%
X177100000Y-108686000D03*
%TD*%
D15*
%TO.P,C33,2*%
%TO.N,/charger4/Vo-*%
X180581000Y-74295000D03*
%TO.P,C33,1*%
%TO.N,/charger4/REGN*%
X182131000Y-74295000D03*
%TD*%
D16*
%TO.P,U9,6,CLK*%
%TO.N,unconnected-(U9-CLK-Pad6)*%
X153802500Y-74610000D03*
%TO.P,U9,5,EN*%
%TO.N,+5V*%
X153802500Y-73660000D03*
%TO.P,U9,4,GND*%
%TO.N,GND*%
X153802500Y-72710000D03*
%TO.P,U9,3,D2*%
%TO.N,Net-(U9-D2)*%
X156077500Y-72710000D03*
%TO.P,U9,2,VCC*%
%TO.N,+5V*%
X156077500Y-73660000D03*
%TO.P,U9,1,D1*%
%TO.N,Net-(U9-D1)*%
X156077500Y-74610000D03*
%TD*%
D17*
%TO.P,R26,2*%
%TO.N,Net-(D18-A2)*%
X180531000Y-63627000D03*
%TO.P,R26,1*%
%TO.N,/charger5/REGN*%
X182181000Y-63627000D03*
%TD*%
%TO.P,R10,2*%
%TO.N,/charger1/REGN*%
X183960000Y-104521000D03*
%TO.P,R10,1*%
%TO.N,Net-(U4-TS)*%
X185610000Y-104521000D03*
%TD*%
D18*
%TO.P,TR5,6*%
%TO.N,Net-(D14-A)*%
X169958000Y-71120000D03*
%TO.P,TR5,5*%
%TO.N,/charger4/Vo-*%
X169958000Y-73660000D03*
%TO.P,TR5,4*%
%TO.N,Net-(D13-A)*%
X169958000Y-76200000D03*
%TO.P,TR5,3*%
%TO.N,Net-(U9-D1)*%
X158718000Y-76200000D03*
%TO.P,TR5,2*%
%TO.N,+5V*%
X158718000Y-73660000D03*
D19*
%TO.P,TR5,1*%
%TO.N,Net-(U9-D2)*%
X158718000Y-71120000D03*
%TD*%
D20*
%TO.P,D17,2,A*%
%TO.N,Net-(D17-A)*%
X172336000Y-61214000D03*
%TO.P,D17,1,K*%
%TO.N,/charger5/V_iso*%
X175136000Y-61214000D03*
%TD*%
D21*
%TO.P,C9,2*%
%TO.N,/charger1/Vo-*%
X173294000Y-100330000D03*
%TO.P,C9,1*%
%TO.N,/charger1/V_iso*%
X175194000Y-100330000D03*
%TD*%
D17*
%TO.P,R30,2*%
%TO.N,/charger5/REGN*%
X183960000Y-67945000D03*
%TO.P,R30,1*%
%TO.N,Net-(U12-TS)*%
X185610000Y-67945000D03*
%TD*%
D22*
%TO.P,J2,7,Pin_7*%
%TO.N,/charger5/Vo-*%
X199136000Y-79876000D03*
%TO.P,J2,6,Pin_6*%
%TO.N,/charger4/Vo-*%
X199136000Y-82376000D03*
%TO.P,J2,5,Pin_5*%
%TO.N,/charger3/Vo-*%
X199136000Y-84876000D03*
%TO.P,J2,4,Pin_4*%
%TO.N,/charger2/Vo-*%
X199136000Y-87376000D03*
%TO.P,J2,3,Pin_3*%
%TO.N,/charger1/Vo-*%
X199136000Y-89876000D03*
%TO.P,J2,2,Pin_2*%
%TO.N,/charger0/Vo-*%
X199136000Y-92376000D03*
D23*
%TO.P,J2,1,Pin_1*%
%TO.N,/charger0/Vo+*%
X199136000Y-94876000D03*
%TD*%
D18*
%TO.P,TR2,6*%
%TO.N,Net-(D5-A)*%
X169958000Y-98552000D03*
%TO.P,TR2,5*%
%TO.N,/charger1/Vo-*%
X169958000Y-101092000D03*
%TO.P,TR2,4*%
%TO.N,Net-(D4-A)*%
X169958000Y-103632000D03*
%TO.P,TR2,3*%
%TO.N,Net-(U3-D1)*%
X158718000Y-103632000D03*
%TO.P,TR2,2*%
%TO.N,+5V*%
X158718000Y-101092000D03*
D19*
%TO.P,TR2,1*%
%TO.N,Net-(U3-D2)*%
X158718000Y-98552000D03*
%TD*%
D16*
%TO.P,U7,6,CLK*%
%TO.N,unconnected-(U7-CLK-Pad6)*%
X153802500Y-83754000D03*
%TO.P,U7,5,EN*%
%TO.N,+5V*%
X153802500Y-82804000D03*
%TO.P,U7,4,GND*%
%TO.N,GND*%
X153802500Y-81854000D03*
%TO.P,U7,3,D2*%
%TO.N,Net-(U7-D2)*%
X156077500Y-81854000D03*
%TO.P,U7,2,VCC*%
%TO.N,+5V*%
X156077500Y-82804000D03*
%TO.P,U7,1,D1*%
%TO.N,Net-(U7-D1)*%
X156077500Y-83754000D03*
%TD*%
D20*
%TO.P,D1,2,A*%
%TO.N,Net-(D1-A)*%
X172336000Y-113538000D03*
%TO.P,D1,1,K*%
%TO.N,/charger0/V_iso*%
X175136000Y-113538000D03*
%TD*%
D21*
%TO.P,C2,2*%
%TO.N,/charger0/Vo-*%
X173294000Y-109474000D03*
%TO.P,C2,1*%
%TO.N,/charger0/V_iso*%
X175194000Y-109474000D03*
%TD*%
D20*
%TO.P,D11,2,A*%
%TO.N,Net-(D11-A)*%
X172336000Y-79502000D03*
%TO.P,D11,1,K*%
%TO.N,/charger3/V_iso*%
X175136000Y-79502000D03*
%TD*%
D24*
%TO.P,L1,2,2*%
%TO.N,/charger0/Vo+*%
X190255000Y-107950000D03*
%TO.P,L1,1,1*%
%TO.N,/charger0/V_sw*%
X188205000Y-107950000D03*
%TD*%
D15*
%TO.P,C12,2*%
%TO.N,/charger1/Vo-*%
X180581000Y-101727000D03*
%TO.P,C12,1*%
%TO.N,/charger1/REGN*%
X182131000Y-101727000D03*
%TD*%
D25*
%TO.P,R9,2*%
%TO.N,/charger1/Vo-*%
X188658000Y-104521000D03*
%TO.P,R9,1*%
%TO.N,Net-(U4-TS)*%
X187008000Y-104521000D03*
%TD*%
D24*
%TO.P,L5,2,2*%
%TO.N,/charger3/Vo-*%
X190255000Y-71374000D03*
%TO.P,L5,1,1*%
%TO.N,/charger4/V_sw*%
X188205000Y-71374000D03*
%TD*%
D26*
%TO.P,C20,2*%
%TO.N,Net-(U6-BTST)*%
X186055000Y-89929000D03*
%TO.P,C20,1*%
%TO.N,/charger2/V_sw*%
X186055000Y-88379000D03*
%TD*%
D15*
%TO.P,C24,2*%
%TO.N,/charger3/Vo-*%
X173469000Y-83820000D03*
%TO.P,C24,1*%
%TO.N,/charger3/V_iso*%
X175019000Y-83820000D03*
%TD*%
%TO.P,C7,2*%
%TO.N,/charger0/Vo-*%
X188836000Y-110236000D03*
%TO.P,C7,1*%
%TO.N,/charger0/Vo+*%
X190386000Y-110236000D03*
%TD*%
D27*
%TO.P,C11,2*%
%TO.N,/charger1/Vo-*%
X184531000Y-97523000D03*
%TO.P,C11,1*%
%TO.N,Net-(U4-PMID)*%
X184531000Y-99073000D03*
%TD*%
%TO.P,C18,2*%
%TO.N,/charger2/Vo-*%
X184531000Y-88379000D03*
%TO.P,C18,1*%
%TO.N,Net-(U6-PMID)*%
X184531000Y-89929000D03*
%TD*%
D28*
%TO.P,C15,2*%
%TO.N,GND*%
X151638000Y-90998000D03*
%TO.P,C15,1*%
%TO.N,+5V*%
X151638000Y-92898000D03*
%TD*%
D26*
%TO.P,C6,2*%
%TO.N,Net-(U2-BTST)*%
X186055000Y-108217000D03*
%TO.P,C6,1*%
%TO.N,/charger0/V_sw*%
X186055000Y-106667000D03*
%TD*%
D18*
%TO.P,TR6,6*%
%TO.N,Net-(D17-A)*%
X169958000Y-61976000D03*
%TO.P,TR6,5*%
%TO.N,/charger5/Vo-*%
X169958000Y-64516000D03*
%TO.P,TR6,4*%
%TO.N,Net-(D16-A)*%
X169958000Y-67056000D03*
%TO.P,TR6,3*%
%TO.N,Net-(U11-D1)*%
X158718000Y-67056000D03*
%TO.P,TR6,2*%
%TO.N,+5V*%
X158718000Y-64516000D03*
D19*
%TO.P,TR6,1*%
%TO.N,Net-(U11-D2)*%
X158718000Y-61976000D03*
%TD*%
D15*
%TO.P,C21,2*%
%TO.N,/charger2/Vo-*%
X188836000Y-91948000D03*
%TO.P,C21,1*%
%TO.N,/charger1/Vo-*%
X190386000Y-91948000D03*
%TD*%
D28*
%TO.P,C22,2*%
%TO.N,GND*%
X151638000Y-81854000D03*
%TO.P,C22,1*%
%TO.N,+5V*%
X151638000Y-83754000D03*
%TD*%
D15*
%TO.P,C19,2*%
%TO.N,/charger2/Vo-*%
X180581000Y-92583000D03*
%TO.P,C19,1*%
%TO.N,/charger2/REGN*%
X182131000Y-92583000D03*
%TD*%
D17*
%TO.P,R22,2*%
%TO.N,Net-(D15-A1)*%
X180531000Y-71247000D03*
%TO.P,R22,1*%
%TO.N,/charger4/REGN*%
X182181000Y-71247000D03*
%TD*%
D20*
%TO.P,D8,2,A*%
%TO.N,Net-(D8-A)*%
X172336000Y-88646000D03*
%TO.P,D8,1,K*%
%TO.N,/charger2/V_iso*%
X175136000Y-88646000D03*
%TD*%
D21*
%TO.P,C37,2*%
%TO.N,/charger5/Vo-*%
X173294000Y-63754000D03*
%TO.P,C37,1*%
%TO.N,/charger5/V_iso*%
X175194000Y-63754000D03*
%TD*%
D16*
%TO.P,U1,6,CLK*%
%TO.N,unconnected-(U1-CLK-Pad6)*%
X153802500Y-111186000D03*
%TO.P,U1,5,EN*%
%TO.N,+5V*%
X153802500Y-110236000D03*
%TO.P,U1,4,GND*%
%TO.N,GND*%
X153802500Y-109286000D03*
%TO.P,U1,3,D2*%
%TO.N,Net-(U1-D2)*%
X156077500Y-109286000D03*
%TO.P,U1,2,VCC*%
%TO.N,+5V*%
X156077500Y-110236000D03*
%TO.P,U1,1,D1*%
%TO.N,Net-(U1-D1)*%
X156077500Y-111186000D03*
%TD*%
%TO.P,U11,6,CLK*%
%TO.N,unconnected-(U11-CLK-Pad6)*%
X153802500Y-65466000D03*
%TO.P,U11,5,EN*%
%TO.N,+5V*%
X153802500Y-64516000D03*
%TO.P,U11,4,GND*%
%TO.N,GND*%
X153802500Y-63566000D03*
%TO.P,U11,3,D2*%
%TO.N,Net-(U11-D2)*%
X156077500Y-63566000D03*
%TO.P,U11,2,VCC*%
%TO.N,+5V*%
X156077500Y-64516000D03*
%TO.P,U11,1,D1*%
%TO.N,Net-(U11-D1)*%
X156077500Y-65466000D03*
%TD*%
D18*
%TO.P,TR3,6*%
%TO.N,Net-(D8-A)*%
X169958000Y-89408000D03*
%TO.P,TR3,5*%
%TO.N,/charger2/Vo-*%
X169958000Y-91948000D03*
%TO.P,TR3,4*%
%TO.N,Net-(D7-A)*%
X169958000Y-94488000D03*
%TO.P,TR3,3*%
%TO.N,Net-(U5-D1)*%
X158718000Y-94488000D03*
%TO.P,TR3,2*%
%TO.N,+5V*%
X158718000Y-91948000D03*
D19*
%TO.P,TR3,1*%
%TO.N,Net-(U5-D2)*%
X158718000Y-89408000D03*
%TD*%
D28*
%TO.P,C1,2*%
%TO.N,GND*%
X151638000Y-109286000D03*
%TO.P,C1,1*%
%TO.N,+5V*%
X151638000Y-111186000D03*
%TD*%
D17*
%TO.P,R6,2*%
%TO.N,Net-(D6-A2)*%
X180531000Y-100203000D03*
%TO.P,R6,1*%
%TO.N,/charger1/REGN*%
X182181000Y-100203000D03*
%TD*%
%TO.P,R20,2*%
%TO.N,/charger3/REGN*%
X183960000Y-86233000D03*
%TO.P,R20,1*%
%TO.N,Net-(U8-TS)*%
X185610000Y-86233000D03*
%TD*%
D27*
%TO.P,C39,2*%
%TO.N,/charger5/Vo-*%
X184531000Y-60947000D03*
%TO.P,C39,1*%
%TO.N,Net-(U12-PMID)*%
X184531000Y-62497000D03*
%TD*%
D15*
%TO.P,C42,2*%
%TO.N,/charger5/Vo-*%
X188836000Y-64516000D03*
%TO.P,C42,1*%
%TO.N,/charger4/Vo-*%
X190386000Y-64516000D03*
%TD*%
D20*
%TO.P,D14,2,A*%
%TO.N,Net-(D14-A)*%
X172336000Y-70358000D03*
%TO.P,D14,1,K*%
%TO.N,/charger4/V_iso*%
X175136000Y-70358000D03*
%TD*%
D21*
%TO.P,C23,2*%
%TO.N,/charger3/Vo-*%
X173294000Y-82042000D03*
%TO.P,C23,1*%
%TO.N,/charger3/V_iso*%
X175194000Y-82042000D03*
%TD*%
D29*
%TO.P,J1,3*%
%TO.N,GND*%
X144574000Y-92076000D03*
%TO.P,J1,2*%
X141574000Y-87376000D03*
D30*
%TO.P,J1,1*%
%TO.N,+5V*%
X147574000Y-87376000D03*
%TD*%
D20*
%TO.P,D4,2,A*%
%TO.N,Net-(D4-A)*%
X172336000Y-104394000D03*
%TO.P,D4,1,K*%
%TO.N,/charger1/V_iso*%
X175136000Y-104394000D03*
%TD*%
D17*
%TO.P,R18,2*%
%TO.N,/charger3/Vo-*%
X180531000Y-84963000D03*
%TO.P,R18,1*%
%TO.N,Net-(U8-ICHG)*%
X182181000Y-84963000D03*
%TD*%
D25*
%TO.P,R14,2*%
%TO.N,/charger2/Vo-*%
X188658000Y-95377000D03*
%TO.P,R14,1*%
%TO.N,Net-(U6-TS)*%
X187008000Y-95377000D03*
%TD*%
D24*
%TO.P,L6,2,2*%
%TO.N,/charger4/Vo-*%
X190255000Y-62230000D03*
%TO.P,L6,1,1*%
%TO.N,/charger5/V_sw*%
X188205000Y-62230000D03*
%TD*%
D25*
%TO.P,R4,2*%
%TO.N,/charger0/Vo-*%
X188658000Y-113665000D03*
%TO.P,R4,1*%
%TO.N,Net-(U2-TS)*%
X187008000Y-113665000D03*
%TD*%
D20*
%TO.P,D2,2,A*%
%TO.N,Net-(D2-A)*%
X172336000Y-106934000D03*
%TO.P,D2,1,K*%
%TO.N,/charger0/V_iso*%
X175136000Y-106934000D03*
%TD*%
D15*
%TO.P,C5,2*%
%TO.N,/charger0/Vo-*%
X180581000Y-110871000D03*
%TO.P,C5,1*%
%TO.N,/charger0/REGN*%
X182131000Y-110871000D03*
%TD*%
D17*
%TO.P,R25,2*%
%TO.N,/charger4/REGN*%
X183960000Y-77089000D03*
%TO.P,R25,1*%
%TO.N,Net-(U10-TS)*%
X185610000Y-77089000D03*
%TD*%
D15*
%TO.P,C26,2*%
%TO.N,/charger3/Vo-*%
X180581000Y-83439000D03*
%TO.P,C26,1*%
%TO.N,/charger3/REGN*%
X182131000Y-83439000D03*
%TD*%
D17*
%TO.P,R2,2*%
%TO.N,Net-(D3-A1)*%
X180531000Y-107823000D03*
%TO.P,R2,1*%
%TO.N,/charger0/REGN*%
X182181000Y-107823000D03*
%TD*%
D26*
%TO.P,C13,2*%
%TO.N,Net-(U4-BTST)*%
X186055000Y-99073000D03*
%TO.P,C13,1*%
%TO.N,/charger1/V_sw*%
X186055000Y-97523000D03*
%TD*%
D28*
%TO.P,C29,2*%
%TO.N,GND*%
X151638000Y-72710000D03*
%TO.P,C29,1*%
%TO.N,+5V*%
X151638000Y-74610000D03*
%TD*%
D15*
%TO.P,C31,2*%
%TO.N,/charger4/Vo-*%
X173469000Y-74676000D03*
%TO.P,C31,1*%
%TO.N,/charger4/V_iso*%
X175019000Y-74676000D03*
%TD*%
D16*
%TO.P,U5,6,CLK*%
%TO.N,unconnected-(U5-CLK-Pad6)*%
X153802500Y-92898000D03*
%TO.P,U5,5,EN*%
%TO.N,+5V*%
X153802500Y-91948000D03*
%TO.P,U5,4,GND*%
%TO.N,GND*%
X153802500Y-90998000D03*
%TO.P,U5,3,D2*%
%TO.N,Net-(U5-D2)*%
X156077500Y-90998000D03*
%TO.P,U5,2,VCC*%
%TO.N,+5V*%
X156077500Y-91948000D03*
%TO.P,U5,1,D1*%
%TO.N,Net-(U5-D1)*%
X156077500Y-92898000D03*
%TD*%
D17*
%TO.P,R23,2*%
%TO.N,/charger4/Vo-*%
X180531000Y-75819000D03*
%TO.P,R23,1*%
%TO.N,Net-(U10-ICHG)*%
X182181000Y-75819000D03*
%TD*%
%TO.P,R1,2*%
%TO.N,Net-(D3-A2)*%
X180531000Y-109347000D03*
%TO.P,R1,1*%
%TO.N,/charger0/REGN*%
X182181000Y-109347000D03*
%TD*%
D20*
%TO.P,D10,2,A*%
%TO.N,Net-(D10-A)*%
X172336000Y-86106000D03*
%TO.P,D10,1,K*%
%TO.N,/charger3/V_iso*%
X175136000Y-86106000D03*
%TD*%
D17*
%TO.P,R3,2*%
%TO.N,/charger0/Vo-*%
X180531000Y-112395000D03*
%TO.P,R3,1*%
%TO.N,Net-(U2-ICHG)*%
X182181000Y-112395000D03*
%TD*%
%TO.P,R21,2*%
%TO.N,Net-(D15-A2)*%
X180531000Y-72771000D03*
%TO.P,R21,1*%
%TO.N,/charger4/REGN*%
X182181000Y-72771000D03*
%TD*%
D27*
%TO.P,C32,2*%
%TO.N,/charger4/Vo-*%
X184531000Y-70091000D03*
%TO.P,C32,1*%
%TO.N,Net-(U10-PMID)*%
X184531000Y-71641000D03*
%TD*%
D28*
%TO.P,C36,2*%
%TO.N,GND*%
X151638000Y-63566000D03*
%TO.P,C36,1*%
%TO.N,+5V*%
X151638000Y-65466000D03*
%TD*%
D17*
%TO.P,R7,2*%
%TO.N,Net-(D6-A1)*%
X180531000Y-98679000D03*
%TO.P,R7,1*%
%TO.N,/charger1/REGN*%
X182181000Y-98679000D03*
%TD*%
D26*
%TO.P,C41,2*%
%TO.N,Net-(U12-BTST)*%
X186055000Y-62497000D03*
%TO.P,C41,1*%
%TO.N,/charger5/V_sw*%
X186055000Y-60947000D03*
%TD*%
D15*
%TO.P,C38,2*%
%TO.N,/charger5/Vo-*%
X173469000Y-65532000D03*
%TO.P,C38,1*%
%TO.N,/charger5/V_iso*%
X175019000Y-65532000D03*
%TD*%
D17*
%TO.P,R12,2*%
%TO.N,Net-(D9-A1)*%
X180531000Y-89535000D03*
%TO.P,R12,1*%
%TO.N,/charger2/REGN*%
X182181000Y-89535000D03*
%TD*%
D15*
%TO.P,C10,2*%
%TO.N,/charger1/Vo-*%
X173469000Y-102108000D03*
%TO.P,C10,1*%
%TO.N,/charger1/V_iso*%
X175019000Y-102108000D03*
%TD*%
%TO.P,C14,2*%
%TO.N,/charger1/Vo-*%
X188836000Y-101092000D03*
%TO.P,C14,1*%
%TO.N,/charger0/Vo-*%
X190386000Y-101092000D03*
%TD*%
D17*
%TO.P,R15,2*%
%TO.N,/charger2/REGN*%
X183960000Y-95377000D03*
%TO.P,R15,1*%
%TO.N,Net-(U6-TS)*%
X185610000Y-95377000D03*
%TD*%
D16*
%TO.P,U3,6,CLK*%
%TO.N,unconnected-(U3-CLK-Pad6)*%
X153802500Y-102042000D03*
%TO.P,U3,5,EN*%
%TO.N,+5V*%
X153802500Y-101092000D03*
%TO.P,U3,4,GND*%
%TO.N,GND*%
X153802500Y-100142000D03*
%TO.P,U3,3,D2*%
%TO.N,Net-(U3-D2)*%
X156077500Y-100142000D03*
%TO.P,U3,2,VCC*%
%TO.N,+5V*%
X156077500Y-101092000D03*
%TO.P,U3,1,D1*%
%TO.N,Net-(U3-D1)*%
X156077500Y-102042000D03*
%TD*%
D20*
%TO.P,D13,2,A*%
%TO.N,Net-(D13-A)*%
X172336000Y-76962000D03*
%TO.P,D13,1,K*%
%TO.N,/charger4/V_iso*%
X175136000Y-76962000D03*
%TD*%
D15*
%TO.P,C17,2*%
%TO.N,/charger2/Vo-*%
X173469000Y-92964000D03*
%TO.P,C17,1*%
%TO.N,/charger2/V_iso*%
X175019000Y-92964000D03*
%TD*%
D27*
%TO.P,C25,2*%
%TO.N,/charger3/Vo-*%
X184531000Y-79235000D03*
%TO.P,C25,1*%
%TO.N,Net-(U8-PMID)*%
X184531000Y-80785000D03*
%TD*%
D15*
%TO.P,C3,2*%
%TO.N,/charger0/Vo-*%
X173469000Y-111252000D03*
%TO.P,C3,1*%
%TO.N,/charger0/V_iso*%
X175019000Y-111252000D03*
%TD*%
%TO.P,C28,2*%
%TO.N,/charger3/Vo-*%
X188836000Y-82804000D03*
%TO.P,C28,1*%
%TO.N,/charger2/Vo-*%
X190386000Y-82804000D03*
%TD*%
D17*
%TO.P,R28,2*%
%TO.N,/charger5/Vo-*%
X180531000Y-66675000D03*
%TO.P,R28,1*%
%TO.N,Net-(U12-ICHG)*%
X182181000Y-66675000D03*
%TD*%
D25*
%TO.P,R24,2*%
%TO.N,/charger4/Vo-*%
X188658000Y-77089000D03*
%TO.P,R24,1*%
%TO.N,Net-(U10-TS)*%
X187008000Y-77089000D03*
%TD*%
%TO.P,R19,2*%
%TO.N,/charger3/Vo-*%
X188658000Y-86233000D03*
%TO.P,R19,1*%
%TO.N,Net-(U8-TS)*%
X187008000Y-86233000D03*
%TD*%
D21*
%TO.P,C30,2*%
%TO.N,/charger4/Vo-*%
X173294000Y-72898000D03*
%TO.P,C30,1*%
%TO.N,/charger4/V_iso*%
X175194000Y-72898000D03*
%TD*%
D26*
%TO.P,C27,2*%
%TO.N,Net-(U8-BTST)*%
X186055000Y-80785000D03*
%TO.P,C27,1*%
%TO.N,/charger3/V_sw*%
X186055000Y-79235000D03*
%TD*%
D17*
%TO.P,R27,2*%
%TO.N,Net-(D18-A1)*%
X180531000Y-62103000D03*
%TO.P,R27,1*%
%TO.N,/charger5/REGN*%
X182181000Y-62103000D03*
%TD*%
D24*
%TO.P,L3,2,2*%
%TO.N,/charger1/Vo-*%
X190255000Y-89662000D03*
%TO.P,L3,1,1*%
%TO.N,/charger2/V_sw*%
X188205000Y-89662000D03*
%TD*%
D20*
%TO.P,D7,2,A*%
%TO.N,Net-(D7-A)*%
X172336000Y-95250000D03*
%TO.P,D7,1,K*%
%TO.N,/charger2/V_iso*%
X175136000Y-95250000D03*
%TD*%
D26*
%TO.P,C34,2*%
%TO.N,Net-(U10-BTST)*%
X186055000Y-71641000D03*
%TO.P,C34,1*%
%TO.N,/charger4/V_sw*%
X186055000Y-70091000D03*
%TD*%
D24*
%TO.P,L2,2,2*%
%TO.N,/charger0/Vo-*%
X190255000Y-98806000D03*
%TO.P,L2,1,1*%
%TO.N,/charger1/V_sw*%
X188205000Y-98806000D03*
%TD*%
D17*
%TO.P,R5,2*%
%TO.N,/charger0/REGN*%
X183960000Y-113665000D03*
%TO.P,R5,1*%
%TO.N,Net-(U2-TS)*%
X185610000Y-113665000D03*
%TD*%
D28*
%TO.P,C8,2*%
%TO.N,GND*%
X151638000Y-100142000D03*
%TO.P,C8,1*%
%TO.N,+5V*%
X151638000Y-102042000D03*
%TD*%
D17*
%TO.P,R11,2*%
%TO.N,Net-(D9-A2)*%
X180531000Y-91059000D03*
%TO.P,R11,1*%
%TO.N,/charger2/REGN*%
X182181000Y-91059000D03*
%TD*%
D18*
%TO.P,TR4,6*%
%TO.N,Net-(D11-A)*%
X169958000Y-80264000D03*
%TO.P,TR4,5*%
%TO.N,/charger3/Vo-*%
X169958000Y-82804000D03*
%TO.P,TR4,4*%
%TO.N,Net-(D10-A)*%
X169958000Y-85344000D03*
%TO.P,TR4,3*%
%TO.N,Net-(U7-D1)*%
X158718000Y-85344000D03*
%TO.P,TR4,2*%
%TO.N,+5V*%
X158718000Y-82804000D03*
D19*
%TO.P,TR4,1*%
%TO.N,Net-(U7-D2)*%
X158718000Y-80264000D03*
%TD*%
D20*
%TO.P,D16,2,A*%
%TO.N,Net-(D16-A)*%
X172336000Y-67818000D03*
%TO.P,D16,1,K*%
%TO.N,/charger5/V_iso*%
X175136000Y-67818000D03*
%TD*%
D21*
%TO.P,C16,2*%
%TO.N,/charger2/Vo-*%
X173294000Y-91186000D03*
%TO.P,C16,1*%
%TO.N,/charger2/V_iso*%
X175194000Y-91186000D03*
%TD*%
D20*
%TO.P,D5,2,A*%
%TO.N,Net-(D5-A)*%
X172336000Y-97790000D03*
%TO.P,D5,1,K*%
%TO.N,/charger1/V_iso*%
X175136000Y-97790000D03*
%TD*%
D24*
%TO.P,L4,2,2*%
%TO.N,/charger2/Vo-*%
X190255000Y-80518000D03*
%TO.P,L4,1,1*%
%TO.N,/charger3/V_sw*%
X188205000Y-80518000D03*
%TD*%
D17*
%TO.P,R17,2*%
%TO.N,Net-(D12-A1)*%
X180531000Y-80391000D03*
%TO.P,R17,1*%
%TO.N,/charger3/REGN*%
X182181000Y-80391000D03*
%TD*%
D18*
%TO.P,TR1,6*%
%TO.N,Net-(D2-A)*%
X169958000Y-107696000D03*
%TO.P,TR1,5*%
%TO.N,/charger0/Vo-*%
X169958000Y-110236000D03*
%TO.P,TR1,4*%
%TO.N,Net-(D1-A)*%
X169958000Y-112776000D03*
%TO.P,TR1,3*%
%TO.N,Net-(U1-D1)*%
X158718000Y-112776000D03*
%TO.P,TR1,2*%
%TO.N,+5V*%
X158718000Y-110236000D03*
D19*
%TO.P,TR1,1*%
%TO.N,Net-(U1-D2)*%
X158718000Y-107696000D03*
%TD*%
D25*
%TO.P,R29,2*%
%TO.N,/charger5/Vo-*%
X188658000Y-67945000D03*
%TO.P,R29,1*%
%TO.N,Net-(U12-TS)*%
X187008000Y-67945000D03*
%TD*%
D17*
%TO.P,R13,2*%
%TO.N,/charger2/Vo-*%
X180531000Y-94107000D03*
%TO.P,R13,1*%
%TO.N,Net-(U6-ICHG)*%
X182181000Y-94107000D03*
%TD*%
D15*
%TO.P,C40,2*%
%TO.N,/charger5/Vo-*%
X180581000Y-65151000D03*
%TO.P,C40,1*%
%TO.N,/charger5/REGN*%
X182131000Y-65151000D03*
%TD*%
%TO.P,C35,2*%
%TO.N,/charger4/Vo-*%
X188836000Y-73660000D03*
%TO.P,C35,1*%
%TO.N,/charger3/Vo-*%
X190386000Y-73660000D03*
%TD*%
D27*
%TO.P,C4,2*%
%TO.N,/charger0/Vo-*%
X184531000Y-106667000D03*
%TO.P,C4,1*%
%TO.N,Net-(U2-PMID)*%
X184531000Y-108217000D03*
%TD*%
D17*
%TO.P,R16,2*%
%TO.N,Net-(D12-A2)*%
X180531000Y-81915000D03*
%TO.P,R16,1*%
%TO.N,/charger3/REGN*%
X182181000Y-81915000D03*
%TD*%
%TO.P,R8,2*%
%TO.N,/charger1/Vo-*%
X180531000Y-103251000D03*
%TO.P,R8,1*%
%TO.N,Net-(U4-ICHG)*%
X182181000Y-103251000D03*
%TD*%
D31*
%TO.N,/charger5/REGN*%
X183134000Y-64900995D03*
X183896000Y-66775106D03*
%TO.N,/charger5/Vo-*%
X188595000Y-66675000D03*
X179705000Y-65913000D03*
X183515000Y-60579000D03*
X184785000Y-67183000D03*
X190246000Y-60706000D03*
X171704000Y-64516000D03*
%TO.N,GND*%
X151638000Y-62484000D03*
%TO.N,/charger5/Vo-*%
X177100000Y-67753000D03*
%TO.N,/charger4/REGN*%
X183134000Y-74044995D03*
X183896000Y-75919106D03*
%TO.N,/charger4/Vo-*%
X188595000Y-75819000D03*
X179705000Y-75057000D03*
X183515000Y-69723000D03*
X184785000Y-76327000D03*
X190246000Y-69850000D03*
X171704000Y-73660000D03*
%TO.N,GND*%
X151638000Y-71628000D03*
%TO.N,/charger4/Vo-*%
X177100000Y-76897000D03*
%TO.N,/charger3/REGN*%
X183134000Y-83188995D03*
X183896000Y-85063106D03*
%TO.N,/charger3/Vo-*%
X188595000Y-84963000D03*
X179705000Y-84201000D03*
X183515000Y-78867000D03*
X184785000Y-85471000D03*
X190246000Y-78994000D03*
X171704000Y-82804000D03*
%TO.N,GND*%
X151638000Y-80772000D03*
%TO.N,/charger3/Vo-*%
X177100000Y-86041000D03*
%TO.N,/charger2/REGN*%
X183134000Y-92332995D03*
X183896000Y-94207106D03*
%TO.N,/charger2/Vo-*%
X188595000Y-94107000D03*
X179705000Y-93345000D03*
X183515000Y-88011000D03*
X184785000Y-94615000D03*
X190246000Y-88138000D03*
X171704000Y-91948000D03*
%TO.N,GND*%
X151638000Y-89916000D03*
%TO.N,/charger2/Vo-*%
X177100000Y-95185000D03*
%TO.N,/charger1/REGN*%
X183134000Y-101476995D03*
X183896000Y-103351106D03*
%TO.N,/charger1/Vo-*%
X188595000Y-103251000D03*
X179705000Y-102489000D03*
X183515000Y-97155000D03*
X184785000Y-103759000D03*
X190246000Y-97282000D03*
X171704000Y-101092000D03*
%TO.N,GND*%
X151638000Y-99060000D03*
%TO.N,/charger1/Vo-*%
X177100000Y-104329000D03*
%TO.N,/charger0/Vo-*%
X177100000Y-113473000D03*
%TO.N,GND*%
X151638000Y-108204000D03*
%TO.N,/charger0/Vo-*%
X171704000Y-110236000D03*
X190246000Y-106426000D03*
X184785000Y-112903000D03*
X183515000Y-106299000D03*
X179705000Y-111633000D03*
X188595000Y-112395000D03*
%TO.N,/charger0/REGN*%
X183896000Y-112495106D03*
X183134000Y-110620995D03*
%TD*%
D32*
%TO.N,Net-(D18-A2)*%
X178500000Y-62966000D02*
X179361500Y-62966000D01*
X179361500Y-62966000D02*
X180022500Y-63627000D01*
X180022500Y-63627000D02*
X180531000Y-63627000D01*
%TO.N,Net-(D15-A2)*%
X178500000Y-72110000D02*
X179361500Y-72110000D01*
X179361500Y-72110000D02*
X180022500Y-72771000D01*
X180022500Y-72771000D02*
X180531000Y-72771000D01*
%TO.N,Net-(D12-A2)*%
X178500000Y-81254000D02*
X179361500Y-81254000D01*
X179361500Y-81254000D02*
X180022500Y-81915000D01*
X180022500Y-81915000D02*
X180531000Y-81915000D01*
%TO.N,Net-(D9-A2)*%
X178500000Y-90398000D02*
X179361500Y-90398000D01*
X179361500Y-90398000D02*
X180022500Y-91059000D01*
X180022500Y-91059000D02*
X180531000Y-91059000D01*
%TO.N,Net-(D6-A2)*%
X178500000Y-99542000D02*
X179361500Y-99542000D01*
X179361500Y-99542000D02*
X180022500Y-100203000D01*
X180022500Y-100203000D02*
X180531000Y-100203000D01*
%TO.N,Net-(D3-A2)*%
X178500000Y-108686000D02*
X179552000Y-108686000D01*
X179552000Y-108686000D02*
X180213000Y-109347000D01*
X180213000Y-109347000D02*
X180531000Y-109347000D01*
%TO.N,Net-(U12-ICHG)*%
X182181000Y-66675000D02*
X183007000Y-66675000D01*
X183007000Y-66675000D02*
X183781004Y-65900996D01*
X183781004Y-65900996D02*
X184909000Y-65900996D01*
%TO.N,/charger5/V_sw*%
X187071000Y-62357000D02*
X187071000Y-62230000D01*
X187071000Y-62357000D02*
X187071000Y-61963000D01*
X186563000Y-63246000D02*
X187071000Y-63246000D01*
X186559002Y-63249998D02*
X186563000Y-63246000D01*
X187071000Y-63246000D02*
X187071000Y-62357000D01*
X186559002Y-63750998D02*
X186559002Y-63249998D01*
X187059001Y-63257999D02*
X187059001Y-63750998D01*
X187071000Y-61963000D02*
X186055000Y-60947000D01*
X187071000Y-62230000D02*
X188205000Y-62230000D01*
X187059001Y-63257999D02*
X187071000Y-63246000D01*
D33*
%TO.N,/charger5/V_iso*%
X175019000Y-65532000D02*
X175019000Y-64858600D01*
X175136000Y-61214000D02*
X175136000Y-63696000D01*
D32*
X184288996Y-64400996D02*
X184909000Y-64400996D01*
X184150000Y-64262000D02*
X184288996Y-64400996D01*
D33*
X184150000Y-64262000D02*
X183261000Y-63373000D01*
X175136000Y-66678000D02*
X175006000Y-66548000D01*
X183261000Y-61595000D02*
X182499000Y-60833000D01*
X175019000Y-64858600D02*
X175194000Y-64683600D01*
X177419000Y-60833000D02*
X177038000Y-61214000D01*
X183261000Y-63373000D02*
X183261000Y-61595000D01*
X175194000Y-64683600D02*
X175194000Y-63754000D01*
X175019000Y-66535000D02*
X175019000Y-65532000D01*
X175136000Y-67818000D02*
X175136000Y-66678000D01*
X175006000Y-66548000D02*
X175019000Y-66535000D01*
X177038000Y-61214000D02*
X175136000Y-61214000D01*
X182499000Y-60833000D02*
X177419000Y-60833000D01*
X175136000Y-63696000D02*
X175194000Y-63754000D01*
D32*
%TO.N,Net-(U11-D2)*%
X156906000Y-63566000D02*
X158496000Y-61976000D01*
X156077500Y-63566000D02*
X156906000Y-63566000D01*
X158496000Y-61976000D02*
X158718000Y-61976000D01*
%TO.N,Net-(U11-D1)*%
X158496000Y-67056000D02*
X158718000Y-67056000D01*
X156906000Y-65466000D02*
X158496000Y-67056000D01*
X156077500Y-65466000D02*
X156906000Y-65466000D01*
%TO.N,Net-(U12-TS)*%
X187008000Y-67882000D02*
X186559002Y-67433002D01*
X187008000Y-67945000D02*
X187008000Y-67882000D01*
X185610000Y-67945000D02*
X187008000Y-67945000D01*
X186559002Y-67433002D02*
X186559002Y-66550997D01*
%TO.N,Net-(U12-BTST)*%
X186059000Y-62501000D02*
X186055000Y-62497000D01*
X186059000Y-63750998D02*
X186059000Y-62501000D01*
%TO.N,/charger5/REGN*%
X183960000Y-67247000D02*
X183960000Y-67945000D01*
X182181000Y-62103000D02*
X182181000Y-63627000D01*
X182883995Y-65151000D02*
X182131000Y-65151000D01*
X183896000Y-67183000D02*
X183960000Y-67247000D01*
X183134000Y-64900995D02*
X184909000Y-64900995D01*
X183134000Y-64900995D02*
X182883995Y-65151000D01*
X182131000Y-63677000D02*
X182181000Y-63627000D01*
X182131000Y-65151000D02*
X182131000Y-63677000D01*
X183896000Y-66775106D02*
X183896000Y-67183000D01*
%TO.N,/charger5/STAT*%
X181356000Y-66335702D02*
X181356000Y-67183000D01*
X183519003Y-65400997D02*
X183007000Y-65913000D01*
X184909000Y-65400997D02*
X183519003Y-65400997D01*
X181356000Y-67183000D02*
X180975000Y-67564000D01*
X183007000Y-65913000D02*
X181778702Y-65913000D01*
X181778702Y-65913000D02*
X181356000Y-66335702D01*
%TO.N,Net-(U12-PMID)*%
X185293000Y-62992000D02*
X185026000Y-62992000D01*
X185026000Y-62992000D02*
X184531000Y-62497000D01*
X185559002Y-63258002D02*
X185293000Y-62992000D01*
X185559002Y-63750998D02*
X185559002Y-63258002D01*
%TO.N,Net-(D18-A1)*%
X177854000Y-61762000D02*
X177100000Y-62516000D01*
X177100000Y-62516000D02*
X177100000Y-62766000D01*
X179364000Y-61762000D02*
X177854000Y-61762000D01*
X180531000Y-62103000D02*
X179705000Y-62103000D01*
X179705000Y-62103000D02*
X179364000Y-61762000D01*
D33*
%TO.N,Net-(D17-A)*%
X169958000Y-61976000D02*
X171574000Y-61976000D01*
X171574000Y-61976000D02*
X172336000Y-61214000D01*
%TO.N,Net-(D16-A)*%
X172336000Y-67818000D02*
X171574000Y-67056000D01*
X171574000Y-67056000D02*
X169958000Y-67056000D01*
%TO.N,/charger4/Vo-*%
X190246000Y-63500000D02*
X190255000Y-63491000D01*
X190386000Y-64516000D02*
X190386000Y-63640000D01*
X190386000Y-63640000D02*
X190246000Y-63500000D01*
X190255000Y-63491000D02*
X190255000Y-62230000D01*
D32*
X189501003Y-65400997D02*
X190386000Y-64516000D01*
X187709000Y-65400997D02*
X189501003Y-65400997D01*
%TO.N,/charger5/Vo-*%
X187709000Y-64900995D02*
X188451005Y-64900995D01*
X188451005Y-64900995D02*
X188836000Y-64516000D01*
X186059000Y-66957184D02*
X186007592Y-67008592D01*
X183515000Y-60579000D02*
X183883000Y-60947000D01*
X188595000Y-66167000D02*
X188328996Y-65900996D01*
X188658000Y-67945000D02*
X188658000Y-66738000D01*
X187059002Y-64400996D02*
X186898999Y-64560999D01*
X188328996Y-65900996D02*
X187709000Y-65900996D01*
D33*
X172466000Y-63754000D02*
X171704000Y-64516000D01*
D32*
X188658000Y-66738000D02*
X188595000Y-66675000D01*
X186559005Y-64900995D02*
X186309003Y-65150997D01*
X186007592Y-67008592D02*
X185833184Y-67183000D01*
X188595000Y-66675000D02*
X188595000Y-66167000D01*
D33*
X171704000Y-64516000D02*
X172720000Y-65532000D01*
X173294000Y-63754000D02*
X172466000Y-63754000D01*
D32*
X187709000Y-64900995D02*
X186559005Y-64900995D01*
X187709000Y-64400996D02*
X187059002Y-64400996D01*
D33*
X172720000Y-65532000D02*
X173469000Y-65532000D01*
X169958000Y-64516000D02*
X171704000Y-64516000D01*
D32*
X186059000Y-66550997D02*
X186059000Y-66957184D01*
X183883000Y-60947000D02*
X184531000Y-60947000D01*
X188720996Y-64400996D02*
X188836000Y-64516000D01*
X185833184Y-67183000D02*
X184785000Y-67183000D01*
X187709000Y-64400996D02*
X188720996Y-64400996D01*
%TO.N,GND*%
X153802500Y-63566000D02*
X151638000Y-63566000D01*
D33*
X151638000Y-63566000D02*
X151638000Y-62484000D01*
%TO.N,+5V*%
X151958000Y-65466000D02*
X152908000Y-64516000D01*
X156077500Y-64516000D02*
X158718000Y-64516000D01*
X151638000Y-65466000D02*
X151958000Y-65466000D01*
X152908000Y-64516000D02*
X153802500Y-64516000D01*
D32*
X153802500Y-64516000D02*
X156077500Y-64516000D01*
D33*
X151638000Y-65466000D02*
X151318000Y-65466000D01*
D32*
%TO.N,/charger5/STAT*%
X178500000Y-66359000D02*
X179705000Y-67564000D01*
X178500000Y-66066000D02*
X178500000Y-66359000D01*
X180975000Y-67564000D02*
X179705000Y-67564000D01*
%TO.N,/charger5/Vo-*%
X177100000Y-67753000D02*
X177100000Y-66066000D01*
X180467000Y-65151000D02*
X180581000Y-65151000D01*
X179705000Y-65913000D02*
X180467000Y-65151000D01*
X180467000Y-66675000D02*
X180531000Y-66675000D01*
X179705000Y-65913000D02*
X180467000Y-66675000D01*
%TO.N,Net-(U10-ICHG)*%
X182181000Y-75819000D02*
X183007000Y-75819000D01*
X183007000Y-75819000D02*
X183781004Y-75044996D01*
X183781004Y-75044996D02*
X184909000Y-75044996D01*
%TO.N,/charger4/V_sw*%
X187071000Y-71501000D02*
X187071000Y-71374000D01*
X187071000Y-71501000D02*
X187071000Y-71107000D01*
X186563000Y-72390000D02*
X187071000Y-72390000D01*
X186559002Y-72393998D02*
X186563000Y-72390000D01*
X187071000Y-72390000D02*
X187071000Y-71501000D01*
X186559002Y-72894998D02*
X186559002Y-72393998D01*
X187059001Y-72401999D02*
X187059001Y-72894998D01*
X187071000Y-71107000D02*
X186055000Y-70091000D01*
X187071000Y-71374000D02*
X188205000Y-71374000D01*
X187059001Y-72401999D02*
X187071000Y-72390000D01*
D33*
%TO.N,/charger4/V_iso*%
X175019000Y-74676000D02*
X175019000Y-74002600D01*
X175136000Y-70358000D02*
X175136000Y-72840000D01*
D32*
X184288996Y-73544996D02*
X184909000Y-73544996D01*
X184150000Y-73406000D02*
X184288996Y-73544996D01*
D33*
X184150000Y-73406000D02*
X183261000Y-72517000D01*
X175136000Y-75822000D02*
X175006000Y-75692000D01*
X183261000Y-70739000D02*
X182499000Y-69977000D01*
X175019000Y-74002600D02*
X175194000Y-73827600D01*
X177419000Y-69977000D02*
X177038000Y-70358000D01*
X183261000Y-72517000D02*
X183261000Y-70739000D01*
X175194000Y-73827600D02*
X175194000Y-72898000D01*
X175019000Y-75679000D02*
X175019000Y-74676000D01*
X175136000Y-76962000D02*
X175136000Y-75822000D01*
X175006000Y-75692000D02*
X175019000Y-75679000D01*
X177038000Y-70358000D02*
X175136000Y-70358000D01*
X182499000Y-69977000D02*
X177419000Y-69977000D01*
X175136000Y-72840000D02*
X175194000Y-72898000D01*
D32*
%TO.N,Net-(U9-D2)*%
X156906000Y-72710000D02*
X158496000Y-71120000D01*
X156077500Y-72710000D02*
X156906000Y-72710000D01*
X158496000Y-71120000D02*
X158718000Y-71120000D01*
%TO.N,Net-(U9-D1)*%
X158496000Y-76200000D02*
X158718000Y-76200000D01*
X156906000Y-74610000D02*
X158496000Y-76200000D01*
X156077500Y-74610000D02*
X156906000Y-74610000D01*
%TO.N,Net-(U10-TS)*%
X187008000Y-77026000D02*
X186559002Y-76577002D01*
X187008000Y-77089000D02*
X187008000Y-77026000D01*
X185610000Y-77089000D02*
X187008000Y-77089000D01*
X186559002Y-76577002D02*
X186559002Y-75694997D01*
%TO.N,Net-(U10-BTST)*%
X186059000Y-71645000D02*
X186055000Y-71641000D01*
X186059000Y-72894998D02*
X186059000Y-71645000D01*
%TO.N,/charger4/REGN*%
X183960000Y-76391000D02*
X183960000Y-77089000D01*
X182181000Y-71247000D02*
X182181000Y-72771000D01*
X182883995Y-74295000D02*
X182131000Y-74295000D01*
X183896000Y-76327000D02*
X183960000Y-76391000D01*
X183134000Y-74044995D02*
X184909000Y-74044995D01*
X183134000Y-74044995D02*
X182883995Y-74295000D01*
X182131000Y-72821000D02*
X182181000Y-72771000D01*
X182131000Y-74295000D02*
X182131000Y-72821000D01*
X183896000Y-75919106D02*
X183896000Y-76327000D01*
%TO.N,/charger4/STAT*%
X181356000Y-75479702D02*
X181356000Y-76327000D01*
X183519003Y-74544997D02*
X183007000Y-75057000D01*
X184909000Y-74544997D02*
X183519003Y-74544997D01*
X181356000Y-76327000D02*
X180975000Y-76708000D01*
X183007000Y-75057000D02*
X181778702Y-75057000D01*
X181778702Y-75057000D02*
X181356000Y-75479702D01*
%TO.N,Net-(U10-PMID)*%
X185293000Y-72136000D02*
X185026000Y-72136000D01*
X185026000Y-72136000D02*
X184531000Y-71641000D01*
X185559002Y-72402002D02*
X185293000Y-72136000D01*
X185559002Y-72894998D02*
X185559002Y-72402002D01*
%TO.N,Net-(D15-A1)*%
X177854000Y-70906000D02*
X177100000Y-71660000D01*
X177100000Y-71660000D02*
X177100000Y-71910000D01*
X179364000Y-70906000D02*
X177854000Y-70906000D01*
X180531000Y-71247000D02*
X179705000Y-71247000D01*
X179705000Y-71247000D02*
X179364000Y-70906000D01*
D33*
%TO.N,Net-(D14-A)*%
X169958000Y-71120000D02*
X171574000Y-71120000D01*
X171574000Y-71120000D02*
X172336000Y-70358000D01*
%TO.N,Net-(D13-A)*%
X172336000Y-76962000D02*
X171574000Y-76200000D01*
X171574000Y-76200000D02*
X169958000Y-76200000D01*
%TO.N,/charger3/Vo-*%
X190246000Y-72644000D02*
X190255000Y-72635000D01*
X190386000Y-73660000D02*
X190386000Y-72784000D01*
X190386000Y-72784000D02*
X190246000Y-72644000D01*
X190255000Y-72635000D02*
X190255000Y-71374000D01*
D32*
X189501003Y-74544997D02*
X190386000Y-73660000D01*
X187709000Y-74544997D02*
X189501003Y-74544997D01*
%TO.N,/charger4/Vo-*%
X187709000Y-74044995D02*
X188451005Y-74044995D01*
X188451005Y-74044995D02*
X188836000Y-73660000D01*
X186059000Y-76101184D02*
X186007592Y-76152592D01*
X183515000Y-69723000D02*
X183883000Y-70091000D01*
X188595000Y-75311000D02*
X188328996Y-75044996D01*
X188658000Y-77089000D02*
X188658000Y-75882000D01*
X187059002Y-73544996D02*
X186898999Y-73704999D01*
X188328996Y-75044996D02*
X187709000Y-75044996D01*
D33*
X172466000Y-72898000D02*
X171704000Y-73660000D01*
D32*
X188658000Y-75882000D02*
X188595000Y-75819000D01*
X186559005Y-74044995D02*
X186309003Y-74294997D01*
X186007592Y-76152592D02*
X185833184Y-76327000D01*
X188595000Y-75819000D02*
X188595000Y-75311000D01*
D33*
X171704000Y-73660000D02*
X172720000Y-74676000D01*
X173294000Y-72898000D02*
X172466000Y-72898000D01*
D32*
X187709000Y-74044995D02*
X186559005Y-74044995D01*
X187709000Y-73544996D02*
X187059002Y-73544996D01*
D33*
X172720000Y-74676000D02*
X173469000Y-74676000D01*
X169958000Y-73660000D02*
X171704000Y-73660000D01*
D32*
X186059000Y-75694997D02*
X186059000Y-76101184D01*
X183883000Y-70091000D02*
X184531000Y-70091000D01*
X188720996Y-73544996D02*
X188836000Y-73660000D01*
X185833184Y-76327000D02*
X184785000Y-76327000D01*
X187709000Y-73544996D02*
X188720996Y-73544996D01*
%TO.N,GND*%
X153802500Y-72710000D02*
X151638000Y-72710000D01*
D33*
X151638000Y-72710000D02*
X151638000Y-71628000D01*
%TO.N,+5V*%
X151958000Y-74610000D02*
X152908000Y-73660000D01*
X156077500Y-73660000D02*
X158718000Y-73660000D01*
X151638000Y-74610000D02*
X151958000Y-74610000D01*
X152908000Y-73660000D02*
X153802500Y-73660000D01*
D32*
X153802500Y-73660000D02*
X156077500Y-73660000D01*
D33*
X151638000Y-74610000D02*
X151318000Y-74610000D01*
D32*
%TO.N,/charger4/STAT*%
X178500000Y-75503000D02*
X179705000Y-76708000D01*
X178500000Y-75210000D02*
X178500000Y-75503000D01*
X180975000Y-76708000D02*
X179705000Y-76708000D01*
%TO.N,/charger4/Vo-*%
X177100000Y-76897000D02*
X177100000Y-75210000D01*
X180467000Y-74295000D02*
X180581000Y-74295000D01*
X179705000Y-75057000D02*
X180467000Y-74295000D01*
X180467000Y-75819000D02*
X180531000Y-75819000D01*
X179705000Y-75057000D02*
X180467000Y-75819000D01*
%TO.N,Net-(U8-ICHG)*%
X182181000Y-84963000D02*
X183007000Y-84963000D01*
X183007000Y-84963000D02*
X183781004Y-84188996D01*
X183781004Y-84188996D02*
X184909000Y-84188996D01*
%TO.N,/charger3/V_sw*%
X187071000Y-80645000D02*
X187071000Y-80518000D01*
X187071000Y-80645000D02*
X187071000Y-80251000D01*
X186563000Y-81534000D02*
X187071000Y-81534000D01*
X186559002Y-81537998D02*
X186563000Y-81534000D01*
X187071000Y-81534000D02*
X187071000Y-80645000D01*
X186559002Y-82038998D02*
X186559002Y-81537998D01*
X187059001Y-81545999D02*
X187059001Y-82038998D01*
X187071000Y-80251000D02*
X186055000Y-79235000D01*
X187071000Y-80518000D02*
X188205000Y-80518000D01*
X187059001Y-81545999D02*
X187071000Y-81534000D01*
D33*
%TO.N,/charger3/V_iso*%
X175019000Y-83820000D02*
X175019000Y-83146600D01*
X175136000Y-79502000D02*
X175136000Y-81984000D01*
D32*
X184288996Y-82688996D02*
X184909000Y-82688996D01*
X184150000Y-82550000D02*
X184288996Y-82688996D01*
D33*
X184150000Y-82550000D02*
X183261000Y-81661000D01*
X175136000Y-84966000D02*
X175006000Y-84836000D01*
X183261000Y-79883000D02*
X182499000Y-79121000D01*
X175019000Y-83146600D02*
X175194000Y-82971600D01*
X177419000Y-79121000D02*
X177038000Y-79502000D01*
X183261000Y-81661000D02*
X183261000Y-79883000D01*
X175194000Y-82971600D02*
X175194000Y-82042000D01*
X175019000Y-84823000D02*
X175019000Y-83820000D01*
X175136000Y-86106000D02*
X175136000Y-84966000D01*
X175006000Y-84836000D02*
X175019000Y-84823000D01*
X177038000Y-79502000D02*
X175136000Y-79502000D01*
X182499000Y-79121000D02*
X177419000Y-79121000D01*
X175136000Y-81984000D02*
X175194000Y-82042000D01*
D32*
%TO.N,Net-(U7-D2)*%
X156906000Y-81854000D02*
X158496000Y-80264000D01*
X156077500Y-81854000D02*
X156906000Y-81854000D01*
X158496000Y-80264000D02*
X158718000Y-80264000D01*
%TO.N,Net-(U7-D1)*%
X158496000Y-85344000D02*
X158718000Y-85344000D01*
X156906000Y-83754000D02*
X158496000Y-85344000D01*
X156077500Y-83754000D02*
X156906000Y-83754000D01*
%TO.N,Net-(U8-TS)*%
X187008000Y-86170000D02*
X186559002Y-85721002D01*
X187008000Y-86233000D02*
X187008000Y-86170000D01*
X185610000Y-86233000D02*
X187008000Y-86233000D01*
X186559002Y-85721002D02*
X186559002Y-84838997D01*
%TO.N,Net-(U8-BTST)*%
X186059000Y-80789000D02*
X186055000Y-80785000D01*
X186059000Y-82038998D02*
X186059000Y-80789000D01*
%TO.N,/charger3/REGN*%
X183960000Y-85535000D02*
X183960000Y-86233000D01*
X182181000Y-80391000D02*
X182181000Y-81915000D01*
X182883995Y-83439000D02*
X182131000Y-83439000D01*
X183896000Y-85471000D02*
X183960000Y-85535000D01*
X183134000Y-83188995D02*
X184909000Y-83188995D01*
X183134000Y-83188995D02*
X182883995Y-83439000D01*
X182131000Y-81965000D02*
X182181000Y-81915000D01*
X182131000Y-83439000D02*
X182131000Y-81965000D01*
X183896000Y-85063106D02*
X183896000Y-85471000D01*
%TO.N,/charger3/STAT*%
X181356000Y-84623702D02*
X181356000Y-85471000D01*
X183519003Y-83688997D02*
X183007000Y-84201000D01*
X184909000Y-83688997D02*
X183519003Y-83688997D01*
X181356000Y-85471000D02*
X180975000Y-85852000D01*
X183007000Y-84201000D02*
X181778702Y-84201000D01*
X181778702Y-84201000D02*
X181356000Y-84623702D01*
%TO.N,Net-(U8-PMID)*%
X185293000Y-81280000D02*
X185026000Y-81280000D01*
X185026000Y-81280000D02*
X184531000Y-80785000D01*
X185559002Y-81546002D02*
X185293000Y-81280000D01*
X185559002Y-82038998D02*
X185559002Y-81546002D01*
%TO.N,Net-(D12-A1)*%
X177854000Y-80050000D02*
X177100000Y-80804000D01*
X177100000Y-80804000D02*
X177100000Y-81054000D01*
X179364000Y-80050000D02*
X177854000Y-80050000D01*
X180531000Y-80391000D02*
X179705000Y-80391000D01*
X179705000Y-80391000D02*
X179364000Y-80050000D01*
D33*
%TO.N,Net-(D11-A)*%
X169958000Y-80264000D02*
X171574000Y-80264000D01*
X171574000Y-80264000D02*
X172336000Y-79502000D01*
%TO.N,Net-(D10-A)*%
X172336000Y-86106000D02*
X171574000Y-85344000D01*
X171574000Y-85344000D02*
X169958000Y-85344000D01*
%TO.N,/charger2/Vo-*%
X190246000Y-81788000D02*
X190255000Y-81779000D01*
X190386000Y-82804000D02*
X190386000Y-81928000D01*
X190386000Y-81928000D02*
X190246000Y-81788000D01*
X190255000Y-81779000D02*
X190255000Y-80518000D01*
D32*
X189501003Y-83688997D02*
X190386000Y-82804000D01*
X187709000Y-83688997D02*
X189501003Y-83688997D01*
%TO.N,/charger3/Vo-*%
X187709000Y-83188995D02*
X188451005Y-83188995D01*
X188451005Y-83188995D02*
X188836000Y-82804000D01*
X186059000Y-85245184D02*
X186007592Y-85296592D01*
X183515000Y-78867000D02*
X183883000Y-79235000D01*
X188595000Y-84455000D02*
X188328996Y-84188996D01*
X188658000Y-86233000D02*
X188658000Y-85026000D01*
X187059002Y-82688996D02*
X186898999Y-82848999D01*
X188328996Y-84188996D02*
X187709000Y-84188996D01*
D33*
X172466000Y-82042000D02*
X171704000Y-82804000D01*
D32*
X188658000Y-85026000D02*
X188595000Y-84963000D01*
X186559005Y-83188995D02*
X186309003Y-83438997D01*
X186007592Y-85296592D02*
X185833184Y-85471000D01*
X188595000Y-84963000D02*
X188595000Y-84455000D01*
D33*
X171704000Y-82804000D02*
X172720000Y-83820000D01*
X173294000Y-82042000D02*
X172466000Y-82042000D01*
D32*
X187709000Y-83188995D02*
X186559005Y-83188995D01*
X187709000Y-82688996D02*
X187059002Y-82688996D01*
D33*
X172720000Y-83820000D02*
X173469000Y-83820000D01*
X169958000Y-82804000D02*
X171704000Y-82804000D01*
D32*
X186059000Y-84838997D02*
X186059000Y-85245184D01*
X183883000Y-79235000D02*
X184531000Y-79235000D01*
X188720996Y-82688996D02*
X188836000Y-82804000D01*
X185833184Y-85471000D02*
X184785000Y-85471000D01*
X187709000Y-82688996D02*
X188720996Y-82688996D01*
%TO.N,GND*%
X153802500Y-81854000D02*
X151638000Y-81854000D01*
D33*
X151638000Y-81854000D02*
X151638000Y-80772000D01*
%TO.N,+5V*%
X151958000Y-83754000D02*
X152908000Y-82804000D01*
X156077500Y-82804000D02*
X158718000Y-82804000D01*
X151638000Y-83754000D02*
X151958000Y-83754000D01*
X152908000Y-82804000D02*
X153802500Y-82804000D01*
D32*
X153802500Y-82804000D02*
X156077500Y-82804000D01*
D33*
X151638000Y-83754000D02*
X151318000Y-83754000D01*
D32*
%TO.N,/charger3/STAT*%
X178500000Y-84647000D02*
X179705000Y-85852000D01*
X178500000Y-84354000D02*
X178500000Y-84647000D01*
X180975000Y-85852000D02*
X179705000Y-85852000D01*
%TO.N,/charger3/Vo-*%
X177100000Y-86041000D02*
X177100000Y-84354000D01*
X180467000Y-83439000D02*
X180581000Y-83439000D01*
X179705000Y-84201000D02*
X180467000Y-83439000D01*
X180467000Y-84963000D02*
X180531000Y-84963000D01*
X179705000Y-84201000D02*
X180467000Y-84963000D01*
%TO.N,Net-(U6-ICHG)*%
X182181000Y-94107000D02*
X183007000Y-94107000D01*
X183007000Y-94107000D02*
X183781004Y-93332996D01*
X183781004Y-93332996D02*
X184909000Y-93332996D01*
%TO.N,/charger2/V_sw*%
X187071000Y-89789000D02*
X187071000Y-89662000D01*
X187071000Y-89789000D02*
X187071000Y-89395000D01*
X186563000Y-90678000D02*
X187071000Y-90678000D01*
X186559002Y-90681998D02*
X186563000Y-90678000D01*
X187071000Y-90678000D02*
X187071000Y-89789000D01*
X186559002Y-91182998D02*
X186559002Y-90681998D01*
X187059001Y-90689999D02*
X187059001Y-91182998D01*
X187071000Y-89395000D02*
X186055000Y-88379000D01*
X187071000Y-89662000D02*
X188205000Y-89662000D01*
X187059001Y-90689999D02*
X187071000Y-90678000D01*
D33*
%TO.N,/charger2/V_iso*%
X175019000Y-92964000D02*
X175019000Y-92290600D01*
X175136000Y-88646000D02*
X175136000Y-91128000D01*
D32*
X184288996Y-91832996D02*
X184909000Y-91832996D01*
X184150000Y-91694000D02*
X184288996Y-91832996D01*
D33*
X184150000Y-91694000D02*
X183261000Y-90805000D01*
X175136000Y-94110000D02*
X175006000Y-93980000D01*
X183261000Y-89027000D02*
X182499000Y-88265000D01*
X175019000Y-92290600D02*
X175194000Y-92115600D01*
X177419000Y-88265000D02*
X177038000Y-88646000D01*
X183261000Y-90805000D02*
X183261000Y-89027000D01*
X175194000Y-92115600D02*
X175194000Y-91186000D01*
X175019000Y-93967000D02*
X175019000Y-92964000D01*
X175136000Y-95250000D02*
X175136000Y-94110000D01*
X175006000Y-93980000D02*
X175019000Y-93967000D01*
X177038000Y-88646000D02*
X175136000Y-88646000D01*
X182499000Y-88265000D02*
X177419000Y-88265000D01*
X175136000Y-91128000D02*
X175194000Y-91186000D01*
D32*
%TO.N,Net-(U5-D2)*%
X156906000Y-90998000D02*
X158496000Y-89408000D01*
X156077500Y-90998000D02*
X156906000Y-90998000D01*
X158496000Y-89408000D02*
X158718000Y-89408000D01*
%TO.N,Net-(U5-D1)*%
X158496000Y-94488000D02*
X158718000Y-94488000D01*
X156906000Y-92898000D02*
X158496000Y-94488000D01*
X156077500Y-92898000D02*
X156906000Y-92898000D01*
%TO.N,Net-(U6-TS)*%
X187008000Y-95314000D02*
X186559002Y-94865002D01*
X187008000Y-95377000D02*
X187008000Y-95314000D01*
X185610000Y-95377000D02*
X187008000Y-95377000D01*
X186559002Y-94865002D02*
X186559002Y-93982997D01*
%TO.N,Net-(U6-BTST)*%
X186059000Y-89933000D02*
X186055000Y-89929000D01*
X186059000Y-91182998D02*
X186059000Y-89933000D01*
%TO.N,/charger2/REGN*%
X183960000Y-94679000D02*
X183960000Y-95377000D01*
X182181000Y-89535000D02*
X182181000Y-91059000D01*
X182883995Y-92583000D02*
X182131000Y-92583000D01*
X183896000Y-94615000D02*
X183960000Y-94679000D01*
X183134000Y-92332995D02*
X184909000Y-92332995D01*
X183134000Y-92332995D02*
X182883995Y-92583000D01*
X182131000Y-91109000D02*
X182181000Y-91059000D01*
X182131000Y-92583000D02*
X182131000Y-91109000D01*
X183896000Y-94207106D02*
X183896000Y-94615000D01*
%TO.N,/charger2/STAT*%
X181356000Y-93767702D02*
X181356000Y-94615000D01*
X183519003Y-92832997D02*
X183007000Y-93345000D01*
X184909000Y-92832997D02*
X183519003Y-92832997D01*
X181356000Y-94615000D02*
X180975000Y-94996000D01*
X183007000Y-93345000D02*
X181778702Y-93345000D01*
X181778702Y-93345000D02*
X181356000Y-93767702D01*
%TO.N,Net-(U6-PMID)*%
X185293000Y-90424000D02*
X185026000Y-90424000D01*
X185026000Y-90424000D02*
X184531000Y-89929000D01*
X185559002Y-90690002D02*
X185293000Y-90424000D01*
X185559002Y-91182998D02*
X185559002Y-90690002D01*
%TO.N,Net-(D9-A1)*%
X177854000Y-89194000D02*
X177100000Y-89948000D01*
X177100000Y-89948000D02*
X177100000Y-90198000D01*
X179364000Y-89194000D02*
X177854000Y-89194000D01*
X180531000Y-89535000D02*
X179705000Y-89535000D01*
X179705000Y-89535000D02*
X179364000Y-89194000D01*
D33*
%TO.N,Net-(D8-A)*%
X169958000Y-89408000D02*
X171574000Y-89408000D01*
X171574000Y-89408000D02*
X172336000Y-88646000D01*
%TO.N,Net-(D7-A)*%
X172336000Y-95250000D02*
X171574000Y-94488000D01*
X171574000Y-94488000D02*
X169958000Y-94488000D01*
%TO.N,/charger1/Vo-*%
X190246000Y-90932000D02*
X190255000Y-90923000D01*
X190386000Y-91948000D02*
X190386000Y-91072000D01*
X190386000Y-91072000D02*
X190246000Y-90932000D01*
X190255000Y-90923000D02*
X190255000Y-89662000D01*
D32*
X189501003Y-92832997D02*
X190386000Y-91948000D01*
X187709000Y-92832997D02*
X189501003Y-92832997D01*
%TO.N,/charger2/Vo-*%
X187709000Y-92332995D02*
X188451005Y-92332995D01*
X188451005Y-92332995D02*
X188836000Y-91948000D01*
X186059000Y-94389184D02*
X186007592Y-94440592D01*
X183515000Y-88011000D02*
X183883000Y-88379000D01*
X188595000Y-93599000D02*
X188328996Y-93332996D01*
X188658000Y-95377000D02*
X188658000Y-94170000D01*
X187059002Y-91832996D02*
X186898999Y-91992999D01*
X188328996Y-93332996D02*
X187709000Y-93332996D01*
D33*
X172466000Y-91186000D02*
X171704000Y-91948000D01*
D32*
X188658000Y-94170000D02*
X188595000Y-94107000D01*
X186559005Y-92332995D02*
X186309003Y-92582997D01*
X186007592Y-94440592D02*
X185833184Y-94615000D01*
X188595000Y-94107000D02*
X188595000Y-93599000D01*
D33*
X171704000Y-91948000D02*
X172720000Y-92964000D01*
X173294000Y-91186000D02*
X172466000Y-91186000D01*
D32*
X187709000Y-92332995D02*
X186559005Y-92332995D01*
X187709000Y-91832996D02*
X187059002Y-91832996D01*
D33*
X172720000Y-92964000D02*
X173469000Y-92964000D01*
X169958000Y-91948000D02*
X171704000Y-91948000D01*
D32*
X186059000Y-93982997D02*
X186059000Y-94389184D01*
X183883000Y-88379000D02*
X184531000Y-88379000D01*
X188720996Y-91832996D02*
X188836000Y-91948000D01*
X185833184Y-94615000D02*
X184785000Y-94615000D01*
X187709000Y-91832996D02*
X188720996Y-91832996D01*
%TO.N,GND*%
X153802500Y-90998000D02*
X151638000Y-90998000D01*
D33*
X151638000Y-90998000D02*
X151638000Y-89916000D01*
%TO.N,+5V*%
X151958000Y-92898000D02*
X152908000Y-91948000D01*
X156077500Y-91948000D02*
X158718000Y-91948000D01*
X151638000Y-92898000D02*
X151958000Y-92898000D01*
X152908000Y-91948000D02*
X153802500Y-91948000D01*
D32*
X153802500Y-91948000D02*
X156077500Y-91948000D01*
D33*
X151638000Y-92898000D02*
X151318000Y-92898000D01*
D32*
%TO.N,/charger2/STAT*%
X178500000Y-93791000D02*
X179705000Y-94996000D01*
X178500000Y-93498000D02*
X178500000Y-93791000D01*
X180975000Y-94996000D02*
X179705000Y-94996000D01*
%TO.N,/charger2/Vo-*%
X177100000Y-95185000D02*
X177100000Y-93498000D01*
X180467000Y-92583000D02*
X180581000Y-92583000D01*
X179705000Y-93345000D02*
X180467000Y-92583000D01*
X180467000Y-94107000D02*
X180531000Y-94107000D01*
X179705000Y-93345000D02*
X180467000Y-94107000D01*
%TO.N,Net-(U4-ICHG)*%
X182181000Y-103251000D02*
X183007000Y-103251000D01*
X183007000Y-103251000D02*
X183781004Y-102476996D01*
X183781004Y-102476996D02*
X184909000Y-102476996D01*
%TO.N,/charger1/V_sw*%
X187071000Y-98933000D02*
X187071000Y-98806000D01*
X187071000Y-98933000D02*
X187071000Y-98539000D01*
X186563000Y-99822000D02*
X187071000Y-99822000D01*
X186559002Y-99825998D02*
X186563000Y-99822000D01*
X187071000Y-99822000D02*
X187071000Y-98933000D01*
X186559002Y-100326998D02*
X186559002Y-99825998D01*
X187059001Y-99833999D02*
X187059001Y-100326998D01*
X187071000Y-98539000D02*
X186055000Y-97523000D01*
X187071000Y-98806000D02*
X188205000Y-98806000D01*
X187059001Y-99833999D02*
X187071000Y-99822000D01*
D33*
%TO.N,/charger1/V_iso*%
X175019000Y-102108000D02*
X175019000Y-101434600D01*
X175136000Y-97790000D02*
X175136000Y-100272000D01*
D32*
X184288996Y-100976996D02*
X184909000Y-100976996D01*
X184150000Y-100838000D02*
X184288996Y-100976996D01*
D33*
X184150000Y-100838000D02*
X183261000Y-99949000D01*
X175136000Y-103254000D02*
X175006000Y-103124000D01*
X183261000Y-98171000D02*
X182499000Y-97409000D01*
X175019000Y-101434600D02*
X175194000Y-101259600D01*
X177419000Y-97409000D02*
X177038000Y-97790000D01*
X183261000Y-99949000D02*
X183261000Y-98171000D01*
X175194000Y-101259600D02*
X175194000Y-100330000D01*
X175019000Y-103111000D02*
X175019000Y-102108000D01*
X175136000Y-104394000D02*
X175136000Y-103254000D01*
X175006000Y-103124000D02*
X175019000Y-103111000D01*
X177038000Y-97790000D02*
X175136000Y-97790000D01*
X182499000Y-97409000D02*
X177419000Y-97409000D01*
X175136000Y-100272000D02*
X175194000Y-100330000D01*
D32*
%TO.N,Net-(U3-D2)*%
X156906000Y-100142000D02*
X158496000Y-98552000D01*
X156077500Y-100142000D02*
X156906000Y-100142000D01*
X158496000Y-98552000D02*
X158718000Y-98552000D01*
%TO.N,Net-(U3-D1)*%
X158496000Y-103632000D02*
X158718000Y-103632000D01*
X156906000Y-102042000D02*
X158496000Y-103632000D01*
X156077500Y-102042000D02*
X156906000Y-102042000D01*
%TO.N,Net-(U4-TS)*%
X187008000Y-104458000D02*
X186559002Y-104009002D01*
X187008000Y-104521000D02*
X187008000Y-104458000D01*
X185610000Y-104521000D02*
X187008000Y-104521000D01*
X186559002Y-104009002D02*
X186559002Y-103126997D01*
%TO.N,Net-(U4-BTST)*%
X186059000Y-99077000D02*
X186055000Y-99073000D01*
X186059000Y-100326998D02*
X186059000Y-99077000D01*
%TO.N,/charger1/REGN*%
X183960000Y-103823000D02*
X183960000Y-104521000D01*
X182181000Y-98679000D02*
X182181000Y-100203000D01*
X182883995Y-101727000D02*
X182131000Y-101727000D01*
X183896000Y-103759000D02*
X183960000Y-103823000D01*
X183134000Y-101476995D02*
X184909000Y-101476995D01*
X183134000Y-101476995D02*
X182883995Y-101727000D01*
X182131000Y-100253000D02*
X182181000Y-100203000D01*
X182131000Y-101727000D02*
X182131000Y-100253000D01*
X183896000Y-103351106D02*
X183896000Y-103759000D01*
%TO.N,/charger1/STAT*%
X181356000Y-102911702D02*
X181356000Y-103759000D01*
X183519003Y-101976997D02*
X183007000Y-102489000D01*
X184909000Y-101976997D02*
X183519003Y-101976997D01*
X181356000Y-103759000D02*
X180975000Y-104140000D01*
X183007000Y-102489000D02*
X181778702Y-102489000D01*
X181778702Y-102489000D02*
X181356000Y-102911702D01*
%TO.N,Net-(U4-PMID)*%
X185293000Y-99568000D02*
X185026000Y-99568000D01*
X185026000Y-99568000D02*
X184531000Y-99073000D01*
X185559002Y-99834002D02*
X185293000Y-99568000D01*
X185559002Y-100326998D02*
X185559002Y-99834002D01*
%TO.N,Net-(D6-A1)*%
X177854000Y-98338000D02*
X177100000Y-99092000D01*
X177100000Y-99092000D02*
X177100000Y-99342000D01*
X179364000Y-98338000D02*
X177854000Y-98338000D01*
X180531000Y-98679000D02*
X179705000Y-98679000D01*
X179705000Y-98679000D02*
X179364000Y-98338000D01*
D33*
%TO.N,Net-(D5-A)*%
X169958000Y-98552000D02*
X171574000Y-98552000D01*
X171574000Y-98552000D02*
X172336000Y-97790000D01*
%TO.N,Net-(D4-A)*%
X172336000Y-104394000D02*
X171574000Y-103632000D01*
X171574000Y-103632000D02*
X169958000Y-103632000D01*
%TO.N,/charger0/Vo-*%
X190246000Y-100076000D02*
X190255000Y-100067000D01*
X190386000Y-101092000D02*
X190386000Y-100216000D01*
X190386000Y-100216000D02*
X190246000Y-100076000D01*
X190255000Y-100067000D02*
X190255000Y-98806000D01*
D32*
X189501003Y-101976997D02*
X190386000Y-101092000D01*
X187709000Y-101976997D02*
X189501003Y-101976997D01*
%TO.N,/charger1/Vo-*%
X187709000Y-101476995D02*
X188451005Y-101476995D01*
X188451005Y-101476995D02*
X188836000Y-101092000D01*
X186059000Y-103533184D02*
X186007592Y-103584592D01*
X183515000Y-97155000D02*
X183883000Y-97523000D01*
X188595000Y-102743000D02*
X188328996Y-102476996D01*
X188658000Y-104521000D02*
X188658000Y-103314000D01*
X187059002Y-100976996D02*
X186898999Y-101136999D01*
X188328996Y-102476996D02*
X187709000Y-102476996D01*
D33*
X172466000Y-100330000D02*
X171704000Y-101092000D01*
D32*
X188658000Y-103314000D02*
X188595000Y-103251000D01*
X186559005Y-101476995D02*
X186309003Y-101726997D01*
X186007592Y-103584592D02*
X185833184Y-103759000D01*
X188595000Y-103251000D02*
X188595000Y-102743000D01*
D33*
X171704000Y-101092000D02*
X172720000Y-102108000D01*
X173294000Y-100330000D02*
X172466000Y-100330000D01*
D32*
X187709000Y-101476995D02*
X186559005Y-101476995D01*
X187709000Y-100976996D02*
X187059002Y-100976996D01*
D33*
X172720000Y-102108000D02*
X173469000Y-102108000D01*
X169958000Y-101092000D02*
X171704000Y-101092000D01*
D32*
X186059000Y-103126997D02*
X186059000Y-103533184D01*
X183883000Y-97523000D02*
X184531000Y-97523000D01*
X188720996Y-100976996D02*
X188836000Y-101092000D01*
X185833184Y-103759000D02*
X184785000Y-103759000D01*
X187709000Y-100976996D02*
X188720996Y-100976996D01*
%TO.N,GND*%
X153802500Y-100142000D02*
X151638000Y-100142000D01*
D33*
X151638000Y-100142000D02*
X151638000Y-99060000D01*
%TO.N,+5V*%
X151958000Y-102042000D02*
X152908000Y-101092000D01*
X156077500Y-101092000D02*
X158718000Y-101092000D01*
X151638000Y-102042000D02*
X151958000Y-102042000D01*
X152908000Y-101092000D02*
X153802500Y-101092000D01*
D32*
X153802500Y-101092000D02*
X156077500Y-101092000D01*
D33*
X151638000Y-102042000D02*
X151318000Y-102042000D01*
D32*
%TO.N,/charger1/STAT*%
X178500000Y-102935000D02*
X179705000Y-104140000D01*
X178500000Y-102642000D02*
X178500000Y-102935000D01*
X180975000Y-104140000D02*
X179705000Y-104140000D01*
%TO.N,/charger1/Vo-*%
X177100000Y-104329000D02*
X177100000Y-102642000D01*
X180467000Y-101727000D02*
X180581000Y-101727000D01*
X179705000Y-102489000D02*
X180467000Y-101727000D01*
X180467000Y-103251000D02*
X180531000Y-103251000D01*
X179705000Y-102489000D02*
X180467000Y-103251000D01*
%TO.N,/charger0/Vo-*%
X179705000Y-111633000D02*
X180467000Y-112395000D01*
X180467000Y-112395000D02*
X180531000Y-112395000D01*
X179705000Y-111633000D02*
X180467000Y-110871000D01*
X180467000Y-110871000D02*
X180581000Y-110871000D01*
X177100000Y-113473000D02*
X177100000Y-111786000D01*
%TO.N,/charger0/STAT*%
X180975000Y-113284000D02*
X179705000Y-113284000D01*
X178500000Y-111786000D02*
X178500000Y-112079000D01*
X178500000Y-112079000D02*
X179705000Y-113284000D01*
D33*
%TO.N,+5V*%
X151638000Y-74610000D02*
X147640000Y-74610000D01*
D32*
X147574000Y-74676000D02*
X147574000Y-69342000D01*
D33*
X147640000Y-102042000D02*
X147574000Y-102108000D01*
X151638000Y-102042000D02*
X147640000Y-102042000D01*
D32*
X147574000Y-83820000D02*
X147574000Y-74676000D01*
D33*
X147574000Y-69342000D02*
X151450000Y-65466000D01*
X151638000Y-111186000D02*
X151318000Y-111186000D01*
D32*
X153802500Y-110236000D02*
X156077500Y-110236000D01*
D33*
X147640000Y-92898000D02*
X147574000Y-92964000D01*
D32*
X147574000Y-87376000D02*
X147574000Y-83820000D01*
D33*
X152908000Y-110236000D02*
X153802500Y-110236000D01*
X147640000Y-83754000D02*
X147574000Y-83820000D01*
X151638000Y-111186000D02*
X151958000Y-111186000D01*
X156077500Y-110236000D02*
X158718000Y-110236000D01*
X151958000Y-111186000D02*
X152908000Y-110236000D01*
X147640000Y-74610000D02*
X147574000Y-74676000D01*
D32*
X147574000Y-107442000D02*
X147574000Y-102108000D01*
D33*
X151638000Y-92898000D02*
X147640000Y-92898000D01*
X151318000Y-111186000D02*
X147574000Y-107442000D01*
D32*
X147574000Y-102108000D02*
X147574000Y-87376000D01*
D33*
X151638000Y-83754000D02*
X147640000Y-83754000D01*
%TO.N,GND*%
X151638000Y-109286000D02*
X151638000Y-108204000D01*
D32*
X153802500Y-109286000D02*
X151638000Y-109286000D01*
%TO.N,/charger0/Vo-*%
X187709000Y-110120996D02*
X188720996Y-110120996D01*
X185833184Y-112903000D02*
X184785000Y-112903000D01*
X188720996Y-110120996D02*
X188836000Y-110236000D01*
X183883000Y-106667000D02*
X184531000Y-106667000D01*
D33*
X194183000Y-97663000D02*
X194183000Y-93726000D01*
D32*
X186059000Y-112270997D02*
X186059000Y-112677184D01*
D33*
X169958000Y-110236000D02*
X171704000Y-110236000D01*
X191262000Y-98806000D02*
X190255000Y-98806000D01*
X172720000Y-111252000D02*
X173469000Y-111252000D01*
X195533000Y-92376000D02*
X199136000Y-92376000D01*
D32*
X187709000Y-110120996D02*
X187059002Y-110120996D01*
X187709000Y-110620995D02*
X186559005Y-110620995D01*
D33*
X173294000Y-109474000D02*
X172466000Y-109474000D01*
X171704000Y-110236000D02*
X172720000Y-111252000D01*
X192151000Y-104521000D02*
X192151000Y-99695000D01*
D32*
X188595000Y-112395000D02*
X188595000Y-111887000D01*
D33*
X192151000Y-99695000D02*
X191262000Y-98806000D01*
X192151000Y-99695000D02*
X194183000Y-97663000D01*
D32*
X186007592Y-112728592D02*
X185833184Y-112903000D01*
X186559005Y-110620995D02*
X186309003Y-110870997D01*
X188658000Y-112458000D02*
X188595000Y-112395000D01*
D33*
X172466000Y-109474000D02*
X171704000Y-110236000D01*
D32*
X188328996Y-111620996D02*
X187709000Y-111620996D01*
X187059002Y-110120996D02*
X186898999Y-110280999D01*
X188658000Y-113665000D02*
X188658000Y-112458000D01*
D33*
X194183000Y-93726000D02*
X195533000Y-92376000D01*
D32*
X188595000Y-111887000D02*
X188328996Y-111620996D01*
X183515000Y-106299000D02*
X183883000Y-106667000D01*
X186059000Y-112677184D02*
X186007592Y-112728592D01*
X188451005Y-110620995D02*
X188836000Y-110236000D01*
X187709000Y-110620995D02*
X188451005Y-110620995D01*
D33*
X190246000Y-106426000D02*
X192151000Y-104521000D01*
%TO.N,/charger0/Vo+*%
X191770000Y-107950000D02*
X190255000Y-107950000D01*
X196342000Y-103378000D02*
X191770000Y-107950000D01*
D32*
X187709000Y-111120997D02*
X189501003Y-111120997D01*
X189501003Y-111120997D02*
X190386000Y-110236000D01*
D33*
X196342000Y-95504000D02*
X196342000Y-103378000D01*
X190255000Y-109211000D02*
X190255000Y-107950000D01*
X190386000Y-109360000D02*
X190246000Y-109220000D01*
X190386000Y-110236000D02*
X190386000Y-109360000D01*
X199136000Y-94876000D02*
X196970000Y-94876000D01*
X190246000Y-109220000D02*
X190255000Y-109211000D01*
X196970000Y-94876000D02*
X196342000Y-95504000D01*
%TO.N,/charger1/Vo-*%
X192151000Y-95377000D02*
X192151000Y-90551000D01*
X190246000Y-97282000D02*
X192151000Y-95377000D01*
X192151000Y-90551000D02*
X191262000Y-89662000D01*
X190255000Y-89662000D02*
X191262000Y-89662000D01*
X192826000Y-89876000D02*
X192151000Y-90551000D01*
X199136000Y-89876000D02*
X192826000Y-89876000D01*
%TO.N,/charger2/Vo-*%
X190255000Y-80518000D02*
X191262000Y-80518000D01*
X193294000Y-87376000D02*
X192151000Y-86233000D01*
X199136000Y-87376000D02*
X193294000Y-87376000D01*
X192151000Y-81407000D02*
X191262000Y-80518000D01*
X190246000Y-88138000D02*
X192151000Y-86233000D01*
X192151000Y-86233000D02*
X192151000Y-81407000D01*
%TO.N,/charger3/Vo-*%
X192151000Y-72263000D02*
X191262000Y-71374000D01*
X199136000Y-84876000D02*
X196255000Y-84876000D01*
X193421000Y-78359000D02*
X192151000Y-77089000D01*
X190255000Y-71374000D02*
X191262000Y-71374000D01*
X190246000Y-78994000D02*
X192151000Y-77089000D01*
X192151000Y-77089000D02*
X192151000Y-72263000D01*
X196255000Y-84876000D02*
X193421000Y-82042000D01*
X193421000Y-82042000D02*
X193421000Y-78359000D01*
%TO.N,/charger4/Vo-*%
X192151000Y-67945000D02*
X192151000Y-63119000D01*
X192151000Y-67945000D02*
X194818000Y-70612000D01*
X190246000Y-69850000D02*
X192151000Y-67945000D01*
X194818000Y-80899000D02*
X196295000Y-82376000D01*
X194818000Y-70612000D02*
X194818000Y-80899000D01*
X190255000Y-62230000D02*
X191262000Y-62230000D01*
X192151000Y-63119000D02*
X191262000Y-62230000D01*
X196295000Y-82376000D02*
X199136000Y-82376000D01*
%TO.N,/charger5/Vo-*%
X190246000Y-60706000D02*
X191897000Y-60706000D01*
X196342000Y-78994000D02*
X197224000Y-79876000D01*
X191897000Y-60706000D02*
X196342000Y-65151000D01*
X196342000Y-65151000D02*
X196342000Y-78994000D01*
X197224000Y-79876000D02*
X199136000Y-79876000D01*
%TO.N,Net-(D1-A)*%
X171574000Y-112776000D02*
X169958000Y-112776000D01*
X172336000Y-113538000D02*
X171574000Y-112776000D01*
%TO.N,Net-(D2-A)*%
X171574000Y-107696000D02*
X172336000Y-106934000D01*
X169958000Y-107696000D02*
X171574000Y-107696000D01*
D32*
%TO.N,Net-(D3-A1)*%
X179705000Y-107823000D02*
X179364000Y-107482000D01*
X180531000Y-107823000D02*
X179705000Y-107823000D01*
X179364000Y-107482000D02*
X177854000Y-107482000D01*
X177100000Y-108236000D02*
X177100000Y-108486000D01*
X177854000Y-107482000D02*
X177100000Y-108236000D01*
%TO.N,Net-(U2-PMID)*%
X185559002Y-109470998D02*
X185559002Y-108978002D01*
X185559002Y-108978002D02*
X185293000Y-108712000D01*
X185026000Y-108712000D02*
X184531000Y-108217000D01*
X185293000Y-108712000D02*
X185026000Y-108712000D01*
%TO.N,/charger0/STAT*%
X181778702Y-111633000D02*
X181356000Y-112055702D01*
X183007000Y-111633000D02*
X181778702Y-111633000D01*
X181356000Y-112903000D02*
X180975000Y-113284000D01*
X184909000Y-111120997D02*
X183519003Y-111120997D01*
X183519003Y-111120997D02*
X183007000Y-111633000D01*
X181356000Y-112055702D02*
X181356000Y-112903000D01*
%TO.N,/charger0/REGN*%
X183896000Y-112495106D02*
X183896000Y-112903000D01*
X182131000Y-110871000D02*
X182131000Y-109397000D01*
X182131000Y-109397000D02*
X182181000Y-109347000D01*
X183134000Y-110620995D02*
X182883995Y-110871000D01*
X183134000Y-110620995D02*
X184909000Y-110620995D01*
X183896000Y-112903000D02*
X183960000Y-112967000D01*
X182883995Y-110871000D02*
X182131000Y-110871000D01*
X182181000Y-107823000D02*
X182181000Y-109347000D01*
X183960000Y-112967000D02*
X183960000Y-113665000D01*
%TO.N,Net-(U2-BTST)*%
X186059000Y-109470998D02*
X186059000Y-108221000D01*
X186059000Y-108221000D02*
X186055000Y-108217000D01*
%TO.N,Net-(U2-TS)*%
X186559002Y-113153002D02*
X186559002Y-112270997D01*
X185610000Y-113665000D02*
X187008000Y-113665000D01*
X187008000Y-113665000D02*
X187008000Y-113602000D01*
X187008000Y-113602000D02*
X186559002Y-113153002D01*
%TO.N,Net-(U1-D1)*%
X156077500Y-111186000D02*
X156906000Y-111186000D01*
X156906000Y-111186000D02*
X158496000Y-112776000D01*
X158496000Y-112776000D02*
X158718000Y-112776000D01*
%TO.N,Net-(U1-D2)*%
X158496000Y-107696000D02*
X158718000Y-107696000D01*
X156077500Y-109286000D02*
X156906000Y-109286000D01*
X156906000Y-109286000D02*
X158496000Y-107696000D01*
D33*
%TO.N,/charger0/V_iso*%
X175136000Y-109416000D02*
X175194000Y-109474000D01*
X182499000Y-106553000D02*
X177419000Y-106553000D01*
X177038000Y-106934000D02*
X175136000Y-106934000D01*
X175006000Y-112268000D02*
X175019000Y-112255000D01*
X175136000Y-113538000D02*
X175136000Y-112398000D01*
X175019000Y-112255000D02*
X175019000Y-111252000D01*
X175194000Y-110403600D02*
X175194000Y-109474000D01*
X183261000Y-109093000D02*
X183261000Y-107315000D01*
X177419000Y-106553000D02*
X177038000Y-106934000D01*
X175019000Y-110578600D02*
X175194000Y-110403600D01*
X183261000Y-107315000D02*
X182499000Y-106553000D01*
X175136000Y-112398000D02*
X175006000Y-112268000D01*
X184150000Y-109982000D02*
X183261000Y-109093000D01*
D32*
X184150000Y-109982000D02*
X184288996Y-110120996D01*
X184288996Y-110120996D02*
X184909000Y-110120996D01*
D33*
X175136000Y-106934000D02*
X175136000Y-109416000D01*
X175019000Y-111252000D02*
X175019000Y-110578600D01*
D32*
%TO.N,/charger0/V_sw*%
X187059001Y-108977999D02*
X187071000Y-108966000D01*
X187071000Y-107950000D02*
X188205000Y-107950000D01*
X187071000Y-107683000D02*
X186055000Y-106667000D01*
X187059001Y-108977999D02*
X187059001Y-109470998D01*
X186559002Y-109470998D02*
X186559002Y-108969998D01*
X187071000Y-108966000D02*
X187071000Y-108077000D01*
X186559002Y-108969998D02*
X186563000Y-108966000D01*
X186563000Y-108966000D02*
X187071000Y-108966000D01*
X187071000Y-108077000D02*
X187071000Y-107683000D01*
X187071000Y-108077000D02*
X187071000Y-107950000D01*
%TO.N,Net-(U2-ICHG)*%
X183781004Y-111620996D02*
X184909000Y-111620996D01*
X183007000Y-112395000D02*
X183781004Y-111620996D01*
X182181000Y-112395000D02*
X183007000Y-112395000D01*
%TD*%
%TA.AperFunction,Conductor*%
%TO.N,/charger0/V_sw*%
G36*
X188610931Y-106954002D02*
G01*
X188631905Y-106970905D01*
X188939095Y-107278095D01*
X188973121Y-107340407D01*
X188976000Y-107367190D01*
X188976000Y-108532810D01*
X188955998Y-108600931D01*
X188939095Y-108621905D01*
X188631905Y-108929095D01*
X188569593Y-108963121D01*
X188542810Y-108966000D01*
X186763424Y-108966000D01*
X186695303Y-108945998D01*
X186648810Y-108892342D01*
X186638706Y-108822068D01*
X186662556Y-108764490D01*
X186730174Y-108674164D01*
X186730173Y-108674164D01*
X186730175Y-108674163D01*
X186778360Y-108544973D01*
X186784500Y-108487864D01*
X186784500Y-107946136D01*
X186778360Y-107889027D01*
X186730175Y-107759837D01*
X186647544Y-107649456D01*
X186647543Y-107649455D01*
X186613489Y-107623962D01*
X186570944Y-107567125D01*
X186563000Y-107523095D01*
X186563000Y-107367190D01*
X186583002Y-107299069D01*
X186599905Y-107278095D01*
X186907095Y-106970905D01*
X186969407Y-106936879D01*
X186996190Y-106934000D01*
X188542810Y-106934000D01*
X188610931Y-106954002D01*
G37*
%TD.AperFunction*%
%TD*%
%TA.AperFunction,Conductor*%
%TO.N,+5V*%
G36*
X149367931Y-66949002D02*
G01*
X149388905Y-66965905D01*
X149950095Y-67527095D01*
X149984121Y-67589407D01*
X149987000Y-67616190D01*
X149987000Y-109167810D01*
X149966998Y-109235931D01*
X149950095Y-109256905D01*
X149388905Y-109818095D01*
X149326593Y-109852121D01*
X149299810Y-109855000D01*
X146991190Y-109855000D01*
X146923069Y-109834998D01*
X146902095Y-109818095D01*
X146721905Y-109637905D01*
X146687879Y-109575593D01*
X146685000Y-109548810D01*
X146685000Y-89055999D01*
X146705002Y-88987878D01*
X146758658Y-88941385D01*
X146811000Y-88929999D01*
X147447000Y-88929999D01*
X147447000Y-88166752D01*
X147529074Y-88176000D01*
X147618926Y-88176000D01*
X147701000Y-88166752D01*
X147701000Y-88929999D01*
X148899014Y-88929999D01*
X148899022Y-88929998D01*
X148973105Y-88915262D01*
X148973107Y-88915262D01*
X149057124Y-88859124D01*
X149113262Y-88775106D01*
X149113263Y-88775105D01*
X149127999Y-88701022D01*
X149128000Y-88701015D01*
X149128000Y-87503000D01*
X148364752Y-87503000D01*
X148379062Y-87376000D01*
X148364752Y-87249000D01*
X149127999Y-87249000D01*
X149127999Y-86050986D01*
X149127998Y-86050977D01*
X149113262Y-85976894D01*
X149113262Y-85976892D01*
X149057124Y-85892875D01*
X148973106Y-85836737D01*
X148973105Y-85836736D01*
X148899022Y-85822000D01*
X147701000Y-85822000D01*
X147701000Y-86585247D01*
X147618926Y-86576000D01*
X147529074Y-86576000D01*
X147447000Y-86585247D01*
X147447000Y-85822000D01*
X146811000Y-85822000D01*
X146742879Y-85801998D01*
X146696386Y-85748342D01*
X146685000Y-85696000D01*
X146685000Y-78567787D01*
X146685792Y-78553679D01*
X146703551Y-78396068D01*
X146703551Y-78306062D01*
X146703632Y-78305077D01*
X146703551Y-78232001D01*
X146703551Y-78168684D01*
X146703478Y-78167701D01*
X146691333Y-67228996D01*
X146711259Y-67160854D01*
X146728233Y-67139766D01*
X146902096Y-66965904D01*
X146964408Y-66931879D01*
X146991191Y-66929000D01*
X149299810Y-66929000D01*
X149367931Y-66949002D01*
G37*
%TD.AperFunction*%
%TD*%
%TA.AperFunction,Conductor*%
%TO.N,/charger1/V_sw*%
G36*
X188610931Y-97810002D02*
G01*
X188631905Y-97826905D01*
X188939095Y-98134095D01*
X188973121Y-98196407D01*
X188976000Y-98223190D01*
X188976000Y-99388810D01*
X188955998Y-99456931D01*
X188939095Y-99477905D01*
X188631905Y-99785095D01*
X188569593Y-99819121D01*
X188542810Y-99822000D01*
X186763424Y-99822000D01*
X186695303Y-99801998D01*
X186648810Y-99748342D01*
X186638706Y-99678068D01*
X186662556Y-99620490D01*
X186730174Y-99530164D01*
X186730173Y-99530164D01*
X186730175Y-99530163D01*
X186778360Y-99400973D01*
X186784500Y-99343864D01*
X186784500Y-98802136D01*
X186778360Y-98745027D01*
X186730175Y-98615837D01*
X186647544Y-98505456D01*
X186647543Y-98505455D01*
X186613489Y-98479962D01*
X186570944Y-98423125D01*
X186563000Y-98379095D01*
X186563000Y-98223190D01*
X186583002Y-98155069D01*
X186599905Y-98134095D01*
X186907095Y-97826905D01*
X186969407Y-97792879D01*
X186996190Y-97790000D01*
X188542810Y-97790000D01*
X188610931Y-97810002D01*
G37*
%TD.AperFunction*%
%TD*%
%TA.AperFunction,Conductor*%
%TO.N,/charger2/V_sw*%
G36*
X188610931Y-88666002D02*
G01*
X188631905Y-88682905D01*
X188939095Y-88990095D01*
X188973121Y-89052407D01*
X188976000Y-89079190D01*
X188976000Y-90244810D01*
X188955998Y-90312931D01*
X188939095Y-90333905D01*
X188631905Y-90641095D01*
X188569593Y-90675121D01*
X188542810Y-90678000D01*
X186763424Y-90678000D01*
X186695303Y-90657998D01*
X186648810Y-90604342D01*
X186638706Y-90534068D01*
X186662556Y-90476490D01*
X186730174Y-90386164D01*
X186730173Y-90386164D01*
X186730175Y-90386163D01*
X186778360Y-90256973D01*
X186784500Y-90199864D01*
X186784500Y-89658136D01*
X186778360Y-89601027D01*
X186730175Y-89471837D01*
X186647544Y-89361456D01*
X186647543Y-89361455D01*
X186613489Y-89335962D01*
X186570944Y-89279125D01*
X186563000Y-89235095D01*
X186563000Y-89079190D01*
X186583002Y-89011069D01*
X186599905Y-88990095D01*
X186907095Y-88682905D01*
X186969407Y-88648879D01*
X186996190Y-88646000D01*
X188542810Y-88646000D01*
X188610931Y-88666002D01*
G37*
%TD.AperFunction*%
%TD*%
%TA.AperFunction,Conductor*%
%TO.N,/charger3/V_sw*%
G36*
X188610931Y-79522002D02*
G01*
X188631905Y-79538905D01*
X188939095Y-79846095D01*
X188973121Y-79908407D01*
X188976000Y-79935190D01*
X188976000Y-81100810D01*
X188955998Y-81168931D01*
X188939095Y-81189905D01*
X188631905Y-81497095D01*
X188569593Y-81531121D01*
X188542810Y-81534000D01*
X186763424Y-81534000D01*
X186695303Y-81513998D01*
X186648810Y-81460342D01*
X186638706Y-81390068D01*
X186662556Y-81332490D01*
X186730174Y-81242164D01*
X186730173Y-81242164D01*
X186730175Y-81242163D01*
X186778360Y-81112973D01*
X186784500Y-81055864D01*
X186784500Y-80514136D01*
X186778360Y-80457027D01*
X186730175Y-80327837D01*
X186647544Y-80217456D01*
X186647543Y-80217455D01*
X186613489Y-80191962D01*
X186570944Y-80135125D01*
X186563000Y-80091095D01*
X186563000Y-79935190D01*
X186583002Y-79867069D01*
X186599905Y-79846095D01*
X186907095Y-79538905D01*
X186969407Y-79504879D01*
X186996190Y-79502000D01*
X188542810Y-79502000D01*
X188610931Y-79522002D01*
G37*
%TD.AperFunction*%
%TD*%
%TA.AperFunction,Conductor*%
%TO.N,/charger4/V_sw*%
G36*
X188610931Y-70378002D02*
G01*
X188631905Y-70394905D01*
X188939095Y-70702095D01*
X188973121Y-70764407D01*
X188976000Y-70791190D01*
X188976000Y-71956810D01*
X188955998Y-72024931D01*
X188939095Y-72045905D01*
X188631905Y-72353095D01*
X188569593Y-72387121D01*
X188542810Y-72390000D01*
X186763424Y-72390000D01*
X186695303Y-72369998D01*
X186648810Y-72316342D01*
X186638706Y-72246068D01*
X186662556Y-72188490D01*
X186730174Y-72098164D01*
X186730173Y-72098164D01*
X186730175Y-72098163D01*
X186778360Y-71968973D01*
X186784500Y-71911864D01*
X186784500Y-71370136D01*
X186778360Y-71313027D01*
X186730175Y-71183837D01*
X186647544Y-71073456D01*
X186647543Y-71073455D01*
X186613489Y-71047962D01*
X186570944Y-70991125D01*
X186563000Y-70947095D01*
X186563000Y-70791190D01*
X186583002Y-70723069D01*
X186599905Y-70702095D01*
X186907095Y-70394905D01*
X186969407Y-70360879D01*
X186996190Y-70358000D01*
X188542810Y-70358000D01*
X188610931Y-70378002D01*
G37*
%TD.AperFunction*%
%TD*%
%TA.AperFunction,Conductor*%
%TO.N,/charger5/V_sw*%
G36*
X188610931Y-61234002D02*
G01*
X188631905Y-61250905D01*
X188939095Y-61558095D01*
X188973121Y-61620407D01*
X188976000Y-61647190D01*
X188976000Y-62812810D01*
X188955998Y-62880931D01*
X188939095Y-62901905D01*
X188631905Y-63209095D01*
X188569593Y-63243121D01*
X188542810Y-63246000D01*
X186763424Y-63246000D01*
X186695303Y-63225998D01*
X186648810Y-63172342D01*
X186638706Y-63102068D01*
X186662556Y-63044490D01*
X186730174Y-62954164D01*
X186730173Y-62954164D01*
X186730175Y-62954163D01*
X186778360Y-62824973D01*
X186784500Y-62767864D01*
X186784500Y-62226136D01*
X186778360Y-62169027D01*
X186730175Y-62039837D01*
X186647544Y-61929456D01*
X186647543Y-61929455D01*
X186613489Y-61903962D01*
X186570944Y-61847125D01*
X186563000Y-61803095D01*
X186563000Y-61647190D01*
X186583002Y-61579069D01*
X186599905Y-61558095D01*
X186907095Y-61250905D01*
X186969407Y-61216879D01*
X186996190Y-61214000D01*
X188542810Y-61214000D01*
X188610931Y-61234002D01*
G37*
%TD.AperFunction*%
%TD*%
M02*
