%TF.GenerationSoftware,KiCad,Pcbnew,7.0.11+dfsg-1build4*%
%TF.CreationDate,2024-08-12T23:44:42-07:00*%
%TF.ProjectId,6s_750mA,36735f37-3530-46d4-912e-6b696361645f,rev?*%
%TF.SameCoordinates,Original*%
%TF.FileFunction,Soldermask,Top*%
%TF.FilePolarity,Negative*%
%FSLAX46Y46*%
G04 Gerber Fmt 4.6, Leading zero omitted, Abs format (unit mm)*
G04 Created by KiCad (PCBNEW 7.0.11+dfsg-1build4) date 2024-08-12 23:44:42*
%MOMM*%
%LPD*%
G01*
G04 APERTURE LIST*
G04 Aperture macros list*
%AMRoundRect*
0 Rectangle with rounded corners*
0 $1 Rounding radius*
0 $2 $3 $4 $5 $6 $7 $8 $9 X,Y pos of 4 corners*
0 Add a 4 corners polygon primitive as box body*
4,1,4,$2,$3,$4,$5,$6,$7,$8,$9,$2,$3,0*
0 Add four circle primitives for the rounded corners*
1,1,$1+$1,$2,$3*
1,1,$1+$1,$4,$5*
1,1,$1+$1,$6,$7*
1,1,$1+$1,$8,$9*
0 Add four rect primitives between the rounded corners*
20,1,$1+$1,$2,$3,$4,$5,0*
20,1,$1+$1,$4,$5,$6,$7,0*
20,1,$1+$1,$6,$7,$8,$9,0*
20,1,$1+$1,$8,$9,$2,$3,0*%
G04 Aperture macros list end*
%ADD10R,0.599999X0.240000*%
%ADD11R,0.240000X0.599999*%
%ADD12R,1.679999X1.679999*%
%ADD13R,0.900000X1.500000*%
%ADD14RoundRect,0.225000X0.225000X0.250000X-0.225000X0.250000X-0.225000X-0.250000X0.225000X-0.250000X0*%
%ADD15RoundRect,0.150000X0.512500X0.150000X-0.512500X0.150000X-0.512500X-0.150000X0.512500X-0.150000X0*%
%ADD16RoundRect,0.200000X0.200000X0.275000X-0.200000X0.275000X-0.200000X-0.275000X0.200000X-0.275000X0*%
%ADD17RoundRect,0.054500X-0.860500X-0.490500X0.860500X-0.490500X0.860500X0.490500X-0.860500X0.490500X0*%
%ADD18R,1.830000X1.090000*%
%ADD19RoundRect,0.250000X0.300000X0.300000X-0.300000X0.300000X-0.300000X-0.300000X0.300000X-0.300000X0*%
%ADD20RoundRect,0.250000X0.250000X0.475000X-0.250000X0.475000X-0.250000X-0.475000X0.250000X-0.475000X0*%
%ADD21O,1.950000X1.700000*%
%ADD22RoundRect,0.250000X0.725000X-0.600000X0.725000X0.600000X-0.725000X0.600000X-0.725000X-0.600000X0*%
%ADD23RoundRect,0.250000X-0.325000X-0.450000X0.325000X-0.450000X0.325000X0.450000X-0.325000X0.450000X0*%
%ADD24RoundRect,0.200000X-0.200000X-0.275000X0.200000X-0.275000X0.200000X0.275000X-0.200000X0.275000X0*%
%ADD25RoundRect,0.225000X-0.250000X0.225000X-0.250000X-0.225000X0.250000X-0.225000X0.250000X0.225000X0*%
%ADD26RoundRect,0.225000X0.250000X-0.225000X0.250000X0.225000X-0.250000X0.225000X-0.250000X-0.225000X0*%
%ADD27RoundRect,0.250000X0.475000X-0.250000X0.475000X0.250000X-0.475000X0.250000X-0.475000X-0.250000X0*%
%ADD28C,2.600000*%
%ADD29R,2.600000X2.600000*%
G04 APERTURE END LIST*
D10*
%TO.C,U2*%
X184909000Y-110120996D03*
X184909000Y-110620995D03*
X184909000Y-111120997D03*
X184909000Y-111620996D03*
D11*
X185559002Y-112270997D03*
X186059000Y-112270997D03*
X186559002Y-112270997D03*
X187059001Y-112270997D03*
D10*
X187709000Y-111620996D03*
X187709000Y-111120997D03*
X187709000Y-110620995D03*
X187709000Y-110120996D03*
D11*
X187059001Y-109470998D03*
X186559002Y-109470998D03*
X186059000Y-109470998D03*
X185559002Y-109470998D03*
D12*
X186309003Y-110870997D03*
%TD*%
D10*
%TO.C,U4*%
X184909000Y-100976996D03*
X184909000Y-101476995D03*
X184909000Y-101976997D03*
X184909000Y-102476996D03*
D11*
X185559002Y-103126997D03*
X186059000Y-103126997D03*
X186559002Y-103126997D03*
X187059001Y-103126997D03*
D10*
X187709000Y-102476996D03*
X187709000Y-101976997D03*
X187709000Y-101476995D03*
X187709000Y-100976996D03*
D11*
X187059001Y-100326998D03*
X186559002Y-100326998D03*
X186059000Y-100326998D03*
X185559002Y-100326998D03*
D12*
X186309003Y-101726997D03*
%TD*%
D10*
%TO.C,U6*%
X184909000Y-91832996D03*
X184909000Y-92332995D03*
X184909000Y-92832997D03*
X184909000Y-93332996D03*
D11*
X185559002Y-93982997D03*
X186059000Y-93982997D03*
X186559002Y-93982997D03*
X187059001Y-93982997D03*
D10*
X187709000Y-93332996D03*
X187709000Y-92832997D03*
X187709000Y-92332995D03*
X187709000Y-91832996D03*
D11*
X187059001Y-91182998D03*
X186559002Y-91182998D03*
X186059000Y-91182998D03*
X185559002Y-91182998D03*
D12*
X186309003Y-92582997D03*
%TD*%
D10*
%TO.C,U8*%
X184909000Y-82688996D03*
X184909000Y-83188995D03*
X184909000Y-83688997D03*
X184909000Y-84188996D03*
D11*
X185559002Y-84838997D03*
X186059000Y-84838997D03*
X186559002Y-84838997D03*
X187059001Y-84838997D03*
D10*
X187709000Y-84188996D03*
X187709000Y-83688997D03*
X187709000Y-83188995D03*
X187709000Y-82688996D03*
D11*
X187059001Y-82038998D03*
X186559002Y-82038998D03*
X186059000Y-82038998D03*
X185559002Y-82038998D03*
D12*
X186309003Y-83438997D03*
%TD*%
D10*
%TO.C,U10*%
X184909000Y-73544996D03*
X184909000Y-74044995D03*
X184909000Y-74544997D03*
X184909000Y-75044996D03*
D11*
X185559002Y-75694997D03*
X186059000Y-75694997D03*
X186559002Y-75694997D03*
X187059001Y-75694997D03*
D10*
X187709000Y-75044996D03*
X187709000Y-74544997D03*
X187709000Y-74044995D03*
X187709000Y-73544996D03*
D11*
X187059001Y-72894998D03*
X186559002Y-72894998D03*
X186059000Y-72894998D03*
X185559002Y-72894998D03*
D12*
X186309003Y-74294997D03*
%TD*%
D10*
%TO.C,U12*%
X184909000Y-64400996D03*
X184909000Y-64900995D03*
X184909000Y-65400997D03*
X184909000Y-65900996D03*
D11*
X185559002Y-66550997D03*
X186059000Y-66550997D03*
X186559002Y-66550997D03*
X187059001Y-66550997D03*
D10*
X187709000Y-65900996D03*
X187709000Y-65400997D03*
X187709000Y-64900995D03*
X187709000Y-64400996D03*
D11*
X187059001Y-63750998D03*
X186559002Y-63750998D03*
X186059000Y-63750998D03*
X185559002Y-63750998D03*
D12*
X186309003Y-65150997D03*
%TD*%
D13*
%TO.C,D18*%
X178500000Y-66066000D03*
X177100000Y-66066000D03*
X178500000Y-62966000D03*
X177100000Y-62966000D03*
%TD*%
%TO.C,D15*%
X178500000Y-75210000D03*
X177100000Y-75210000D03*
X178500000Y-72110000D03*
X177100000Y-72110000D03*
%TD*%
%TO.C,D12*%
X178500000Y-84354000D03*
X177100000Y-84354000D03*
X178500000Y-81254000D03*
X177100000Y-81254000D03*
%TD*%
%TO.C,D9*%
X178500000Y-93498000D03*
X177100000Y-93498000D03*
X178500000Y-90398000D03*
X177100000Y-90398000D03*
%TD*%
%TO.C,D6*%
X178500000Y-102642000D03*
X177100000Y-102642000D03*
X178500000Y-99542000D03*
X177100000Y-99542000D03*
%TD*%
%TO.C,D3*%
X178500000Y-111786000D03*
X177100000Y-111786000D03*
X178500000Y-108686000D03*
X177100000Y-108686000D03*
%TD*%
D14*
%TO.C,C33*%
X180581000Y-74295000D03*
X182131000Y-74295000D03*
%TD*%
D15*
%TO.C,U9*%
X153802500Y-74610000D03*
X153802500Y-73660000D03*
X153802500Y-72710000D03*
X156077500Y-72710000D03*
X156077500Y-73660000D03*
X156077500Y-74610000D03*
%TD*%
D16*
%TO.C,R26*%
X180531000Y-63627000D03*
X182181000Y-63627000D03*
%TD*%
%TO.C,R10*%
X183960000Y-104521000D03*
X185610000Y-104521000D03*
%TD*%
D17*
%TO.C,TR5*%
X169958000Y-71120000D03*
X169958000Y-73660000D03*
X169958000Y-76200000D03*
X158718000Y-76200000D03*
X158718000Y-73660000D03*
D18*
X158718000Y-71120000D03*
%TD*%
D19*
%TO.C,D17*%
X172336000Y-61214000D03*
X175136000Y-61214000D03*
%TD*%
D20*
%TO.C,C9*%
X173294000Y-100330000D03*
X175194000Y-100330000D03*
%TD*%
D16*
%TO.C,R30*%
X183960000Y-67945000D03*
X185610000Y-67945000D03*
%TD*%
D21*
%TO.C,J2*%
X199136000Y-79876000D03*
X199136000Y-82376000D03*
X199136000Y-84876000D03*
X199136000Y-87376000D03*
X199136000Y-89876000D03*
X199136000Y-92376000D03*
D22*
X199136000Y-94876000D03*
%TD*%
D17*
%TO.C,TR2*%
X169958000Y-98552000D03*
X169958000Y-101092000D03*
X169958000Y-103632000D03*
X158718000Y-103632000D03*
X158718000Y-101092000D03*
D18*
X158718000Y-98552000D03*
%TD*%
D15*
%TO.C,U7*%
X153802500Y-83754000D03*
X153802500Y-82804000D03*
X153802500Y-81854000D03*
X156077500Y-81854000D03*
X156077500Y-82804000D03*
X156077500Y-83754000D03*
%TD*%
D19*
%TO.C,D1*%
X172336000Y-113538000D03*
X175136000Y-113538000D03*
%TD*%
D20*
%TO.C,C2*%
X173294000Y-109474000D03*
X175194000Y-109474000D03*
%TD*%
D19*
%TO.C,D11*%
X172336000Y-79502000D03*
X175136000Y-79502000D03*
%TD*%
D23*
%TO.C,L1*%
X190255000Y-107950000D03*
X188205000Y-107950000D03*
%TD*%
D14*
%TO.C,C12*%
X180581000Y-101727000D03*
X182131000Y-101727000D03*
%TD*%
D24*
%TO.C,R9*%
X188658000Y-104521000D03*
X187008000Y-104521000D03*
%TD*%
D23*
%TO.C,L5*%
X190255000Y-71374000D03*
X188205000Y-71374000D03*
%TD*%
D25*
%TO.C,C20*%
X186055000Y-89929000D03*
X186055000Y-88379000D03*
%TD*%
D14*
%TO.C,C24*%
X173469000Y-83820000D03*
X175019000Y-83820000D03*
%TD*%
%TO.C,C7*%
X188836000Y-110236000D03*
X190386000Y-110236000D03*
%TD*%
D26*
%TO.C,C11*%
X184531000Y-97523000D03*
X184531000Y-99073000D03*
%TD*%
%TO.C,C18*%
X184531000Y-88379000D03*
X184531000Y-89929000D03*
%TD*%
D27*
%TO.C,C15*%
X151638000Y-90998000D03*
X151638000Y-92898000D03*
%TD*%
D25*
%TO.C,C6*%
X186055000Y-108217000D03*
X186055000Y-106667000D03*
%TD*%
D17*
%TO.C,TR6*%
X169958000Y-61976000D03*
X169958000Y-64516000D03*
X169958000Y-67056000D03*
X158718000Y-67056000D03*
X158718000Y-64516000D03*
D18*
X158718000Y-61976000D03*
%TD*%
D14*
%TO.C,C21*%
X188836000Y-91948000D03*
X190386000Y-91948000D03*
%TD*%
D27*
%TO.C,C22*%
X151638000Y-81854000D03*
X151638000Y-83754000D03*
%TD*%
D14*
%TO.C,C19*%
X180581000Y-92583000D03*
X182131000Y-92583000D03*
%TD*%
D16*
%TO.C,R22*%
X180531000Y-71247000D03*
X182181000Y-71247000D03*
%TD*%
D19*
%TO.C,D8*%
X172336000Y-88646000D03*
X175136000Y-88646000D03*
%TD*%
D20*
%TO.C,C37*%
X173294000Y-63754000D03*
X175194000Y-63754000D03*
%TD*%
D15*
%TO.C,U1*%
X153802500Y-111186000D03*
X153802500Y-110236000D03*
X153802500Y-109286000D03*
X156077500Y-109286000D03*
X156077500Y-110236000D03*
X156077500Y-111186000D03*
%TD*%
%TO.C,U11*%
X153802500Y-65466000D03*
X153802500Y-64516000D03*
X153802500Y-63566000D03*
X156077500Y-63566000D03*
X156077500Y-64516000D03*
X156077500Y-65466000D03*
%TD*%
D17*
%TO.C,TR3*%
X169958000Y-89408000D03*
X169958000Y-91948000D03*
X169958000Y-94488000D03*
X158718000Y-94488000D03*
X158718000Y-91948000D03*
D18*
X158718000Y-89408000D03*
%TD*%
D27*
%TO.C,C1*%
X151638000Y-109286000D03*
X151638000Y-111186000D03*
%TD*%
D16*
%TO.C,R6*%
X180531000Y-100203000D03*
X182181000Y-100203000D03*
%TD*%
%TO.C,R20*%
X183960000Y-86233000D03*
X185610000Y-86233000D03*
%TD*%
D26*
%TO.C,C39*%
X184531000Y-60947000D03*
X184531000Y-62497000D03*
%TD*%
D14*
%TO.C,C42*%
X188836000Y-64516000D03*
X190386000Y-64516000D03*
%TD*%
D19*
%TO.C,D14*%
X172336000Y-70358000D03*
X175136000Y-70358000D03*
%TD*%
D20*
%TO.C,C23*%
X173294000Y-82042000D03*
X175194000Y-82042000D03*
%TD*%
D28*
%TO.C,J1*%
X144574000Y-92076000D03*
X141574000Y-87376000D03*
D29*
X147574000Y-87376000D03*
%TD*%
D19*
%TO.C,D4*%
X172336000Y-104394000D03*
X175136000Y-104394000D03*
%TD*%
D16*
%TO.C,R18*%
X180531000Y-84963000D03*
X182181000Y-84963000D03*
%TD*%
D24*
%TO.C,R14*%
X188658000Y-95377000D03*
X187008000Y-95377000D03*
%TD*%
D23*
%TO.C,L6*%
X190255000Y-62230000D03*
X188205000Y-62230000D03*
%TD*%
D24*
%TO.C,R4*%
X188658000Y-113665000D03*
X187008000Y-113665000D03*
%TD*%
D19*
%TO.C,D2*%
X172336000Y-106934000D03*
X175136000Y-106934000D03*
%TD*%
D14*
%TO.C,C5*%
X180581000Y-110871000D03*
X182131000Y-110871000D03*
%TD*%
D16*
%TO.C,R25*%
X183960000Y-77089000D03*
X185610000Y-77089000D03*
%TD*%
D14*
%TO.C,C26*%
X180581000Y-83439000D03*
X182131000Y-83439000D03*
%TD*%
D16*
%TO.C,R2*%
X180531000Y-107823000D03*
X182181000Y-107823000D03*
%TD*%
D25*
%TO.C,C13*%
X186055000Y-99073000D03*
X186055000Y-97523000D03*
%TD*%
D27*
%TO.C,C29*%
X151638000Y-72710000D03*
X151638000Y-74610000D03*
%TD*%
D14*
%TO.C,C31*%
X173469000Y-74676000D03*
X175019000Y-74676000D03*
%TD*%
D15*
%TO.C,U5*%
X153802500Y-92898000D03*
X153802500Y-91948000D03*
X153802500Y-90998000D03*
X156077500Y-90998000D03*
X156077500Y-91948000D03*
X156077500Y-92898000D03*
%TD*%
D16*
%TO.C,R23*%
X180531000Y-75819000D03*
X182181000Y-75819000D03*
%TD*%
%TO.C,R1*%
X180531000Y-109347000D03*
X182181000Y-109347000D03*
%TD*%
D19*
%TO.C,D10*%
X172336000Y-86106000D03*
X175136000Y-86106000D03*
%TD*%
D16*
%TO.C,R3*%
X180531000Y-112395000D03*
X182181000Y-112395000D03*
%TD*%
%TO.C,R21*%
X180531000Y-72771000D03*
X182181000Y-72771000D03*
%TD*%
D26*
%TO.C,C32*%
X184531000Y-70091000D03*
X184531000Y-71641000D03*
%TD*%
D27*
%TO.C,C36*%
X151638000Y-63566000D03*
X151638000Y-65466000D03*
%TD*%
D16*
%TO.C,R7*%
X180531000Y-98679000D03*
X182181000Y-98679000D03*
%TD*%
D25*
%TO.C,C41*%
X186055000Y-62497000D03*
X186055000Y-60947000D03*
%TD*%
D14*
%TO.C,C38*%
X173469000Y-65532000D03*
X175019000Y-65532000D03*
%TD*%
D16*
%TO.C,R12*%
X180531000Y-89535000D03*
X182181000Y-89535000D03*
%TD*%
D14*
%TO.C,C10*%
X173469000Y-102108000D03*
X175019000Y-102108000D03*
%TD*%
%TO.C,C14*%
X188836000Y-101092000D03*
X190386000Y-101092000D03*
%TD*%
D16*
%TO.C,R15*%
X183960000Y-95377000D03*
X185610000Y-95377000D03*
%TD*%
D15*
%TO.C,U3*%
X153802500Y-102042000D03*
X153802500Y-101092000D03*
X153802500Y-100142000D03*
X156077500Y-100142000D03*
X156077500Y-101092000D03*
X156077500Y-102042000D03*
%TD*%
D19*
%TO.C,D13*%
X172336000Y-76962000D03*
X175136000Y-76962000D03*
%TD*%
D14*
%TO.C,C17*%
X173469000Y-92964000D03*
X175019000Y-92964000D03*
%TD*%
D26*
%TO.C,C25*%
X184531000Y-79235000D03*
X184531000Y-80785000D03*
%TD*%
D14*
%TO.C,C3*%
X173469000Y-111252000D03*
X175019000Y-111252000D03*
%TD*%
%TO.C,C28*%
X188836000Y-82804000D03*
X190386000Y-82804000D03*
%TD*%
D16*
%TO.C,R28*%
X180531000Y-66675000D03*
X182181000Y-66675000D03*
%TD*%
D24*
%TO.C,R24*%
X188658000Y-77089000D03*
X187008000Y-77089000D03*
%TD*%
%TO.C,R19*%
X188658000Y-86233000D03*
X187008000Y-86233000D03*
%TD*%
D20*
%TO.C,C30*%
X173294000Y-72898000D03*
X175194000Y-72898000D03*
%TD*%
D25*
%TO.C,C27*%
X186055000Y-80785000D03*
X186055000Y-79235000D03*
%TD*%
D16*
%TO.C,R27*%
X180531000Y-62103000D03*
X182181000Y-62103000D03*
%TD*%
D23*
%TO.C,L3*%
X190255000Y-89662000D03*
X188205000Y-89662000D03*
%TD*%
D19*
%TO.C,D7*%
X172336000Y-95250000D03*
X175136000Y-95250000D03*
%TD*%
D25*
%TO.C,C34*%
X186055000Y-71641000D03*
X186055000Y-70091000D03*
%TD*%
D23*
%TO.C,L2*%
X190255000Y-98806000D03*
X188205000Y-98806000D03*
%TD*%
D16*
%TO.C,R5*%
X183960000Y-113665000D03*
X185610000Y-113665000D03*
%TD*%
D27*
%TO.C,C8*%
X151638000Y-100142000D03*
X151638000Y-102042000D03*
%TD*%
D16*
%TO.C,R11*%
X180531000Y-91059000D03*
X182181000Y-91059000D03*
%TD*%
D17*
%TO.C,TR4*%
X169958000Y-80264000D03*
X169958000Y-82804000D03*
X169958000Y-85344000D03*
X158718000Y-85344000D03*
X158718000Y-82804000D03*
D18*
X158718000Y-80264000D03*
%TD*%
D19*
%TO.C,D16*%
X172336000Y-67818000D03*
X175136000Y-67818000D03*
%TD*%
D20*
%TO.C,C16*%
X173294000Y-91186000D03*
X175194000Y-91186000D03*
%TD*%
D19*
%TO.C,D5*%
X172336000Y-97790000D03*
X175136000Y-97790000D03*
%TD*%
D23*
%TO.C,L4*%
X190255000Y-80518000D03*
X188205000Y-80518000D03*
%TD*%
D16*
%TO.C,R17*%
X180531000Y-80391000D03*
X182181000Y-80391000D03*
%TD*%
D17*
%TO.C,TR1*%
X169958000Y-107696000D03*
X169958000Y-110236000D03*
X169958000Y-112776000D03*
X158718000Y-112776000D03*
X158718000Y-110236000D03*
D18*
X158718000Y-107696000D03*
%TD*%
D24*
%TO.C,R29*%
X188658000Y-67945000D03*
X187008000Y-67945000D03*
%TD*%
D16*
%TO.C,R13*%
X180531000Y-94107000D03*
X182181000Y-94107000D03*
%TD*%
D14*
%TO.C,C40*%
X180581000Y-65151000D03*
X182131000Y-65151000D03*
%TD*%
%TO.C,C35*%
X188836000Y-73660000D03*
X190386000Y-73660000D03*
%TD*%
D26*
%TO.C,C4*%
X184531000Y-106667000D03*
X184531000Y-108217000D03*
%TD*%
D16*
%TO.C,R16*%
X180531000Y-81915000D03*
X182181000Y-81915000D03*
%TD*%
%TO.C,R8*%
X180531000Y-103251000D03*
X182181000Y-103251000D03*
%TD*%
M02*
