M48
; DRILL file {KiCad 7.0.11+dfsg-1build4} date Mon 12 Aug 2024 11:44:53 PM PDT
; FORMAT={-:-/ absolute / inch / decimal}
; #@! TF.CreationDate,2024-08-12T23:44:53-07:00
; #@! TF.GenerationSoftware,Kicad,Pcbnew,7.0.11+dfsg-1build4
; #@! TF.FileFunction,Plated,1,2,PTH
FMAT,2
INCH
; #@! TA.AperFunction,Plated,PTH,ComponentDrill
T1C0.0118
; #@! TA.AperFunction,Plated,PTH,ViaDrill
T2C0.0120
; #@! TA.AperFunction,Plated,PTH,ComponentDrill
T3C0.0374
; #@! TA.AperFunction,Plated,PTH,ComponentDrill
T4C0.0630
%
G90
G05
T1
X7.3118Y-2.5418
X7.3118Y-2.5882
X7.3118Y-2.9018
X7.3118Y-2.9482
X7.3118Y-3.2618
X7.3118Y-3.3082
X7.3118Y-3.6218
X7.3118Y-3.6682
X7.3118Y-3.9818
X7.3118Y-4.0282
X7.3118Y-4.3418
X7.3118Y-4.3882
X7.335Y-2.565
X7.335Y-2.925
X7.335Y-3.285
X7.335Y-3.645
X7.335Y-4.005
X7.335Y-4.365
X7.3582Y-2.5418
X7.3582Y-2.5882
X7.3582Y-2.9018
X7.3582Y-2.9482
X7.3582Y-3.2618
X7.3582Y-3.3082
X7.3582Y-3.6218
X7.3582Y-3.6682
X7.3582Y-3.9818
X7.3582Y-4.0282
X7.3582Y-4.3418
X7.3582Y-4.3882
T2
X5.97Y-2.46
X5.97Y-2.82
X5.97Y-3.18
X5.97Y-3.54
X5.97Y-3.9
X5.97Y-4.26
X6.76Y-2.54
X6.76Y-2.9
X6.76Y-3.26
X6.76Y-3.62
X6.76Y-3.98
X6.76Y-4.34
X6.9724Y-2.6674
X6.9724Y-3.0274
X6.9724Y-3.3874
X6.9724Y-3.7474
X6.9724Y-4.1074
X6.9724Y-4.4674
X7.075Y-2.595
X7.075Y-2.955
X7.075Y-3.315
X7.075Y-3.675
X7.075Y-4.035
X7.075Y-4.395
X7.21Y-2.5552
X7.21Y-2.9152
X7.21Y-3.2752
X7.21Y-3.6352
X7.21Y-3.9952
X7.21Y-4.3552
X7.225Y-2.385
X7.225Y-2.745
X7.225Y-3.105
X7.225Y-3.465
X7.225Y-3.825
X7.225Y-4.185
X7.24Y-2.6289
X7.24Y-2.9889
X7.24Y-3.3489
X7.24Y-3.7089
X7.24Y-4.0689
X7.24Y-4.4289
X7.275Y-2.645
X7.275Y-3.005
X7.275Y-3.365
X7.275Y-3.725
X7.275Y-4.085
X7.275Y-4.445
X7.425Y-2.625
X7.425Y-2.985
X7.425Y-3.345
X7.425Y-3.705
X7.425Y-4.065
X7.425Y-4.425
X7.49Y-2.39
X7.49Y-2.75
X7.49Y-3.11
X7.49Y-3.47
X7.49Y-3.83
X7.49Y-4.19
T3
X7.84Y-3.1447
X7.84Y-3.2431
X7.84Y-3.3416
X7.84Y-3.44
X7.84Y-3.5384
X7.84Y-3.6369
X7.84Y-3.7353
T4
X5.5738Y-3.44
X5.6919Y-3.625
X5.81Y-3.44
M30
